<?xml version="1.0" encoding="utf-8"?>
<!-- Generator: Adobe Illustrator 17.1.0, SVG Export Plug-In . SVG Version: 6.00 Build 0)  -->
<!DOCTYPE svg PUBLIC "-//W3C//DTD SVG 1.1//EN" "http://www.w3.org/Graphics/SVG/1.1/DTD/svg11.dtd">
<svg version="1.1" id="Layer_1" xmlns="http://www.w3.org/2000/svg" xmlns:xlink="http://www.w3.org/1999/xlink" x="0px" y="0px"
	 viewBox="0 0 57 57" enable-background="new 0 0 57 57" xml:space="preserve">
<g>
	<defs>
		<rect id="SVGID_1_" x="0" y="0" width="57" height="57"/>
	</defs>
	<clipPath id="SVGID_2_">
		<use xlink:href="#SVGID_1_"  overflow="visible"/>
	</clipPath>
	<g clip-path="url(#SVGID_2_)">
		<g>
			<rect x="-18.5" y="-4.3" fill="#00A8FF" width="102.3" height="61.7"/>
		</g>
		<g>
			<path fill="#1792DD" d="M58.6,21.2c-0.7,0-0.2-0.5-0.2-1.2v-4.7c0-0.7-0.5-1.2-1.2-1.2h-0.9c-0.7,0-1.2-0.5-1.2-1.2V8.6
				c0-0.7-0.5-1.2-1.2-1.2H42.3c-0.7,0-1.2,0.5-1.2,1.2V13c0,0.7,0,1.7,0,2.4V20c0,0.7-0.5,1.2-1.2,1.2h-6.4c-0.7,0-1.2,0.5-1.2,1.2
				V27c0,0.7-0.5,1.2-1.2,1.2H19.2c-0.7,0-1.2-0.5-1.2-1.2V14.2c0-0.7-0.5-1.2-1.2-1.2h-37.3c-0.7,0-1.2,0.5-1.2,1.2V27
				c0,0.7-0.5,1.2-1.2,1.2h-13.6c-0.7,0-1.2,0.5-1.2,1.2v22.1c0,0.7,0.5,1.2,1.2,1.2H67.1c0.7,0,1.2-0.5,1.2-1.2v-29
				c0-0.7-0.5-1.2-1.2-1.2h-7.5L58.6,21.2z"/>
		</g>
		<g>
			<rect x="16.5" y="32.4" fill="#E8E9E5" width="30.9" height="23.1"/>
			<rect x="16.5" y="36.1" fill="#525D6D" width="30.9" height="5.9"/>
			<rect x="16.5" y="36.1" opacity="0.2" fill="#FFFFFF" width="0.2" height="5.9"/>
			<rect x="16.5" y="45.4" fill="#525D6D" width="30.9" height="5.9"/>
			<polygon opacity="0.2" points="47.4,37.5 16.5,37.4 16.5,36.1 47.4,36.1 			"/>
			<rect x="16.5" y="45.1" fill="#FFFFFF" width="30.9" height="0.3"/>
			<rect x="16.5" y="51.3" fill="#FFFFFF" width="30.9" height="0.3"/>
			<rect x="16.5" y="36" fill="#FFFFFF" width="30.9" height="0.3"/>
			<polygon opacity="5.000000e-02" points="47.4,55.5 25,55.5 46.1,32.4 47.4,32.4 			"/>
			<polygon opacity="0.15" points="47.4,55.5 45.1,55.5 46.9,32.4 47.4,32.4 			"/>
			<rect x="47.4" y="27" fill="#E8E9E5" width="30.9" height="28.5"/>
			<rect x="47.4" y="27" fill="#FFFFFF" width="30.9" height="0.3"/>
			<polygon opacity="0.2" points="47.4,45.9 16.5,46.4 16.5,45.4 47.4,45.4 			"/>
			<rect x="16.5" y="50.8" opacity="0.2" width="30.9" height="0.5"/>
			<rect x="16.5" y="41.6" opacity="0.2" width="30.9" height="0.5"/>
			<g>
				<defs>
					<rect id="SVGID_3_" x="16.5" y="36.1" width="30.9" height="5.9"/>
				</defs>
				<clipPath id="SVGID_4_">
					<use xlink:href="#SVGID_3_"  overflow="visible"/>
				</clipPath>
				<polygon opacity="0.1" clip-path="url(#SVGID_4_)" fill="#FFFFFF" points="41.1,35.4 53.8,35.4 41.1,42 28.4,42 				"/>
				<polygon opacity="0.1" clip-path="url(#SVGID_4_)" fill="#FFFFFF" points="37.3,35.4 39.3,35.4 26.6,42 24.7,42 				"/>
			</g>
			<g>
				<defs>
					<rect id="SVGID_5_" x="16.5" y="45.4" width="30.9" height="5.9"/>
				</defs>
				<clipPath id="SVGID_6_">
					<use xlink:href="#SVGID_5_"  overflow="visible"/>
				</clipPath>
				<polygon opacity="0.1" clip-path="url(#SVGID_6_)" fill="#FFFFFF" points="24.3,44.7 37,44.7 24.4,51.3 11.7,51.3 				"/>
				<polygon opacity="0.1" clip-path="url(#SVGID_6_)" fill="#FFFFFF" points="20.6,44.7 22.5,44.7 9.9,51.3 7.9,51.3 				"/>
			</g>
			<rect x="16.5" y="45.4" opacity="0.2" fill="#FFFFFF" width="0.2" height="5.9"/>
			<rect x="47.4" y="33.4" fill="#525D6D" width="30.9" height="5.9"/>
			<rect x="47.4" y="33.4" opacity="0.2" fill="#FFFFFF" width="0.2" height="5.9"/>
			<rect x="47.4" y="42.7" fill="#525D6D" width="30.9" height="5.9"/>
			<polygon opacity="0.2" points="78.4,34.7 47.4,34.7 47.4,33.4 78.4,33.4 			"/>
			<rect x="47.4" y="42.4" fill="#FFFFFF" width="30.9" height="0.3"/>
			<rect x="47.4" y="48.6" fill="#FFFFFF" width="30.9" height="0.3"/>
			<rect x="47.4" y="33.2" fill="#FFFFFF" width="30.9" height="0.3"/>
			<polygon opacity="5.000000e-02" points="78.4,55.5 46.5,55.5 71.2,27 78.4,27 			"/>
			<polygon opacity="0.2" points="78.4,43.2 47.4,43.6 47.4,42.7 78.4,42.7 			"/>
			<rect x="47.4" y="48.1" opacity="0.2" width="30.9" height="0.5"/>
			<rect x="47.4" y="38.8" opacity="0.2" width="30.9" height="0.5"/>
			<g>
				<defs>
					<rect id="SVGID_7_" x="47.4" y="33.4" width="30.9" height="5.9"/>
				</defs>
				<clipPath id="SVGID_8_">
					<use xlink:href="#SVGID_7_"  overflow="visible"/>
				</clipPath>
				<polygon opacity="0.1" clip-path="url(#SVGID_8_)" fill="#FFFFFF" points="80.6,32.7 93.3,32.7 80.6,39.3 67.9,39.3 				"/>
				<polygon opacity="0.1" clip-path="url(#SVGID_8_)" fill="#FFFFFF" points="76.8,32.7 78.8,32.7 66.1,39.3 64.2,39.3 				"/>
			</g>
			<g>
				<defs>
					<rect id="SVGID_9_" x="47.4" y="42.7" width="30.9" height="5.9"/>
				</defs>
				<clipPath id="SVGID_10_">
					<use xlink:href="#SVGID_9_"  overflow="visible"/>
				</clipPath>
				<polygon opacity="0.1" clip-path="url(#SVGID_10_)" fill="#FFFFFF" points="63.8,42 76.5,42 63.9,48.6 51.2,48.6 				"/>
				<polygon opacity="0.1" clip-path="url(#SVGID_10_)" fill="#FFFFFF" points="60.1,42 62,42 49.4,48.6 47.4,48.6 				"/>
			</g>
			<rect x="47.4" y="42.7" opacity="0.2" fill="#FFFFFF" width="0.2" height="5.9"/>
		</g>
		<g>
			<g>
				<path id="Bush_5_" fill="#4C9300" d="M36.1,50.3c0.1-3.3,2.8-6,6.2-6c2.9,0,5.3,1.9,6,4.6c3.1,0.3,5.7,2.4,5.7,5.5
					c0,1.7-0.6,3.8-2.5,4.5l-21.1,0c0,0-0.3-1.2-0.3-2.5C30.1,53.2,32.8,50.4,36.1,50.3z"/>
				<path id="Bush_4_" opacity="0.1" enable-background="new    " d="M38.8,50.3c-0.1-3.3-2.8-6-6.2-6c-2.9,0-5.3,1.9-6,4.6
					c-3.1,0.3-5.7,2.4-5.7,5.5c0,1.7,0.6,3.8,2.5,4.5l21.1,0c0,0,0.3-1.2,0.3-2.5C44.8,53.2,42.1,50.4,38.8,50.3z"/>
				<path fill="#86E200" d="M37.6,50.3c-0.1-3.3-2.8-6-6.2-6c-1.3,0-2.5,0.4-3.5,1.1c-0.9-1.3-2.4-2.2-4.1-2.2
					c-2.7,0-4.9,2.2-4.9,4.9c0,1.4,0.6,2.7,1.6,3.6c-0.5,0.8-0.8,1.7-0.8,2.7c0,1.7,0.6,3.8,2.5,4.5l21.1,0c0,0,0.3-1.2,0.3-2.5
					C43.6,53.2,40.9,50.4,37.6,50.3z"/>
				<ellipse opacity="0.1" enable-background="new    " cx="32.5" cy="56.6" rx="5.4" ry="3.6"/>
				<ellipse fill="#6CCC00" cx="32.2" cy="55.5" rx="5.1" ry="4.4"/>
				<ellipse opacity="0.1" enable-background="new    " cx="25.2" cy="56.6" rx="5.2" ry="3.6"/>
				<ellipse fill="#6CCC00" cx="25.2" cy="56.1" rx="5.1" ry="3.6"/>
				<ellipse opacity="0.1" enable-background="new    " cx="32.5" cy="56.6" rx="5.4" ry="3.6"/>
				<ellipse fill="#86E200" cx="32.2" cy="55.5" rx="5.1" ry="4.4"/>
				<ellipse opacity="0.1" enable-background="new    " cx="39.4" cy="56.4" rx="6.4" ry="3.8"/>
				<ellipse fill="#86E200" cx="39.3" cy="56.1" rx="6" ry="4.1"/>
				<ellipse fill="#6CCC00" cx="25.2" cy="56.1" rx="5.1" ry="3.6"/>
				<ellipse fill="#86E200" cx="25.2" cy="56.1" rx="5.1" ry="3.6"/>
				<ellipse fill="#6CCC00" cx="3.2" cy="56.2" rx="5.1" ry="4.4"/>
				<path opacity="5.000000e-02" enable-background="new    " d="M31.2,53.2c0-4.4-3.6-7.2-7.9-7.7c-1-3.6-4.3-6.3-8.2-6.3
					c-4.6,0-8.4,3.7-8.5,8.3C2,47.7-1.7,51.4-1.7,56c0,1.8,1.4,3,1.4,3l11.9,0.5c1.9,1.1,4.9,1.9,8.4,1.9
					C27.8,61.3,31.2,57.8,31.2,53.2z"/>
				<path opacity="0.1" enable-background="new    " d="M22.4,45.2c-1-3.6-4.2-6.3-8.2-6.3c-4.6,0-8.3,3.7-8.4,8.2
					c-4.6,0.1-8.2,3.9-8.2,8.4c0,0.2,0,0.4,0.1,0.6c0,0,0,0,0,0c0,2.4,2.3,4.4,5.1,4.4c1.6,0,3-0.6,3.9-1.6h4.1
					c1.9,1.1,4.9,1.9,8.3,1.9c7.8,0,11.1-3.5,11.1-8.1C30.2,48.4,26.6,45.6,22.4,45.2z"/>
				<path fill="#6CCC00" d="M30.7,52.8c0-4.3-3.6-7.1-7.8-7.6c-1-3.6-4.2-6.3-8.2-6.3c-4.6,0-8.3,3.7-8.4,8.2
					c-4.6,0.1-8.2,3.9-8.2,8.4c0,1.8,1.7,3.4,1.7,3.4l11.5,0c1.9,1.1,4.9,1.9,8.3,1.9C27.3,60.8,30.7,57.3,30.7,52.8z"/>
				<ellipse fill="#6CCC00" cx="3.2" cy="56.2" rx="5.1" ry="4.4"/>
				<ellipse opacity="0.1" enable-background="new    " cx="10.3" cy="57.3" rx="5.2" ry="3.6"/>
				<ellipse fill="#6CCC00" cx="10.2" cy="56.9" rx="5.1" ry="3.6"/>
				<path opacity="0.1" enable-background="new    " d="M3.6,52.9c0-1.8-2-3.3-3.9-2.8c-0.1-3.3-2.8-6-6.2-6c-1.3,0-2.5,0.4-3.5,1.1
					c-0.9-1.3-2.4-2.2-4.1-2.2c-2.7,0-4.9,2.2-4.9,4.9c0,1.4,0.6,2.7,1.6,3.6c-0.5,0.8-0.8,1.7-0.8,2.7c0,1.7,0.6,3.8,2.5,4.5l6.9,0
					c0.9,0.5,1.9,0.9,3.1,0.9c1.1,0,2.1-0.3,2.9-0.8c1.1,0.7,2.5,1.1,4.2,1.1c3.3,0,5.5-1.6,5.6-3.8C7.2,54.4,6.1,52.8,3.6,52.9z"/>
				<path fill="#86E200" d="M3.2,53.2c0-1.8-2-3.3-3.9-2.8c-0.1-3.3-2.8-6-6.2-6c-1.3,0-2.5,0.4-3.5,1.1c-0.9-1.3-2.4-2.2-4.1-2.2
					c-2.7,0-4.9,2.2-4.9,4.9c0,1.4,0.6,2.7,1.6,3.6c-0.5,0.8-0.8,1.7-0.8,2.7c0,1.7,0.6,3.8,2.5,4.5l6.9,0c0.9,0.5,1.9,0.9,3.1,0.9
					c1.1,0,2.1-0.3,2.9-0.8c1.1,0.7,2.5,1.1,4.2,1.1c3.3,0,5.5-1.6,5.6-3.8C6.8,54.6,5.7,53,3.2,53.2z"/>
			</g>
			<g>
				<path id="Bush_3_" opacity="0.1" enable-background="new    " d="M69,50.3c0.1-3.3,2.8-6,6.2-6c2.9,0,5.3,1.9,6,4.6
					c3.1,0.3,5.7,2.4,5.7,5.5c0,1.7-0.6,3.8-2.5,4.5l-21.1,0c0,0-0.3-1.2-0.3-2.5C63,53.2,65.7,50.4,69,50.3z"/>
				<path id="Bush_2_" fill="#6CCC00" d="M67.8,50.3c0.1-3.3,2.8-6,6.2-6c2.9,0,5.3,1.9,6,4.6c3.1,0.3,5.7,2.4,5.7,5.5
					c0,1.7-0.6,3.8-2.5,4.5L62,59c0,0-0.3-1.2-0.3-2.5C61.8,53.2,64.4,50.4,67.8,50.3z"/>
				<path opacity="0.1" enable-background="new    " d="M72,51.7c-0.9-2.1-2.5-4.4-6.3-4.5c-0.1-4.6-3.8-8.2-8.4-8.2
					c-3.9,0-7.2,2.7-8.2,6.3c-4.2,0.5-7.8,3.2-7.8,7.6c0,2.3,0.8,5.2,3.4,6.2L63,58.8c1.2,1.1,2.9,1.9,4.9,1.9
					c3.5,0,6.3-2.3,6.3-5.2C74.2,54.7,74.5,53.2,72,51.7z"/>
				<path opacity="0.1" enable-background="new    " d="M71.8,55.6c0-4.6-3.7-8.3-8.2-8.4c-0.1-4.6-3.8-8.2-8.4-8.2
					c-3.9,0-6.7,2.4-7.6,6c-4.2,0.5-7.9,3.8-8.4,7.9C38.7,58,41.5,60,44.6,60c2.4,0,4.6-0.4,5.4-1l21.4,0
					C71.5,59,71.8,57.4,71.8,55.6z"/>
				<path id="Bush_1_" fill="#6CCC00" d="M64.6,47.1c-0.1-4.6-3.8-8.2-8.4-8.2c-3.9,0-7.2,2.7-8.2,6.3c-4.2,0.5-9.3,4.3-8.2,9.9
					c0.4,2.3,0.2,2.7,2.7,3.7L72.5,59c0,0,0.3-1.6,0.3-3.4C72.8,51,69.2,47.3,64.6,47.1z"/>
			</g>
			<ellipse fill="#6CCC00" cx="44.9" cy="55.3" rx="5.1" ry="4.4"/>
			<ellipse fill="#6CCC00" cx="45.9" cy="55.3" rx="6.1" ry="4.4"/>
			<ellipse opacity="0.1" enable-background="new    " cx="52" cy="56.4" rx="5.2" ry="3.6"/>
			<ellipse fill="#6CCC00" cx="51.9" cy="56" rx="5.1" ry="3.6"/>
			<ellipse fill="#6CCC00" cx="67.7" cy="55.4" rx="6.2" ry="4.9"/>
			<ellipse fill="#6CCC00" cx="67.7" cy="55.4" rx="6.2" ry="4.9"/>
			<ellipse opacity="0.1" enable-background="new    " cx="59.2" cy="56.6" rx="6.2" ry="4"/>
			<ellipse fill="#6CCC00" cx="59.2" cy="56.1" rx="6.2" ry="4"/>
		</g>
		<path fill="#FFFFFF" d="M2.1,7.9c-0.2,0-0.4,0-0.6,0.1c0-0.1,0-0.1,0-0.2C1.5,6,0,4.5-1.7,4.5c-1.5,0-2.7,1-3.1,2.4
			c-0.4-0.3-1-0.4-1.5-0.4c-1.5,0-2.7,1.1-2.8,2.6c-0.3-0.1-0.7-0.2-1-0.2c-1.4,0-2.6,1.2-2.6,2.6c0,1.3,1,2.4,2.3,2.6v0H2l0,0
			c0,0,0.1,0,0.1,0c1.7,0,3.1-1.4,3.1-3.1S3.8,7.9,2.1,7.9z"/>
		<g>
			<g>
				<defs>
					<rect id="SVGID_11_" x="-26.7" y="-2.9" width="94.7" height="61.4"/>
				</defs>
				<clipPath id="SVGID_12_">
					<use xlink:href="#SVGID_11_"  overflow="visible"/>
				</clipPath>
			</g>
			<g>
				<g>
					<defs>
						<rect id="SVGID_13_" x="-26.7" y="-2.6" width="94.7" height="61.4"/>
					</defs>
					<clipPath id="SVGID_14_">
						<use xlink:href="#SVGID_13_"  overflow="visible"/>
					</clipPath>
				</g>
				<g>
					<g>
						<defs>
							<rect id="SVGID_15_" x="-26.7" y="-2.6" width="94.7" height="61.4"/>
						</defs>
						<clipPath id="SVGID_16_">
							<use xlink:href="#SVGID_15_"  overflow="visible"/>
						</clipPath>
					</g>
					<g>
						<g>
							<defs>
								<rect id="SVGID_17_" x="-26.7" y="-2.6" width="94.7" height="61.4"/>
							</defs>
							<clipPath id="SVGID_18_">
								<use xlink:href="#SVGID_17_"  overflow="visible"/>
							</clipPath>
						</g>
						<g>
							<g>
								<defs>
									<rect id="SVGID_19_" x="-26.7" y="-2.6" width="94.7" height="61.4"/>
								</defs>
								<clipPath id="SVGID_20_">
									<use xlink:href="#SVGID_19_"  overflow="visible"/>
								</clipPath>
							</g>
							<g>
								<g>
									<defs>
										<rect id="SVGID_21_" x="-26.7" y="-2.6" width="94.7" height="61.4"/>
									</defs>
									<clipPath id="SVGID_22_">
										<use xlink:href="#SVGID_21_"  overflow="visible"/>
									</clipPath>
								</g>
								<g>
									<g>
										<defs>
											<rect id="SVGID_23_" x="-26.7" y="-2.6" width="94.7" height="61.4"/>
										</defs>
										<clipPath id="SVGID_24_">
											<use xlink:href="#SVGID_23_"  overflow="visible"/>
										</clipPath>
									</g>
									<g>
										<g>
											<defs>
												<rect id="SVGID_25_" x="-26.7" y="-2.6" width="94.7" height="61.4"/>
											</defs>
											<clipPath id="SVGID_26_">
												<use xlink:href="#SVGID_25_"  overflow="visible"/>
											</clipPath>
										</g>
										<g>
											<g>
												<defs>
													<rect id="SVGID_27_" x="-26.7" y="-2.6" width="94.7" height="61.4"/>
												</defs>
												<clipPath id="SVGID_28_">
													<use xlink:href="#SVGID_27_"  overflow="visible"/>
												</clipPath>
											</g>
											<g>
												<g>
													<defs>
														<rect id="SVGID_29_" x="-26.7" y="-2.6" width="94.7" height="61.4"/>
													</defs>
													<clipPath id="SVGID_30_">
														<use xlink:href="#SVGID_29_"  overflow="visible"/>
													</clipPath>
													<g clip-path="url(#SVGID_30_)">
														<g>
															<path fill="#FFCD00" d="M23.4,50.3H-9.7V20.6c0-2.8,2.2-5,5-5h23.2c2.8,0,5,2.2,5,5V50.3z"/>
															<path fill="#FDC12D" d="M23.4,50.3H6.7V15.6h11.8c2.8,0,5,2.2,5,5V50.3z"/>
															<g>
																<path fill="#FFFFCD" d="M5,19.7c0,0.7,0.5,1.2,1.2,1.2h1.4c0.7,0,1.2-0.5,1.2-1.2v-0.8c0-0.7-0.5-1.2-1.2-1.2H6.2
																	c-0.7,0-1.2,0.5-1.2,1.2V19.7z"/>
															</g>
															<g>
																<path fill="#F6F5C8" d="M5.9,20.8h2c0.5,0,0.9-0.4,0.9-0.9v-1.3c0-0.5-0.4-0.9-0.9-0.9h0c-0.1,0-0.2,0.1-0.3,0.2
																	L5.9,20.8z"/>
															</g>
															<path fill="#004B9F" d="M-7.6,41.6h28.9V26.1c0-1.8-1.4-3.2-3.2-3.2H-4.4c-1.8,0-3.2,1.4-3.2,3.2V41.6z"/>
															<path fill="#063B88" d="M6.7,41.6h14.7V26.1c0-1.8-1.4-3.2-3.2-3.2H6.7V41.6z"/>
															<circle fill="#FFFFFF" cx="-4.3" cy="27.4" r="1.5"/>
															<circle fill="#FFFFFF" cx="-2.3" cy="25.5" r="0.4"/>
															<path fill="#FFFFCD" d="M-2.9,48.6h-6.7v-4.3h6.7c0.4,0,0.7,0.3,0.7,0.7v2.9C-2.2,48.3-2.5,48.6-2.9,48.6z"/>
															<path fill="#F6F5C8" d="M-2.9,48.6h-4.2l3.4-4.3h0.8c0.4,0,0.7,0.3,0.7,0.7v2.9C-2.2,48.3-2.5,48.6-2.9,48.6z"/>
															<rect x="-9.7" y="44.3" fill="#FF6C00" width="2.1" height="4.3"/>
															<path fill="#FFFFCD" d="M16.7,48.6h6.7v-4.3h-6.7c-0.4,0-0.7,0.3-0.7,0.7v2.9C16,48.3,16.3,48.6,16.7,48.6z"/>
															<rect x="21.4" y="44.3" fill="#FF6C00" width="2.1" height="4.3"/>
															<path fill="#C19F25" d="M21.5,54.9H-7.7c-1.1,0-2-0.9-2-2v-2.6h33.1V53C23.4,54,22.6,54.9,21.5,54.9z"/>
															<path fill="#B3882B" d="M21.5,54.9H6.7v-4.6h16.8V53C23.4,54,22.6,54.9,21.5,54.9z"/>
															<g>
																<path opacity="0.2" enable-background="new    " d="M7,46.1L5.6,47L7,47.8L8.4,47L7,46.1z M6.3,47L7,46.5L7.7,47
																	L7,47.4L6.3,47z"/>
																<g opacity="0.2">
																	<polygon points="6.3,46.2 7,45.7 7.7,46.2 7.5,46.3 7.9,46.5 8.4,46.2 7,45.3 5.6,46.2 6.1,46.5 6.4,46.3 
																																			"/>
																</g>
																<path fill="#FFFFFF" d="M6.9,46l-1.4,0.9l1.4,0.9l1.4-0.9L6.9,46z M6.2,46.9l0.7-0.5l0.7,0.5l-0.7,0.5L6.2,46.9z"/>
																<g>
																	<polygon fill="#FFFFFF" points="6.2,46 6.9,45.6 7.6,46 7.4,46.2 7.8,46.4 8.3,46 6.9,45.2 5.5,46 6,46.4 
																		6.3,46.2 																	"/>
																</g>
															</g>
															<path fill="#2D4049" d="M-3,58.9h-1.2c-1,0-1.7-0.8-1.7-1.7v-2.2h4.7v2.2C-1.2,58.1-2,58.9-3,58.9z"/>
															<path fill="#2D4049" d="M18,58.9h-1.2c-1,0-1.7-0.8-1.7-1.7v-2.2h4.7v2.2C19.7,58.1,19,58.9,18,58.9z"/>
															<rect x="15" y="54.9" fill="#1F2D32" width="4.7" height="1"/>
															<rect x="-5.9" y="54.9" fill="#1F2D32" width="4.7" height="1"/>
															<polygon fill="#F6F5C8" points="17.2,48.6 21.4,48.6 21.4,44.3 20.6,44.3 															"/>
														</g>
													</g>
												</g>
												<g>
													<g>
														<defs>
															<rect id="SVGID_31_" x="-26.7" y="-2.6" width="94.7" height="61.4"/>
														</defs>
														<clipPath id="SVGID_32_">
															<use xlink:href="#SVGID_31_"  overflow="visible"/>
														</clipPath>
														<g opacity="0.1" clip-path="url(#SVGID_32_)">
															<path d="M22.8,27.8c0,0.9,0.2,1.8,0.7,2.6v-5.2C23,25.9,22.8,26.8,22.8,27.8z"/>
														</g>
													</g>
													<g>
														<g>
															<defs>
																<rect id="SVGID_33_" x="-26.7" y="-2.6" width="94.7" height="61.4"/>
															</defs>
															<clipPath id="SVGID_34_">
																<use xlink:href="#SVGID_33_"  overflow="visible"/>
															</clipPath>
															<rect x="29.4" y="25.1" clip-path="url(#SVGID_34_)" fill="#2D4049" width="0.8" height="33.8"/>
														</g>
														<g>
															<g>
																<defs>
																	<rect id="SVGID_35_" x="-26.7" y="-2.6" width="94.7" height="61.4"/>
																</defs>
																<clipPath id="SVGID_36_">
																	<use xlink:href="#SVGID_35_"  overflow="visible"/>
																</clipPath>
																<rect x="29.8" y="25.1" clip-path="url(#SVGID_36_)" fill="#1F2D32" width="0.4" height="33.8"/>
															</g>
															<g>
																<g>
																	<defs>
																		<rect id="SVGID_37_" x="-26.7" y="-2.6" width="94.7" height="61.4"/>
																	</defs>
																	<clipPath id="SVGID_38_">
																		<use xlink:href="#SVGID_37_"  overflow="visible"/>
																	</clipPath>
																	<g clip-path="url(#SVGID_38_)">
																		<path fill="#D40049" d="M29.7,33.7c-3.3,0-5.9-2.7-5.9-5.9s2.7-5.9,5.9-5.9s5.9,2.7,5.9,5.9S33,33.7,29.7,33.7z"
																			/>
																		<path fill="#FFFFFF" d="M29.7,22.4c3,0,5.3,2.4,5.3,5.3s-2.4,5.3-5.3,5.3s-5.3-2.4-5.3-5.3S26.8,22.4,29.7,22.4
																			 M29.7,21.3c-3.6,0-6.5,2.9-6.5,6.5s2.9,6.5,6.5,6.5c3.6,0,6.5-2.9,6.5-6.5S33.3,21.3,29.7,21.3L29.7,21.3z"/>
																	</g>
																</g>
																<g>
																	<g>
																		<defs>
																			<rect id="SVGID_39_" x="-26.7" y="-2.6" width="94.7" height="61.4"/>
																		</defs>
																		<clipPath id="SVGID_40_">
																			<use xlink:href="#SVGID_39_"  overflow="visible"/>
																		</clipPath>
																		<g opacity="0.1" clip-path="url(#SVGID_40_)">
																			<path d="M30.9,27.7c-0.4,0-0.6,0.3-0.6,0.6v0.1h0.3v-0.1c0-0.2,0.1-0.3,0.3-0.3c0.2,0,0.3,0.1,0.3,0.3v0.1h0.3
																				v-0.1C31.5,28,31.2,27.7,30.9,27.7z"/>
																		</g>
																	</g>
																	<g>
																		<g>
																			<defs>
																				<rect id="SVGID_41_" x="-26.7" y="-2.6" width="94.7" height="61.4"/>
																			</defs>
																			<clipPath id="SVGID_42_">
																				<use xlink:href="#SVGID_41_"  overflow="visible"/>
																			</clipPath>
																			<g clip-path="url(#SVGID_42_)">
																				<path fill="#FFFFFF" d="M30.7,27.5c-0.4,0-0.6,0.3-0.6,0.6v0.1h0.3v-0.1c0-0.2,0.1-0.3,0.3-0.3s0.3,0.1,0.3,0.3
																					v0.1h0.3v-0.1C31.4,27.8,31.1,27.5,30.7,27.5z"/>
																			</g>
																		</g>
																		<g>
																			<g>
																				<defs>
																					<rect id="SVGID_43_" x="-26.7" y="-2.6" width="94.7" height="61.4"/>
																				</defs>
																				<clipPath id="SVGID_44_">
																					<use xlink:href="#SVGID_43_"  overflow="visible"/>
																				</clipPath>
																				<g id="Shadow_1_" clip-path="url(#SVGID_44_)">
																					<path fill="#C00C47" d="M29.7,33.1c3,0,5.3-2.4,5.3-5.3s-2.4-5.3-5.3-5.3V33.1z"/>
																				</g>
																			</g>
																			<g>
																				<g>
																					<defs>
																						<rect id="SVGID_45_" x="-26.7" y="-2.6" width="94.7" height="61.4"/>
																					</defs>
																					<clipPath id="SVGID_46_">
																						<use xlink:href="#SVGID_45_"  overflow="visible"/>
																					</clipPath>
																					<path clip-path="url(#SVGID_46_)" fill="#AC0B3F" d="M31.8,24.8h-3.6c-0.3,0-0.6,0.3-0.6,0.6v0.8v2.2v1.4
																						c0,0.2,0.1,0.4,0.4,0.5v0.5c0,0.1,0.1,0.3,0.3,0.3h0.3c0.1,0,0.3-0.1,0.3-0.3v-0.5h2.4v0.5
																						c0,0.1,0.1,0.3,0.3,0.3h0.3c0.1,0,0.3-0.1,0.3-0.3v-0.6c0.2-0.1,0.4-0.3,0.4-0.5v-1.4v-2.2v-0.8
																						C32.3,25.1,32.1,24.8,31.8,24.8z M28,25.4c0-0.1,0.1-0.2,0.2-0.2h3.6c0.1,0,0.2,0.1,0.2,0.2v0.3
																						c-0.1,0-0.1,0-0.2,0h-3.6c-0.1,0-0.1,0-0.2,0V25.4z M28.4,29.9c-0.2,0-0.4-0.2-0.4-0.4s0.2-0.4,0.4-0.4
																						c0.2,0,0.4,0.2,0.4,0.4C28.7,29.7,28.6,29.9,28.4,29.9z M28.2,28.6c-0.1,0-0.2-0.1-0.2-0.2v-2.2
																						c0-0.1,0.1-0.2,0.2-0.2h3.6c0.1,0,0.2,0.1,0.2,0.2v2.2c0,0.1-0.1,0.2-0.2,0.2H28.2z M31.6,29.9
																						c-0.2,0-0.4-0.2-0.4-0.4s0.2-0.4,0.4-0.4s0.4,0.2,0.4,0.4S31.8,29.9,31.6,29.9z"/>
																				</g>
																				<g>
																					<g>
																						<defs>
																							<rect id="SVGID_47_" x="-26.7" y="-2.6" width="94.7" height="61.4"/>
																						</defs>
																						<clipPath id="SVGID_48_">
																							<use xlink:href="#SVGID_47_"  overflow="visible"/>
																						</clipPath>
																						<path clip-path="url(#SVGID_48_)" fill="#FFFFFF" d="M31.6,24.7h-3.6c-0.3,0-0.6,0.3-0.6,0.6V26v2.2v1.4
																							c0,0.2,0.1,0.4,0.4,0.5v0.5c0,0.1,0.1,0.3,0.3,0.3h0.3c0.1,0,0.3-0.1,0.3-0.3v-0.5H31v0.5
																							c0,0.1,0.1,0.3,0.3,0.3h0.3c0.1,0,0.3-0.1,0.3-0.3v-0.6c0.2-0.1,0.4-0.3,0.4-0.5v-1.4V26v-0.8
																							C32.2,24.9,31.9,24.7,31.6,24.7z M27.8,25.2c0-0.1,0.1-0.2,0.2-0.2h3.6c0.1,0,0.2,0.1,0.2,0.2v0.3
																							c-0.1,0-0.1,0-0.2,0h-3.6c-0.1,0-0.1,0-0.2,0V25.2z M28.2,29.7c-0.2,0-0.4-0.2-0.4-0.4c0-0.2,0.2-0.4,0.4-0.4
																							s0.4,0.2,0.4,0.4C28.6,29.5,28.4,29.7,28.2,29.7z M28.1,28.5c-0.1,0-0.2-0.1-0.2-0.2V26
																							c0-0.1,0.1-0.2,0.2-0.2h3.6c0.1,0,0.2,0.1,0.2,0.2v2.2c0,0.1-0.1,0.2-0.2,0.2H28.1z M31.4,29.7
																							c-0.2,0-0.4-0.2-0.4-0.4c0-0.2,0.2-0.4,0.4-0.4c0.2,0,0.4,0.2,0.4,0.4C31.8,29.5,31.7,29.7,31.4,29.7z"/>
																					</g>
																				</g>
																			</g>
																		</g>
																	</g>
																</g>
															</g>
														</g>
													</g>
												</g>
											</g>
										</g>
									</g>
								</g>
							</g>
						</g>
					</g>
				</g>
			</g>
		</g>
		<path fill="#FFFFFF" d="M25.6,5.9L25.6,5.9L25.6,5.9c0-0.8-0.6-1.4-1.4-1.4c-0.6,0-1.1,0.4-1.3,0.9c-0.2-0.1-0.3-0.2-0.5-0.2
			c-0.5,0-1,0.4-1,1c0,0,0,0.1,0,0.1c-0.1-0.1-0.3-0.1-0.5-0.1c-0.6,0-1,0.5-1,1s0.5,1,1,1l0,0h4.7c0.7,0,1.2-0.6,1.2-1.2
			C26.9,6.4,26.3,5.9,25.6,5.9z"/>
		<g>
			<circle fill="#FFCD00" cx="49.1" cy="12" r="3.9"/>
			<path fill="#F1C22C" d="M45.9,14.3c0.7,1,1.9,1.6,3.2,1.6c2.2,0,3.9-1.7,3.9-3.9c0-0.3,0-0.5-0.1-0.8c-0.5-0.4-1.1-0.6-1.8-0.6
				c-1.5,0-2.8,1.2-2.8,2.7c0,0.1,0,0.1,0,0.2c-0.2,0-0.4-0.1-0.5-0.1C47.1,13.5,46.4,13.8,45.9,14.3z"/>
			<path fill="#FFFFFF" d="M45.5,16.4c0,1.4,1.1,2.6,2.6,2.6c0,0,0.1,0,0.1,0v0h10.5v0c1.1-0.1,1.9-1,1.9-2.1c0-1.2-1-2.2-2.2-2.2
				c-0.3,0-0.6,0.1-0.9,0.2c-0.1-1.2-1.1-2.2-2.4-2.2c-0.5,0-0.9,0.1-1.3,0.4c-0.3-1.2-1.4-2-2.6-2c-1.5,0-2.7,1.2-2.7,2.7
				c0,0.1,0,0.1,0,0.2c-0.2,0-0.3-0.1-0.5-0.1C46.7,13.8,45.5,15,45.5,16.4z"/>
		</g>
	</g>
</g>
</svg>
