<?xml version="1.0" encoding="utf-8"?>
<!-- Generator: Adobe Illustrator 17.1.0, SVG Export Plug-In . SVG Version: 6.00 Build 0)  -->
<!DOCTYPE svg PUBLIC "-//W3C//DTD SVG 1.1//EN" "http://www.w3.org/Graphics/SVG/1.1/DTD/svg11.dtd">
<svg version="1.1" id="Layer_1" xmlns="http://www.w3.org/2000/svg" xmlns:xlink="http://www.w3.org/1999/xlink" x="0px" y="0px"
	 viewBox="0 0 652.8 938.2" enable-background="new 0 0 652.8 938.2" xml:space="preserve">
<g>
	<path fill="#A7A9AC" d="M435.9,34.6c0,0,0.3,0.1,0.6,0.2C436.4,34.8,436.3,34.7,435.9,34.6z"/>
	<path fill="#A7A9AC" d="M436.5,34.8C436.9,35,436.8,34.9,436.5,34.8L436.5,34.8z"/>
	<path opacity="0.2" d="M435.9,34.6c-0.1,0-0.2-0.1-0.3-0.1c0.2,0.1,1.7,0.6,0,0c-0.2-0.1-0.5-0.2-0.8-0.3c-1.1-0.4-2.4-0.9-2.3-0.8
		l0.5,0.2c0,0-0.1,0-0.1,0C389.8,19,131.4-57,38.6,189.4c-85.5,226.9,98.6,567.9,98.6,567.9s0,0,0,0l-0.6-0.2l-64.4,53.2l3.2,2.7
		l0,0l-3.3-2.7l-29.2,79.2l53.6,48.8l74.4-0.6l29.8-79l-17-83.9c0,0,363-135.1,448.5-362.1C724.7,166.8,478.8,52.5,435.9,34.6z
		 M145.4,820.1l19.5-52.3l-1.3-0.5l0,0l15.1,5.7l17.8,82.9L145.4,820.1z M140.1,758.4L140.1,758.4c0.8,0.3,1.7,0.6,2.6,1l0,0
		l17.9,6.7l-20,52.1l-62.8-7.3l63.6-52.1L140.1,758.4z"/>
</g>
<g>
	<path fill="#FDFCE4" d="M126.8,748.3l36.7,13.8l448.9-382.2c0,0-94.2-318.9-188-354.1C327.9-10.6,38.8,172.6,38.8,172.6
		L126.8,748.3z"/>
	<path fill="#FFCD00" d="M420,23.5C420,23.5,422.1,24.2,420,23.5c-1.1-0.4-3.1-1.2-3-1C373.9,7.9,115.5-68.1,22.7,178.3
		c-85.5,226.9,98.6,567.9,98.6,567.9c0,0,11.1,4.2,11.1,4.2c-14.3-85.4-67-399.4-21.5-531.2C161.9,70.9,375.7,31.3,416.6,25.1l0,0
		c-30.7,20.7-139.9,108.2-203.4,291.8c-32.2,93-65.7,376.9-71.9,436.9l2.1,0.8l3.3,1.3l0.7,0.2c35-49.2,197.5-284.4,234.7-375.6
		c73.4-179.7,49.3-317,39.9-352.9l0,0C450,61,582.3,230.5,523.2,374.5c-52.9,129-299.7,330.2-366.7,384.9l11.1,4.2
		c0,0,363-135.1,448.5-362.1C708.8,155.6,462.8,41.3,420,23.5z M423.3,24.2"/>
	<path fill="#D42063" d="M419.6,23.3C419.6,23.3,421.7,24.1,419.6,23.3c-1.1-0.4-3.1-1.2-3-1 M416.2,24.9L416.2,24.9
		C385.5,45.6,273,131.9,209.5,315.4c-32.2,93-65.7,376.9-71.9,436.9l5.4,2l3.3,1.3l4,1.5c35-49.2,197.5-284.4,234.7-375.6
		c73.4-179.7,45.9-318.2,36.6-354.1l0,0 M133.1,750.6 M422.9,24"/>
	<polygon fill="#B07200" points="184.7,847.5 112.5,847 56.2,799.1 127.4,807.4 	"/>
	<polygon fill="#CF8E2F" points="154.9,926.6 80.5,927.1 26.9,878.3 56.1,799.1 112.5,847 184.7,847.5 	"/>
	<polygon fill="#CF9C4C" points="154.9,926.6 80.5,927.1 112.5,847 184.7,847.5 	"/>
	<g>
		<polygon fill="#8E9192" points="115.3,847 112.5,847 110.2,845 144.7,755 149,756.6 		"/>
	</g>
	<g>
		<polygon fill="#A7A9AC" points="111.4,846.6 110.2,845 144.7,755 147.7,756.1 		"/>
	</g>
	<g>
		<polygon fill="#8E9192" points="59.4,801.8 56.2,799.1 120.6,745.9 125.4,747.8 		"/>
	</g>
	<g>
		<polygon fill="#A7A9AC" points="57.2,800 56.2,799.1 120.6,745.9 124.2,747.3 		"/>
	</g>
	<g>
		<polygon fill="#8E9192" points="181.2,847.5 162.8,761.8 167.6,763.7 184.7,847.5 		"/>
	</g>
	<g>
		<polygon fill="#A7A9AC" points="181.2,847.5 162.8,761.8 166.3,763.1 182.2,847.5 		"/>
	</g>
</g>
</svg>
