<?xml version="1.0" encoding="utf-8"?>
<!-- Generator: Adobe Illustrator 17.1.0, SVG Export Plug-In . SVG Version: 6.00 Build 0)  -->
<!DOCTYPE svg PUBLIC "-//W3C//DTD SVG 1.1//EN" "http://www.w3.org/Graphics/SVG/1.1/DTD/svg11.dtd">
<svg version="1.1" id="Layer_1" xmlns="http://www.w3.org/2000/svg" xmlns:xlink="http://www.w3.org/1999/xlink" x="0px" y="0px"
	 viewBox="241.1 99.6 370.8 301.4" enable-background="new 241.1 99.6 370.8 301.4" xml:space="preserve">
<g>
	<path opacity="0.2" d="M598.9,245.6c-12.1-26.8-33.9-47.2-61.4-57.6c-27.5-10.4-57.4-9.4-84.1,2.7c-26.8,12.1-47.2,33.9-57.6,61.4
		c-10.4,27.5-9.4,57.4,2.7,84.1c12.1,26.8,33.9,47.2,61.4,57.6c27.5,10.4,57.4,9.4,84.1-2.7c26.8-12.1,47.2-33.9,57.6-61.4
		C611.9,302.2,611,272.3,598.9,245.6z"/>
	<g>
		<g>
			<g>
				<path fill="#8750B9" d="M464.8,380.3c-54.2-20.4-81.6-81.1-61.2-135.3s81.1-81.6,135.3-61.2c54.2,20.4,81.6,81.1,61.2,135.3
					C579.7,373.3,519,400.8,464.8,380.3z"/>
				<path fill="#FFFFFF" d="M537.2,188.5c51.7,19.5,77.8,77.2,58.2,128.9c-19.5,51.7-77.2,77.8-128.9,58.2s-77.8-77.2-58.2-128.9
					C427.8,195.1,485.5,169,537.2,188.5 M540.7,179.2c-27.5-10.4-57.4-9.4-84.1,2.7c-26.8,12.1-47.2,33.9-57.6,61.4
					s-9.4,57.4,2.7,84.1c12.1,26.8,33.9,47.2,61.4,57.6c27.5,10.4,57.4,9.4,84.1-2.7c26.8-12.1,47.2-33.9,57.6-61.4
					c10.4-27.5,9.4-57.4-2.7-84.1C590,210,568.2,189.6,540.7,179.2L540.7,179.2z"/>
			</g>
			<g>
				<defs>
					<circle id="SVGID_1_" cx="501.9" cy="282.1" r="100"/>
				</defs>
				<clipPath id="SVGID_2_">
					<use xlink:href="#SVGID_1_"  overflow="visible"/>
				</clipPath>
				<circle clip-path="url(#SVGID_2_)" fill="#ECA685" cx="443.9" cy="435.6" r="105.6"/>
			</g>
			
				<ellipse transform="matrix(-0.9356 -0.3531 0.3531 -0.9356 873.0654 720.7723)" fill="#ECA685" cx="502.3" cy="280.8" rx="65.6" ry="72.5"/>
			<path fill="#F4C500" d="M440.9,257.6c0,0,9.6-3,19-14.7c6.6-8.2,12.5-23.9,12.5-23.9C458.7,227.4,447.3,240.7,440.9,257.6z"/>
			<path fill="#E59274" d="M476.7,348.5c33.9,12.8,72.8-7.2,86.9-44.6c14.1-37.4-1.9-78.2-35.7-90.9l-24.1,63.8l3.1,25.7
				c0.4,3.9-3.5,6.9-7.2,5.5l-6.8-2.6L476.7,348.5z"/>
			<path fill="#F4C500" d="M512.7,253.2c23.7,8.9,35.2-1.8,47.1,1.3c12.2,3.2,20.6,11.3,20.6,11.3c-3.8-17.4-19-40.2-52.5-52.8
				c-16.3-6.1-35.5-5.8-55.4,6C472.5,219,477.6,240,512.7,253.2z"/>
			<path fill="#F4C500" d="M563.6,303.9c0,0-5.2-8.6-4.5-23.6c0.5-10.5,7-24,7-24C570.9,271.6,570,287,563.6,303.9z"/>
			<path fill="#562A1A" d="M473.5,265.5c0,0,14.3,10.5,16,6s-0.6-9.4-5-11C480.1,258.9,475.2,261.1,473.5,265.5z"/>
			<path fill="#562A1A" d="M519.6,282.9c-1.7,4.4,16,6,16,6c1.7-4.4-0.6-9.4-5-11S521.3,278.5,519.6,282.9z"/>
		</g>
		
			<ellipse transform="matrix(-0.9356 -0.3531 0.3531 -0.9356 824.4407 802.0065)" fill="#562A1A" cx="485.4" cy="325.8" rx="7.3" ry="8.4"/>
	</g>
</g>
<g>
	<path opacity="0.2" d="M405.5,121.9c-26-13.7-55.8-16.5-83.8-7.8c-28.1,8.7-51.1,27.8-64.8,53.8c-13.7,26-16.5,55.8-7.8,83.8
		s27.8,51.1,53.8,64.8c26,13.7,55.8,16.5,83.8,7.8c28.1-8.7,51.1-27.8,64.8-53.8c13.7-26,16.5-55.8,7.8-83.8
		S431.4,135.6,405.5,121.9z"/>
	<g>
		<g>
			<path fill="#23AFD2" d="M382.2,309.9C326.9,327,268,296,250.9,240.7s14-114.2,69.3-131.3c55.3-17.1,114.2,14,131.3,69.3
				C468.6,233.9,437.5,292.8,382.2,309.9z"/>
			<path fill="#FFFFFF" d="M321.6,114.1c52.8-16.3,108.8,13.2,125.1,66c16.3,52.8-13.2,108.8-66,125.1s-108.8-13.2-125.1-66
				C239.3,186.4,268.9,130.4,321.6,114.1 M318.7,104.5c-28.1,8.7-51.1,27.8-64.8,53.8c-13.7,26-16.5,55.8-7.8,83.8
				c8.7,28.1,27.8,51.1,53.8,64.8c26,13.7,55.8,16.5,83.8,7.8c28.1-8.7,51.1-27.8,64.8-53.8s16.5-55.8,7.8-83.8
				s-27.8-51.1-53.8-64.8C376.5,98.6,346.7,95.9,318.7,104.5L318.7,104.5z"/>
		</g>
		<g>
			<g>
				<defs>
					<circle id="SVGID_3_" cx="351.2" cy="209.6" r="100"/>
				</defs>
				<clipPath id="SVGID_4_">
					<use xlink:href="#SVGID_3_"  overflow="visible"/>
				</clipPath>
				<path clip-path="url(#SVGID_4_)" fill="#562A1A" d="M392.3,142.3c-11.4-11.7-17.9,85.3-7,127.5c3.3,12.6,35.8,1,39,8.1
					c6.2,13.2,26.2-41.6,26.2-41.6s-10.2-0.3-26.1-33.3C417.1,187.6,401.5,151.8,392.3,142.3z"/>
			</g>
			<g>
				<defs>
					<circle id="SVGID_5_" cx="351.2" cy="209.6" r="100"/>
				</defs>
				<clipPath id="SVGID_6_">
					<use xlink:href="#SVGID_5_"  overflow="visible"/>
				</clipPath>
				<path clip-path="url(#SVGID_6_)" fill="#562A1A" d="M279.2,177.3c2.8-16,54.5,53.9,69.3,94.8c4.4,12.2-20.4,27.5-19.2,35.2
					c2.3,14.3-44.7-19.7-44.7-19.7s8.7-6.9,2.3-42.1C283.8,228.7,276.9,190.3,279.2,177.3z"/>
			</g>
			<g>
				<defs>
					<circle id="SVGID_7_" cx="351.2" cy="209.6" r="100"/>
				</defs>
				<clipPath id="SVGID_8_">
					<use xlink:href="#SVGID_7_"  overflow="visible"/>
				</clipPath>
				<circle clip-path="url(#SVGID_8_)" fill="#FAD199" cx="399.7" cy="366.4" r="105.6"/>
			</g>
		</g>
		
			<ellipse transform="matrix(-0.2956 -0.9553 0.9553 -0.2956 257.2162 599.5119)" fill="#FAD199" cx="349.6" cy="204.9" rx="72.4" ry="65.6"/>
		<path fill="#F8B155" d="M371.1,274.2c34.6-10.7,53-50.4,41.2-88.6s-49.5-60.6-84.1-49.9l18.9,61.1c0.5,1.5,1.2,2.9,2.2,4.1
			l20,23.1c2.1,2.7,0.9,6.7-2.4,7.8l-8.1,2.5L371.1,274.2z"/>
		<path fill="#562A1A" d="M392.8,144.2c0.2-0.3,0.2-0.7,0.1-1c1.3,1.5,2.4,2.8,2.2,2.5c-0.8-1-1.6-2-2.4-3c-0.1-0.1-0.2-0.2-0.2-0.3
			c-0.9-1-1.7-1.9-2.7-2.8c-0.5-0.6-1-1.2-1.7-1.7l0,0c-10.4-9.6-22.8-14.2-34.5-15.8c-8.2-1.4-17.2-1.3-27,1.5
			c-0.6,0.1-1.2,0.3-1.8,0.5c0,0,0,0-0.1,0l0,0c-0.4,0.1-0.8,0.3-1.2,0.4c0,0,0,0-0.1,0c-0.4,0.1-0.7,0.3-1.1,0.4
			c-0.2,0.1-0.4,0.1-0.6,0.2c-0.1,0-0.2,0.1-0.4,0.2c-0.4,0.2-0.8,0.3-1.3,0.5c-0.1,0-0.2,0.1-0.3,0.1c-0.2,0.1-0.4,0.2-0.7,0.3
			c-16.4,7.2-38.9,25.4-40.3,55.4c0,0.6,0.6-1.7,1.2-3c-1.7,11.2,2.6,34.7,6.4,46.9c0,0,6.4-9.6,6.6-24.6c0-2.2-0.2-4.4-0.5-6.7
			c0,0,0.1,0,0.1,0c6.9-1.1,18.7-13.5,22-17.1c0.4-0.4,1-0.1,1,0.4c0.1,7.3-5,15-7.7,18.6c-0.4,0.5,0.2,1.1,0.7,0.8
			c17.4-9.7,28.4-23.5,31.1-27.1c0.3-0.4,0.9-0.2,1,0.2c0.9,5.4-4.8,16.4-6.8,20.2c-0.2,0.4,0.2,1,0.7,0.8
			c14.7-5.4,26.3-24,28.5-27.8c0.2-0.4,0.7-0.4,0.9,0c2.7,3.9-0.7,12.5-2.3,16c-0.2,0.5,0.4,1,0.8,0.7c12.1-7.3,18.8-17.9,23.7-29.5
			c1.4,5,4.1,13.5,8.2,19.2c8.7,12.2,19.4,16.5,19.4,16.5C410,174.1,400.5,152.9,392.8,144.2z"/>
		<circle fill="#562A1A" cx="325.2" cy="210.8" r="7.2"/>
		<circle fill="#562A1A" cx="372.3" cy="196.2" r="7.2"/>
		<path fill="#562A1A" d="M364,250.6c-6.9,2.1-13.8,2.1-19.1,0.2c-0.7-0.3-1.2,0.7-0.6,1.1c5.1,4.1,13.1,5.5,21.1,3.1
			c8-2.5,13.9-8.2,15.7-14.4c0.2-0.8-0.7-1.2-1.2-0.6C376.5,244.5,370.9,248.4,364,250.6z"/>
	</g>
</g>
</svg>
