<?xml version="1.0" encoding="utf-8"?>
<!-- Generator: Adobe Illustrator 17.1.0, SVG Export Plug-In . SVG Version: 6.00 Build 0)  -->
<!DOCTYPE svg PUBLIC "-//W3C//DTD SVG 1.1//EN" "http://www.w3.org/Graphics/SVG/1.1/DTD/svg11.dtd">
<svg version="1.1" id="Layer_1" xmlns="http://www.w3.org/2000/svg" xmlns:xlink="http://www.w3.org/1999/xlink" x="0px" y="0px"
	 viewBox="0 0 639.9 385.1" enable-background="new 0 0 639.9 385.1" xml:space="preserve">
<g>
	<path opacity="0.1" enable-background="new    " d="M516.5,227.9c0,0,29.9-23.4,90.7-42c3.2-1,9.7-2.9,15.7-4.6
		c5.2-1.6,5.9-8.7,1-11.1L570.9,143l-64.2,26.2c12.7-5.2-15.3-97.9-26.7-112c-5.9-6.9-75.8,2.7-75.8,2.7l35.3,133.7
		c-34.3,0.7-67.1,20-83.4,52.9c-23.7,47.3-4.5,104.8,43,128.5c47.4,23.7,104.8,4.5,128.5-43C543.5,300.2,538.9,256.5,516.5,227.9z"
		/>
	<path fill="#00509E" d="M496,234.5c-14.3,15.1-64.9-4.4-64.9-26.8C431.1,90.5,348.1,8.3,353,1.4c6.3-8.9,104.7,28.6,117.5,47.7
		C477.6,59.9,526.3,199,496,234.5z"/>
	<path opacity="0.1" enable-background="new    " d="M513.5,205l-97.8-4.2l-1.6-7.8c19.6-3,14.6,1.3,14.6,1.3s54.1-51.9,69.1-59.4
		L513.5,205z"/>
	<path fill="#1D64D0" d="M634.2,173.4c5.5-1.3,7.5-7.9,3.9-12.3c-15.9-18.3-51.9-56.4-71.4-49.5c-63,22.6-142.2,99.1-142.2,99.1
		s59.8,59.8,68.4,34.6C505.5,208.2,600.6,181.8,634.2,173.4z"/>
	<g>
		<g>
			<g>
				<defs>
					<path id="SVGID_1_" d="M609.1,133.7l-60.9-5.8l-43.8,2.2l-50.8,54.7c0,0-9.4,7.9-13.1,12c-5.8,6.5-36.2,6.2-36.2,6.2l26.4,10.2
						l56.7,21.9l17.4-7.4l6.6-5.3L609.1,133.7z"/>
				</defs>
				<clipPath id="SVGID_2_">
					<use xlink:href="#SVGID_1_"  overflow="visible"/>
				</clipPath>
				<circle opacity="0.2" clip-path="url(#SVGID_2_)" enable-background="new    " cx="435.6" cy="281" r="95.9"/>
			</g>
		</g>
	</g>
	<circle fill="#F4BF25" cx="433.9" cy="285.9" r="95.9"/>
	<circle fill="#F4BF25" cx="433.9" cy="285.9" r="95.9"/>
	<circle fill="#D2D2D7" cx="433.9" cy="285.9" r="95.9"/>
	<circle fill="#D2D2D7" cx="433.9" cy="285.9" r="90.7"/>
	<path fill="#C8C8CD" d="M414.5,335.3c-37.1-14.3-64-41.7-74.8-68.4c-8.9,44.7,15.1,91.1,59.4,108.2c44.3,17.2,93.3-0.7,116.7-39.9
		C490.1,347.6,451.9,349.6,414.5,335.3z"/>
	<path fill="#A0A0A5" d="M401.6,368.7c-48.2-18.7-72.8-72.2-56-120.6c-0.3,1-0.9,2-1.2,3.2c-19,49.3,5.3,104.7,54.8,124
		c49.3,19,104.7-5.3,124-54.8c0.3-1,0.9-2.2,1.2-3.2C504,364.3,450,387.4,401.6,368.7z"/>
	<g>
		<g>
			<g>
				<defs>
					
						<ellipse id="SVGID_3_" transform="matrix(0.361 -0.9326 0.9326 0.361 13.3258 586.63)" cx="434.7" cy="283.6" rx="88.4" ry="92"/>
				</defs>
				<clipPath id="SVGID_4_">
					<use xlink:href="#SVGID_3_"  overflow="visible"/>
				</clipPath>
				<polygon opacity="0.2" clip-path="url(#SVGID_4_)" fill="#FFFFFF" enable-background="new    " points="302.5,239.7 310.6,287 
					547.4,252.4 539.4,205 				"/>
			</g>
		</g>
		<g>
			<g>
				<g>
					<defs>
						
							<ellipse id="SVGID_5_" transform="matrix(0.361 -0.9326 0.9326 0.361 13.3258 586.63)" cx="434.7" cy="283.6" rx="88.4" ry="92"/>
					</defs>
					<clipPath id="SVGID_6_">
						<use xlink:href="#SVGID_5_"  overflow="visible"/>
					</clipPath>
					<polygon opacity="0.2" clip-path="url(#SVGID_6_)" fill="#FFFFFF" enable-background="new    " points="323.1,306.5 324.4,315 
						561.4,280.3 560.1,272 					"/>
				</g>
			</g>
		</g>
		<path fill="#F0F0F0" d="M465.3,204.1c31,11.8,52.2,37.8,59,67.1c-4.5-31.4-25.5-59.3-57.1-71.8c-31.6-12.4-66.2-5.5-90.4,14.6
			C401.4,196.8,434.6,192.1,465.3,204.1z"/>
		<polygon fill="#A0A0A5" points="451.3,240.7 454.5,276.1 485.4,293.5 452.8,307.5 445.7,342.4 422.3,315.6 386.9,319.6 
			405.3,289.2 390.3,256.8 424.9,264.7 		"/>
		<g>
			<polygon fill="#8C8C8C" points="405.2,289.3 386.9,319.6 390.6,319.2 406.8,292.2 			"/>
			<polygon fill="#8C8C8C" points="451.6,244.9 451.3,240.7 424.9,264.7 390.3,256.8 391.8,259.9 426.5,267.7 			"/>
			<polygon fill="#8C8C8C" points="483,294.5 485.4,293.5 455.5,276.8 455.9,279.1 			"/>
			<polygon fill="#8C8C8C" points="455.9,279.1 452,239.9 451.3,240.7 454.6,278.4 			"/>
			<polygon fill="#CA8801" points="391.8,259.9 391.8,259.9 405.2,289.3 405.3,289.2 			"/>
		</g>
	</g>
</g>
<g>
	<path opacity="0.1" enable-background="new    " d="M272.4,191c0,0,40.7-93.7,60.6-120.8c2.6-3.6,3.5-9.7-5.5-9.8
		c-16.3-0.3-64.6-3-64.6-3l-42.7,105.6L132,117.2l-61,45.4l124.2,63.3c-22.4,26.4-29.9,64-16.2,98.4c19.6,49.8,76,73.5,125.5,53.9
		c49.5-19.6,73.5-76,53.9-125.6C344.9,219,309,193.2,272.4,191z"/>
	<path fill="#A32E2E" d="M286.1,194.6l-79.9,54.7c0,0-89.6-73.3-201.9-100.1C-25.3,142.1,108,96.5,118.1,103
		C197.2,153.4,286.1,194.6,286.1,194.6z"/>
	<polygon opacity="0.1" enable-background="new    " points="282.2,197.9 199.4,243.5 176.7,228.1 186.1,143.3 	"/>
	<path fill="#ED2B2B" d="M330.5,55.3c11-17.7-78.4-18.2-94.2,2c-36.1,46.1-55.7,191.4-55.7,191.4l80-41.1
		C260.7,207.4,300.2,103.9,330.5,55.3z"/>
	<g>
		<g>
			<g>
				<defs>
					<path id="SVGID_7_" d="M322.5,58.3l-96.2-1.2c0,0-35.2,121.7-42.8,172.2c-0.7,4.9-2.9,19.2-2.9,19.2l25.4-13l54.7-28.1
						l25.4-12.8l-16.7-8.9L322.5,58.3z"/>
				</defs>
				<clipPath id="SVGID_8_">
					<use xlink:href="#SVGID_7_"  overflow="visible"/>
				</clipPath>
				<circle opacity="0.2" clip-path="url(#SVGID_8_)" enable-background="new    " cx="260.2" cy="277.4" r="96.6"/>
			</g>
		</g>
	</g>
	<circle fill="#F4BF25" cx="262.7" cy="282" r="96.6"/>
	<circle fill="#F4BF25" cx="262.7" cy="282" r="96.6"/>
	<circle fill="#F4BF25" cx="262.7" cy="282" r="96.6"/>
	<circle fill="#F4BF25" cx="262.7" cy="282" r="91.6"/>
	<path fill="#F3B900" d="M286.9,329.6c-35.8,18.3-74.4,20-101.5,10.4c27.7,36.9,78.7,49.8,121.1,28c42.4-21.8,62-70.8,48.2-114.9
		C346.8,281,323,311.3,286.9,329.6z"/>
	<path fill="#C18801" d="M303.5,361.9c-46.4,23.7-103.3,6.2-128.2-38.8c0.4,1,1,2.2,1.4,3.2c24.1,47.6,82.5,66.3,129.9,42
		c47.6-24.4,66.3-82.5,42-130.1c-0.4-1-1-2.2-1.4-3.2C368.8,281.8,349.8,337.9,303.5,361.9z"/>
	<g>
		<g>
			<defs>
				
					<ellipse id="SVGID_9_" transform="matrix(-0.4552 -0.8904 0.8904 -0.4552 131.2032 639.9796)" cx="261.4" cy="279.9" rx="89.1" ry="92.7"/>
			</defs>
			<clipPath id="SVGID_10_">
				<use xlink:href="#SVGID_9_"  overflow="visible"/>
			</clipPath>
			<polygon opacity="0.2" clip-path="url(#SVGID_10_)" fill="#FFFFD7" enable-background="new    " points="140,349.6 180.8,375.4 
				313.7,174 272.8,148.3 			"/>
		</g>
	</g>
	<g>
		<g>
			<g>
				<defs>
					
						<ellipse id="SVGID_11_" transform="matrix(-0.4552 -0.8904 0.8904 -0.4552 131.2032 639.9796)" cx="261.4" cy="279.9" rx="89.1" ry="92.7"/>
				</defs>
				<clipPath id="SVGID_12_">
					<use xlink:href="#SVGID_11_"  overflow="visible"/>
				</clipPath>
				<polygon opacity="0.2" clip-path="url(#SVGID_12_)" fill="#FFFFD7" enable-background="new    " points="203.9,379.3 
					210.9,383.8 344,182.2 337,177.7 				"/>
			</g>
		</g>
	</g>
	<path fill="#FCEBC1" d="M222.5,203.1c29.7-15.1,63.3-13.8,90,0.6c-26.8-17.4-61.9-20.6-92.3-5c-30.6,15.6-48.6,46-49.8,77.9
		C174,246.7,192.6,218.5,222.5,203.1z"/>
	<polygon fill="#DE9C01" points="240.3,238.6 269.2,259.9 303.1,248.4 291.5,282.3 313,311.1 277.3,310.4 256.6,339.8 246,305.8 
		211.8,295.1 241.1,274.3 	"/>
	<g>
		<polygon fill="#CA8801" points="246,305.8 256.6,339.8 258.7,336.9 249.1,306.8 		"/>
		<polygon fill="#CA8801" points="243.8,241 240.3,238.6 241.1,274.3 211.8,295.1 215,296.1 244.2,275.5 		"/>
		<polygon fill="#CA8801" points="302.2,250.8 303.1,248.4 270.5,259.5 272.5,260.9 		"/>
		<polygon fill="#CA8801" points="272.5,260.9 240.3,237.3 240.3,238.6 271.1,261.4 		"/>
		<polygon fill="#CA8801" points="215,296.1 215,296.1 246,305.8 246,305.8 		"/>
	</g>
</g>
</svg>
