<?xml version="1.0" encoding="utf-8"?>
<!-- Generator: Adobe Illustrator 17.1.0, SVG Export Plug-In . SVG Version: 6.00 Build 0)  -->
<!DOCTYPE svg PUBLIC "-//W3C//DTD SVG 1.1//EN" "http://www.w3.org/Graphics/SVG/1.1/DTD/svg11.dtd">
<svg version="1.1" id="Layer_1" xmlns="http://www.w3.org/2000/svg" xmlns:xlink="http://www.w3.org/1999/xlink" x="0px" y="0px"
	 viewBox="0 0 41.5 23" enable-background="new 0 0 41.5 23" xml:space="preserve">
<path fill="#FFFFFF" d="M7.4,8.2C7.4,8.2,7.5,8.2,7.4,8.2C7.5,8.1,7.5,8.1,7.4,8.2C7.5,3.6,11.1,0,15.6,0c3.6,0,6.7,2.4,7.7,5.7
	c0.9-0.6,2-0.9,3.2-0.9c3.2,0,5.8,2.6,5.8,5.8c0,0.2,0,0.5,0,0.7c0.9-0.5,1.9-0.7,3-0.7c3.5,0,6.3,2.8,6.3,6.3S38.7,23,35.2,23l0,0
	H7.4C3.3,23,0,19.7,0,15.6C0,11.5,3.3,8.2,7.4,8.2z"/>
</svg>
