<?xml version="1.0" encoding="utf-8"?>
<!-- Generator: Adobe Illustrator 17.1.0, SVG Export Plug-In . SVG Version: 6.00 Build 0)  -->
<!DOCTYPE svg PUBLIC "-//W3C//DTD SVG 1.1//EN" "http://www.w3.org/Graphics/SVG/1.1/DTD/svg11.dtd">
<svg version="1.1" id="Layer_1" xmlns="http://www.w3.org/2000/svg" xmlns:xlink="http://www.w3.org/1999/xlink" x="0px" y="0px"
	 viewBox="0 0 41.5 23" enable-background="new 0 0 41.5 23" xml:space="preserve">
<path fill="#FFFFFF" d="M34,8.2C34,8.2,34,8.2,34,8.2C34,8.1,34,8.1,34,8.2C34,3.6,30.3,0,25.9,0c-3.6,0-6.7,2.4-7.7,5.7
	c-0.9-0.6-2-0.9-3.2-0.9c-3.2,0-5.8,2.6-5.8,5.8c0,0.2,0,0.5,0,0.7c-0.9-0.5-1.9-0.7-3-0.7c-3.5,0-6.3,2.8-6.3,6.3S2.8,23,6.3,23
	l0,0H34c4.1,0,7.4-3.3,7.4-7.4C41.5,11.5,38.1,8.2,34,8.2z"/>
</svg>
