<?xml version="1.0" encoding="utf-8"?>
<!-- Generator: Adobe Illustrator 17.1.0, SVG Export Plug-In . SVG Version: 6.00 Build 0)  -->
<!DOCTYPE svg PUBLIC "-//W3C//DTD SVG 1.1//EN" "http://www.w3.org/Graphics/SVG/1.1/DTD/svg11.dtd">
<svg version="1.1" id="Layer_1" xmlns="http://www.w3.org/2000/svg" xmlns:xlink="http://www.w3.org/1999/xlink" x="0px" y="0px"
	 viewBox="0 0 95.5 50.4" enable-background="new 0 0 95.5 50.4" xml:space="preserve">
<path fill="#FFFFFF" d="M79.3,17.9c-1.2,0-2.3,0.1-3.4,0.3c0-0.4,0-0.8,0-1.2c0-9.4-7.6-17-17-17C51,0,44.3,5.4,42.4,12.7
	c-2.3-1.5-5.1-2.4-8.1-2.4c-7.9,0-14.4,6-15.1,13.7c-1.7-0.7-3.5-1.1-5.5-1.1C6.1,23,0,29.1,0,36.7c0,7,5.2,12.8,12,13.6v0.1h66.5v0
	c0.2,0,0.5,0,0.7,0c9,0,16.3-7.3,16.3-16.3S88.2,17.9,79.3,17.9z"/>
</svg>
