<?xml version="1.0" encoding="utf-8"?>
<!-- Generator: Adobe Illustrator 17.1.0, SVG Export Plug-In . SVG Version: 6.00 Build 0)  -->
<!DOCTYPE svg PUBLIC "-//W3C//DTD SVG 1.1//EN" "http://www.w3.org/Graphics/SVG/1.1/DTD/svg11.dtd">
<svg version="1.1" id="Layer_1" xmlns="http://www.w3.org/2000/svg" xmlns:xlink="http://www.w3.org/1999/xlink" x="0px" y="0px"
	 viewBox="0 0 216.1 166.7" enable-background="new 0 0 216.1 166.7" xml:space="preserve">
<circle fill="#FFCD00" cx="59.8" cy="59.8" r="59.8"/>
<path fill="#F1C22C" d="M59.8,119.5c30.9,0,56.3-23.4,59.4-53.4c-6.5-9.2-17.3-15.3-29.5-15.3c-20,0-36.2,16.2-36.2,36.2
	c0,0.8,0,1.7,0.1,2.5c-2.3-0.5-4.7-0.7-7.1-0.7c-11.5,0-21.7,5.6-28,14.3C29.3,113.3,43.8,119.5,59.8,119.5z"/>
<path fill="#FFFFFF" d="M13.5,132.2c0,19.1,15.4,34.5,34.5,34.5c0.5,0,1,0,1.5,0v0h141.2v-0.2c14.4-1.8,25.5-14,25.5-28.9
	c0-16.1-13-29.1-29.1-29.1c-4.1,0-8.1,0.9-11.6,2.4c-1.5-16.3-15.3-29.1-32-29.1c-6.3,0-12.2,1.8-17.2,5c-4.1-15.5-18.2-27-35-27
	C71.2,59.8,55,76,55,95.9c0,0.8,0,1.7,0.1,2.5c-2.3-0.5-4.7-0.7-7.1-0.7C28.9,97.7,13.5,113.1,13.5,132.2z"/>
</svg>
