<?xml version="1.0" encoding="utf-8"?>
<!-- Generator: Adobe Illustrator 17.1.0, SVG Export Plug-In . SVG Version: 6.00 Build 0)  -->
<!DOCTYPE svg PUBLIC "-//W3C//DTD SVG 1.1//EN" "http://www.w3.org/Graphics/SVG/1.1/DTD/svg11.dtd">
<svg version="1.1" id="Layer_1" xmlns="http://www.w3.org/2000/svg" xmlns:xlink="http://www.w3.org/1999/xlink" x="0px" y="0px"
	 viewBox="0 0 156.6 162.8" enable-background="new 0 0 156.6 162.8" xml:space="preserve">
<circle opacity="0.2" enable-background="new    " cx="78.3" cy="87.1" r="75.7"/>
<circle fill="#FFFFFF" cx="78.3" cy="78.3" r="78.3"/>
<path fill="#1C94B2" d="M143.3,78.3c0,35.8-29.2,65-65,65s-64.6-29.2-64.6-64.6c0-35.8,29.2-60.6,64.6-60.6
	C114.1,18.1,143.3,42.8,143.3,78.3z"/>
<path fill="#1C94B2" d="M143.3,78.3c0,35.8-29.2,65-65,65s-64.6-29.2-64.6-64.6c0-35.8,29.2-60.6,64.6-60.6
	C114.1,18.1,143.3,42.8,143.3,78.3z"/>
<circle fill="#3E4E5A" cx="78.3" cy="78.3" r="64.6"/>
<circle fill="#536878" cx="78.3" cy="78.3" r="48.4"/>
<circle fill="#34414B" cx="78.3" cy="78.3" r="27.7"/>
<path opacity="0.2" fill="#FFFFFF" enable-background="new    " d="M78.3,91.6c25.1,0,48-7.4,64.6-19.2c-3-32.9-30.7-58.7-64.6-58.7
	c-33.6,0-61.3,25.9-64.6,58.7C30.3,84.2,53.2,91.6,78.3,91.6z"/>
<path opacity="3.000000e-02" fill="#FFFFFF" enable-background="new    " d="M78.3,91.6c25.1,0,48-7.4,64.6-19.2
	c-3-32.9-30.7-58.7-64.6-58.7c-33.6,0-61.3,25.9-64.6,58.7C30.3,84.2,53.2,91.6,78.3,91.6z"/>
<circle opacity="0.8" fill="#FFFFFF" enable-background="new    " cx="66.1" cy="64.3" r="11.1"/>
<circle opacity="0.8" fill="#FFFFFF" enable-background="new    " cx="91.6" cy="89.8" r="5.2"/>
</svg>
