<?xml version="1.0" encoding="utf-8"?>
<!-- Generator: Adobe Illustrator 17.1.0, SVG Export Plug-In . SVG Version: 6.00 Build 0)  -->
<!DOCTYPE svg PUBLIC "-//W3C//DTD SVG 1.1//EN" "http://www.w3.org/Graphics/SVG/1.1/DTD/svg11.dtd">
<svg version="1.1" id="Layer_1" xmlns="http://www.w3.org/2000/svg" xmlns:xlink="http://www.w3.org/1999/xlink" x="0px" y="0px"
	 viewBox="2592.6 147.1 645.3 318.3" enable-background="new 2592.6 147.1 645.3 318.3" xml:space="preserve">
<g>
	<defs>
		<rect id="SVGID_1_" x="2592.6" y="246.1" width="645.3" height="219.3"/>
	</defs>
	<clipPath id="SVGID_2_">
		<use xlink:href="#SVGID_1_"  overflow="visible"/>
	</clipPath>
	<g clip-path="url(#SVGID_2_)">
		<path fill="#2292DA" d="M3215.9,459.7c1.9,0,3.5-1.5,3.5-3.4v-128c0-1.9-1.6-3.5-3.5-3.5h-15.4c-1.9,0-3.5-1.6-3.5-3.5v-39.9
			c0-1.9-1.6-3.5-3.5-3.5h-39.2c-1.9,0-3.5,1.6-3.5,3.5v58.9c0,1.9-1.6,3.5-3.5,3.5h-18.8c-1.9,0-3.5,1.6-3.5,3.5v26.5
			c0,1.9-1.6,3.5-3.5,3.5h-22.1c-1.9,0-3.5-1.6-3.5-3.5v-44.7c0-1.9-1.6-3.5-3.5-3.5h-58.9c-1.9,0-3.5,1.6-3.5,3.5v23.6
			c0,1.9-1.6,3.5-3.5,3.5h-37.4c-1.9,0-3.5-1.6-3.5-3.5v-34.4c0-1.9-1.6-3.5-3.5-3.5h-15.4c-1.9,0-3.5-1.6-3.5-3.5v-14.8
			c0-1.9-1.6-3.5-3.5-3.5h-39.2c-1.9,0-3.5,1.6-3.5,3.5v35.6c0,1.9-1.6,3.5-3.5,3.5h-18.8c-1.9,0-3.5,1.6-3.5,3.5v52.2
			c0,1.9-1.6,3.5-3.5,3.5h-22.1c-1.9,0-3.5-1.6-3.5-3.5v-76.4c0-1.9-1.6-3.5-3.5-3.5h-8.1c-1.9,0-5,0-6.9,0h-43.9
			c-1.9,0-4.5,0-5.8,0s-2.3,1.6-2.3,3.5v43.7c0,1.9-1.6,3.5-3.5,3.5h-21.9c-1.9,0-3.5-1.6-3.5-3.5v-19.5c0-1.9-1.6-3.5-3.5-3.5
			h-18.8c-1.9,0-3.5-1.6-3.5-3.5v-35.5c0-1.9-1.6-3.5-3.5-3.5h-39.2c-1.9,0-3.5,1.6-3.5,3.5v14.8c0,1.9-1.6,3.5-3.5,3.5h-10.4
			c-1.9,0-3.5,1.6-3.5,3.5v40.1c0,1.9-1.6,3.5-3.5,3.5h-56.2c-1.9,0-3.5,1.6-3.5,3.5v89.2c0,1.9,1.6,3.5,3.5,3.5h179.1
			c1.9,0,5,0,6.9,0h43.9c1.9,0,5,0,6.9,0h175.7c1.9,0,5,0,6.9,0h1.2c1.9,0,5,0,6.9,0L3215.9,459.7z"/>
	</g>
	<g clip-path="url(#SVGID_2_)">
		<path fill="#2284C5" d="M3149.4,415c-1.3,0-2.4-1.1-2.4-2.4v-39.8c0-1.3-1.1-2.4-2.4-2.4H3111c-1.3,0-2.4,1.1-2.4,2.4v22.8
			c0,1.3-1.1,2.4-2.4,2.4h-25.5c-1.3,0-2.4-1.1-2.4-2.4v-52.3c0-1.3-1.1-2.4-2.4-2.4h-38.6c-1.3,0-2.4,1.1-2.4,2.4v24.8
			c0,1.3-1.1,2.4-2.4,2.4h-13.1c-1.3,0-2.4,1.1-2.4,2.4v13.6c0,1.3-1.1,2.4-2.4,2.4h-15.4c-1.3,0-2.4-1.1-2.4-2.4v-30.4
			c0-1.3-0.7-2.4-1.6-2.4s-2.7,0-4,0h-30.5c-1.3,0-3.5,0-4.8,0h-5.6c-1.3,0-2.4,1.1-2.4,2.4v53.2c0,1.3-1.1,2.4-2.4,2.4h-15.4
			c-1.3,0-2.4-1.1-2.4-2.4v-20.4c0-1.3-1.1-2.4-2.4-2.4h-13.1c-1.3,0-2.4-1.1-2.4-2.4v-25.7c0-1.3-1.1-2.4-2.4-2.4h-27.3
			c-1.3,0-2.4,1.1-2.4,2.4v24.2c0,1.3-1.1,2.4-2.4,2.4h-41.7c-1.3,0-2.4-1.1-2.4-2.4v-13.3c0-1.3-1.1-2.4-2.4-2.4H2787
			c-1.3,0-2.4,1.1-2.4,2.4v28c0,1.3-1.1,2.4-2.4,2.4h-15.4c-1.3,0-2.4-1.1-2.4-2.4V373c0-1.3-1.1-2.4-2.4-2.4h-13.1
			c-1.3,0-2.4-1.1-2.4-2.4v-17c0-1.3-1.1-2.4-2.4-2.4h-27.3c-1.3,0-2.4,1.1-2.4,2.4v20.1c0,1.3-1.1,2.4-2.4,2.4H2701
			c-1.3,0-2.4,1.1-2.4,2.4v36.5c0,1.3-1.1,2.4-2.4,2.4h-31.7c-1.3,0-2.4,1.1-2.4,2.4v36.2c0,1.3,1.1,2.4,2.4,2.4h158
			c1.3,0,3.5,0,4.8,0h0.8c1.3,0,3.5,0,4.8,0h122.5c1.3,0,3.5,0,4.8,0h30.6c1.3,0,3.5,0,4.8,0H3106c1.3,0,2.4,1.1,2.4,2.4v23.8
			c0,1.3,1.1,2.4,2.4,2.4h72c1.3,0,2.4-1.1,2.4-2.4v-64.6c0-1.3-1.1-2.4-2.4-2.4L3149.4,415L3149.4,415z"/>
	</g>
	<g clip-path="url(#SVGID_2_)">
		<rect x="2949.9" y="333.6" fill="#F0F4F8" width="60" height="78.1"/>
		<rect x="2948.6" y="329" fill="#3E4456" width="62.6" height="4.7"/>
		<rect x="2948.6" y="333.3" opacity="0.2" fill="#FFFFFF" enable-background="new    " width="62.6" height="0.4"/>
		<polygon opacity="3.000000e-02" enable-background="new    " points="2948.6,332.5 3011.3,329.8 3011.3,329 2948.6,329 		"/>
		<rect x="2949.9" y="333.6" opacity="0.1" enable-background="new    " width="60" height="2.3"/>
		<rect x="2949.9" y="386.2" opacity="0.15" enable-background="new    " width="60" height="25.5"/>
		<rect x="2954.5" y="351" fill="#ABDEEF" width="50.9" height="7.5"/>
		<rect x="2954.5" y="369.3" fill="#FFFFFF" width="50.9" height="0.3"/>
		<rect x="2954.5" y="358.5" fill="#FFFFFF" width="50.9" height="0.3"/>
		<rect x="2954.5" y="347.6" fill="#FFFFFF" width="50.9" height="0.3"/>
		<rect x="2954.5" y="340.2" fill="#ABDEEF" width="50.9" height="7.5"/>
		<rect x="2954.5" y="361.9" fill="#ABDEEF" width="50.9" height="7.5"/>
		<rect x="2954.5" y="372.8" fill="#ABDEEF" width="50.9" height="7.5"/>
		<rect x="2954.5" y="380.2" fill="#FFFFFF" width="50.9" height="0.3"/>
		<polygon opacity="0.1" enable-background="new    " points="2954.5,340.2 2954.5,347.6 2955,347.6 2955,340.9 2972.3,340.9 
			2972.3,347.6 2972.6,347.6 2972.6,340.9 2989,340.9 2989,347.6 2989.3,347.6 2989.3,340.9 3005.4,340.9 3005.4,340.2 		"/>
		<polygon opacity="0.1" enable-background="new    " points="2954.5,351 2954.5,358.5 2955,358.5 2955,351.8 2972.3,351.8 
			2972.3,358.5 2972.6,358.5 2972.6,351.8 2989,351.8 2989,358.5 2989.3,358.5 2989.3,351.8 3005.4,351.8 3005.4,351 		"/>
		<polygon opacity="0.1" enable-background="new    " points="2954.5,361.9 2954.5,369.3 2955,369.3 2955,362.6 2972.3,362.6 
			2972.3,369.3 2972.6,369.3 2972.6,362.6 2989,362.6 2989,369.3 2989.3,369.3 2989.3,362.6 3005.4,362.6 3005.4,361.9 		"/>
		<polygon opacity="0.1" enable-background="new    " points="2954.5,372.8 2954.5,380.2 2955,380.2 2955,373.5 2972.3,373.5 
			2972.3,380.2 2972.6,380.2 2972.6,373.5 2989,373.5 2989,380.2 2989.3,380.2 2989.3,373.5 3005.4,373.5 3005.4,372.8 		"/>
		<line fill="none" stroke="#F0F4F8" stroke-width="4.7138" stroke-miterlimit="10" x1="2988.3" y1="339.6" x2="2988.3" y2="381"/>
		<g opacity="0.8" enable-background="new    ">
			<g>
				<defs>
					<rect id="SVGID_3_" x="2954.5" y="340.2" width="50.9" height="40"/>
				</defs>
				<clipPath id="SVGID_4_">
					<use xlink:href="#SVGID_3_"  overflow="visible"/>
				</clipPath>
				<polygon opacity="0.2" clip-path="url(#SVGID_4_)" fill="#FFFFFF" enable-background="new    " points="2952.1,366.6 
					2953.6,371.1 3010.3,334.9 3008.7,330.3 				"/>
			</g>
			<g>
				<defs>
					<rect id="SVGID_5_" x="2954.5" y="340.2" width="50.9" height="40"/>
				</defs>
				<clipPath id="SVGID_6_">
					<use xlink:href="#SVGID_5_"  overflow="visible"/>
				</clipPath>
				<polygon opacity="0.2" clip-path="url(#SVGID_6_)" fill="#FFFFFF" enable-background="new    " points="2943.1,384.5 
					2948.2,397.5 3016.6,355.5 3011.6,342.4 				"/>
			</g>
		</g>
		<line fill="none" stroke="#F0F4F8" stroke-width="4.7138" stroke-miterlimit="10" x1="2971.5" y1="381" x2="2971.5" y2="339.6"/>
		<polygon opacity="3.000000e-02" enable-background="new    " points="2949.9,333.6 3010,333.6 3010,339 2949.9,401.5 		"/>
	</g>
	<g clip-path="url(#SVGID_2_)">
		<rect x="2877.1" y="398.7" fill="#E8E9E5" width="58.2" height="43.4"/>
		<rect x="2877.1" y="405.6" fill="#525D6D" width="58.2" height="11.2"/>
		<rect x="2877" y="405.6" opacity="0.2" fill="#FFFFFF" enable-background="new    " width="0.3" height="11.2"/>
		<rect x="2877.1" y="423.1" fill="#525D6D" width="58.2" height="11.2"/>
		<polygon opacity="0.2" enable-background="new    " points="2935.3,408.2 2877.1,408.1 2877.1,405.6 2935.3,405.6 		"/>
		<rect x="2877.1" y="422.6" fill="#FFFFFF" width="58.2" height="0.5"/>
		<rect x="2877.1" y="434.3" fill="#FFFFFF" width="58.2" height="0.5"/>
		<rect x="2877.1" y="405.3" fill="#FFFFFF" width="58.2" height="0.5"/>
		<polygon opacity="5.000000e-02" enable-background="new    " points="2935.3,442.1 2893,442.1 2932.7,398.7 2935.3,398.7 		"/>
		<polygon opacity="0.15" enable-background="new    " points="2935.3,442.1 2931,442.1 2934.4,398.7 2935.3,398.7 		"/>
		<polygon opacity="0.2" enable-background="new    " points="2935.3,424 2877.1,424.9 2877.1,423.1 2935.3,423.1 		"/>
		<rect x="2877.1" y="433.3" opacity="0.2" enable-background="new    " width="58.2" height="0.9"/>
		<rect x="2877.1" y="415.9" opacity="0.2" enable-background="new    " width="58.2" height="0.9"/>
		<g>
			<g>
				<defs>
					<rect id="SVGID_7_" x="2877.1" y="405.6" width="58.2" height="11.2"/>
				</defs>
				<clipPath id="SVGID_8_">
					<use xlink:href="#SVGID_7_"  overflow="visible"/>
				</clipPath>
				<polygon opacity="0.1" clip-path="url(#SVGID_8_)" fill="#FFFFFF" enable-background="new    " points="2923.3,404.2 
					2947.2,404.2 2923.4,416.7 2899.5,416.7 				"/>
			</g>
			<g>
				<defs>
					<rect id="SVGID_9_" x="2877.1" y="405.6" width="58.2" height="11.2"/>
				</defs>
				<clipPath id="SVGID_10_">
					<use xlink:href="#SVGID_9_"  overflow="visible"/>
				</clipPath>
				<polygon opacity="0.1" clip-path="url(#SVGID_10_)" fill="#FFFFFF" enable-background="new    " points="2916.2,404.2 
					2919.9,404.2 2896.1,416.7 2892.4,416.7 				"/>
			</g>
		</g>
		<g>
			<g>
				<defs>
					<rect id="SVGID_11_" x="2877.1" y="423.1" width="58.2" height="11.2"/>
				</defs>
				<clipPath id="SVGID_12_">
					<use xlink:href="#SVGID_11_"  overflow="visible"/>
				</clipPath>
				<polygon opacity="0.1" clip-path="url(#SVGID_12_)" fill="#FFFFFF" enable-background="new    " points="2891.8,421.7 
					2915.7,421.7 2891.9,434.3 2868,434.3 				"/>
			</g>
			<g>
				<defs>
					<rect id="SVGID_13_" x="2877.1" y="423.1" width="58.2" height="11.2"/>
				</defs>
				<clipPath id="SVGID_14_">
					<use xlink:href="#SVGID_13_"  overflow="visible"/>
				</clipPath>
				<polygon opacity="0.1" clip-path="url(#SVGID_14_)" fill="#FFFFFF" enable-background="new    " points="2884.7,421.7 
					2888.4,421.7 2864.6,434.3 2860.9,434.3 				"/>
			</g>
		</g>
		<rect x="2877" y="423.1" opacity="0.2" fill="#FFFFFF" enable-background="new    " width="0.3" height="11.2"/>
		<rect x="2935.2" y="400.5" opacity="0.2" fill="#FFFFFF" enable-background="new    " width="0.3" height="11.2"/>
		<rect x="2935.2" y="418" opacity="0.2" fill="#FFFFFF" enable-background="new    " width="0.3" height="11.2"/>
	</g>
	<g clip-path="url(#SVGID_2_)">
		<path fill="#332F4A" d="M2860.5,315h2.3c0.3,0,0.6,0.3,0.6,0.7v0.5h-3.5v-0.5C2859.9,315.4,2860.1,315,2860.5,315z"/>
		<polygon fill="#332F4A" points="2861.4,295.4 2861.9,295.4 2862.2,316.2 2861.1,316.2 		"/>
		<polygon fill="#332F4A" points="2855.6,306.4 2855.8,306.4 2855.9,316.1 2855.4,316.1 		"/>
		<g>
			<path fill="#526A7A" d="M2848.3,440.9h39.6l-9-124.4c0-0.3-0.3-0.6-0.6-0.6h-30L2848.3,440.9L2848.3,440.9z"/>
			<g opacity="0.1">
				<path fill="#304354" d="M2878.3,316.6L2878.3,316.6l8.9,123.7h-38.3V316.6H2878.3 M2878.3,316h-30v124.9h39.6l-9-124.4
					C2878.9,316.2,2878.6,316,2878.3,316L2878.3,316z"/>
			</g>
		</g>
		<g opacity="0.3" enable-background="new    ">
			<g>
				<defs>
					<polygon id="SVGID_15_" points="2848.3,422.8 2884.5,422.8 2877,319.6 2848.3,319.6 					"/>
				</defs>
				<clipPath id="SVGID_16_">
					<use xlink:href="#SVGID_15_"  overflow="visible"/>
				</clipPath>
				
					<line clip-path="url(#SVGID_16_)" fill="none" stroke="#CBDEEF" stroke-width="4" stroke-miterlimit="10" x1="2890.2" y1="336.8" x2="2848.3" y2="336.8"/>
			</g>
			<g>
				<defs>
					<polygon id="SVGID_17_" points="2848.3,422.8 2884.5,422.8 2877,319.6 2848.3,319.6 					"/>
				</defs>
				<clipPath id="SVGID_18_">
					<use xlink:href="#SVGID_17_"  overflow="visible"/>
				</clipPath>
				
					<line clip-path="url(#SVGID_18_)" fill="none" stroke="#CBDEEF" stroke-width="4" stroke-miterlimit="10" x1="2890.2" y1="341.1" x2="2848.3" y2="341.1"/>
			</g>
			<g>
				<defs>
					<polygon id="SVGID_19_" points="2848.3,422.8 2884.5,422.8 2877,319.6 2848.3,319.6 					"/>
				</defs>
				<clipPath id="SVGID_20_">
					<use xlink:href="#SVGID_19_"  overflow="visible"/>
				</clipPath>
				
					<line clip-path="url(#SVGID_20_)" fill="none" stroke="#CBDEEF" stroke-width="4" stroke-miterlimit="10" x1="2890.2" y1="345.5" x2="2848.3" y2="345.5"/>
			</g>
			<g>
				<defs>
					<polygon id="SVGID_21_" points="2848.3,422.8 2884.5,422.8 2877,319.6 2848.3,319.6 					"/>
				</defs>
				<clipPath id="SVGID_22_">
					<use xlink:href="#SVGID_21_"  overflow="visible"/>
				</clipPath>
				
					<line clip-path="url(#SVGID_22_)" fill="none" stroke="#CBDEEF" stroke-width="4" stroke-miterlimit="10" x1="2890.2" y1="349.8" x2="2848.3" y2="349.8"/>
			</g>
			<g>
				<defs>
					<polygon id="SVGID_23_" points="2848.3,422.8 2884.5,422.8 2877,319.6 2848.3,319.6 					"/>
				</defs>
				<clipPath id="SVGID_24_">
					<use xlink:href="#SVGID_23_"  overflow="visible"/>
				</clipPath>
				
					<line clip-path="url(#SVGID_24_)" fill="none" stroke="#CBDEEF" stroke-width="4" stroke-miterlimit="10" x1="2890.2" y1="354.2" x2="2848.3" y2="354.2"/>
			</g>
			<g>
				<defs>
					<polygon id="SVGID_25_" points="2848.3,422.8 2884.5,422.8 2877,319.6 2848.3,319.6 					"/>
				</defs>
				<clipPath id="SVGID_26_">
					<use xlink:href="#SVGID_25_"  overflow="visible"/>
				</clipPath>
				
					<line clip-path="url(#SVGID_26_)" fill="none" stroke="#CBDEEF" stroke-width="4" stroke-miterlimit="10" x1="2890.2" y1="358.5" x2="2848.3" y2="358.5"/>
			</g>
			<g>
				<defs>
					<polygon id="SVGID_27_" points="2848.3,422.8 2884.5,422.8 2877,319.6 2848.3,319.6 					"/>
				</defs>
				<clipPath id="SVGID_28_">
					<use xlink:href="#SVGID_27_"  overflow="visible"/>
				</clipPath>
				
					<line clip-path="url(#SVGID_28_)" fill="none" stroke="#CBDEEF" stroke-width="4" stroke-miterlimit="10" x1="2890.2" y1="362.9" x2="2848.3" y2="362.9"/>
			</g>
			<g>
				<defs>
					<polygon id="SVGID_29_" points="2848.3,422.8 2884.5,422.8 2877,319.6 2848.3,319.6 					"/>
				</defs>
				<clipPath id="SVGID_30_">
					<use xlink:href="#SVGID_29_"  overflow="visible"/>
				</clipPath>
				
					<line clip-path="url(#SVGID_30_)" fill="none" stroke="#CBDEEF" stroke-width="4" stroke-miterlimit="10" x1="2890.2" y1="367.2" x2="2848.3" y2="367.2"/>
			</g>
			<g>
				<defs>
					<polygon id="SVGID_31_" points="2848.3,422.8 2884.5,422.8 2877,319.6 2848.3,319.6 					"/>
				</defs>
				<clipPath id="SVGID_32_">
					<use xlink:href="#SVGID_31_"  overflow="visible"/>
				</clipPath>
				
					<line clip-path="url(#SVGID_32_)" fill="none" stroke="#CBDEEF" stroke-width="4" stroke-miterlimit="10" x1="2890.2" y1="371.6" x2="2848.3" y2="371.6"/>
			</g>
			<g>
				<defs>
					<polygon id="SVGID_33_" points="2848.3,422.8 2884.5,422.8 2877,319.6 2848.3,319.6 					"/>
				</defs>
				<clipPath id="SVGID_34_">
					<use xlink:href="#SVGID_33_"  overflow="visible"/>
				</clipPath>
				
					<line clip-path="url(#SVGID_34_)" fill="none" stroke="#CBDEEF" stroke-width="4" stroke-miterlimit="10" x1="2890.2" y1="375.9" x2="2848.3" y2="375.9"/>
			</g>
			<g>
				<defs>
					<polygon id="SVGID_35_" points="2848.3,422.8 2884.5,422.8 2877,319.6 2848.3,319.6 					"/>
				</defs>
				<clipPath id="SVGID_36_">
					<use xlink:href="#SVGID_35_"  overflow="visible"/>
				</clipPath>
				
					<line clip-path="url(#SVGID_36_)" fill="none" stroke="#CBDEEF" stroke-width="4" stroke-miterlimit="10" x1="2890.2" y1="380.3" x2="2848.3" y2="380.3"/>
			</g>
			<g>
				<defs>
					<polygon id="SVGID_37_" points="2848.3,422.8 2884.5,422.8 2877,319.6 2848.3,319.6 					"/>
				</defs>
				<clipPath id="SVGID_38_">
					<use xlink:href="#SVGID_37_"  overflow="visible"/>
				</clipPath>
				
					<line clip-path="url(#SVGID_38_)" fill="none" stroke="#CBDEEF" stroke-width="4" stroke-miterlimit="10" x1="2890.2" y1="384.6" x2="2848.3" y2="384.6"/>
			</g>
			<g>
				<defs>
					<polygon id="SVGID_39_" points="2848.3,422.8 2884.5,422.8 2877,319.6 2848.3,319.6 					"/>
				</defs>
				<clipPath id="SVGID_40_">
					<use xlink:href="#SVGID_39_"  overflow="visible"/>
				</clipPath>
				
					<line clip-path="url(#SVGID_40_)" fill="none" stroke="#CBDEEF" stroke-width="4" stroke-miterlimit="10" x1="2890.2" y1="389" x2="2848.3" y2="389"/>
			</g>
			<g>
				<defs>
					<polygon id="SVGID_41_" points="2848.3,422.8 2884.5,422.8 2877,319.6 2848.3,319.6 					"/>
				</defs>
				<clipPath id="SVGID_42_">
					<use xlink:href="#SVGID_41_"  overflow="visible"/>
				</clipPath>
				
					<line clip-path="url(#SVGID_42_)" fill="none" stroke="#CBDEEF" stroke-width="4" stroke-miterlimit="10" x1="2890.2" y1="393.3" x2="2848.3" y2="393.3"/>
			</g>
			<g>
				<defs>
					<polygon id="SVGID_43_" points="2848.3,422.8 2884.5,422.8 2877,319.6 2848.3,319.6 					"/>
				</defs>
				<clipPath id="SVGID_44_">
					<use xlink:href="#SVGID_43_"  overflow="visible"/>
				</clipPath>
				
					<line clip-path="url(#SVGID_44_)" fill="none" stroke="#CBDEEF" stroke-width="4" stroke-miterlimit="10" x1="2890.2" y1="397.7" x2="2848.3" y2="397.7"/>
			</g>
			<g>
				<defs>
					<polygon id="SVGID_45_" points="2848.3,422.8 2884.5,422.8 2877,319.6 2848.3,319.6 					"/>
				</defs>
				<clipPath id="SVGID_46_">
					<use xlink:href="#SVGID_45_"  overflow="visible"/>
				</clipPath>
				
					<line clip-path="url(#SVGID_46_)" fill="none" stroke="#CBDEEF" stroke-width="4" stroke-miterlimit="10" x1="2890.2" y1="402" x2="2848.3" y2="402"/>
			</g>
			<g>
				<defs>
					<polygon id="SVGID_47_" points="2848.3,422.8 2884.5,422.8 2877,319.6 2848.3,319.6 					"/>
				</defs>
				<clipPath id="SVGID_48_">
					<use xlink:href="#SVGID_47_"  overflow="visible"/>
				</clipPath>
				
					<line clip-path="url(#SVGID_48_)" fill="none" stroke="#CBDEEF" stroke-width="4" stroke-miterlimit="10" x1="2890.2" y1="406.4" x2="2848.3" y2="406.4"/>
			</g>
			<g>
				<defs>
					<polygon id="SVGID_49_" points="2848.3,422.8 2884.5,422.8 2877,319.6 2848.3,319.6 					"/>
				</defs>
				<clipPath id="SVGID_50_">
					<use xlink:href="#SVGID_49_"  overflow="visible"/>
				</clipPath>
				
					<line clip-path="url(#SVGID_50_)" fill="none" stroke="#CBDEEF" stroke-width="4" stroke-miterlimit="10" x1="2890.2" y1="410.7" x2="2848.3" y2="410.7"/>
			</g>
			<g>
				<defs>
					<polygon id="SVGID_51_" points="2848.3,422.8 2884.5,422.8 2877,319.6 2848.3,319.6 					"/>
				</defs>
				<clipPath id="SVGID_52_">
					<use xlink:href="#SVGID_51_"  overflow="visible"/>
				</clipPath>
				
					<line clip-path="url(#SVGID_52_)" fill="none" stroke="#CBDEEF" stroke-width="4" stroke-miterlimit="10" x1="2890.2" y1="415.1" x2="2848.3" y2="415.1"/>
			</g>
			<g>
				<defs>
					<polygon id="SVGID_53_" points="2848.3,422.8 2884.5,422.8 2877,319.6 2848.3,319.6 					"/>
				</defs>
				<clipPath id="SVGID_54_">
					<use xlink:href="#SVGID_53_"  overflow="visible"/>
				</clipPath>
				
					<line clip-path="url(#SVGID_54_)" fill="none" stroke="#CBDEEF" stroke-width="4" stroke-miterlimit="10" x1="2890.2" y1="419.4" x2="2848.3" y2="419.4"/>
			</g>
			<g>
				<defs>
					<polygon id="SVGID_55_" points="2848.3,422.8 2884.5,422.8 2877,319.6 2848.3,319.6 					"/>
				</defs>
				<clipPath id="SVGID_56_">
					<use xlink:href="#SVGID_55_"  overflow="visible"/>
				</clipPath>
				
					<line clip-path="url(#SVGID_56_)" fill="none" stroke="#CBDEEF" stroke-width="4" stroke-miterlimit="10" x1="2890.2" y1="423.8" x2="2848.3" y2="423.8"/>
			</g>
			<g>
				<defs>
					<polygon id="SVGID_57_" points="2848.3,422.8 2884.5,422.8 2877,319.6 2848.3,319.6 					"/>
				</defs>
				<clipPath id="SVGID_58_">
					<use xlink:href="#SVGID_57_"  overflow="visible"/>
				</clipPath>
				<polygon opacity="0.2" clip-path="url(#SVGID_58_)" fill="#FFFFFF" enable-background="new    " points="2840.5,375.5 
					2844.8,384.4 2889.5,363.7 2885.2,354.9 				"/>
			</g>
			<g>
				<defs>
					<polygon id="SVGID_59_" points="2848.3,422.8 2884.5,422.8 2877,319.6 2848.3,319.6 					"/>
				</defs>
				<clipPath id="SVGID_60_">
					<use xlink:href="#SVGID_59_"  overflow="visible"/>
				</clipPath>
				<polygon opacity="0.2" clip-path="url(#SVGID_60_)" fill="#FFFFFF" enable-background="new    " points="2826.2,397.8 
					2835.5,415.5 2931.1,374.3 2921.9,356.6 				"/>
			</g>
		</g>
		<g>
			<path fill="#332F4A" d="M2860.6,304.8c0,0.2,0.5,0.4,1.1,0.4c0.6,0,1.1-0.2,1.1-0.4c0-0.2-0.5-0.4-1.1-0.4
				C2861,304.5,2860.6,304.6,2860.6,304.8z"/>
		</g>
		<polygon fill="#CBDEEF" points="2848.3,330 2877.8,330 2877,319.6 2848.3,319.6 		"/>
		<path opacity="0.1" enable-background="new    " d="M2848.3,440.9h9.6l22.4-104.1l-1.5-20.2c0-0.3-0.3-0.6-0.6-0.6h-30V440.9z"/>
		<polygon opacity="0.15" enable-background="new    " points="2848.3,440.9 2854.1,440.9 2859.9,316 2848.3,316 		"/>
	</g>
	<path clip-path="url(#SVGID_2_)" fill="#434F5D" d="M3019,457h-209.8v-15.4c0,0,50.7-3.4,111.9-3.4c33,0,97.9,3.4,97.9,3.4V457z"/>
	<path clip-path="url(#SVGID_2_)" fill="#37444F" d="M3319.5,465.4h-810.8L2341,458c0,0,363.6-20.2,600.2-20.2
		c127.6,0,585.3,20.2,585.3,20.2L3319.5,465.4L3319.5,465.4z"/>
	<path clip-path="url(#SVGID_2_)" fill="#434F5D" d="M3319.5,523.3h-812.6v-63.8c0,0,199.9-14.6,437.2-16.1
		c149.1-1,375.4,16.1,375.4,16.1V523.3z"/>
	<path opacity="0.1" clip-path="url(#SVGID_2_)" enable-background="new    " d="M2891.7,436.4c-0.1,0-0.1,0-0.2,0
		c-0.7-0.1-1.4-0.2-1.9-0.1c-0.2,0-0.4,0.1-0.5,0.2c-1.2-0.2-2.5-0.2-3.6,0c-1,0.2-1.6,0.5-1.9,0.9c-0.6-0.1-1.1-0.1-1.5,0
		c-0.6,0.1-0.8,0.4-0.7,0.7c-0.7-0.1-1.3-0.2-1.7-0.1c0,0-0.1,0-0.1,0c0,0-0.1,0-0.1,0c-3.7,2.7,6.1,5.8,9,4.5
		c2.7,1.6,6.3,2.6,8.1,2.3c0,0,0.1,0,0.1,0c0,0,0.1,0,0.1,0c0.8-0.1,1.1-0.5,0.9-1.1c-0.1-0.4-0.4-1-1.1-1.5c0.3,0,0.6,0,0.9,0
		c1.1-0.2,0.9-1-0.4-2C2897.8,439.8,2896.2,436,2891.7,436.4z"/>
	<path opacity="0.1" clip-path="url(#SVGID_2_)" enable-background="new    " d="M3056.3,439.6c-0.1,0-0.3,0-0.4,0.1
		c-1.3-0.3-2.6-0.3-3.6-0.1c-0.4,0.1-0.7,0.2-0.9,0.3c-2.3-0.4-4.5-0.4-6.7,0c-1.8,0.3-3,0.9-3.5,1.6c-1-0.1-2-0.2-2.8,0
		c-1.1,0.2-1.6,0.7-1.4,1.3c-1.2-0.3-2.4-0.3-3.2-0.2c-0.1,0-0.1,0-0.2,0c-0.1,0-0.6-1.1-0.6-1c-5.9,7,11.7,11.9,17.2,9.3
		c5.1,2.9,11.7,4.8,14.9,4.2c0.1,0,0.1,0,0.2,0c0.1,0,0.1,0,0.2,0c1.5-0.3,2-1,1.6-2c-0.1-0.8-0.8-1.7-2.1-2.8c0.6,0,1.2,0,1.6-0.1
		c2-0.4,1.6-1.9-0.8-3.7C3067.7,445.7,3064.7,438.7,3056.3,439.6z"/>
	<path id="Bush_32_" clip-path="url(#SVGID_2_)" fill="#4C9300" d="M2888.4,434.3c0-1.5,1.3-2.8,2.8-2.8c1.3,0,2.4,0.9,2.7,2.1
		c1.4,0.1,2.6,1.1,2.6,2.5c0,0.9-0.5,1-1.3,1.4c-2.9,1.5-9.5,0.7-9.5,0.7s-0.1-0.5-0.1-1.1C2885.7,435.6,2886.9,434.4,2888.4,434.3z
		"/>
	<ellipse clip-path="url(#SVGID_2_)" fill="#4C9300" cx="2893.9" cy="437.7" rx="2.7" ry="1.7"/>
	<g clip-path="url(#SVGID_2_)">
		<path opacity="0.1" enable-background="new    " d="M2892,435.9c-0.4-0.9-1.1-1.9-2.8-2c-0.1-2-1.7-3.6-3.7-3.6
			c-1.7,0-3.1,1.2-3.5,2.7c-1.8,0.2-3.4,1.4-3.4,3.3c0,1,0.3,2.3,1.5,2.7l7.9-0.1c0.5,0.5,1.3,0.8,2.1,0.8c1.5,0,2.8-1,2.8-2.2
			C2893,437.3,2893.1,436.6,2892,435.9z"/>
		<path opacity="0.1" enable-background="new    " d="M2892,437.6c0-2-1.6-3.6-3.6-3.7c-0.1-2-1.7-3.6-3.7-3.6c-1.7,0-2.9,1-3.3,2.6
			c-1.8,0.2-3.4,1.6-3.6,3.4c-0.2,2.3,1,3.1,2.4,3.1c1,0,2-0.2,2.4-0.4h9.3C2891.8,439.1,2892,438.4,2892,437.6z"/>
		<path id="Bush_30_" fill="#6CCC00" d="M2888.8,434c-0.1-2-1.7-3.6-3.7-3.6c-1.7,0-3.1,1.2-3.5,2.7c-1.8,0.2-3.5,1.4-3.5,4.3
			c0,1,0.1,1.2,1.2,1.6l12.7-0.1c0,0,0.4-0.5,0.4-1.3C2892.4,435.7,2890.8,434,2888.8,434z"/>
		<ellipse fill="#6CCC00" cx="2880.3" cy="437.6" rx="2.2" ry="1.9"/>
		<ellipse fill="#6CCC00" cx="2880.7" cy="437.6" rx="2.6" ry="1.9"/>
		<ellipse opacity="0.1" enable-background="new    " cx="2883.4" cy="438" rx="2.2" ry="1.6"/>
		<ellipse fill="#6CCC00" cx="2883.3" cy="437.8" rx="2.2" ry="1.5"/>
		<ellipse fill="#6CCC00" cx="2890.2" cy="437.6" rx="2.7" ry="2.1"/>
		<ellipse fill="#6CCC00" cx="2890.2" cy="437.6" rx="2.7" ry="2.1"/>
		<ellipse opacity="0.1" enable-background="new    " cx="2886.4" cy="438.1" rx="2.7" ry="1.7"/>
		<ellipse fill="#6CCC00" cx="2886.5" cy="437.9" rx="2.7" ry="1.7"/>
	</g>
	<g clip-path="url(#SVGID_2_)">
		<polygon fill="#332F4A" points="2816.2,258.8 2816.7,258.8 2817,279.7 2815.9,279.7 		"/>
		<polygon fill="#332F4A" points="2811.3,269.3 2811.5,269.3 2811.7,279 2811.1,279 		"/>
		<g>
			<path fill="#332F4A" d="M2815.4,262.2c0,0.2,0.5,0.4,1.1,0.4s1.1-0.2,1.1-0.4c0-0.2-0.5-0.4-1.1-0.4S2815.4,262,2815.4,262.2z"/>
		</g>
		<g>
			<rect x="2805.5" y="279" fill="#555657" width="46.7" height="161.4"/>
			<g opacity="0.3">
				<path fill="#333A46" d="M2851.9,279.3V440h-46.1V279.3H2851.9 M2852.2,279h-46.7v161.4h46.7V279L2852.2,279z"/>
			</g>
		</g>
		<rect x="2807.7" y="299.1" fill="#CBDEEF" width="42.2" height="114"/>
		<g>
			<g>
				<defs>
					<rect id="SVGID_61_" x="2807.7" y="299" width="42.2" height="113.4"/>
				</defs>
				<clipPath id="SVGID_62_">
					<use xlink:href="#SVGID_61_"  overflow="visible"/>
				</clipPath>
				<polygon opacity="0.2" clip-path="url(#SVGID_62_)" fill="#FFFFFF" enable-background="new    " points="2792.9,382.9 
					2799.3,394.6 2858.8,363.9 2852.4,352.1 				"/>
			</g>
			<g>
				<defs>
					<rect id="SVGID_63_" x="2807.7" y="299" width="42.2" height="113.4"/>
				</defs>
				<clipPath id="SVGID_64_">
					<use xlink:href="#SVGID_63_"  overflow="visible"/>
				</clipPath>
				<polygon opacity="0.2" clip-path="url(#SVGID_64_)" fill="#FFFFFF" enable-background="new    " points="2797.6,397 2807.5,414 
					2900.2,369.3 2890.3,352.2 				"/>
			</g>
		</g>
		<rect x="2836" y="298.8" fill="#555657" width="0.7" height="113.6"/>
		<rect x="2820.9" y="298.8" fill="#555657" width="0.7" height="113.6"/>
		<rect x="2806.8" y="313.2" fill="#555657" width="44" height="1.3"/>
		<rect x="2836.7" y="313.2" fill="#8C8C8C" width="13.2" height="0.2"/>
		<rect x="2821.7" y="313.2" fill="#8C8C8C" width="14.3" height="0.2"/>
		<rect x="2807.7" y="313.2" fill="#8C8C8C" width="13.2" height="0.2"/>
		<rect x="2806.8" y="327.3" fill="#555657" width="44" height="1.3"/>
		<rect x="2806.8" y="341.5" fill="#555657" width="44" height="1.3"/>
		<rect x="2806.8" y="355.7" fill="#555657" width="44" height="1.3"/>
		<rect x="2806.8" y="369.8" fill="#555657" width="44" height="1.3"/>
		<rect x="2806.8" y="383.9" fill="#555657" width="44" height="1.3"/>
		<rect x="2806.8" y="398.1" fill="#555657" width="44" height="1.3"/>
		<rect x="2806.8" y="412.3" fill="#555657" width="44" height="1.3"/>
		<rect x="2807.7" y="424" fill="#CBDEEF" width="42.2" height="16.3"/>
		<rect x="2828.6" y="424" fill="#FFFFFF" width="0.4" height="16.3"/>
		<g>
			<g>
				<defs>
					<rect id="SVGID_65_" x="2807.7" y="424" width="42.2" height="16.3"/>
				</defs>
				<clipPath id="SVGID_66_">
					<use xlink:href="#SVGID_65_"  overflow="visible"/>
				</clipPath>
				<polygon opacity="0.2" clip-path="url(#SVGID_66_)" fill="#FFFFFF" enable-background="new    " points="2805,431 2807.5,436.1 
					2833,424.3 2830.5,419.2 				"/>
			</g>
			<g>
				<defs>
					<rect id="SVGID_67_" x="2807.7" y="424" width="42.2" height="16.3"/>
				</defs>
				<clipPath id="SVGID_68_">
					<use xlink:href="#SVGID_67_"  overflow="visible"/>
				</clipPath>
				<polygon opacity="0.2" clip-path="url(#SVGID_68_)" fill="#FFFFFF" enable-background="new    " points="2796.8,443.7 
					2802.1,453.8 2856.8,430.3 2851.5,420.2 				"/>
			</g>
		</g>
		<polygon opacity="0.15" enable-background="new    " points="2805.5,279 2852.2,279 2852.2,286.3 2805.5,288.8 		"/>
		<path fill="#282828" d="M2852.4,285.3h-46.9V279h46.9c0.3,0,0.6,0.3,0.6,0.6v5.1C2853,285.1,2852.7,285.3,2852.4,285.3z"/>
		<rect x="2836.7" y="327.3" fill="#8C8C8C" width="13.2" height="0.2"/>
		<rect x="2821.6" y="327.3" fill="#8C8C8C" width="14.3" height="0.2"/>
		<rect x="2807.7" y="327.3" fill="#8C8C8C" width="13.2" height="0.2"/>
		<rect x="2836.7" y="341.5" fill="#8C8C8C" width="13.2" height="0.2"/>
		<rect x="2821.6" y="341.5" fill="#8C8C8C" width="14.3" height="0.2"/>
		<rect x="2807.7" y="341.5" fill="#8C8C8C" width="13.2" height="0.2"/>
		<rect x="2836.7" y="355.6" fill="#8C8C8C" width="13.2" height="0.2"/>
		<rect x="2821.6" y="355.6" fill="#8C8C8C" width="14.3" height="0.2"/>
		<rect x="2807.7" y="355.6" fill="#8C8C8C" width="13.2" height="0.2"/>
		<rect x="2836.7" y="369.8" fill="#8C8C8C" width="13.2" height="0.2"/>
		<rect x="2821.6" y="369.8" fill="#8C8C8C" width="14.3" height="0.2"/>
		<rect x="2807.7" y="369.8" fill="#8C8C8C" width="13.2" height="0.2"/>
		<rect x="2836.7" y="383.9" fill="#8C8C8C" width="13.2" height="0.2"/>
		<rect x="2821.6" y="383.9" fill="#8C8C8C" width="14.3" height="0.2"/>
		<rect x="2807.7" y="383.9" fill="#8C8C8C" width="13.2" height="0.2"/>
		<rect x="2836.7" y="398" fill="#8C8C8C" width="13.2" height="0.2"/>
		<rect x="2821.6" y="398" fill="#8C8C8C" width="14.3" height="0.2"/>
		<rect x="2807.7" y="398" fill="#8C8C8C" width="13.2" height="0.2"/>
		<rect x="2836.7" y="412.2" fill="#8C8C8C" width="13.2" height="0.2"/>
		<rect x="2821.6" y="412.2" fill="#8C8C8C" width="14.3" height="0.2"/>
		<rect x="2807.7" y="412.2" fill="#8C8C8C" width="13.2" height="0.2"/>
		<rect x="2807.7" y="423.8" fill="#8C8C8C" width="42.2" height="0.2"/>
		<polygon opacity="7.000000e-02" fill="#2D384E" enable-background="new    " points="2805.7,279 2852.4,279 2852.4,304.3 
			2805.7,440.3 		"/>
	</g>
	<path opacity="0.1" clip-path="url(#SVGID_2_)" enable-background="new    " d="M2858.5,438.2c-0.1,0-0.2,0-0.3,0
		c-0.9-0.2-1.8-0.2-2.5-0.1c-0.3,0.1-0.5,0.1-0.6,0.2c-1.6-0.2-3.1-0.3-4.6,0c-1.3,0.2-2.1,0.6-2.5,1.1c-0.7-0.1-1.4-0.1-1.9,0
		c-0.7,0.1-1.1,0.5-1,0.9c-0.8-0.2-1.6-0.2-2.2-0.1c0,0-0.1,0-0.1,0c0,0-0.1,0-0.1,0c-4.8,3.3,7.8,7.2,11.6,5.5
		c3.5,2,8.1,3.2,10.3,2.8c0,0,0.1,0,0.1,0c0,0,0.1,0,0.1,0c1-0.2,1.4-0.7,1.1-1.3c-0.1-0.5-0.6-1.2-1.4-1.9c0.4,0,0.8,0,1.1,0
		c1.4-0.2,1.1-1.3-0.5-2.5C2866.4,442.3,2864.3,437.6,2858.5,438.2z"/>
	<g clip-path="url(#SVGID_2_)">
		<ellipse opacity="0.1" enable-background="new    " cx="2843.7" cy="439.7" rx="3.8" ry="2.5"/>
		<ellipse fill="#6CCC00" cx="2843.9" cy="438.9" rx="3.6" ry="3.1"/>
		<path opacity="0.1" enable-background="new    " d="M2863.5,436.8c0-3.1-2.5-5-5.5-5.4c-0.7-2.5-3-4.4-5.8-4.4
			c-3.2,0-5.9,2.6-6,5.8c-3.2,0.1-5.8,2.7-5.8,6c0,1.3,0.2,2.4,0.2,2.4h9.1c1.3,0.8,3.5,1.3,5.9,1.3
			C2861.2,442.5,2863.5,440,2863.5,436.8z"/>
		<path fill="#6CCC00" d="M2863.2,436.5c0-3.1-2.5-5-5.5-5.3c-0.7-2.5-3-4.4-5.7-4.4c-3.2,0-5.8,2.6-5.9,5.8
			c-3.2,0.1-5.7,2.7-5.7,5.9c0,1.3,1.2,2.4,1.2,2.4h8.1c1.3,0.8,3.4,1.3,5.8,1.3C2860.8,442.1,2863.2,439.7,2863.2,436.5z"/>
		<ellipse fill="#6CCC00" cx="2843.9" cy="438.9" rx="3.6" ry="3.1"/>
		<ellipse opacity="0.1" enable-background="new    " cx="2848.9" cy="439.7" rx="3.6" ry="2.5"/>
		<ellipse fill="#6CCC00" cx="2848.9" cy="439.3" rx="3.6" ry="2.5"/>
	</g>
	<g clip-path="url(#SVGID_2_)">
		<rect x="2949" y="383.9" opacity="0.1" enable-background="new    " width="44.4" height="53.7"/>
		<rect x="2935.3" y="385.8" fill="#E8E9E5" width="58.2" height="53.7"/>
		<rect x="2935.3" y="385.8" fill="#FFFFFF" width="58.2" height="0.5"/>
		<rect x="2935.3" y="397.8" fill="#525D6D" width="58.2" height="11.2"/>
		<rect x="2935.3" y="415.3" fill="#525D6D" width="58.2" height="11.2"/>
		<polygon opacity="0.2" enable-background="new    " points="2993.5,400.4 2935.3,400.3 2935.3,397.8 2993.5,397.8 		"/>
		<rect x="2935.3" y="414.8" fill="#FFFFFF" width="58.2" height="0.5"/>
		<rect x="2935.3" y="426.5" fill="#FFFFFF" width="58.2" height="0.5"/>
		<rect x="2935.3" y="397.6" fill="#FFFFFF" width="58.2" height="0.5"/>
		<polygon opacity="5.000000e-02" enable-background="new    " points="2993.5,439.4 2933.5,439.4 2980,385.8 2993.5,385.8 		"/>
		<polygon opacity="0.2" enable-background="new    " points="2993.5,416.2 2935.3,417.1 2935.3,415.3 2993.5,415.3 		"/>
		<rect x="2935.3" y="425.6" opacity="0.2" enable-background="new    " width="58.2" height="0.9"/>
		<rect x="2935.3" y="408.1" opacity="0.2" enable-background="new    " width="58.2" height="0.9"/>
		<g>
			<g>
				<defs>
					<rect id="SVGID_69_" x="2935.3" y="397.8" width="58.2" height="11.2"/>
				</defs>
				<clipPath id="SVGID_70_">
					<use xlink:href="#SVGID_69_"  overflow="visible"/>
				</clipPath>
				<polygon opacity="0.1" clip-path="url(#SVGID_70_)" fill="#FFFFFF" enable-background="new    " points="2997.7,396.5 
					3021.5,396.5 2997.7,409 2973.8,409 				"/>
			</g>
			<g>
				<defs>
					<rect id="SVGID_71_" x="2935.3" y="397.8" width="58.2" height="11.2"/>
				</defs>
				<clipPath id="SVGID_72_">
					<use xlink:href="#SVGID_71_"  overflow="visible"/>
				</clipPath>
				<polygon opacity="0.1" clip-path="url(#SVGID_72_)" fill="#FFFFFF" enable-background="new    " points="2990.6,396.5 
					2994.2,396.5 2970.4,409 2966.7,409 				"/>
			</g>
		</g>
		<g>
			<g>
				<defs>
					<rect id="SVGID_73_" x="2935.3" y="415.3" width="58.2" height="11.2"/>
				</defs>
				<clipPath id="SVGID_74_">
					<use xlink:href="#SVGID_73_"  overflow="visible"/>
				</clipPath>
				<polygon opacity="0.1" clip-path="url(#SVGID_74_)" fill="#FFFFFF" enable-background="new    " points="2966.1,414 2990,414 
					2966.2,426.5 2942.4,426.5 				"/>
			</g>
			<g>
				<defs>
					<rect id="SVGID_75_" x="2935.3" y="415.3" width="58.2" height="11.2"/>
				</defs>
				<clipPath id="SVGID_76_">
					<use xlink:href="#SVGID_75_"  overflow="visible"/>
				</clipPath>
				<polygon opacity="0.1" clip-path="url(#SVGID_76_)" fill="#FFFFFF" enable-background="new    " points="2959.1,414 2962.7,414 
					2938.9,426.5 2935.2,426.5 				"/>
			</g>
		</g>
	</g>
	<g clip-path="url(#SVGID_2_)">
		<path opacity="5.000000e-02" enable-background="new    " d="M3043.7,364.8h-54.5c-0.4,0-0.7,0.3-0.7,0.7v3.3l0.8,0.5v20.3h1.2
			v49.6h3.1h49.1v-69.9l1.6-0.5v-3.3C3044.4,365.1,3044.1,364.8,3043.7,364.8z"/>
		<polygon fill="#CF7834" points="2992.1,440.3 3044.3,441.3 3044.3,370.4 2992.1,370.4 		"/>
		<g>
			<rect x="3025.9" y="413.4" fill="#695E47" width="12.9" height="7.1"/>
			<rect x="2997.7" y="413.4" fill="#695E47" width="12.9" height="7.1"/>
			<rect x="3011.8" y="413.4" fill="#695E47" width="12.9" height="7.1"/>
			<polygon opacity="0.1" enable-background="new    " points="2997.7,420.5 2998.4,415.2 3010.6,413.8 3010.6,413.4 2997.7,413.4 
							"/>
			<polygon opacity="0.1" enable-background="new    " points="3011.8,420.5 3012.6,414.6 3024.7,413.8 3024.7,413.4 3011.8,413.4 
							"/>
			<polygon opacity="0.1" enable-background="new    " points="3025.9,420.5 3026.7,414.1 3038.8,413.8 3038.8,413.4 3025.9,413.4 
							"/>
			<polygon fill="#E5A04F" points="3025.9,420.7 3038.8,420.7 3038.8,420.5 3038.8,420.5 3025.9,420.5 3025.9,420.5 			"/>
			<polygon fill="#E5A04F" points="3011.7,420.7 3024.7,420.7 3024.7,420.5 3024.7,420.5 3011.7,420.5 3011.7,420.5 			"/>
			<polygon fill="#E5A04F" points="2997.6,420.7 3010.6,420.7 3010.6,420.5 3010.6,420.5 2997.6,420.5 2997.6,420.5 			"/>
		</g>
		<polygon fill="#D58B3B" points="3041.2,441.2 3044.3,441.3 3044.3,370.4 3041.2,370.4 		"/>
		<path fill="#ECE7E3" d="M3045.2,366h-54c-0.4,0-0.7,0.3-0.7,0.7v3.3l1.6,0.5h52.2l1.6-0.5v-3.3
			C3045.9,366.3,3045.6,366,3045.2,366z"/>
		<polygon fill="#C8C8C8" points="2990.5,369.9 2990.5,369.9 2992.1,370.4 3044.3,370.4 3045.9,369.9 		"/>
		<rect x="2992.1" y="370.4" fill="#D58B3B" width="3.1" height="69.9"/>
		<polygon opacity="0.1" enable-background="new    " points="2995.3,440.3 2995.6,440.3 2995.9,370.4 2995.3,370.4 		"/>
		<rect x="3040.8" y="370.4" opacity="0.1" enable-background="new    " width="0.3" height="70.8"/>
		<polygon opacity="0.1" enable-background="new    " points="3044.3,370.4 2992.1,370.4 2992.1,375.2 2995.3,375 2995.3,373.9 
			3041.2,372 3041.2,371.4 3044.4,371.4 		"/>
		<polygon opacity="0.1" enable-background="new    " points="3044.3,370.4 2992.1,370.4 2992.1,370.7 2995.3,370.7 2995.3,371.3 
			3041.2,371.3 3041.2,370.7 3044.4,370.7 		"/>
		<rect x="3025.9" y="373.6" fill="#695E47" width="12.9" height="7.1"/>
		<rect x="2997.7" y="373.6" fill="#695E47" width="12.9" height="7.1"/>
		<rect x="3011.8" y="373.6" fill="#695E47" width="12.9" height="7.1"/>
		<rect x="3025.9" y="383.5" fill="#695E47" width="12.9" height="7.1"/>
		<rect x="2997.7" y="383.5" fill="#695E47" width="12.9" height="7.1"/>
		<polygon fill="#E5A04F" points="3025.9,380.9 3038.8,380.9 3038.8,380.7 3038.8,380.7 3025.9,380.7 3025.9,380.7 		"/>
		<polygon fill="#E5A04F" points="3011.7,380.9 3024.7,380.9 3024.7,380.7 3024.7,380.7 3011.7,380.7 3011.7,380.7 		"/>
		<polygon fill="#E5A04F" points="2997.6,380.9 3010.6,380.9 3010.6,380.7 3010.6,380.7 2997.6,380.7 2997.6,380.7 		"/>
		<rect x="3011.8" y="383.5" fill="#695E47" width="12.9" height="7.1"/>
		<polygon fill="#847565" points="3025.9,440.9 3038.8,441.2 3038.8,425.5 3025.9,425.5 		"/>
		<polygon fill="#847565" points="3011.7,440.7 3024.7,440.9 3024.7,425.5 3011.7,425.5 		"/>
		<polygon fill="#847565" points="2997.7,440.4 3010.6,440.7 3010.6,425.5 2997.7,425.5 		"/>
		<polygon opacity="0.1" enable-background="new    " points="2997.7,440 2998.4,429.3 3010.6,426.5 3010.6,425.5 2997.7,425.5 		
			"/>
		<polygon opacity="0.1" enable-background="new    " points="3011.8,439.5 3012.6,428.2 3024.7,426.5 3024.7,425.5 3011.8,425.5 		
			"/>
		<polygon opacity="0.1" enable-background="new    " points="3025.9,440.4 3026.7,427.2 3038.8,426.5 3038.8,425.5 3025.9,425.5 		
			"/>
		<polygon opacity="0.1" enable-background="new    " points="2997.7,390.6 2998.4,385.3 3010.6,384 3010.6,383.5 2997.7,383.5 		
			"/>
		<polygon opacity="0.1" enable-background="new    " points="3011.8,390.6 3012.6,384.8 3024.7,384 3024.7,383.5 3011.8,383.5 		
			"/>
		<polygon opacity="0.1" enable-background="new    " points="3025.9,390.6 3026.7,384.3 3038.8,384 3038.8,383.5 3025.9,383.5 		
			"/>
		<polygon opacity="0.1" enable-background="new    " points="2997.7,380.7 2998.4,375.4 3010.6,374 3010.6,373.6 2997.7,373.6 		
			"/>
		<polygon opacity="0.1" enable-background="new    " points="3011.8,380.7 3012.6,374.8 3024.7,374 3024.7,373.6 3011.8,373.6 		
			"/>
		<polygon opacity="0.1" enable-background="new    " points="3025.9,380.7 3026.7,374.4 3038.8,374 3038.8,373.6 3025.9,373.6 		
			"/>
		<polyline opacity="5.000000e-02" enable-background="new    " points="3022.8,370.4 2992.1,370.4 2992.1,389.1 2995.3,388.4 
			2995.3,387.5 3041.2,373.6 3041.2,372.7 3044.3,372 3044.3,370.4 3022.8,370.4 		"/>
		<g opacity="0.2" enable-background="new    ">
			<g>
				<defs>
					<polygon id="SVGID_77_" points="3011.8,440.1 3024.7,434.4 3024.7,425.5 3011.8,425.5 					"/>
				</defs>
				<clipPath id="SVGID_78_">
					<use xlink:href="#SVGID_77_"  overflow="visible"/>
				</clipPath>
				<polygon opacity="0.2" clip-path="url(#SVGID_78_)" fill="#FFFFFF" enable-background="new    " points="3011.1,409.5 
					3011.6,410.3 3025.9,403.8 3025.6,403 				"/>
			</g>
			<g>
				<defs>
					<polygon id="SVGID_79_" points="3011.8,440.1 3024.7,434.4 3024.7,425.5 3011.8,425.5 					"/>
				</defs>
				<clipPath id="SVGID_80_">
					<use xlink:href="#SVGID_79_"  overflow="visible"/>
				</clipPath>
				<polygon opacity="0.2" clip-path="url(#SVGID_80_)" fill="#FFFFFF" enable-background="new    " points="3008.9,433.5 
					3010.1,435.8 3027.6,428.3 3026.3,426 				"/>
			</g>
		</g>
		<g opacity="0.2" enable-background="new    ">
			<g>
				<defs>
					<rect id="SVGID_81_" x="3011.8" y="383.5" width="12.9" height="7.1"/>
				</defs>
				<clipPath id="SVGID_82_">
					<use xlink:href="#SVGID_81_"  overflow="visible"/>
				</clipPath>
				<polygon opacity="0.2" clip-path="url(#SVGID_82_)" fill="#FFFFFF" enable-background="new    " points="3011.1,388.3 
					3011.6,389.1 3025.9,382.6 3025.6,381.8 				"/>
			</g>
			<g>
				<defs>
					<rect id="SVGID_83_" x="3011.8" y="383.5" width="12.9" height="7.1"/>
				</defs>
				<clipPath id="SVGID_84_">
					<use xlink:href="#SVGID_83_"  overflow="visible"/>
				</clipPath>
				<polygon opacity="0.2" clip-path="url(#SVGID_84_)" fill="#FFFFFF" enable-background="new    " points="3008.9,391.4 
					3010.1,393.8 3027.6,386.3 3026.3,383.9 				"/>
			</g>
		</g>
		<g opacity="0.2" enable-background="new    ">
			<g>
				<defs>
					<rect id="SVGID_85_" x="3025.9" y="393.5" width="12.9" height="7.1"/>
				</defs>
				<clipPath id="SVGID_86_">
					<use xlink:href="#SVGID_85_"  overflow="visible"/>
				</clipPath>
				<polygon opacity="0.2" clip-path="url(#SVGID_86_)" fill="#FFFFFF" enable-background="new    " points="3025.2,402.5 
					3025.6,403.3 3040,396.9 3039.7,396.1 				"/>
			</g>
			<g>
				<defs>
					<rect id="SVGID_87_" x="3025.9" y="393.5" width="12.9" height="7.1"/>
				</defs>
				<clipPath id="SVGID_88_">
					<use xlink:href="#SVGID_87_"  overflow="visible"/>
				</clipPath>
				<polygon opacity="0.2" clip-path="url(#SVGID_88_)" fill="#FFFFFF" enable-background="new    " points="3023,405.7 3024.2,408 
					3041.7,400.6 3040.4,398.2 				"/>
			</g>
		</g>
		<g opacity="0.2" enable-background="new    ">
			<g>
				<defs>
					<rect id="SVGID_89_" x="2997.7" y="393.5" width="12.9" height="7.1"/>
				</defs>
				<clipPath id="SVGID_90_">
					<use xlink:href="#SVGID_89_"  overflow="visible"/>
				</clipPath>
				<polygon opacity="0.2" clip-path="url(#SVGID_90_)" fill="#FFFFFF" enable-background="new    " points="2997,394.8 
					2997.5,395.6 3011.9,389.1 3011.5,388.3 				"/>
			</g>
			<g>
				<defs>
					<rect id="SVGID_91_" x="2997.7" y="393.5" width="12.9" height="7.1"/>
				</defs>
				<clipPath id="SVGID_92_">
					<use xlink:href="#SVGID_91_"  overflow="visible"/>
				</clipPath>
				<polygon opacity="0.2" clip-path="url(#SVGID_92_)" fill="#FFFFFF" enable-background="new    " points="2994.8,397.9 
					2996.1,400.3 3013.5,392.8 3012.2,390.4 				"/>
			</g>
		</g>
		<g opacity="0.2" enable-background="new    ">
			<g>
				<defs>
					<rect id="SVGID_93_" x="2997.7" y="383.5" width="12.9" height="7.1"/>
				</defs>
				<clipPath id="SVGID_94_">
					<use xlink:href="#SVGID_93_"  overflow="visible"/>
				</clipPath>
				<polygon opacity="0.2" clip-path="url(#SVGID_94_)" fill="#FFFFFF" enable-background="new    " points="2997,394.7 
					2997.5,395.5 3011.9,389 3011.5,388.2 				"/>
			</g>
			<g>
				<defs>
					<rect id="SVGID_95_" x="2997.7" y="383.5" width="12.9" height="7.1"/>
				</defs>
				<clipPath id="SVGID_96_">
					<use xlink:href="#SVGID_95_"  overflow="visible"/>
				</clipPath>
				<polygon opacity="0.2" clip-path="url(#SVGID_96_)" fill="#FFFFFF" enable-background="new    " points="2994.8,397.8 
					2996.1,400.2 3013.5,392.7 3012.2,390.4 				"/>
			</g>
		</g>
		<g opacity="0.2" enable-background="new    ">
			<g>
				<defs>
					<rect id="SVGID_97_" x="3025.9" y="383.5" width="12.9" height="7.1"/>
				</defs>
				<clipPath id="SVGID_98_">
					<use xlink:href="#SVGID_97_"  overflow="visible"/>
				</clipPath>
				<polygon opacity="0.2" clip-path="url(#SVGID_98_)" fill="#FFFFFF" enable-background="new    " points="3025.2,382.2 
					3025.6,383 3040,376.6 3039.7,375.7 				"/>
			</g>
			<g>
				<defs>
					<rect id="SVGID_99_" x="3025.9" y="383.5" width="12.9" height="7.1"/>
				</defs>
				<clipPath id="SVGID_100_">
					<use xlink:href="#SVGID_99_"  overflow="visible"/>
				</clipPath>
				<polygon opacity="0.2" clip-path="url(#SVGID_100_)" fill="#FFFFFF" enable-background="new    " points="3023,385.4 
					3024.2,387.7 3041.7,380.2 3040.4,377.9 				"/>
			</g>
		</g>
		<g opacity="0.2" enable-background="new    ">
			<g>
				<defs>
					<rect id="SVGID_101_" x="3025.9" y="373.6" width="12.9" height="7.1"/>
				</defs>
				<clipPath id="SVGID_102_">
					<use xlink:href="#SVGID_101_"  overflow="visible"/>
				</clipPath>
				<polygon opacity="0.2" clip-path="url(#SVGID_102_)" fill="#FFFFFF" enable-background="new    " points="3025.2,372.3 
					3025.6,373.1 3040,366.6 3039.7,365.8 				"/>
			</g>
			<g>
				<defs>
					<rect id="SVGID_103_" x="3025.9" y="373.6" width="12.9" height="7.1"/>
				</defs>
				<clipPath id="SVGID_104_">
					<use xlink:href="#SVGID_103_"  overflow="visible"/>
				</clipPath>
				<polygon opacity="0.2" clip-path="url(#SVGID_104_)" fill="#FFFFFF" enable-background="new    " points="3025.2,381.3 
					3025.6,382.1 3040,375.6 3039.7,374.8 				"/>
			</g>
			<g>
				<defs>
					<rect id="SVGID_105_" x="3025.9" y="373.6" width="12.9" height="7.1"/>
				</defs>
				<clipPath id="SVGID_106_">
					<use xlink:href="#SVGID_105_"  overflow="visible"/>
				</clipPath>
				<polygon opacity="0.2" clip-path="url(#SVGID_106_)" fill="#FFFFFF" enable-background="new    " points="3023,385.5 
					3024.2,387.8 3041.7,380.3 3040.4,378 				"/>
			</g>
		</g>
		<g opacity="0.2" enable-background="new    ">
			<g>
				<defs>
					<polygon id="SVGID_107_" points="3025.9,440.1 3038.8,434.4 3038.8,425.5 3025.9,425.5 					"/>
				</defs>
				<clipPath id="SVGID_108_">
					<use xlink:href="#SVGID_107_"  overflow="visible"/>
				</clipPath>
				<polygon opacity="0.2" clip-path="url(#SVGID_108_)" fill="#FFFFFF" enable-background="new    " points="3025.2,424.3 
					3025.6,425.1 3040,418.7 3039.7,417.9 				"/>
			</g>
			<g>
				<defs>
					<polygon id="SVGID_109_" points="3025.9,440.1 3038.8,434.4 3038.8,425.5 3025.9,425.5 					"/>
				</defs>
				<clipPath id="SVGID_110_">
					<use xlink:href="#SVGID_109_"  overflow="visible"/>
				</clipPath>
				<polygon opacity="0.2" clip-path="url(#SVGID_110_)" fill="#FFFFFF" enable-background="new    " points="3023,427.5 
					3024.2,429.8 3041.7,422.3 3040.4,420 				"/>
			</g>
		</g>
		<g opacity="0.2" enable-background="new    ">
			<g>
				<defs>
					<polygon id="SVGID_111_" points="2997.7,440.4 3010.6,439.3 3010.6,427.4 2997.7,431.7 					"/>
				</defs>
				<clipPath id="SVGID_112_">
					<use xlink:href="#SVGID_111_"  overflow="visible"/>
				</clipPath>
				<polygon opacity="0.2" clip-path="url(#SVGID_112_)" fill="#FFFFFF" enable-background="new    " points="2997,436.4 
					2997.5,437.2 3011.9,430.8 3011.5,429.9 				"/>
			</g>
			<g>
				<defs>
					<polygon id="SVGID_113_" points="2997.7,440.4 3010.6,439.3 3010.6,427.4 2997.7,431.7 					"/>
				</defs>
				<clipPath id="SVGID_114_">
					<use xlink:href="#SVGID_113_"  overflow="visible"/>
				</clipPath>
				<polygon opacity="0.2" clip-path="url(#SVGID_114_)" fill="#FFFFFF" enable-background="new    " points="2994.8,439.6 
					2996.1,441.9 3013.5,434.4 3012.2,432.1 				"/>
			</g>
		</g>
		<polygon fill="#E5A04F" points="3025.9,390.9 3038.8,390.9 3038.8,390.6 3038.8,390.6 3025.9,390.6 3025.9,390.6 		"/>
		<polygon fill="#E5A04F" points="3011.7,390.9 3024.7,390.9 3024.7,390.6 3024.7,390.6 3011.7,390.6 3011.7,390.6 		"/>
		<polygon fill="#E5A04F" points="2997.6,390.9 3010.6,390.9 3010.6,390.6 3010.6,390.6 2997.6,390.6 2997.6,390.6 		"/>
		<g>
			<rect x="3025.9" y="393.5" fill="#695E47" width="12.9" height="7.1"/>
			<rect x="2997.7" y="393.5" fill="#695E47" width="12.9" height="7.1"/>
			<rect x="3011.8" y="393.5" fill="#695E47" width="12.9" height="7.1"/>
			<polygon opacity="0.1" enable-background="new    " points="2997.7,400.6 2998.4,395.3 3010.6,393.9 3010.6,393.5 2997.7,393.5 
							"/>
			<polygon opacity="0.1" enable-background="new    " points="3011.8,400.6 3012.6,394.7 3024.7,393.9 3024.7,393.5 3011.8,393.5 
							"/>
			<polygon opacity="0.1" enable-background="new    " points="3025.9,400.6 3026.7,394.2 3038.8,393.9 3038.8,393.5 3025.9,393.5 
							"/>
			<polygon fill="#E5A04F" points="3025.9,400.8 3038.8,400.8 3038.8,400.6 3038.8,400.6 3025.9,400.6 3025.9,400.6 			"/>
			<polygon fill="#E5A04F" points="3011.7,400.8 3024.7,400.8 3024.7,400.6 3024.7,400.6 3011.7,400.6 3011.7,400.6 			"/>
			<polygon fill="#E5A04F" points="2997.6,400.8 3010.6,400.8 3010.6,400.6 3010.6,400.6 2997.6,400.6 2997.6,400.6 			"/>
		</g>
		<g>
			<rect x="3025.9" y="403.4" fill="#695E47" width="12.9" height="7.1"/>
			<rect x="2997.7" y="403.4" fill="#695E47" width="12.9" height="7.1"/>
			<rect x="3011.8" y="403.4" fill="#695E47" width="12.9" height="7.1"/>
			<polygon opacity="0.1" enable-background="new    " points="2997.7,410.6 2998.4,405.2 3010.6,403.9 3010.6,403.4 2997.7,403.4 
							"/>
			<polygon opacity="0.1" enable-background="new    " points="3011.8,410.6 3012.6,404.7 3024.7,403.9 3024.7,403.4 3011.8,403.4 
							"/>
			<polygon opacity="0.1" enable-background="new    " points="3025.9,410.6 3026.7,404.2 3038.8,403.9 3038.8,403.4 3025.9,403.4 
							"/>
			<polygon fill="#E5A04F" points="3025.9,410.8 3038.8,410.8 3038.8,410.6 3038.8,410.6 3025.9,410.6 3025.9,410.6 			"/>
			<polygon fill="#E5A04F" points="3011.7,410.8 3024.7,410.8 3024.7,410.6 3024.7,410.6 3011.7,410.6 3011.7,410.6 			"/>
			<polygon fill="#E5A04F" points="2997.6,410.8 3010.6,410.8 3010.6,410.6 3010.6,410.6 2997.6,410.6 2997.6,410.6 			"/>
		</g>
		<rect x="2990.5" y="369.6" fill="#FFFFFF" width="55.3" height="0.3"/>
	</g>
	<g clip-path="url(#SVGID_2_)">
		<g opacity="0.1">
			<path d="M2764.8,398.9c0-2.6-1.1-5.1-3.1-7.2v14.4C2763.7,404,2764.8,401.5,2764.8,398.9z"/>
		</g>
		<g>
			<g>
				<path fill="#FFCD00" d="M2809.1,431h-47.3v-42.5c0-3.9,3.2-7.1,7.1-7.1h33.1c3.9,0,7.1,3.2,7.1,7.1
					C2809.1,388.5,2809.1,431,2809.1,431z"/>
				<path fill="#FDC12D" d="M2809.1,431h-23.6v-49.6h16.5c3.9,0,7.1,3.2,7.1,7.1V431z"/>
				<g>
					<path fill="#FFFFCD" d="M2782.7,387.1c0,0.9,0.7,1.7,1.7,1.7h2c0.9,0,1.7-0.7,1.7-1.7V386c0-0.9-0.7-1.7-1.7-1.7h-2
						c-0.9,0-1.7,0.7-1.7,1.7V387.1z"/>
				</g>
				<g>
					<path fill="#F5F6C8" d="M2785.5,388.8h1c0.9,0,1.7-0.7,1.7-1.7V386c0-0.9-0.7-1.7-1.7-1.7h-1V388.8z"/>
				</g>
				<path fill="#004B9F" d="M2764.7,418.5h41.4v-22.1c0-2.5-2-4.5-4.5-4.5h-32.2c-2.5,0-4.6,2-4.6,4.5V418.5z"/>
				<path fill="#063B88" d="M2785.5,418.5h20.7v-22.1c0-2.5-2-4.5-4.5-4.5h-16.1V418.5z"/>
				<circle fill="#FFFFFF" cx="2769.4" cy="398.3" r="2.2"/>
				<circle fill="#FFFFFF" cx="2772.2" cy="395.5" r="0.6"/>
				<path fill="#FFFFCD" d="M2771.4,428.5h-9.6v-6.2h9.6c0.6,0,1,0.4,1,1v4.1C2772.4,428.1,2771.9,428.5,2771.4,428.5z"/>
				<path fill="#F6F5C8" d="M2771.4,428.5h-6l4.9-6.2h1.2c0.6,0,1,0.4,1,1v4.1C2772.4,428.1,2771.9,428.5,2771.4,428.5z"/>
				<rect x="2761.8" y="422.4" fill="#FF6C00" width="3" height="6.2"/>
				<path fill="#FFFFCD" d="M2799.5,428.5h9.6v-6.2h-9.6c-0.6,0-1,0.4-1,1v4.1C2798.4,428.1,2798.9,428.5,2799.5,428.5z"/>
				<rect x="2806.1" y="422.4" fill="#FF6C00" width="3" height="6.2"/>
				<path fill="#C19F25" d="M2806.3,437.6h-41.7c-1.6,0-2.8-1.3-2.8-2.8v-3.8h47.4v3.8C2809.1,436.3,2807.8,437.6,2806.3,437.6z"/>
				<path fill="#B3882B" d="M2806.3,437.6h-20.8V431h23.6v3.8C2809.1,436.3,2807.8,437.6,2806.3,437.6z"/>
				<g>
					<path opacity="0.2" enable-background="new    " d="M2785.5,425l-2,1.3l2,1.3l2-1.3L2785.5,425z M2784.5,426.2l1-0.7l1,0.7
						l-1,0.7L2784.5,426.2z"/>
					<g opacity="0.2">
						<polygon points="2784.5,425 2785.5,424.4 2786.6,425 2786.3,425.2 2786.8,425.5 2787.6,425 2785.5,423.8 2783.5,425 
							2784.3,425.5 2784.8,425.2 						"/>
					</g>
					<path fill="#FFFFFF" d="M2785.4,424.8l-2,1.3l2,1.3l2-1.3L2785.4,424.8z M2784.4,426l1-0.7l1,0.7l-1,0.7L2784.4,426z"/>
					<g>
						<polygon fill="#FFFFFF" points="2784.4,424.9 2785.4,424.2 2786.4,424.9 2786.2,425 2786.7,425.3 2787.4,424.9 2785.4,423.6 
							2783.4,424.9 2784.1,425.3 2784.6,425 						"/>
					</g>
				</g>
				<path fill="#2D4049" d="M2771.3,443.2h-1.7c-1.4,0-2.5-1.1-2.5-2.5v-3.1h6.7v3.1C2773.8,442.1,2772.6,443.2,2771.3,443.2z"/>
				<path fill="#2D4049" d="M2801.3,443.2h-1.7c-1.4,0-2.5-1.1-2.5-2.5v-3.1h6.7v3.1C2803.7,442.1,2802.6,443.2,2801.3,443.2z"/>
				<rect x="2797.1" y="437.6" fill="#1F2D32" width="6.7" height="1.4"/>
				<rect x="2767.1" y="437.6" fill="#1F2D32" width="6.7" height="1.4"/>
				<polygon fill="#F6F5C8" points="2800.2,428.5 2806.1,428.5 2806.1,422.4 2805.1,422.4 				"/>
			</g>
		</g>
		<path opacity="0.1" enable-background="new    " d="M2761.7,391.8v2c1.6,1.4,2.7,3.4,2.7,5.7c0,2.3-1,4.4-2.7,5.7v2
			c2.6-1.6,4.3-4.5,4.3-7.8C2766,396.3,2764.3,393.5,2761.7,391.8z"/>
		<g>
			<rect x="2755.4" y="395.9" fill="#2D4049" width="1.1" height="47.6"/>
			<rect x="2755.9" y="395.9" fill="#1F2D32" width="0.6" height="47.6"/>
			<g>
				<path fill="#D40049" d="M2755.8,408c-4.6,0-8.4-3.8-8.4-8.4s3.8-8.4,8.4-8.4c4.6,0,8.4,3.8,8.4,8.4
					C2764.2,404.2,2760.4,408,2755.8,408z"/>
				<path fill="#FFFFFF" d="M2755.8,392.1c4.2,0,7.5,3.4,7.5,7.5c0,4.2-3.4,7.5-7.5,7.5c-4.2,0-7.5-3.4-7.5-7.5
					C2748.3,395.5,2751.6,392.1,2755.8,392.1 M2755.8,390.4c-5.1,0-9.2,4.1-9.2,9.2c0,5.1,4.1,9.2,9.2,9.2s9.2-4.1,9.2-9.2
					C2765,394.5,2760.9,390.4,2755.8,390.4L2755.8,390.4z"/>
			</g>
			<g opacity="0.1">
				<path d="M2757.4,399.5c-0.5,0-0.9,0.4-0.9,0.9v0.2h0.4v-0.2c0-0.2,0.2-0.4,0.4-0.4c0.2,0,0.4,0.2,0.4,0.4v0.2h0.4v-0.2
					C2758.3,399.9,2757.9,399.5,2757.4,399.5z"/>
			</g>
			<g>
				<path fill="#FFFFFF" d="M2757.2,399.2c-0.5,0-0.9,0.4-0.9,0.9v0.2h0.4v-0.2c0-0.2,0.2-0.4,0.4-0.4s0.4,0.2,0.4,0.4v0.2h0.4v-0.2
					C2758.1,399.6,2757.7,399.2,2757.2,399.2z"/>
			</g>
			<g id="Shadow_6_">
				<path fill="#C00C47" d="M2755.8,407.1c4.2,0,7.5-3.4,7.5-7.5c0-4.2-3.4-7.5-7.5-7.5V407.1z"/>
			</g>
			<path fill="#AC0B3F" d="M2758.7,395.5h-5c-0.4,0-0.8,0.4-0.8,0.8v1.2v3.1v1.9c0,0.3,0.2,0.6,0.5,0.7v0.8c0,0.2,0.2,0.4,0.4,0.4
				h0.4c0.2,0,0.4-0.2,0.4-0.4v-0.7h3.3v0.7c0,0.2,0.2,0.4,0.4,0.4h0.4c0.2,0,0.4-0.2,0.4-0.4v-0.8c0.3-0.1,0.5-0.4,0.5-0.7v-2v-3.1
				v-1.2C2759.4,395.8,2759.1,395.5,2758.7,395.5z M2753.3,396.3c0-0.2,0.1-0.3,0.3-0.3h5c0.2,0,0.3,0.1,0.3,0.3v0.4
				c-0.1,0-0.2-0.1-0.3-0.1h-5c-0.1,0-0.2,0-0.3,0.1V396.3z M2753.9,402.6c-0.3,0-0.5-0.2-0.5-0.5c0-0.3,0.2-0.5,0.5-0.5
				s0.5,0.2,0.5,0.5S2754.2,402.6,2753.9,402.6z M2753.6,400.9c-0.2,0-0.3-0.1-0.3-0.3v-3.1c0-0.2,0.1-0.3,0.3-0.3h5
				c0.2,0,0.3,0.1,0.3,0.3v3.1c0,0.2-0.1,0.3-0.3,0.3L2753.6,400.9L2753.6,400.9z M2758.4,402.6c-0.3,0-0.5-0.2-0.5-0.5
				c0-0.3,0.2-0.5,0.5-0.5s0.5,0.2,0.5,0.5S2758.7,402.6,2758.4,402.6z"/>
			<path fill="#FFFFFF" d="M2758.5,395.2h-5c-0.4,0-0.8,0.4-0.8,0.8v1.2v3.1v1.9c0,0.3,0.2,0.6,0.5,0.7v0.8c0,0.2,0.2,0.4,0.4,0.4
				h0.4c0.2,0,0.4-0.2,0.4-0.4v-0.7h3.3v0.7c0,0.2,0.2,0.4,0.4,0.4h0.4c0.2,0,0.4-0.2,0.4-0.4V403c0.3-0.1,0.5-0.4,0.5-0.7v-2v-3.1
				V396C2759.3,395.6,2758.9,395.2,2758.5,395.2z M2753.2,396c0-0.2,0.1-0.3,0.3-0.3h5c0.2,0,0.3,0.1,0.3,0.3v0.4
				c-0.1,0-0.2-0.1-0.3-0.1h-5c-0.1,0-0.2,0-0.3,0.1V396z M2753.7,402.4c-0.3,0-0.5-0.2-0.5-0.5c0-0.3,0.2-0.5,0.5-0.5
				s0.5,0.2,0.5,0.5C2754.2,402.1,2754,402.4,2753.7,402.4z M2753.5,400.6c-0.2,0-0.3-0.1-0.3-0.3v-3.1c0-0.2,0.1-0.3,0.3-0.3h5
				c0.2,0,0.3,0.1,0.3,0.3v3.1c0,0.2-0.1,0.3-0.3,0.3H2753.5z M2758.2,402.4c-0.3,0-0.5-0.2-0.5-0.5c0-0.3,0.2-0.5,0.5-0.5
				s0.5,0.2,0.5,0.5C2758.8,402.1,2758.5,402.4,2758.2,402.4z"/>
		</g>
	</g>
	<path id="Bush_38_" clip-path="url(#SVGID_2_)" fill="#4C9300" d="M3044.8,436.7c0.1-2.8,2.2-5.1,4.8-5.1c2.2,0,4.1,1.6,4.6,3.9
		c2.4,0.3,4.4,2,4.4,4.7c0,1.4-0.4,3.2-1.9,3.8h-16.4c0,0-0.2-1-0.2-2.1C3040.2,439,3042.2,436.7,3044.8,436.7z"/>
	<g clip-path="url(#SVGID_2_)">
		<g>
			<path id="Bush_35_" opacity="0.1" enable-background="new    " d="M3052.9,438.7c0.1-2.5,2.1-4.4,4.5-4.4c2.1,0,3.9,1.4,4.4,3.4
				c2.3,0.2,4.2,1.7,4.2,4.1c0,1.2-0.4,2.8-1.8,3.4h-15.5c0,0-0.2-0.9-0.2-1.8C3048.5,440.8,3050.4,438.8,3052.9,438.7z"/>
			<path id="Bush_34_" fill="#6CCC00" d="M3051.9,438.7c0.1-2.5,2.1-4.4,4.5-4.4c2.1,0,3.9,1.4,4.4,3.4c2.3,0.2,4.2,1.7,4.2,4.1
				c0,1.2-0.4,2.8-1.8,3.4h-15.5c0,0-0.2-0.9-0.2-1.8C3047.5,440.8,3049.5,438.8,3051.9,438.7z"/>
			<ellipse opacity="0.1" enable-background="new    " cx="3060.5" cy="443.3" rx="3.6" ry="3.1"/>
			<ellipse fill="#6CCC00" cx="3060.4" cy="443.2" rx="3.7" ry="3.1"/>
			<ellipse opacity="0.1" enable-background="new    " cx="3056.2" cy="442.6" rx="3.9" ry="3.5"/>
			<ellipse fill="#6CCC00" cx="3055.6" cy="442.4" rx="4.5" ry="3.6"/>
			<path opacity="0.1" enable-background="new    " d="M3055.1,439.7c-0.6-1.6-1.9-3.3-4.7-3.4c-0.1-3.4-2.8-6.1-6.2-6.1
				c-2.9,0-5.3,2-6,4.6c-3.1,0.3-5.7,2.4-5.7,5.6c0,1.7,0.6,3.9,2.5,4.6l13.5-0.1c0.9,0.8,2.2,1.4,3.6,1.4c2.6,0,4.7-1.7,4.7-3.8
				C3056.7,442,3056.9,440.9,3055.1,439.7z"/>
			<path opacity="0.1" enable-background="new    " d="M3054.9,442.6c0-3.4-2.7-6.1-6-6.2c-0.1-3.4-2.8-6.1-6.2-6.1
				c-2.9,0-4.9,1.8-5.6,4.4c-3.1,0.3-5.8,2.8-6.2,5.8c-0.4,3.9,1.6,5.4,4,5.4c1.8,0,3.4-0.3,4-0.7h15.8
				C3054.7,445.1,3054.9,444,3054.9,442.6z"/>
			<path id="Bush_33_" fill="#6CCC00" d="M3049.6,436.4c-0.1-3.4-2.8-6.1-6.2-6.1c-2.9,0-5.3,2-6,4.6c-3.1,0.3-6,2.4-6,7.3
				c0,1.7,0.1,2,2,2.8l21.6,0.1c0,0,0.7-1.2,0.7-2.5C3055.6,439.2,3052.9,436.5,3049.6,436.4z"/>
		</g>
		<path fill="#6CCC00" d="M3038.9,442.4c0,1.8-1.7,3.2-3.8,3.2c-2.1,0-4.1-0.7-3.8-4c0.1-1.8,1.7-2.5,3.8-2.5
			C3037.2,439.2,3038.9,440.6,3038.9,442.4z"/>
		<ellipse fill="#6CCC00" cx="3035.8" cy="442.4" rx="4.5" ry="3.2"/>
		<ellipse opacity="0.1" enable-background="new    " cx="3040.3" cy="443.2" rx="3.8" ry="2.6"/>
		<ellipse fill="#6CCC00" cx="3040.3" cy="442.9" rx="3.8" ry="2.6"/>
		<ellipse fill="#6CCC00" cx="3051.9" cy="442.5" rx="4.5" ry="3.6"/>
		<ellipse fill="#6CCC00" cx="3051.9" cy="442.5" rx="4.5" ry="3.6"/>
		<ellipse opacity="0.1" enable-background="new    " cx="3045.6" cy="443.4" rx="4.6" ry="3"/>
		<ellipse fill="#6CCC00" cx="3045.6" cy="443" rx="4.5" ry="3"/>
	</g>
	<path opacity="0.1" clip-path="url(#SVGID_2_)" enable-background="new    " d="M2760.6,440.4c-0.1,0-0.2,0-0.4,0.1
		c-1.2-0.2-2.3-0.3-3.2-0.1c-0.3,0.1-0.6,0.1-0.8,0.3c-2-0.3-4-0.4-6,0c-1.6,0.3-2.7,0.8-3.1,1.4c-0.9-0.1-1.8-0.1-2.5,0
		c-1,0.2-1.4,0.6-1.3,1.2c-1.1-0.2-2.1-0.3-2.8-0.1c-0.1,0-0.1,0-0.1,0s-0.1,0-0.1,0c-6.2,4.5,10.1,9.8,14.9,7.5
		c4.5,2.7,10.4,4.4,13.3,3.8c0.1,0,0.1,0,0.1,0s0.1,0,0.1,0c1.3-0.2,1.8-0.9,1.5-1.8c-0.1-0.7-0.7-1.6-1.8-2.5c0.6,0,1,0,1.5-0.1
		c1.8-0.4,1.4-1.8-0.7-3.4C2770.6,446,2768,439.6,2760.6,440.4z"/>
	<g clip-path="url(#SVGID_2_)">
		<path id="Bush_37_" fill="#4C9300" d="M2753.3,437c0.1-2.5,2.1-4.6,4.7-4.6c2.2,0,4,1.5,4.5,3.5c2.3,0.3,4.3,1.8,4.3,4.2
			c0,1.3-0.6,3.3-2.8,3.4c-5.2,0.3-15.1,0-15.1,0s-0.2-0.9-0.2-1.9C2748.7,439.2,2750.8,437.1,2753.3,437z"/>
		<ellipse opacity="0.1" enable-background="new    " cx="2760.9" cy="441.7" rx="4" ry="2.7"/>
		<ellipse fill="#4C9300" cx="2760.9" cy="441.3" rx="4" ry="2.7"/>
		<ellipse fill="#6CCC00" cx="2741.5" cy="441.5" rx="3.9" ry="3.3"/>
		<path opacity="0.1" enable-background="new    " d="M2762.7,439.2c0-3.3-2.8-5.4-6-5.8c-0.7-2.8-3.3-4.8-6.3-4.8
			c-3.5,0-6.4,2.8-6.5,6.3c-3.5,0.1-6.3,3-6.3,6.5c0,1.4,1,2.2,1,2.2l9,0.4c1.4,0.9,3.7,1.4,6.4,1.4
			C2760.2,445.4,2762.7,442.7,2762.7,439.2z"/>
		<path opacity="0.1" enable-background="new    " d="M2756,433.1c-0.7-2.8-3.2-4.8-6.2-4.8c-3.5,0-6.3,2.8-6.4,6.3
			c-3.5,0.1-6.2,2.9-6.2,6.4c0,0.1,0,0.3,0.1,0.5l0,0c0,1.8,1.7,3.3,3.9,3.3c1.2,0,2.3-0.5,3-1.2h3.1c1.4,0.9,3.7,1.4,6.3,1.4
			c5.9,0,8.4-2.7,8.4-6.1C2762,435.5,2759.2,433.5,2756,433.1z"/>
		<path fill="#6CCC00" d="M2762.4,438.9c0-3.3-2.7-5.4-5.9-5.8c-0.7-2.8-3.2-4.8-6.2-4.8c-3.5,0-6.3,2.8-6.4,6.3
			c-3.5,0.1-6.2,2.9-6.2,6.4c0,1.4,1.3,2.6,1.3,2.6h8.8c1.4,0.9,3.7,1.4,6.3,1.4C2759.8,445,2762.4,442.3,2762.4,438.9z"/>
		<ellipse fill="#6CCC00" cx="2741.5" cy="441.5" rx="3.9" ry="3.3"/>
		<ellipse opacity="0.1" enable-background="new    " cx="2746.8" cy="442.3" rx="4" ry="2.7"/>
		<ellipse fill="#6CCC00" cx="2746.8" cy="442" rx="3.9" ry="2.7"/>
	</g>
</g>
</svg>
