<?xml version="1.0" encoding="utf-8"?>
<!-- Generator: Adobe Illustrator 17.1.0, SVG Export Plug-In . SVG Version: 6.00 Build 0)  -->
<!DOCTYPE svg PUBLIC "-//W3C//DTD SVG 1.1//EN" "http://www.w3.org/Graphics/SVG/1.1/DTD/svg11.dtd">
<svg version="1.1" id="Layer_1" xmlns="http://www.w3.org/2000/svg" xmlns:xlink="http://www.w3.org/1999/xlink" x="0px" y="0px"
	 viewBox="2594.5 166 640 405.5" enable-background="new 2594.5 166 640 405.5" xml:space="preserve">
<polygon fill="none" points="2740.5,410.9 2776.6,410.9 2769.1,307.9 2740.5,307.9 "/>
<polygon fill="none" points="2740.5,410.9 2776.6,410.9 2769.1,307.9 2740.5,307.9 "/>
<polygon fill="none" points="2740.5,410.9 2776.6,410.9 2769.1,307.9 2740.5,307.9 "/>
<polygon fill="none" points="2740.5,410.9 2776.6,410.9 2769.1,307.9 2740.5,307.9 "/>
<polygon fill="none" points="2740.5,410.9 2776.6,410.9 2769.1,307.9 2740.5,307.9 "/>
<polygon fill="none" points="2740.5,410.9 2776.6,410.9 2769.1,307.9 2740.5,307.9 "/>
<polygon fill="none" points="2740.5,410.9 2776.6,410.9 2769.1,307.9 2740.5,307.9 "/>
<polygon fill="none" points="2740.5,410.9 2776.6,410.9 2769.1,307.9 2740.5,307.9 "/>
<polygon fill="none" points="2740.5,410.9 2776.6,410.9 2769.1,307.9 2740.5,307.9 "/>
<polygon fill="none" points="2740.5,410.9 2776.6,410.9 2769.1,307.9 2740.5,307.9 "/>
<rect x="2487.3" y="234" fill="none" width="638.5" height="284.5"/>
<rect x="2487.3" y="234" fill="none" width="638.5" height="284.5"/>
<rect x="2487.3" y="234" fill="none" width="638.5" height="284.5"/>
<g>
	<defs>
		<rect id="SVGID_1_" x="2594.5" y="166.1" width="640.5" height="405.5"/>
	</defs>
	<clipPath id="SVGID_2_">
		<use xlink:href="#SVGID_1_"  overflow="visible"/>
	</clipPath>
	<g clip-path="url(#SVGID_2_)">
		<g>
			<path fill="#2292DA" d="M3215.9,487.7c1.9,0,3.5-1.5,3.5-3.4v-128c0-1.9-1.6-3.5-3.5-3.5h-15.4c-1.9,0-3.5-1.6-3.5-3.5v-39.9
				c0-1.9-1.6-3.5-3.5-3.5h-39.2c-1.9,0-3.5,1.6-3.5,3.5v58.9c0,1.9-1.6,3.5-3.5,3.5h-18.8c-1.9,0-3.5,1.6-3.5,3.5v26.5
				c0,1.9-1.6,3.5-3.5,3.5h-22.1c-1.9,0-3.5-1.6-3.5-3.5v-44.7c0-1.9-1.6-3.5-3.5-3.5h-58.9c-1.9,0-3.5,1.6-3.5,3.5v23.6
				c0,1.9-1.6,3.5-3.5,3.5h-37.4c-1.9,0-3.5-1.6-3.5-3.5v-34.4c0-1.9-1.6-3.5-3.5-3.5h-15.4c-1.9,0-3.5-1.6-3.5-3.5v-14.8
				c0-1.9-1.6-3.5-3.5-3.5h-39.2c-1.9,0-3.5,1.6-3.5,3.5v35.6c0,1.9-1.6,3.5-3.5,3.5h-18.8c-1.9,0-3.5,1.6-3.5,3.5v52.2
				c0,1.9-1.6,3.5-3.5,3.5h-22.1c-1.9,0-3.5-1.6-3.5-3.5v-76.4c0-1.9-1.6-3.5-3.5-3.5h-8.1c-1.9,0-5,0-6.9,0h-43.9
				c-1.9,0-4.5,0-5.8,0c-1.3,0-2.3,1.6-2.3,3.5v43.7c0,1.9-1.6,3.5-3.5,3.5h-21.9c-1.9,0-3.5-1.6-3.5-3.5v-19.5
				c0-1.9-1.6-3.5-3.5-3.5h-18.8c-1.9,0-3.5-1.6-3.5-3.5v-35.5c0-1.9-1.6-3.5-3.5-3.5h-39.2c-1.9,0-3.5,1.6-3.5,3.5v14.8
				c0,1.9-1.6,3.5-3.5,3.5h-10.4c-1.9,0-3.5,1.6-3.5,3.5v40.1c0,1.9-1.6,3.5-3.5,3.5h-56.2c-1.9,0-3.5,1.6-3.5,3.5v89.2
				c0,1.9,1.6,3.5,3.5,3.5h179.1c1.9,0,5,0,6.9,0h43.9c1.9,0,5,0,6.9,0h175.7c1.9,0,5,0,6.9,0h1.2c1.9,0,5,0,6.9,0L3215.9,487.7z"/>
		</g>
	</g>
	<g clip-path="url(#SVGID_2_)">
		<g>
			<path fill="#2284C5" d="M3149.4,443c-1.3,0-2.4-1.1-2.4-2.4v-39.8c0-1.3-1.1-2.4-2.4-2.4H3111c-1.3,0-2.4,1.1-2.4,2.4v22.8
				c0,1.3-1.1,2.4-2.4,2.4h-25.5c-1.3,0-2.4-1.1-2.4-2.4v-52.3c0-1.3-1.1-2.4-2.4-2.4h-38.6c-1.3,0-2.4,1.1-2.4,2.4v24.8
				c0,1.3-1.1,2.4-2.4,2.4h-13.1c-1.3,0-2.4,1.1-2.4,2.4v13.6c0,1.3-1.1,2.4-2.4,2.4h-15.4c-1.3,0-2.4-1.1-2.4-2.4v-30.4
				c0-1.3-0.7-2.4-1.6-2.4c-0.9,0-2.7,0-4,0h-30.5c-1.3,0-3.5,0-4.8,0h-5.6c-1.3,0-2.4,1.1-2.4,2.4v53.2c0,1.3-1.1,2.4-2.4,2.4
				h-15.4c-1.3,0-2.4-1.1-2.4-2.4v-20.4c0-1.3-1.1-2.4-2.4-2.4h-13.1c-1.3,0-2.4-1.1-2.4-2.4v-25.7c0-1.3-1.1-2.4-2.4-2.4h-27.3
				c-1.3,0-2.4,1.1-2.4,2.4v24.2c0,1.3-1.1,2.4-2.4,2.4h-41.7c-1.3,0-2.4-1.1-2.4-2.4v-13.3c0-1.3-1.1-2.4-2.4-2.4H2787
				c-1.3,0-2.4,1.1-2.4,2.4v28c0,1.3-1.1,2.4-2.4,2.4h-15.4c-1.3,0-2.4-1.1-2.4-2.4V401c0-1.3-1.1-2.4-2.4-2.4h-13.1
				c-1.3,0-2.4-1.1-2.4-2.4v-17c0-1.3-1.1-2.4-2.4-2.4h-27.3c-1.3,0-2.4,1.1-2.4,2.4v20.1c0,1.3-1.1,2.4-2.4,2.4H2701
				c-1.3,0-2.4,1.1-2.4,2.4v36.5c0,1.3-1.1,2.4-2.4,2.4h-31.7c-1.3,0-2.4,1.1-2.4,2.4v36.2c0,1.3,1.1,2.4,2.4,2.4h158
				c1.3,0,3.5,0,4.8,0h0.8c1.3,0,3.5,0,4.8,0h122.5c1.3,0,3.5,0,4.8,0h30.6c1.3,0,3.5,0,4.8,0H3106c1.3,0,2.4,1.1,2.4,2.4v23.8
				c0,1.3,1.1,2.4,2.4,2.4h72c1.3,0,2.4-1.1,2.4-2.4v-64.6c0-1.3-1.1-2.4-2.4-2.4L3149.4,443L3149.4,443z"/>
		</g>
	</g>
	<g clip-path="url(#SVGID_2_)">
		<g>
			<rect x="2949.9" y="361.6" fill="#F0F4F8" width="60" height="78.1"/>
		</g>
		<g>
			<rect x="2948.6" y="357" fill="#3E4456" width="62.6" height="4.7"/>
		</g>
		<g opacity="0.2" enable-background="new    ">
			<rect x="2948.6" y="361.3" fill="#FFFFFF" width="62.6" height="0.4"/>
		</g>
		<g opacity="3.000000e-02" enable-background="new    ">
			<polygon points="2948.6,360.5 3011.3,357.8 3011.3,357 2948.6,357 			"/>
		</g>
		<g opacity="0.1" enable-background="new    ">
			<rect x="2949.9" y="361.6" width="60" height="2.3"/>
		</g>
		<g opacity="0.15" enable-background="new    ">
			<rect x="2949.9" y="414.2" width="60" height="25.5"/>
		</g>
		<g>
			<rect x="2954.5" y="379" fill="#ABDEEF" width="50.9" height="7.5"/>
		</g>
		<g>
			<rect x="2954.5" y="397.3" fill="#FFFFFF" width="50.9" height="0.3"/>
		</g>
		<g>
			<rect x="2954.5" y="386.5" fill="#FFFFFF" width="50.9" height="0.3"/>
		</g>
		<g>
			<rect x="2954.5" y="375.6" fill="#FFFFFF" width="50.9" height="0.3"/>
		</g>
		<g>
			<rect x="2954.5" y="368.2" fill="#ABDEEF" width="50.9" height="7.5"/>
		</g>
		<g>
			<rect x="2954.5" y="389.9" fill="#ABDEEF" width="50.9" height="7.5"/>
		</g>
		<g>
			<rect x="2954.5" y="400.8" fill="#ABDEEF" width="50.9" height="7.5"/>
		</g>
		<g>
			<rect x="2954.5" y="408.2" fill="#FFFFFF" width="50.9" height="0.3"/>
		</g>
		<g opacity="0.1" enable-background="new    ">
			<polygon points="2954.5,368.2 2954.5,375.6 2955,375.6 2955,368.9 2972.3,368.9 2972.3,375.6 2972.6,375.6 2972.6,368.9 
				2989,368.9 2989,375.6 2989.3,375.6 2989.3,368.9 3005.4,368.9 3005.4,368.2 			"/>
		</g>
		<g opacity="0.1" enable-background="new    ">
			<polygon points="2954.5,379 2954.5,386.5 2955,386.5 2955,379.8 2972.3,379.8 2972.3,386.5 2972.6,386.5 2972.6,379.8 
				2989,379.8 2989,386.5 2989.3,386.5 2989.3,379.8 3005.4,379.8 3005.4,379 			"/>
		</g>
		<g opacity="0.1" enable-background="new    ">
			<polygon points="2954.5,389.9 2954.5,397.3 2955,397.3 2955,390.6 2972.3,390.6 2972.3,397.3 2972.6,397.3 2972.6,390.6 
				2989,390.6 2989,397.3 2989.3,397.3 2989.3,390.6 3005.4,390.6 3005.4,389.9 			"/>
		</g>
		<g opacity="0.1" enable-background="new    ">
			<polygon points="2954.5,400.8 2954.5,408.2 2955,408.2 2955,401.5 2972.3,401.5 2972.3,408.2 2972.6,408.2 2972.6,401.5 
				2989,401.5 2989,408.2 2989.3,408.2 2989.3,401.5 3005.4,401.5 3005.4,400.8 			"/>
		</g>
		<g>
			<rect x="2986" y="367.6" fill="#F0F4F8" width="4.7" height="41.4"/>
		</g>
		<g opacity="0.8" enable-background="new    ">
			<g>
				<defs>
					<rect id="SVGID_3_" x="2954.5" y="368.2" width="50.9" height="40"/>
				</defs>
				<clipPath id="SVGID_4_">
					<use xlink:href="#SVGID_3_"  overflow="visible"/>
				</clipPath>
				<g opacity="0.2" clip-path="url(#SVGID_4_)" enable-background="new    ">
					<polygon fill="#FFFFFF" points="2952.1,394.6 2953.6,399.1 3010.3,362.9 3008.7,358.3 					"/>
				</g>
			</g>
			<g>
				<defs>
					<rect id="SVGID_5_" x="2954.5" y="368.2" width="50.9" height="40"/>
				</defs>
				<clipPath id="SVGID_6_">
					<use xlink:href="#SVGID_5_"  overflow="visible"/>
				</clipPath>
				<g opacity="0.2" clip-path="url(#SVGID_6_)" enable-background="new    ">
					<polygon fill="#FFFFFF" points="2943.1,412.5 2948.2,425.5 3016.6,383.5 3011.6,370.4 					"/>
				</g>
			</g>
		</g>
		<g>
			<rect x="2969.2" y="367.6" fill="#F0F4F8" width="4.7" height="41.4"/>
		</g>
		<g opacity="3.000000e-02" enable-background="new    ">
			<polygon points="2949.9,361.6 3010,361.6 3010,367 2949.9,429.5 			"/>
		</g>
	</g>
	<g clip-path="url(#SVGID_2_)">
		<g>
			<rect x="2877.1" y="426.7" fill="#E8E9E5" width="58.2" height="43.4"/>
		</g>
		<g>
			<rect x="2877.1" y="433.6" fill="#525D6D" width="58.2" height="11.2"/>
		</g>
		<g opacity="0.2" enable-background="new    ">
			<rect x="2877" y="433.6" fill="#FFFFFF" width="0.3" height="11.2"/>
		</g>
		<g>
			<rect x="2877.1" y="451.1" fill="#525D6D" width="58.2" height="11.2"/>
		</g>
		<g opacity="0.2" enable-background="new    ">
			<polygon points="2935.3,436.2 2877.1,436.1 2877.1,433.6 2935.3,433.6 			"/>
		</g>
		<g>
			<rect x="2877.1" y="450.6" fill="#FFFFFF" width="58.2" height="0.5"/>
		</g>
		<g>
			<rect x="2877.1" y="462.3" fill="#FFFFFF" width="58.2" height="0.5"/>
		</g>
		<g>
			<rect x="2877.1" y="433.3" fill="#FFFFFF" width="58.2" height="0.5"/>
		</g>
		<g opacity="5.000000e-02" enable-background="new    ">
			<polygon points="2935.3,470.1 2893,470.1 2932.7,426.7 2935.3,426.7 			"/>
		</g>
		<g opacity="0.15" enable-background="new    ">
			<polygon points="2935.3,470.1 2931,470.1 2934.4,426.7 2935.3,426.7 			"/>
		</g>
		<g opacity="0.2" enable-background="new    ">
			<polygon points="2935.3,452 2877.1,452.9 2877.1,451.1 2935.3,451.1 			"/>
		</g>
		<g opacity="0.2" enable-background="new    ">
			<rect x="2877.1" y="461.3" width="58.2" height="0.9"/>
		</g>
		<g opacity="0.2" enable-background="new    ">
			<rect x="2877.1" y="443.9" width="58.2" height="0.9"/>
		</g>
		<g>
			<g>
				<defs>
					<rect id="SVGID_7_" x="2877.1" y="433.6" width="58.2" height="11.2"/>
				</defs>
				<clipPath id="SVGID_8_">
					<use xlink:href="#SVGID_7_"  overflow="visible"/>
				</clipPath>
				<g opacity="0.1" clip-path="url(#SVGID_8_)" enable-background="new    ">
					<polygon fill="#FFFFFF" points="2923.3,432.2 2947.2,432.2 2923.4,444.7 2899.5,444.7 					"/>
				</g>
			</g>
			<g>
				<defs>
					<rect id="SVGID_9_" x="2877.1" y="433.6" width="58.2" height="11.2"/>
				</defs>
				<clipPath id="SVGID_10_">
					<use xlink:href="#SVGID_9_"  overflow="visible"/>
				</clipPath>
				<g opacity="0.1" clip-path="url(#SVGID_10_)" enable-background="new    ">
					<polygon fill="#FFFFFF" points="2916.2,432.2 2919.9,432.2 2896.1,444.7 2892.4,444.7 					"/>
				</g>
			</g>
		</g>
		<g>
			<g>
				<defs>
					<rect id="SVGID_11_" x="2877.1" y="451.1" width="58.2" height="11.2"/>
				</defs>
				<clipPath id="SVGID_12_">
					<use xlink:href="#SVGID_11_"  overflow="visible"/>
				</clipPath>
				<g opacity="0.1" clip-path="url(#SVGID_12_)" enable-background="new    ">
					<polygon fill="#FFFFFF" points="2891.8,449.7 2915.7,449.7 2891.9,462.3 2868,462.3 					"/>
				</g>
			</g>
			<g>
				<defs>
					<rect id="SVGID_13_" x="2877.1" y="451.1" width="58.2" height="11.2"/>
				</defs>
				<clipPath id="SVGID_14_">
					<use xlink:href="#SVGID_13_"  overflow="visible"/>
				</clipPath>
				<g opacity="0.1" clip-path="url(#SVGID_14_)" enable-background="new    ">
					<polygon fill="#FFFFFF" points="2884.7,449.7 2888.4,449.7 2864.6,462.3 2860.9,462.3 					"/>
				</g>
			</g>
		</g>
		<g opacity="0.2" enable-background="new    ">
			<rect x="2877" y="451.1" fill="#FFFFFF" width="0.3" height="11.2"/>
		</g>
		<g opacity="0.2" enable-background="new    ">
			<rect x="2935.2" y="428.5" fill="#FFFFFF" width="0.3" height="11.2"/>
		</g>
		<g opacity="0.2" enable-background="new    ">
			<rect x="2935.2" y="446" fill="#FFFFFF" width="0.3" height="11.2"/>
		</g>
	</g>
	<g clip-path="url(#SVGID_2_)">
		<g>
			<path fill="#332F4A" d="M2860.5,343h2.3c0.3,0,0.6,0.3,0.6,0.7v0.5h-3.5v-0.5C2859.9,343.4,2860.1,343,2860.5,343z"/>
		</g>
		<g>
			<polygon fill="#332F4A" points="2861.4,323.4 2861.9,323.4 2862.2,344.2 2861.1,344.2 			"/>
		</g>
		<g>
			<polygon fill="#332F4A" points="2855.6,334.4 2855.8,334.4 2855.9,344.1 2855.4,344.1 			"/>
		</g>
		<g>
			<g>
				<path fill="#526A7A" d="M2848.3,468.9h39.6l-9-124.4c0-0.3-0.3-0.6-0.6-0.6h-30V468.9L2848.3,468.9z"/>
			</g>
			<g opacity="0.1">
				<g>
					<path fill="#304354" d="M2878.3,344.6L2878.3,344.6l8.9,123.7h-38.3V344.6H2878.3 M2878.3,344h-30v124.9h39.6l-9-124.4
						C2878.9,344.2,2878.6,344,2878.3,344L2878.3,344z"/>
				</g>
			</g>
		</g>
		<g opacity="0.3" enable-background="new    ">
			<g>
				<defs>
					<polygon id="SVGID_15_" points="2848.3,450.8 2884.5,450.8 2877,347.6 2848.3,347.6 					"/>
				</defs>
				<clipPath id="SVGID_16_">
					<use xlink:href="#SVGID_15_"  overflow="visible"/>
				</clipPath>
				<g clip-path="url(#SVGID_16_)">
					<rect x="2848.3" y="362.8" fill="#CBDEEF" width="41.8" height="4"/>
				</g>
			</g>
			<g>
				<defs>
					<polygon id="SVGID_17_" points="2848.3,450.8 2884.5,450.8 2877,347.6 2848.3,347.6 					"/>
				</defs>
				<clipPath id="SVGID_18_">
					<use xlink:href="#SVGID_17_"  overflow="visible"/>
				</clipPath>
				<g clip-path="url(#SVGID_18_)">
					<rect x="2848.3" y="367.1" fill="#CBDEEF" width="41.8" height="4"/>
				</g>
			</g>
			<g>
				<defs>
					<polygon id="SVGID_19_" points="2848.3,450.8 2884.5,450.8 2877,347.6 2848.3,347.6 					"/>
				</defs>
				<clipPath id="SVGID_20_">
					<use xlink:href="#SVGID_19_"  overflow="visible"/>
				</clipPath>
				<g clip-path="url(#SVGID_20_)">
					<rect x="2848.3" y="371.5" fill="#CBDEEF" width="41.8" height="4"/>
				</g>
			</g>
			<g>
				<defs>
					<polygon id="SVGID_21_" points="2848.3,450.8 2884.5,450.8 2877,347.6 2848.3,347.6 					"/>
				</defs>
				<clipPath id="SVGID_22_">
					<use xlink:href="#SVGID_21_"  overflow="visible"/>
				</clipPath>
				<g clip-path="url(#SVGID_22_)">
					<rect x="2848.3" y="375.8" fill="#CBDEEF" width="41.8" height="4"/>
				</g>
			</g>
			<g>
				<defs>
					<polygon id="SVGID_23_" points="2848.3,450.8 2884.5,450.8 2877,347.6 2848.3,347.6 					"/>
				</defs>
				<clipPath id="SVGID_24_">
					<use xlink:href="#SVGID_23_"  overflow="visible"/>
				</clipPath>
				<g clip-path="url(#SVGID_24_)">
					<rect x="2848.3" y="380.2" fill="#CBDEEF" width="41.8" height="4"/>
				</g>
			</g>
			<g>
				<defs>
					<polygon id="SVGID_25_" points="2848.3,450.8 2884.5,450.8 2877,347.6 2848.3,347.6 					"/>
				</defs>
				<clipPath id="SVGID_26_">
					<use xlink:href="#SVGID_25_"  overflow="visible"/>
				</clipPath>
				<g clip-path="url(#SVGID_26_)">
					<rect x="2848.3" y="384.5" fill="#CBDEEF" width="41.8" height="4"/>
				</g>
			</g>
			<g>
				<defs>
					<polygon id="SVGID_27_" points="2848.3,450.8 2884.5,450.8 2877,347.6 2848.3,347.6 					"/>
				</defs>
				<clipPath id="SVGID_28_">
					<use xlink:href="#SVGID_27_"  overflow="visible"/>
				</clipPath>
				<g clip-path="url(#SVGID_28_)">
					<rect x="2848.3" y="388.9" fill="#CBDEEF" width="41.8" height="4"/>
				</g>
			</g>
			<g>
				<defs>
					<polygon id="SVGID_29_" points="2848.3,450.8 2884.5,450.8 2877,347.6 2848.3,347.6 					"/>
				</defs>
				<clipPath id="SVGID_30_">
					<use xlink:href="#SVGID_29_"  overflow="visible"/>
				</clipPath>
				<g clip-path="url(#SVGID_30_)">
					<rect x="2848.3" y="393.2" fill="#CBDEEF" width="41.8" height="4"/>
				</g>
			</g>
			<g>
				<defs>
					<polygon id="SVGID_31_" points="2848.3,450.8 2884.5,450.8 2877,347.6 2848.3,347.6 					"/>
				</defs>
				<clipPath id="SVGID_32_">
					<use xlink:href="#SVGID_31_"  overflow="visible"/>
				</clipPath>
				<g clip-path="url(#SVGID_32_)">
					<rect x="2848.3" y="397.6" fill="#CBDEEF" width="41.8" height="4"/>
				</g>
			</g>
			<g>
				<defs>
					<polygon id="SVGID_33_" points="2848.3,450.8 2884.5,450.8 2877,347.6 2848.3,347.6 					"/>
				</defs>
				<clipPath id="SVGID_34_">
					<use xlink:href="#SVGID_33_"  overflow="visible"/>
				</clipPath>
				<g clip-path="url(#SVGID_34_)">
					<rect x="2848.3" y="401.9" fill="#CBDEEF" width="41.8" height="4"/>
				</g>
			</g>
			<g>
				<defs>
					<polygon id="SVGID_35_" points="2848.3,450.8 2884.5,450.8 2877,347.6 2848.3,347.6 					"/>
				</defs>
				<clipPath id="SVGID_36_">
					<use xlink:href="#SVGID_35_"  overflow="visible"/>
				</clipPath>
				<g clip-path="url(#SVGID_36_)">
					<rect x="2848.3" y="406.3" fill="#CBDEEF" width="41.8" height="4"/>
				</g>
			</g>
			<g>
				<defs>
					<polygon id="SVGID_37_" points="2848.3,450.8 2884.5,450.8 2877,347.6 2848.3,347.6 					"/>
				</defs>
				<clipPath id="SVGID_38_">
					<use xlink:href="#SVGID_37_"  overflow="visible"/>
				</clipPath>
				<g clip-path="url(#SVGID_38_)">
					<rect x="2848.3" y="410.6" fill="#CBDEEF" width="41.8" height="4"/>
				</g>
			</g>
			<g>
				<defs>
					<polygon id="SVGID_39_" points="2848.3,450.8 2884.5,450.8 2877,347.6 2848.3,347.6 					"/>
				</defs>
				<clipPath id="SVGID_40_">
					<use xlink:href="#SVGID_39_"  overflow="visible"/>
				</clipPath>
				<g clip-path="url(#SVGID_40_)">
					<rect x="2848.3" y="415" fill="#CBDEEF" width="41.8" height="4"/>
				</g>
			</g>
			<g>
				<defs>
					<polygon id="SVGID_41_" points="2848.3,450.8 2884.5,450.8 2877,347.6 2848.3,347.6 					"/>
				</defs>
				<clipPath id="SVGID_42_">
					<use xlink:href="#SVGID_41_"  overflow="visible"/>
				</clipPath>
				<g clip-path="url(#SVGID_42_)">
					<rect x="2848.3" y="419.3" fill="#CBDEEF" width="41.8" height="4"/>
				</g>
			</g>
			<g>
				<defs>
					<polygon id="SVGID_43_" points="2848.3,450.8 2884.5,450.8 2877,347.6 2848.3,347.6 					"/>
				</defs>
				<clipPath id="SVGID_44_">
					<use xlink:href="#SVGID_43_"  overflow="visible"/>
				</clipPath>
				<g clip-path="url(#SVGID_44_)">
					<rect x="2848.3" y="423.7" fill="#CBDEEF" width="41.8" height="4"/>
				</g>
			</g>
			<g>
				<defs>
					<polygon id="SVGID_45_" points="2848.3,450.8 2884.5,450.8 2877,347.6 2848.3,347.6 					"/>
				</defs>
				<clipPath id="SVGID_46_">
					<use xlink:href="#SVGID_45_"  overflow="visible"/>
				</clipPath>
				<g clip-path="url(#SVGID_46_)">
					<rect x="2848.3" y="428" fill="#CBDEEF" width="41.8" height="4"/>
				</g>
			</g>
			<g>
				<defs>
					<polygon id="SVGID_47_" points="2848.3,450.8 2884.5,450.8 2877,347.6 2848.3,347.6 					"/>
				</defs>
				<clipPath id="SVGID_48_">
					<use xlink:href="#SVGID_47_"  overflow="visible"/>
				</clipPath>
				<g clip-path="url(#SVGID_48_)">
					<rect x="2848.3" y="432.4" fill="#CBDEEF" width="41.8" height="4"/>
				</g>
			</g>
			<g>
				<defs>
					<polygon id="SVGID_49_" points="2848.3,450.8 2884.5,450.8 2877,347.6 2848.3,347.6 					"/>
				</defs>
				<clipPath id="SVGID_50_">
					<use xlink:href="#SVGID_49_"  overflow="visible"/>
				</clipPath>
				<g clip-path="url(#SVGID_50_)">
					<rect x="2848.3" y="436.7" fill="#CBDEEF" width="41.8" height="4"/>
				</g>
			</g>
			<g>
				<defs>
					<polygon id="SVGID_51_" points="2848.3,450.8 2884.5,450.8 2877,347.6 2848.3,347.6 					"/>
				</defs>
				<clipPath id="SVGID_52_">
					<use xlink:href="#SVGID_51_"  overflow="visible"/>
				</clipPath>
				<g clip-path="url(#SVGID_52_)">
					<rect x="2848.3" y="441.1" fill="#CBDEEF" width="41.8" height="4"/>
				</g>
			</g>
			<g>
				<defs>
					<polygon id="SVGID_53_" points="2848.3,450.8 2884.5,450.8 2877,347.6 2848.3,347.6 					"/>
				</defs>
				<clipPath id="SVGID_54_">
					<use xlink:href="#SVGID_53_"  overflow="visible"/>
				</clipPath>
				<g clip-path="url(#SVGID_54_)">
					<rect x="2848.3" y="445.4" fill="#CBDEEF" width="41.8" height="4"/>
				</g>
			</g>
			<g>
				<defs>
					<polygon id="SVGID_55_" points="2848.3,450.8 2884.5,450.8 2877,347.6 2848.3,347.6 					"/>
				</defs>
				<clipPath id="SVGID_56_">
					<use xlink:href="#SVGID_55_"  overflow="visible"/>
				</clipPath>
				<g clip-path="url(#SVGID_56_)">
					<rect x="2848.3" y="449.8" fill="#CBDEEF" width="41.8" height="4"/>
				</g>
			</g>
			<g>
				<defs>
					<polygon id="SVGID_57_" points="2848.3,450.8 2884.5,450.8 2877,347.6 2848.3,347.6 					"/>
				</defs>
				<clipPath id="SVGID_58_">
					<use xlink:href="#SVGID_57_"  overflow="visible"/>
				</clipPath>
				<g opacity="0.2" clip-path="url(#SVGID_58_)" enable-background="new    ">
					<polygon fill="#FFFFFF" points="2840.5,403.5 2844.8,412.4 2889.5,391.7 2885.2,382.9 					"/>
				</g>
			</g>
			<g>
				<defs>
					<polygon id="SVGID_59_" points="2848.3,450.8 2884.5,450.8 2877,347.6 2848.3,347.6 					"/>
				</defs>
				<clipPath id="SVGID_60_">
					<use xlink:href="#SVGID_59_"  overflow="visible"/>
				</clipPath>
				<g opacity="0.2" clip-path="url(#SVGID_60_)" enable-background="new    ">
					<polygon fill="#FFFFFF" points="2826.2,425.8 2835.5,443.5 2931.1,402.3 2921.9,384.6 					"/>
				</g>
			</g>
		</g>
		<g>
			<g>
				<path fill="#332F4A" d="M2860.6,332.8c0,0.2,0.5,0.4,1.1,0.4s1.1-0.2,1.1-0.4c0-0.2-0.5-0.4-1.1-0.4S2860.6,332.6,2860.6,332.8z
					"/>
			</g>
		</g>
		<g>
			<polygon fill="#CBDEEF" points="2848.3,358 2877.8,358 2877,347.6 2848.3,347.6 			"/>
		</g>
		<g opacity="0.1" enable-background="new    ">
			<path d="M2848.3,468.9h9.6l22.4-104.1l-1.5-20.2c0-0.3-0.3-0.6-0.6-0.6h-30V468.9z"/>
		</g>
		<g opacity="0.15" enable-background="new    ">
			<polygon points="2848.3,468.9 2854.1,468.9 2859.9,344 2848.3,344 			"/>
		</g>
	</g>
	<g clip-path="url(#SVGID_2_)">
		<path fill="#434F5D" d="M3019,485h-209.8v-15.4c0,0,50.7-3.4,111.9-3.4c33,0,97.9,3.4,97.9,3.4V485z"/>
	</g>
	<g clip-path="url(#SVGID_2_)">
		<path fill="#37444F" d="M3319.5,493.4h-810.8v-13.7c0,0,195.9-13.8,432.5-13.8c127.6,0,378.2,13.8,378.2,13.8L3319.5,493.4
			L3319.5,493.4z"/>
	</g>
	<g clip-path="url(#SVGID_2_)">
		<path fill="#434F5D" d="M3319.5,579.7h-812.6v-92.2c0,0,199.9-14.6,437.2-16.1c149.1-1,375.4,16.1,375.4,16.1V579.7z"/>
	</g>
	<g opacity="0.1" clip-path="url(#SVGID_2_)" enable-background="new    ">
		<path d="M2891.7,464.4c-0.1,0-0.1,0-0.2,0c-0.7-0.1-1.4-0.2-1.9-0.1c-0.2,0-0.4,0.1-0.5,0.2c-1.2-0.2-2.5-0.2-3.6,0
			c-1,0.2-1.6,0.5-1.9,0.9c-0.6-0.1-1.1-0.1-1.5,0c-0.6,0.1-0.8,0.4-0.7,0.7c-0.7-0.1-1.3-0.2-1.7-0.1c0,0-0.1,0-0.1,0
			c0,0-0.1,0-0.1,0c-3.7,2.7,6.1,5.8,9,4.5c2.7,1.6,6.3,2.6,8.1,2.3c0,0,0.1,0,0.1,0s0.1,0,0.1,0c0.8-0.1,1.1-0.5,0.9-1.1
			c-0.1-0.4-0.4-1-1.1-1.5c0.3,0,0.6,0,0.9,0c1.1-0.2,0.9-1-0.4-2C2897.8,467.8,2896.2,464,2891.7,464.4z"/>
	</g>
	<g opacity="0.1" clip-path="url(#SVGID_2_)" enable-background="new    ">
		<path d="M3056.3,467.6c-0.1,0-0.3,0-0.4,0.1c-1.3-0.3-2.6-0.3-3.6-0.1c-0.4,0.1-0.7,0.2-0.9,0.3c-2.3-0.4-4.5-0.4-6.7,0
			c-1.8,0.3-3,0.9-3.5,1.6c-1-0.1-2-0.2-2.8,0c-1.1,0.2-1.6,0.7-1.4,1.3c-1.2-0.3-2.4-0.3-3.2-0.2c-0.1,0-0.1,0-0.2,0
			s-0.6-1.1-0.6-1c-5.9,7,11.7,11.9,17.2,9.3c5.1,2.9,11.7,4.8,14.9,4.2c0.1,0,0.1,0,0.2,0c0.1,0,0.1,0,0.2,0c1.5-0.3,2-1,1.6-2
			c-0.1-0.8-0.8-1.7-2.1-2.8c0.6,0,1.2,0,1.6-0.1c2-0.4,1.6-1.9-0.8-3.7C3067.7,473.7,3064.7,466.7,3056.3,467.6z"/>
	</g>
	<g id="Bush_32_" clip-path="url(#SVGID_2_)">
		<path fill="#4C9300" d="M2888.4,462.3c0-1.5,1.3-2.8,2.8-2.8c1.3,0,2.4,0.9,2.7,2.1c1.4,0.1,2.6,1.1,2.6,2.5c0,0.9-0.5,1-1.3,1.4
			c-2.9,1.5-9.5,0.7-9.5,0.7s-0.1-0.5-0.1-1.1C2885.7,463.6,2886.9,462.4,2888.4,462.3z"/>
	</g>
	<g clip-path="url(#SVGID_2_)">
		<ellipse fill="#4C9300" cx="2893.9" cy="465.7" rx="2.7" ry="1.7"/>
	</g>
	<g clip-path="url(#SVGID_2_)">
		<g opacity="0.1" enable-background="new    ">
			<path d="M2892,463.9c-0.4-0.9-1.1-1.9-2.8-2c-0.1-2-1.7-3.6-3.7-3.6c-1.7,0-3.1,1.2-3.5,2.7c-1.8,0.2-3.4,1.4-3.4,3.3
				c0,1,0.3,2.3,1.5,2.7l7.9-0.1c0.5,0.5,1.3,0.8,2.1,0.8c1.5,0,2.8-1,2.8-2.2C2893,465.3,2893.1,464.6,2892,463.9z"/>
		</g>
		<g opacity="0.1" enable-background="new    ">
			<path d="M2892,465.6c0-2-1.6-3.6-3.6-3.7c-0.1-2-1.7-3.6-3.7-3.6c-1.7,0-2.9,1-3.3,2.6c-1.8,0.2-3.4,1.6-3.6,3.4
				c-0.2,2.3,1,3.1,2.4,3.1c1,0,2-0.2,2.4-0.4h9.3C2891.8,467.1,2892,466.4,2892,465.6z"/>
		</g>
		<g id="Bush_30_">
			<path fill="#6CCC00" d="M2888.8,462c-0.1-2-1.7-3.6-3.7-3.6c-1.7,0-3.1,1.2-3.5,2.7c-1.8,0.2-3.5,1.4-3.5,4.3
				c0,1,0.1,1.2,1.2,1.6l12.7-0.1c0,0,0.4-0.5,0.4-1.3C2892.4,463.7,2890.8,462,2888.8,462z"/>
		</g>
		<g>
			<ellipse fill="#6CCC00" cx="2880.3" cy="465.6" rx="2.2" ry="1.9"/>
		</g>
		<g>
			<ellipse fill="#6CCC00" cx="2880.7" cy="465.6" rx="2.6" ry="1.9"/>
		</g>
		<g opacity="0.1" enable-background="new    ">
			<ellipse cx="2883.4" cy="466" rx="2.2" ry="1.6"/>
		</g>
		<g>
			<ellipse fill="#6CCC00" cx="2883.3" cy="465.8" rx="2.2" ry="1.5"/>
		</g>
		<g>
			<ellipse fill="#6CCC00" cx="2890.2" cy="465.6" rx="2.7" ry="2.1"/>
		</g>
		<g>
			<ellipse fill="#6CCC00" cx="2890.2" cy="465.6" rx="2.7" ry="2.1"/>
		</g>
		<g opacity="0.1" enable-background="new    ">
			<ellipse cx="2886.4" cy="466.1" rx="2.7" ry="1.7"/>
		</g>
		<g>
			<ellipse fill="#6CCC00" cx="2886.5" cy="465.9" rx="2.7" ry="1.7"/>
		</g>
	</g>
	<g clip-path="url(#SVGID_2_)">
		<g>
			<polygon fill="#332F4A" points="2816.2,286.8 2816.7,286.8 2817,307.7 2815.9,307.7 			"/>
		</g>
		<g>
			<polygon fill="#332F4A" points="2811.3,297.3 2811.5,297.3 2811.7,307 2811.1,307 			"/>
		</g>
		<g>
			<g>
				<path fill="#332F4A" d="M2815.4,290.2c0,0.2,0.5,0.4,1.1,0.4s1.1-0.2,1.1-0.4c0-0.2-0.5-0.4-1.1-0.4S2815.4,290,2815.4,290.2z"
					/>
			</g>
		</g>
		<g>
			<g>
				<rect x="2805.5" y="307" fill="#555657" width="46.7" height="161.4"/>
			</g>
			<g opacity="0.3">
				<g>
					<path fill="#333A46" d="M2851.9,307.3V468h-46.1V307.3H2851.9 M2852.2,307h-46.7v161.4h46.7V307L2852.2,307z"/>
				</g>
			</g>
		</g>
		<g>
			<rect x="2807.7" y="327.1" fill="#CBDEEF" width="42.2" height="114"/>
		</g>
		<g>
			<g>
				<defs>
					<rect id="SVGID_61_" x="2807.7" y="327" width="42.2" height="113.4"/>
				</defs>
				<clipPath id="SVGID_62_">
					<use xlink:href="#SVGID_61_"  overflow="visible"/>
				</clipPath>
				<g opacity="0.2" clip-path="url(#SVGID_62_)" enable-background="new    ">
					<polygon fill="#FFFFFF" points="2792.9,410.9 2799.3,422.6 2858.8,391.9 2852.4,380.1 					"/>
				</g>
			</g>
			<g>
				<defs>
					<rect id="SVGID_63_" x="2807.7" y="327" width="42.2" height="113.4"/>
				</defs>
				<clipPath id="SVGID_64_">
					<use xlink:href="#SVGID_63_"  overflow="visible"/>
				</clipPath>
				<g opacity="0.2" clip-path="url(#SVGID_64_)" enable-background="new    ">
					<polygon fill="#FFFFFF" points="2797.6,425 2807.5,442 2900.2,397.3 2890.3,380.2 					"/>
				</g>
			</g>
		</g>
		<g>
			<rect x="2836" y="326.8" fill="#555657" width="0.7" height="113.6"/>
		</g>
		<g>
			<rect x="2820.9" y="326.8" fill="#555657" width="0.7" height="113.6"/>
		</g>
		<g>
			<rect x="2806.8" y="341.2" fill="#555657" width="44" height="1.3"/>
		</g>
		<g>
			<rect x="2836.7" y="341.2" fill="#8C8C8C" width="13.2" height="0.2"/>
		</g>
		<g>
			<rect x="2821.7" y="341.2" fill="#8C8C8C" width="14.3" height="0.2"/>
		</g>
		<g>
			<rect x="2807.7" y="341.2" fill="#8C8C8C" width="13.2" height="0.2"/>
		</g>
		<g>
			<rect x="2806.8" y="355.3" fill="#555657" width="44" height="1.3"/>
		</g>
		<g>
			<rect x="2806.8" y="369.5" fill="#555657" width="44" height="1.3"/>
		</g>
		<g>
			<rect x="2806.8" y="383.7" fill="#555657" width="44" height="1.3"/>
		</g>
		<g>
			<rect x="2806.8" y="397.8" fill="#555657" width="44" height="1.3"/>
		</g>
		<g>
			<rect x="2806.8" y="411.9" fill="#555657" width="44" height="1.3"/>
		</g>
		<g>
			<rect x="2806.8" y="426.1" fill="#555657" width="44" height="1.3"/>
		</g>
		<g>
			<rect x="2806.8" y="440.3" fill="#555657" width="44" height="1.3"/>
		</g>
		<g>
			<rect x="2807.7" y="452" fill="#CBDEEF" width="42.2" height="16.3"/>
		</g>
		<g>
			<rect x="2828.6" y="452" fill="#FFFFFF" width="0.4" height="16.3"/>
		</g>
		<g>
			<g>
				<defs>
					<rect id="SVGID_65_" x="2807.7" y="452" width="42.2" height="16.3"/>
				</defs>
				<clipPath id="SVGID_66_">
					<use xlink:href="#SVGID_65_"  overflow="visible"/>
				</clipPath>
				<g opacity="0.2" clip-path="url(#SVGID_66_)" enable-background="new    ">
					<polygon fill="#FFFFFF" points="2805,459 2807.5,464.1 2833,452.3 2830.5,447.2 					"/>
				</g>
			</g>
			<g>
				<defs>
					<rect id="SVGID_67_" x="2807.7" y="452" width="42.2" height="16.3"/>
				</defs>
				<clipPath id="SVGID_68_">
					<use xlink:href="#SVGID_67_"  overflow="visible"/>
				</clipPath>
				<g opacity="0.2" clip-path="url(#SVGID_68_)" enable-background="new    ">
					<polygon fill="#FFFFFF" points="2796.8,471.7 2802.1,481.8 2856.8,458.3 2851.5,448.2 					"/>
				</g>
			</g>
		</g>
		<g opacity="0.15" enable-background="new    ">
			<polygon points="2805.5,307 2852.2,307 2852.2,314.3 2805.5,316.8 			"/>
		</g>
		<g>
			<path fill="#282828" d="M2852.4,313.3h-46.9V307h46.9c0.3,0,0.6,0.3,0.6,0.6v5.1C2853,313.1,2852.7,313.3,2852.4,313.3z"/>
		</g>
		<g>
			<path fill="#282828" d="M2805.3,313.3h46.9V307h-46.9c-0.3,0-0.6,0.3-0.6,0.6v5.1C2804.7,313.1,2805,313.3,2805.3,313.3z"/>
		</g>
		<g>
			<rect x="2836.7" y="355.3" fill="#8C8C8C" width="13.2" height="0.2"/>
		</g>
		<g>
			<rect x="2821.6" y="355.3" fill="#8C8C8C" width="14.3" height="0.2"/>
		</g>
		<g>
			<rect x="2807.7" y="355.3" fill="#8C8C8C" width="13.2" height="0.2"/>
		</g>
		<g>
			<rect x="2836.7" y="369.5" fill="#8C8C8C" width="13.2" height="0.2"/>
		</g>
		<g>
			<rect x="2821.6" y="369.5" fill="#8C8C8C" width="14.3" height="0.2"/>
		</g>
		<g>
			<rect x="2807.7" y="369.5" fill="#8C8C8C" width="13.2" height="0.2"/>
		</g>
		<g>
			<rect x="2836.7" y="383.6" fill="#8C8C8C" width="13.2" height="0.2"/>
		</g>
		<g>
			<rect x="2821.6" y="383.6" fill="#8C8C8C" width="14.3" height="0.2"/>
		</g>
		<g>
			<rect x="2807.7" y="383.6" fill="#8C8C8C" width="13.2" height="0.2"/>
		</g>
		<g>
			<rect x="2836.7" y="397.8" fill="#8C8C8C" width="13.2" height="0.2"/>
		</g>
		<g>
			<rect x="2821.6" y="397.8" fill="#8C8C8C" width="14.3" height="0.2"/>
		</g>
		<g>
			<rect x="2807.7" y="397.8" fill="#8C8C8C" width="13.2" height="0.2"/>
		</g>
		<g>
			<rect x="2836.7" y="411.9" fill="#8C8C8C" width="13.2" height="0.2"/>
		</g>
		<g>
			<rect x="2821.6" y="411.9" fill="#8C8C8C" width="14.3" height="0.2"/>
		</g>
		<g>
			<rect x="2807.7" y="411.9" fill="#8C8C8C" width="13.2" height="0.2"/>
		</g>
		<g>
			<rect x="2836.7" y="426" fill="#8C8C8C" width="13.2" height="0.2"/>
		</g>
		<g>
			<rect x="2821.6" y="426" fill="#8C8C8C" width="14.3" height="0.2"/>
		</g>
		<g>
			<rect x="2807.7" y="426" fill="#8C8C8C" width="13.2" height="0.2"/>
		</g>
		<g>
			<rect x="2836.7" y="440.2" fill="#8C8C8C" width="13.2" height="0.2"/>
		</g>
		<g>
			<rect x="2821.6" y="440.2" fill="#8C8C8C" width="14.3" height="0.2"/>
		</g>
		<g>
			<rect x="2807.7" y="440.2" fill="#8C8C8C" width="13.2" height="0.2"/>
		</g>
		<g>
			<rect x="2807.7" y="451.8" fill="#8C8C8C" width="42.2" height="0.2"/>
		</g>
		<g opacity="7.000000e-02" enable-background="new    ">
			<polygon fill="#2D384E" points="2805.7,307 2852.4,307 2852.4,332.3 2805.7,468.3 			"/>
		</g>
	</g>
	<g opacity="0.1" clip-path="url(#SVGID_2_)" enable-background="new    ">
		<path d="M2858.5,466.2c-0.1,0-0.2,0-0.3,0c-0.9-0.2-1.8-0.2-2.5-0.1c-0.3,0.1-0.5,0.1-0.6,0.2c-1.6-0.2-3.1-0.3-4.6,0
			c-1.3,0.2-2.1,0.6-2.5,1.1c-0.7-0.1-1.4-0.1-1.9,0c-0.7,0.1-1.1,0.5-1,0.9c-0.8-0.2-1.6-0.2-2.2-0.1c0,0-0.1,0-0.1,0
			c0,0-0.1,0-0.1,0c-4.8,3.3,7.8,7.2,11.6,5.5c3.5,2,8.1,3.2,10.3,2.8c0,0,0.1,0,0.1,0s0.1,0,0.1,0c1-0.2,1.4-0.7,1.1-1.3
			c-0.1-0.5-0.6-1.2-1.4-1.9c0.4,0,0.8,0,1.1,0c1.4-0.2,1.1-1.3-0.5-2.5C2866.4,470.3,2864.3,465.6,2858.5,466.2z"/>
	</g>
	<g clip-path="url(#SVGID_2_)">
		<g opacity="0.1" enable-background="new    ">
			<ellipse cx="2843.7" cy="467.7" rx="3.8" ry="2.5"/>
		</g>
		<g>
			<ellipse fill="#6CCC00" cx="2843.9" cy="466.9" rx="3.6" ry="3.1"/>
		</g>
		<g opacity="0.1" enable-background="new    ">
			<path d="M2863.5,464.8c0-3.1-2.5-5-5.5-5.4c-0.7-2.5-3-4.4-5.8-4.4c-3.2,0-5.9,2.6-6,5.8c-3.2,0.1-5.8,2.7-5.8,6
				c0,1.3,0.2,2.4,0.2,2.4h9.1c1.3,0.8,3.5,1.3,5.9,1.3C2861.2,470.5,2863.5,468,2863.5,464.8z"/>
		</g>
		<g>
			<path fill="#6CCC00" d="M2863.2,464.5c0-3.1-2.5-5-5.5-5.3c-0.7-2.5-3-4.4-5.7-4.4c-3.2,0-5.8,2.6-5.9,5.8
				c-3.2,0.1-5.7,2.7-5.7,5.9c0,1.3,1.2,2.4,1.2,2.4h8.1c1.3,0.8,3.4,1.3,5.8,1.3C2860.8,470.1,2863.2,467.7,2863.2,464.5z"/>
		</g>
		<g>
			<ellipse fill="#6CCC00" cx="2843.9" cy="466.9" rx="3.6" ry="3.1"/>
		</g>
		<g opacity="0.1" enable-background="new    ">
			<ellipse cx="2848.9" cy="467.7" rx="3.6" ry="2.5"/>
		</g>
		<g>
			<ellipse fill="#6CCC00" cx="2848.9" cy="467.3" rx="3.6" ry="2.5"/>
		</g>
	</g>
	<g clip-path="url(#SVGID_2_)">
		<g opacity="0.1" enable-background="new    ">
			<rect x="2949" y="411.9" width="44.4" height="53.7"/>
		</g>
		<g>
			<rect x="2935.3" y="413.8" fill="#E8E9E5" width="58.2" height="53.7"/>
		</g>
		<g>
			<rect x="2935.3" y="413.8" fill="#FFFFFF" width="58.2" height="0.5"/>
		</g>
		<g>
			<rect x="2935.3" y="425.8" fill="#525D6D" width="58.2" height="11.2"/>
		</g>
		<g>
			<rect x="2935.3" y="443.3" fill="#525D6D" width="58.2" height="11.2"/>
		</g>
		<g opacity="0.2" enable-background="new    ">
			<polygon points="2993.5,428.4 2935.3,428.3 2935.3,425.8 2993.5,425.8 			"/>
		</g>
		<g>
			<rect x="2935.3" y="442.8" fill="#FFFFFF" width="58.2" height="0.5"/>
		</g>
		<g>
			<rect x="2935.3" y="454.5" fill="#FFFFFF" width="58.2" height="0.5"/>
		</g>
		<g>
			<rect x="2935.3" y="425.6" fill="#FFFFFF" width="58.2" height="0.5"/>
		</g>
		<g opacity="5.000000e-02" enable-background="new    ">
			<polygon points="2993.5,467.4 2933.5,467.4 2980,413.8 2993.5,413.8 			"/>
		</g>
		<g opacity="0.2" enable-background="new    ">
			<polygon points="2993.5,444.2 2935.3,445.1 2935.3,443.3 2993.5,443.3 			"/>
		</g>
		<g opacity="0.2" enable-background="new    ">
			<rect x="2935.3" y="453.6" width="58.2" height="0.9"/>
		</g>
		<g opacity="0.2" enable-background="new    ">
			<rect x="2935.3" y="436.1" width="58.2" height="0.9"/>
		</g>
		<g>
			<g>
				<defs>
					<rect id="SVGID_69_" x="2935.3" y="425.8" width="58.2" height="11.2"/>
				</defs>
				<clipPath id="SVGID_70_">
					<use xlink:href="#SVGID_69_"  overflow="visible"/>
				</clipPath>
				<g opacity="0.1" clip-path="url(#SVGID_70_)" enable-background="new    ">
					<polygon fill="#FFFFFF" points="2997.7,424.5 3021.5,424.5 2997.7,437 2973.8,437 					"/>
				</g>
			</g>
			<g>
				<defs>
					<rect id="SVGID_71_" x="2935.3" y="425.8" width="58.2" height="11.2"/>
				</defs>
				<clipPath id="SVGID_72_">
					<use xlink:href="#SVGID_71_"  overflow="visible"/>
				</clipPath>
				<g opacity="0.1" clip-path="url(#SVGID_72_)" enable-background="new    ">
					<polygon fill="#FFFFFF" points="2990.6,424.5 2994.2,424.5 2970.4,437 2966.7,437 					"/>
				</g>
			</g>
		</g>
		<g>
			<g>
				<defs>
					<rect id="SVGID_73_" x="2935.3" y="443.3" width="58.2" height="11.2"/>
				</defs>
				<clipPath id="SVGID_74_">
					<use xlink:href="#SVGID_73_"  overflow="visible"/>
				</clipPath>
				<g opacity="0.1" clip-path="url(#SVGID_74_)" enable-background="new    ">
					<polygon fill="#FFFFFF" points="2966.1,442 2990,442 2966.2,454.5 2942.4,454.5 					"/>
				</g>
			</g>
			<g>
				<defs>
					<rect id="SVGID_75_" x="2935.3" y="443.3" width="58.2" height="11.2"/>
				</defs>
				<clipPath id="SVGID_76_">
					<use xlink:href="#SVGID_75_"  overflow="visible"/>
				</clipPath>
				<g opacity="0.1" clip-path="url(#SVGID_76_)" enable-background="new    ">
					<polygon fill="#FFFFFF" points="2959.1,442 2962.7,442 2938.9,454.5 2935.2,454.5 					"/>
				</g>
			</g>
		</g>
	</g>
	<g clip-path="url(#SVGID_2_)">
		<g opacity="5.000000e-02" enable-background="new    ">
			<path d="M3043.7,392.8h-54.5c-0.4,0-0.7,0.3-0.7,0.7v3.3l0.8,0.5v20.3h1.2v49.6h3.1h49.1v-69.9l1.6-0.5v-3.3
				C3044.4,393.1,3044.1,392.8,3043.7,392.8z"/>
		</g>
		<g>
			<polygon fill="#CF7834" points="2992.1,468.3 3044.3,469.3 3044.3,398.4 2992.1,398.4 			"/>
		</g>
		<g>
			<g>
				<rect x="3025.9" y="441.4" fill="#695E47" width="12.9" height="7.1"/>
			</g>
			<g>
				<rect x="2997.7" y="441.4" fill="#695E47" width="12.9" height="7.1"/>
			</g>
			<g>
				<rect x="3011.8" y="441.4" fill="#695E47" width="12.9" height="7.1"/>
			</g>
			<g opacity="0.1" enable-background="new    ">
				<polygon points="2997.7,448.5 2998.4,443.2 3010.6,441.8 3010.6,441.4 2997.7,441.4 				"/>
			</g>
			<g opacity="0.1" enable-background="new    ">
				<polygon points="3011.8,448.5 3012.6,442.6 3024.7,441.8 3024.7,441.4 3011.8,441.4 				"/>
			</g>
			<g opacity="0.1" enable-background="new    ">
				<polygon points="3025.9,448.5 3026.7,442.1 3038.8,441.8 3038.8,441.4 3025.9,441.4 				"/>
			</g>
			<g>
				<polygon fill="#E5A04F" points="3025.9,448.7 3038.8,448.7 3038.8,448.5 3038.8,448.5 3025.9,448.5 3025.9,448.5 				"/>
			</g>
			<g>
				<polygon fill="#E5A04F" points="3011.7,448.7 3024.7,448.7 3024.7,448.5 3024.7,448.5 3011.7,448.5 3011.7,448.5 				"/>
			</g>
			<g>
				<polygon fill="#E5A04F" points="2997.6,448.7 3010.6,448.7 3010.6,448.5 3010.6,448.5 2997.6,448.5 2997.6,448.5 				"/>
			</g>
		</g>
		<g>
			<polygon fill="#D58B3B" points="3041.2,469.2 3044.3,469.3 3044.3,398.4 3041.2,398.4 			"/>
		</g>
		<g>
			<path fill="#ECE7E3" d="M3045.2,394h-54c-0.4,0-0.7,0.3-0.7,0.7v3.3l1.6,0.5h52.2l1.6-0.5v-3.3
				C3045.9,394.3,3045.6,394,3045.2,394z"/>
		</g>
		<g>
			<polygon fill="#C8C8C8" points="2990.5,397.9 2990.5,397.9 2992.1,398.4 3044.3,398.4 3045.9,397.9 			"/>
		</g>
		<g>
			<rect x="2992.1" y="398.4" fill="#D58B3B" width="3.1" height="69.9"/>
		</g>
		<g opacity="0.1" enable-background="new    ">
			<polygon points="2995.3,468.3 2995.6,468.3 2995.9,398.4 2995.3,398.4 			"/>
		</g>
		<g opacity="0.1" enable-background="new    ">
			<rect x="3040.8" y="398.4" width="0.3" height="70.8"/>
		</g>
		<g opacity="0.1" enable-background="new    ">
			<polygon points="3044.3,398.4 2992.1,398.4 2992.1,403.2 2995.3,403 2995.3,401.9 3041.2,400 3041.2,399.4 3044.4,399.4 			"/>
		</g>
		<g opacity="0.1" enable-background="new    ">
			<polygon points="3044.3,398.4 2992.1,398.4 2992.1,398.7 2995.3,398.7 2995.3,399.3 3041.2,399.3 3041.2,398.7 3044.4,398.7 			
				"/>
		</g>
		<g>
			<rect x="3025.9" y="401.6" fill="#695E47" width="12.9" height="7.1"/>
		</g>
		<g>
			<rect x="2997.7" y="401.6" fill="#695E47" width="12.9" height="7.1"/>
		</g>
		<g>
			<rect x="3011.8" y="401.6" fill="#695E47" width="12.9" height="7.1"/>
		</g>
		<g>
			<rect x="3025.9" y="411.5" fill="#695E47" width="12.9" height="7.1"/>
		</g>
		<g>
			<rect x="2997.7" y="411.5" fill="#695E47" width="12.9" height="7.1"/>
		</g>
		<g>
			<polygon fill="#E5A04F" points="3025.9,408.9 3038.8,408.9 3038.8,408.7 3038.8,408.7 3025.9,408.7 3025.9,408.7 			"/>
		</g>
		<g>
			<polygon fill="#E5A04F" points="3011.7,408.9 3024.7,408.9 3024.7,408.7 3024.7,408.7 3011.7,408.7 3011.7,408.7 			"/>
		</g>
		<g>
			<polygon fill="#E5A04F" points="2997.6,408.9 3010.6,408.9 3010.6,408.7 3010.6,408.7 2997.6,408.7 2997.6,408.7 			"/>
		</g>
		<g>
			<rect x="3011.8" y="411.5" fill="#695E47" width="12.9" height="7.1"/>
		</g>
		<g>
			<polygon fill="#847565" points="3025.9,468.9 3038.8,469.2 3038.8,453.5 3025.9,453.5 			"/>
		</g>
		<g>
			<polygon fill="#847565" points="3011.7,468.7 3024.7,468.9 3024.7,453.5 3011.7,453.5 			"/>
		</g>
		<g>
			<polygon fill="#847565" points="2997.7,468.4 3010.6,468.7 3010.6,453.5 2997.7,453.5 			"/>
		</g>
		<g opacity="0.1" enable-background="new    ">
			<polygon points="2997.7,468 2998.4,457.3 3010.6,454.5 3010.6,453.5 2997.7,453.5 			"/>
		</g>
		<g opacity="0.1" enable-background="new    ">
			<polygon points="3011.8,467.5 3012.6,456.2 3024.7,454.5 3024.7,453.5 3011.8,453.5 			"/>
		</g>
		<g opacity="0.1" enable-background="new    ">
			<polygon points="3025.9,468.4 3026.7,455.2 3038.8,454.5 3038.8,453.5 3025.9,453.5 			"/>
		</g>
		<g opacity="0.1" enable-background="new    ">
			<polygon points="2997.7,418.6 2998.4,413.3 3010.6,412 3010.6,411.5 2997.7,411.5 			"/>
		</g>
		<g opacity="0.1" enable-background="new    ">
			<polygon points="3011.8,418.6 3012.6,412.8 3024.7,412 3024.7,411.5 3011.8,411.5 			"/>
		</g>
		<g opacity="0.1" enable-background="new    ">
			<polygon points="3025.9,418.6 3026.7,412.3 3038.8,412 3038.8,411.5 3025.9,411.5 			"/>
		</g>
		<g opacity="0.1" enable-background="new    ">
			<polygon points="2997.7,408.7 2998.4,403.4 3010.6,402 3010.6,401.6 2997.7,401.6 			"/>
		</g>
		<g opacity="0.1" enable-background="new    ">
			<polygon points="3011.8,408.7 3012.6,402.8 3024.7,402 3024.7,401.6 3011.8,401.6 			"/>
		</g>
		<g opacity="0.1" enable-background="new    ">
			<polygon points="3025.9,408.7 3026.7,402.4 3038.8,402 3038.8,401.6 3025.9,401.6 			"/>
		</g>
		<g opacity="5.000000e-02" enable-background="new    ">
			<polyline points="3022.8,398.4 2992.1,398.4 2992.1,417.1 2995.3,416.4 2995.3,415.5 3041.2,401.6 3041.2,400.7 3044.3,400 
				3044.3,398.4 3022.8,398.4 			"/>
		</g>
		<g opacity="0.2" enable-background="new    ">
			<g>
				<defs>
					<polygon id="SVGID_77_" points="3011.8,468.1 3024.7,462.4 3024.7,453.5 3011.8,453.5 					"/>
				</defs>
				<clipPath id="SVGID_78_">
					<use xlink:href="#SVGID_77_"  overflow="visible"/>
				</clipPath>
				<g opacity="0.2" clip-path="url(#SVGID_78_)" enable-background="new    ">
					<polygon fill="#FFFFFF" points="3011.1,437.5 3011.6,438.3 3025.9,431.8 3025.6,431 					"/>
				</g>
			</g>
			<g>
				<defs>
					<polygon id="SVGID_79_" points="3011.8,468.1 3024.7,462.4 3024.7,453.5 3011.8,453.5 					"/>
				</defs>
				<clipPath id="SVGID_80_">
					<use xlink:href="#SVGID_79_"  overflow="visible"/>
				</clipPath>
				<g opacity="0.2" clip-path="url(#SVGID_80_)" enable-background="new    ">
					<polygon fill="#FFFFFF" points="3008.9,461.5 3010.1,463.8 3027.6,456.3 3026.3,454 					"/>
				</g>
			</g>
		</g>
		<g opacity="0.2" enable-background="new    ">
			<g>
				<defs>
					<rect id="SVGID_81_" x="3011.8" y="411.5" width="12.9" height="7.1"/>
				</defs>
				<clipPath id="SVGID_82_">
					<use xlink:href="#SVGID_81_"  overflow="visible"/>
				</clipPath>
				<g opacity="0.2" clip-path="url(#SVGID_82_)" enable-background="new    ">
					<polygon fill="#FFFFFF" points="3011.1,416.3 3011.6,417.1 3025.9,410.6 3025.6,409.8 					"/>
				</g>
			</g>
			<g>
				<defs>
					<rect id="SVGID_83_" x="3011.8" y="411.5" width="12.9" height="7.1"/>
				</defs>
				<clipPath id="SVGID_84_">
					<use xlink:href="#SVGID_83_"  overflow="visible"/>
				</clipPath>
				<g opacity="0.2" clip-path="url(#SVGID_84_)" enable-background="new    ">
					<polygon fill="#FFFFFF" points="3008.9,419.4 3010.1,421.8 3027.6,414.3 3026.3,411.9 					"/>
				</g>
			</g>
		</g>
		<g opacity="0.2" enable-background="new    ">
			<g>
				<defs>
					<rect id="SVGID_85_" x="3025.9" y="421.5" width="12.9" height="7.1"/>
				</defs>
				<clipPath id="SVGID_86_">
					<use xlink:href="#SVGID_85_"  overflow="visible"/>
				</clipPath>
				<g opacity="0.2" clip-path="url(#SVGID_86_)" enable-background="new    ">
					<polygon fill="#FFFFFF" points="3025.2,430.5 3025.6,431.3 3040,424.9 3039.7,424.1 					"/>
				</g>
			</g>
			<g>
				<defs>
					<rect id="SVGID_87_" x="3025.9" y="421.5" width="12.9" height="7.1"/>
				</defs>
				<clipPath id="SVGID_88_">
					<use xlink:href="#SVGID_87_"  overflow="visible"/>
				</clipPath>
				<g opacity="0.2" clip-path="url(#SVGID_88_)" enable-background="new    ">
					<polygon fill="#FFFFFF" points="3023,433.7 3024.2,436 3041.7,428.6 3040.4,426.2 					"/>
				</g>
			</g>
		</g>
		<g opacity="0.2" enable-background="new    ">
			<g>
				<defs>
					<rect id="SVGID_89_" x="2997.7" y="421.5" width="12.9" height="7.1"/>
				</defs>
				<clipPath id="SVGID_90_">
					<use xlink:href="#SVGID_89_"  overflow="visible"/>
				</clipPath>
				<g opacity="0.2" clip-path="url(#SVGID_90_)" enable-background="new    ">
					<polygon fill="#FFFFFF" points="2997,422.8 2997.5,423.6 3011.9,417.1 3011.5,416.3 					"/>
				</g>
			</g>
			<g>
				<defs>
					<rect id="SVGID_91_" x="2997.7" y="421.5" width="12.9" height="7.1"/>
				</defs>
				<clipPath id="SVGID_92_">
					<use xlink:href="#SVGID_91_"  overflow="visible"/>
				</clipPath>
				<g opacity="0.2" clip-path="url(#SVGID_92_)" enable-background="new    ">
					<polygon fill="#FFFFFF" points="2994.8,425.9 2996.1,428.3 3013.5,420.8 3012.2,418.4 					"/>
				</g>
			</g>
		</g>
		<g opacity="0.2" enable-background="new    ">
			<g>
				<defs>
					<rect id="SVGID_93_" x="2997.7" y="411.5" width="12.9" height="7.1"/>
				</defs>
				<clipPath id="SVGID_94_">
					<use xlink:href="#SVGID_93_"  overflow="visible"/>
				</clipPath>
				<g opacity="0.2" clip-path="url(#SVGID_94_)" enable-background="new    ">
					<polygon fill="#FFFFFF" points="2997,422.7 2997.5,423.5 3011.9,417 3011.5,416.2 					"/>
				</g>
			</g>
			<g>
				<defs>
					<rect id="SVGID_95_" x="2997.7" y="411.5" width="12.9" height="7.1"/>
				</defs>
				<clipPath id="SVGID_96_">
					<use xlink:href="#SVGID_95_"  overflow="visible"/>
				</clipPath>
				<g opacity="0.2" clip-path="url(#SVGID_96_)" enable-background="new    ">
					<polygon fill="#FFFFFF" points="2994.8,425.8 2996.1,428.2 3013.5,420.7 3012.2,418.4 					"/>
				</g>
			</g>
		</g>
		<g opacity="0.2" enable-background="new    ">
			<g>
				<defs>
					<rect id="SVGID_97_" x="3025.9" y="411.5" width="12.9" height="7.1"/>
				</defs>
				<clipPath id="SVGID_98_">
					<use xlink:href="#SVGID_97_"  overflow="visible"/>
				</clipPath>
				<g opacity="0.2" clip-path="url(#SVGID_98_)" enable-background="new    ">
					<polygon fill="#FFFFFF" points="3025.2,410.2 3025.6,411 3040,404.6 3039.7,403.7 					"/>
				</g>
			</g>
			<g>
				<defs>
					<rect id="SVGID_99_" x="3025.9" y="411.5" width="12.9" height="7.1"/>
				</defs>
				<clipPath id="SVGID_100_">
					<use xlink:href="#SVGID_99_"  overflow="visible"/>
				</clipPath>
				<g opacity="0.2" clip-path="url(#SVGID_100_)" enable-background="new    ">
					<polygon fill="#FFFFFF" points="3023,413.4 3024.2,415.7 3041.7,408.2 3040.4,405.9 					"/>
				</g>
			</g>
		</g>
		<g opacity="0.2" enable-background="new    ">
			<g>
				<defs>
					<rect id="SVGID_101_" x="3025.9" y="401.6" width="12.9" height="7.1"/>
				</defs>
				<clipPath id="SVGID_102_">
					<use xlink:href="#SVGID_101_"  overflow="visible"/>
				</clipPath>
				<g opacity="0.2" clip-path="url(#SVGID_102_)" enable-background="new    ">
					<polygon fill="#FFFFFF" points="3025.2,400.3 3025.6,401.1 3040,394.6 3039.7,393.8 					"/>
				</g>
			</g>
			<g>
				<defs>
					<rect id="SVGID_103_" x="3025.9" y="401.6" width="12.9" height="7.1"/>
				</defs>
				<clipPath id="SVGID_104_">
					<use xlink:href="#SVGID_103_"  overflow="visible"/>
				</clipPath>
				<g opacity="0.2" clip-path="url(#SVGID_104_)" enable-background="new    ">
					<polygon fill="#FFFFFF" points="3025.2,409.3 3025.6,410.1 3040,403.6 3039.7,402.8 					"/>
				</g>
			</g>
			<g>
				<defs>
					<rect id="SVGID_105_" x="3025.9" y="401.6" width="12.9" height="7.1"/>
				</defs>
				<clipPath id="SVGID_106_">
					<use xlink:href="#SVGID_105_"  overflow="visible"/>
				</clipPath>
				<g opacity="0.2" clip-path="url(#SVGID_106_)" enable-background="new    ">
					<polygon fill="#FFFFFF" points="3023,413.5 3024.2,415.8 3041.7,408.3 3040.4,406 					"/>
				</g>
			</g>
		</g>
		<g opacity="0.2" enable-background="new    ">
			<g>
				<defs>
					<polygon id="SVGID_107_" points="3025.9,468.1 3038.8,462.4 3038.8,453.5 3025.9,453.5 					"/>
				</defs>
				<clipPath id="SVGID_108_">
					<use xlink:href="#SVGID_107_"  overflow="visible"/>
				</clipPath>
				<g opacity="0.2" clip-path="url(#SVGID_108_)" enable-background="new    ">
					<polygon fill="#FFFFFF" points="3025.2,452.3 3025.6,453.1 3040,446.7 3039.7,445.9 					"/>
				</g>
			</g>
			<g>
				<defs>
					<polygon id="SVGID_109_" points="3025.9,468.1 3038.8,462.4 3038.8,453.5 3025.9,453.5 					"/>
				</defs>
				<clipPath id="SVGID_110_">
					<use xlink:href="#SVGID_109_"  overflow="visible"/>
				</clipPath>
				<g opacity="0.2" clip-path="url(#SVGID_110_)" enable-background="new    ">
					<polygon fill="#FFFFFF" points="3023,455.5 3024.2,457.8 3041.7,450.3 3040.4,448 					"/>
				</g>
			</g>
		</g>
		<g opacity="0.2" enable-background="new    ">
			<g>
				<defs>
					<polygon id="SVGID_111_" points="2997.7,468.4 3010.6,467.3 3010.6,455.4 2997.7,459.7 					"/>
				</defs>
				<clipPath id="SVGID_112_">
					<use xlink:href="#SVGID_111_"  overflow="visible"/>
				</clipPath>
				<g opacity="0.2" clip-path="url(#SVGID_112_)" enable-background="new    ">
					<polygon fill="#FFFFFF" points="2997,464.4 2997.5,465.2 3011.9,458.8 3011.5,457.9 					"/>
				</g>
			</g>
			<g>
				<defs>
					<polygon id="SVGID_113_" points="2997.7,468.4 3010.6,467.3 3010.6,455.4 2997.7,459.7 					"/>
				</defs>
				<clipPath id="SVGID_114_">
					<use xlink:href="#SVGID_113_"  overflow="visible"/>
				</clipPath>
				<g opacity="0.2" clip-path="url(#SVGID_114_)" enable-background="new    ">
					<polygon fill="#FFFFFF" points="2994.8,467.6 2996.1,469.9 3013.5,462.4 3012.2,460.1 					"/>
				</g>
			</g>
		</g>
		<g>
			<polygon fill="#E5A04F" points="3025.9,418.9 3038.8,418.9 3038.8,418.6 3038.8,418.6 3025.9,418.6 3025.9,418.6 			"/>
		</g>
		<g>
			<polygon fill="#E5A04F" points="3011.7,418.9 3024.7,418.9 3024.7,418.6 3024.7,418.6 3011.7,418.6 3011.7,418.6 			"/>
		</g>
		<g>
			<polygon fill="#E5A04F" points="2997.6,418.9 3010.6,418.9 3010.6,418.6 3010.6,418.6 2997.6,418.6 2997.6,418.6 			"/>
		</g>
		<g>
			<g>
				<rect x="3025.9" y="421.5" fill="#695E47" width="12.9" height="7.1"/>
			</g>
			<g>
				<rect x="2997.7" y="421.5" fill="#695E47" width="12.9" height="7.1"/>
			</g>
			<g>
				<rect x="3011.8" y="421.5" fill="#695E47" width="12.9" height="7.1"/>
			</g>
			<g opacity="0.1" enable-background="new    ">
				<polygon points="2997.7,428.6 2998.4,423.3 3010.6,421.9 3010.6,421.5 2997.7,421.5 				"/>
			</g>
			<g opacity="0.1" enable-background="new    ">
				<polygon points="3011.8,428.6 3012.6,422.7 3024.7,421.9 3024.7,421.5 3011.8,421.5 				"/>
			</g>
			<g opacity="0.1" enable-background="new    ">
				<polygon points="3025.9,428.6 3026.7,422.2 3038.8,421.9 3038.8,421.5 3025.9,421.5 				"/>
			</g>
			<g>
				<polygon fill="#E5A04F" points="3025.9,428.8 3038.8,428.8 3038.8,428.6 3038.8,428.6 3025.9,428.6 3025.9,428.6 				"/>
			</g>
			<g>
				<polygon fill="#E5A04F" points="3011.7,428.8 3024.7,428.8 3024.7,428.6 3024.7,428.6 3011.7,428.6 3011.7,428.6 				"/>
			</g>
			<g>
				<polygon fill="#E5A04F" points="2997.6,428.8 3010.6,428.8 3010.6,428.6 3010.6,428.6 2997.6,428.6 2997.6,428.6 				"/>
			</g>
		</g>
		<g>
			<g>
				<rect x="3025.9" y="431.4" fill="#695E47" width="12.9" height="7.1"/>
			</g>
			<g>
				<rect x="2997.7" y="431.4" fill="#695E47" width="12.9" height="7.1"/>
			</g>
			<g>
				<rect x="3011.8" y="431.4" fill="#695E47" width="12.9" height="7.1"/>
			</g>
			<g opacity="0.1" enable-background="new    ">
				<polygon points="2997.7,438.6 2998.4,433.2 3010.6,431.9 3010.6,431.4 2997.7,431.4 				"/>
			</g>
			<g opacity="0.1" enable-background="new    ">
				<polygon points="3011.8,438.6 3012.6,432.7 3024.7,431.9 3024.7,431.4 3011.8,431.4 				"/>
			</g>
			<g opacity="0.1" enable-background="new    ">
				<polygon points="3025.9,438.6 3026.7,432.2 3038.8,431.9 3038.8,431.4 3025.9,431.4 				"/>
			</g>
			<g>
				<polygon fill="#E5A04F" points="3025.9,438.8 3038.8,438.8 3038.8,438.6 3038.8,438.6 3025.9,438.6 3025.9,438.6 				"/>
			</g>
			<g>
				<polygon fill="#E5A04F" points="3011.7,438.8 3024.7,438.8 3024.7,438.6 3024.7,438.6 3011.7,438.6 3011.7,438.6 				"/>
			</g>
			<g>
				<polygon fill="#E5A04F" points="2997.6,438.8 3010.6,438.8 3010.6,438.6 3010.6,438.6 2997.6,438.6 2997.6,438.6 				"/>
			</g>
		</g>
		<g>
			<rect x="2990.5" y="397.6" fill="#FFFFFF" width="55.3" height="0.3"/>
		</g>
	</g>
	<g clip-path="url(#SVGID_2_)">
		<g opacity="0.1">
			<g>
				<path d="M2764.8,426.9c0-2.6-1.1-5.1-3.1-7.2v14.4C2763.7,432,2764.8,429.5,2764.8,426.9z"/>
			</g>
		</g>
		<g>
			<g>
				<g>
					<path fill="#FFCD00" d="M2809.1,459h-47.3v-42.5c0-3.9,3.2-7.1,7.1-7.1h33.1c3.9,0,7.1,3.2,7.1,7.1
						C2809.1,416.5,2809.1,459,2809.1,459z"/>
				</g>
				<g>
					<path fill="#FDC12D" d="M2809.1,459h-23.6v-49.6h16.5c3.9,0,7.1,3.2,7.1,7.1V459z"/>
				</g>
				<g>
					<g>
						<path fill="#FFFFCD" d="M2782.7,415.1c0,0.9,0.7,1.7,1.7,1.7h2c0.9,0,1.7-0.7,1.7-1.7V414c0-0.9-0.7-1.7-1.7-1.7h-2
							c-0.9,0-1.7,0.7-1.7,1.7V415.1z"/>
					</g>
				</g>
				<g>
					<g>
						<path fill="#F5F6C8" d="M2785.5,416.8h1c0.9,0,1.7-0.7,1.7-1.7V414c0-0.9-0.7-1.7-1.7-1.7h-1V416.8z"/>
					</g>
				</g>
				<g>
					<path fill="#004B9F" d="M2764.7,446.5h41.4v-22.1c0-2.5-2-4.5-4.5-4.5h-32.2c-2.5,0-4.6,2-4.6,4.5V446.5z"/>
				</g>
				<g>
					<path fill="#063B88" d="M2785.5,446.5h20.7v-22.1c0-2.5-2-4.5-4.5-4.5h-16.1V446.5z"/>
				</g>
				<g>
					<circle fill="#FFFFFF" cx="2769.4" cy="426.3" r="2.2"/>
				</g>
				<g>
					<circle fill="#FFFFFF" cx="2772.2" cy="423.5" r="0.6"/>
				</g>
				<g>
					<path fill="#FFFFCD" d="M2771.4,456.5h-9.6v-6.2h9.6c0.6,0,1,0.4,1,1v4.1C2772.4,456.1,2771.9,456.5,2771.4,456.5z"/>
				</g>
				<g>
					<path fill="#F6F5C8" d="M2771.4,456.5h-6l4.9-6.2h1.2c0.6,0,1,0.4,1,1v4.1C2772.4,456.1,2771.9,456.5,2771.4,456.5z"/>
				</g>
				<g>
					<rect x="2761.8" y="450.4" fill="#FF6C00" width="3" height="6.2"/>
				</g>
				<g>
					<path fill="#FFFFCD" d="M2799.5,456.5h9.6v-6.2h-9.6c-0.6,0-1,0.4-1,1v4.1C2798.4,456.1,2798.9,456.5,2799.5,456.5z"/>
				</g>
				<g>
					<rect x="2806.1" y="450.4" fill="#FF6C00" width="3" height="6.2"/>
				</g>
				<g>
					<path fill="#C19F25" d="M2806.3,465.6h-41.7c-1.6,0-2.8-1.3-2.8-2.8v-3.8h47.4v3.8C2809.1,464.3,2807.8,465.6,2806.3,465.6z"/>
				</g>
				<g>
					<path fill="#B3882B" d="M2806.3,465.6h-20.8V459h23.6v3.8C2809.1,464.3,2807.8,465.6,2806.3,465.6z"/>
				</g>
				<g>
					<g opacity="0.2" enable-background="new    ">
						<path d="M2785.5,453l-2,1.3l2,1.3l2-1.3L2785.5,453z M2784.5,454.2l1-0.7l1,0.7l-1,0.7L2784.5,454.2z"/>
					</g>
					<g opacity="0.2">
						<g>
							<polygon points="2784.5,453 2785.5,452.4 2786.6,453 2786.3,453.2 2786.8,453.5 2787.6,453 2785.5,451.8 2783.5,453 
								2784.3,453.5 2784.8,453.2 							"/>
						</g>
					</g>
					<g>
						<path fill="#FFFFFF" d="M2785.4,452.8l-2,1.3l2,1.3l2-1.3L2785.4,452.8z M2784.4,454l1-0.7l1,0.7l-1,0.7L2784.4,454z"/>
					</g>
					<g>
						<g>
							<polygon fill="#FFFFFF" points="2784.4,452.9 2785.4,452.2 2786.4,452.9 2786.2,453 2786.7,453.3 2787.4,452.9 2785.4,451.6 
								2783.4,452.9 2784.1,453.3 2784.6,453 							"/>
						</g>
					</g>
				</g>
				<g>
					<path fill="#2D4049" d="M2771.3,471.2h-1.7c-1.4,0-2.5-1.1-2.5-2.5v-3.1h6.7v3.1C2773.8,470.1,2772.6,471.2,2771.3,471.2z"/>
				</g>
				<g>
					<path fill="#2D4049" d="M2801.3,471.2h-1.7c-1.4,0-2.5-1.1-2.5-2.5v-3.1h6.7v3.1C2803.7,470.1,2802.6,471.2,2801.3,471.2z"/>
				</g>
				<g>
					<rect x="2797.1" y="465.6" fill="#1F2D32" width="6.7" height="1.4"/>
				</g>
				<g>
					<rect x="2767.1" y="465.6" fill="#1F2D32" width="6.7" height="1.4"/>
				</g>
				<g>
					<polygon fill="#F6F5C8" points="2800.2,456.5 2806.1,456.5 2806.1,450.4 2805.1,450.4 					"/>
				</g>
			</g>
		</g>
		<g opacity="0.1" enable-background="new    ">
			<path d="M2761.7,419.8v2c1.6,1.4,2.7,3.4,2.7,5.7c0,2.3-1,4.4-2.7,5.7v2c2.6-1.6,4.3-4.5,4.3-7.8
				C2766,424.3,2764.3,421.5,2761.7,419.8z"/>
		</g>
		<g>
			<g>
				<rect x="2755.4" y="423.9" fill="#2D4049" width="1.1" height="47.6"/>
			</g>
			<g>
				<rect x="2755.9" y="423.9" fill="#1F2D32" width="0.6" height="47.6"/>
			</g>
			<g>
				<g>
					<path fill="#D40049" d="M2755.8,436c-4.6,0-8.4-3.8-8.4-8.4s3.8-8.4,8.4-8.4c4.6,0,8.4,3.8,8.4,8.4
						C2764.2,432.2,2760.4,436,2755.8,436z"/>
				</g>
				<g>
					<path fill="#FFFFFF" d="M2755.8,420.1c4.2,0,7.5,3.4,7.5,7.5c0,4.2-3.4,7.5-7.5,7.5c-4.2,0-7.5-3.4-7.5-7.5
						C2748.3,423.5,2751.6,420.1,2755.8,420.1 M2755.8,418.4c-5.1,0-9.2,4.1-9.2,9.2c0,5.1,4.1,9.2,9.2,9.2s9.2-4.1,9.2-9.2
						C2765,422.5,2760.9,418.4,2755.8,418.4L2755.8,418.4z"/>
				</g>
			</g>
			<g opacity="0.1">
				<g>
					<path d="M2757.4,427.5c-0.5,0-0.9,0.4-0.9,0.9v0.2h0.4v-0.2c0-0.2,0.2-0.4,0.4-0.4s0.4,0.2,0.4,0.4v0.2h0.4v-0.2
						C2758.3,427.9,2757.9,427.5,2757.4,427.5z"/>
				</g>
			</g>
			<g>
				<g>
					<path fill="#FFFFFF" d="M2757.2,427.2c-0.5,0-0.9,0.4-0.9,0.9v0.2h0.4v-0.2c0-0.2,0.2-0.4,0.4-0.4s0.4,0.2,0.4,0.4v0.2h0.4
						v-0.2C2758.1,427.6,2757.7,427.2,2757.2,427.2z"/>
				</g>
			</g>
			<g id="Shadow_6_">
				<g>
					<path fill="#C00C47" d="M2755.8,435.1c4.2,0,7.5-3.4,7.5-7.5c0-4.2-3.4-7.5-7.5-7.5V435.1z"/>
				</g>
			</g>
			<g>
				<path fill="#AC0B3F" d="M2758.7,423.5h-5c-0.4,0-0.8,0.4-0.8,0.8v1.2v3.1v1.9c0,0.3,0.2,0.6,0.5,0.7v0.8c0,0.2,0.2,0.4,0.4,0.4
					h0.4c0.2,0,0.4-0.2,0.4-0.4v-0.7h3.3v0.7c0,0.2,0.2,0.4,0.4,0.4h0.4c0.2,0,0.4-0.2,0.4-0.4v-0.8c0.3-0.1,0.5-0.4,0.5-0.7v-2
					v-3.1v-1.2C2759.4,423.8,2759.1,423.5,2758.7,423.5z M2753.3,424.3c0-0.2,0.1-0.3,0.3-0.3h5c0.2,0,0.3,0.1,0.3,0.3v0.4
					c-0.1,0-0.2-0.1-0.3-0.1h-5c-0.1,0-0.2,0-0.3,0.1V424.3z M2753.9,430.6c-0.3,0-0.5-0.2-0.5-0.5c0-0.3,0.2-0.5,0.5-0.5
					s0.5,0.2,0.5,0.5S2754.2,430.6,2753.9,430.6z M2753.6,428.9c-0.2,0-0.3-0.1-0.3-0.3v-3.1c0-0.2,0.1-0.3,0.3-0.3h5
					c0.2,0,0.3,0.1,0.3,0.3v3.1c0,0.2-0.1,0.3-0.3,0.3L2753.6,428.9L2753.6,428.9z M2758.4,430.6c-0.3,0-0.5-0.2-0.5-0.5
					c0-0.3,0.2-0.5,0.5-0.5s0.5,0.2,0.5,0.5S2758.7,430.6,2758.4,430.6z"/>
			</g>
			<g>
				<path fill="#FFFFFF" d="M2758.5,423.2h-5c-0.4,0-0.8,0.4-0.8,0.8v1.2v3.1v1.9c0,0.3,0.2,0.6,0.5,0.7v0.8c0,0.2,0.2,0.4,0.4,0.4
					h0.4c0.2,0,0.4-0.2,0.4-0.4v-0.7h3.3v0.7c0,0.2,0.2,0.4,0.4,0.4h0.4c0.2,0,0.4-0.2,0.4-0.4V431c0.3-0.1,0.5-0.4,0.5-0.7v-2v-3.1
					V424C2759.3,423.6,2758.9,423.2,2758.5,423.2z M2753.2,424c0-0.2,0.1-0.3,0.3-0.3h5c0.2,0,0.3,0.1,0.3,0.3v0.4
					c-0.1,0-0.2-0.1-0.3-0.1h-5c-0.1,0-0.2,0-0.3,0.1V424z M2753.7,430.4c-0.3,0-0.5-0.2-0.5-0.5c0-0.3,0.2-0.5,0.5-0.5
					s0.5,0.2,0.5,0.5C2754.2,430.1,2754,430.4,2753.7,430.4z M2753.5,428.6c-0.2,0-0.3-0.1-0.3-0.3v-3.1c0-0.2,0.1-0.3,0.3-0.3h5
					c0.2,0,0.3,0.1,0.3,0.3v3.1c0,0.2-0.1,0.3-0.3,0.3H2753.5z M2758.2,430.4c-0.3,0-0.5-0.2-0.5-0.5c0-0.3,0.2-0.5,0.5-0.5
					s0.5,0.2,0.5,0.5C2758.8,430.1,2758.5,430.4,2758.2,430.4z"/>
			</g>
		</g>
	</g>
	<g id="Bush_38_" clip-path="url(#SVGID_2_)">
		<path fill="#4C9300" d="M3044.8,464.7c0.1-2.8,2.2-5.1,4.8-5.1c2.2,0,4.1,1.6,4.6,3.9c2.4,0.3,4.4,2,4.4,4.7
			c0,1.4-0.4,3.2-1.9,3.8h-16.4c0,0-0.2-1-0.2-2.1C3040.2,467,3042.2,464.7,3044.8,464.7z"/>
	</g>
	<g clip-path="url(#SVGID_2_)">
		<g>
			<g id="Bush_35_" opacity="0.1" enable-background="new    ">
				<path d="M3052.9,466.7c0.1-2.5,2.1-4.4,4.5-4.4c2.1,0,3.9,1.4,4.4,3.4c2.3,0.2,4.2,1.7,4.2,4.1c0,1.2-0.4,2.8-1.8,3.4h-15.5
					c0,0-0.2-0.9-0.2-1.8C3048.5,468.8,3050.4,466.8,3052.9,466.7z"/>
			</g>
			<g id="Bush_34_">
				<path fill="#6CCC00" d="M3051.9,466.7c0.1-2.5,2.1-4.4,4.5-4.4c2.1,0,3.9,1.4,4.4,3.4c2.3,0.2,4.2,1.7,4.2,4.1
					c0,1.2-0.4,2.8-1.8,3.4h-15.5c0,0-0.2-0.9-0.2-1.8C3047.5,468.8,3049.5,466.8,3051.9,466.7z"/>
			</g>
			<g opacity="0.1" enable-background="new    ">
				<ellipse cx="3060.5" cy="471.3" rx="3.6" ry="3.1"/>
			</g>
			<g>
				<ellipse fill="#6CCC00" cx="3060.4" cy="471.2" rx="3.7" ry="3.1"/>
			</g>
			<g opacity="0.1" enable-background="new    ">
				<ellipse cx="3056.2" cy="470.6" rx="3.9" ry="3.5"/>
			</g>
			<g>
				<ellipse fill="#6CCC00" cx="3055.6" cy="470.4" rx="4.5" ry="3.6"/>
			</g>
			<g opacity="0.1" enable-background="new    ">
				<path d="M3055.1,467.7c-0.6-1.6-1.9-3.3-4.7-3.4c-0.1-3.4-2.8-6.1-6.2-6.1c-2.9,0-5.3,2-6,4.6c-3.1,0.3-5.7,2.4-5.7,5.6
					c0,1.7,0.6,3.9,2.5,4.6l13.5-0.1c0.9,0.8,2.2,1.4,3.6,1.4c2.6,0,4.7-1.7,4.7-3.8C3056.7,470,3056.9,468.9,3055.1,467.7z"/>
			</g>
			<g opacity="0.1" enable-background="new    ">
				<path d="M3054.9,470.6c0-3.4-2.7-6.1-6-6.2c-0.1-3.4-2.8-6.1-6.2-6.1c-2.9,0-4.9,1.8-5.6,4.4c-3.1,0.3-5.8,2.8-6.2,5.8
					c-0.4,3.9,1.6,5.4,4,5.4c1.8,0,3.4-0.3,4-0.7h15.8C3054.7,473.1,3054.9,472,3054.9,470.6z"/>
			</g>
			<g id="Bush_33_">
				<path fill="#6CCC00" d="M3049.6,464.4c-0.1-3.4-2.8-6.1-6.2-6.1c-2.9,0-5.3,2-6,4.6c-3.1,0.3-6,2.4-6,7.3c0,1.7,0.1,2,2,2.8
					l21.6,0.1c0,0,0.7-1.2,0.7-2.5C3055.6,467.2,3052.9,464.5,3049.6,464.4z"/>
			</g>
		</g>
		<g>
			<path fill="#6CCC00" d="M3038.9,470.4c0,1.8-1.7,3.2-3.8,3.2s-4.1-0.7-3.8-4c0.1-1.8,1.7-2.5,3.8-2.5S3038.9,468.6,3038.9,470.4z
				"/>
		</g>
		<g>
			<ellipse fill="#6CCC00" cx="3035.8" cy="470.4" rx="4.5" ry="3.2"/>
		</g>
		<g opacity="0.1" enable-background="new    ">
			<ellipse cx="3040.3" cy="471.2" rx="3.8" ry="2.6"/>
		</g>
		<g>
			<ellipse fill="#6CCC00" cx="3040.3" cy="470.9" rx="3.8" ry="2.6"/>
		</g>
		<g>
			<ellipse fill="#6CCC00" cx="3051.9" cy="470.5" rx="4.5" ry="3.6"/>
		</g>
		<g>
			<ellipse fill="#6CCC00" cx="3051.9" cy="470.5" rx="4.5" ry="3.6"/>
		</g>
		<g opacity="0.1" enable-background="new    ">
			<ellipse cx="3045.6" cy="471.4" rx="4.6" ry="3"/>
		</g>
		<g>
			<ellipse fill="#6CCC00" cx="3045.6" cy="471" rx="4.5" ry="3"/>
		</g>
	</g>
	<g opacity="0.1" clip-path="url(#SVGID_2_)" enable-background="new    ">
		<path d="M2760.6,468.4c-0.1,0-0.2,0-0.4,0.1c-1.2-0.2-2.3-0.3-3.2-0.1c-0.3,0.1-0.6,0.1-0.8,0.3c-2-0.3-4-0.4-6,0
			c-1.6,0.3-2.7,0.8-3.1,1.4c-0.9-0.1-1.8-0.1-2.5,0c-1,0.2-1.4,0.6-1.3,1.2c-1.1-0.2-2.1-0.3-2.8-0.1c-0.1,0-0.1,0-0.1,0
			s-0.1,0-0.1,0c-6.2,4.5,10.1,9.8,14.9,7.5c4.5,2.7,10.4,4.4,13.3,3.8c0.1,0,0.1,0,0.1,0s0.1,0,0.1,0c1.3-0.2,1.8-0.9,1.5-1.8
			c-0.1-0.7-0.7-1.6-1.8-2.5c0.6,0,1,0,1.5-0.1c1.8-0.4,1.4-1.8-0.7-3.4C2770.6,474,2768,467.6,2760.6,468.4z"/>
	</g>
	<g clip-path="url(#SVGID_2_)">
		<g id="Bush_37_">
			<path fill="#4C9300" d="M2753.3,465c0.1-2.5,2.1-4.6,4.7-4.6c2.2,0,4,1.5,4.5,3.5c2.3,0.3,4.3,1.8,4.3,4.2c0,1.3-0.6,3.3-2.8,3.4
				c-5.2,0.3-15.1,0-15.1,0s-0.2-0.9-0.2-1.9C2748.7,467.2,2750.8,465.1,2753.3,465z"/>
		</g>
		<g opacity="0.1" enable-background="new    ">
			<ellipse cx="2760.9" cy="469.7" rx="4" ry="2.7"/>
		</g>
		<g>
			<ellipse fill="#4C9300" cx="2760.9" cy="469.3" rx="4" ry="2.7"/>
		</g>
		<g>
			<ellipse fill="#6CCC00" cx="2741.5" cy="469.5" rx="3.9" ry="3.3"/>
		</g>
		<g opacity="0.1" enable-background="new    ">
			<path d="M2762.7,467.2c0-3.3-2.8-5.4-6-5.8c-0.7-2.8-3.3-4.8-6.3-4.8c-3.5,0-6.4,2.8-6.5,6.3c-3.5,0.1-6.3,3-6.3,6.5
				c0,1.4,1,2.2,1,2.2l9,0.4c1.4,0.9,3.7,1.4,6.4,1.4C2760.2,473.4,2762.7,470.7,2762.7,467.2z"/>
		</g>
		<g opacity="0.1" enable-background="new    ">
			<path d="M2756,461.1c-0.7-2.8-3.2-4.8-6.2-4.8c-3.5,0-6.3,2.8-6.4,6.3c-3.5,0.1-6.2,2.9-6.2,6.4c0,0.1,0,0.3,0.1,0.5l0,0
				c0,1.8,1.7,3.3,3.9,3.3c1.2,0,2.3-0.5,3-1.2h3.1c1.4,0.9,3.7,1.4,6.3,1.4c5.9,0,8.4-2.7,8.4-6.1
				C2762,463.5,2759.2,461.5,2756,461.1z"/>
		</g>
		<g>
			<path fill="#6CCC00" d="M2762.4,466.9c0-3.3-2.7-5.4-5.9-5.8c-0.7-2.8-3.2-4.8-6.2-4.8c-3.5,0-6.3,2.8-6.4,6.3
				c-3.5,0.1-6.2,2.9-6.2,6.4c0,1.4,1.3,2.6,1.3,2.6h8.8c1.4,0.9,3.7,1.4,6.3,1.4C2759.8,473,2762.4,470.3,2762.4,466.9z"/>
		</g>
		<g>
			<ellipse fill="#6CCC00" cx="2741.5" cy="469.5" rx="3.9" ry="3.3"/>
		</g>
		<g opacity="0.1" enable-background="new    ">
			<ellipse cx="2746.8" cy="470.3" rx="4" ry="2.7"/>
		</g>
		<g>
			<ellipse fill="#6CCC00" cx="2746.8" cy="470" rx="3.9" ry="2.7"/>
		</g>
	</g>
</g>
</svg>
