<?xml version="1.0" encoding="utf-8"?>
<!-- Generator: Adobe Illustrator 17.1.0, SVG Export Plug-In . SVG Version: 6.00 Build 0)  -->
<!DOCTYPE svg PUBLIC "-//W3C//DTD SVG 1.1//EN" "http://www.w3.org/Graphics/SVG/1.1/DTD/svg11.dtd">
<svg version="1.1" id="Layer_1" xmlns="http://www.w3.org/2000/svg" xmlns:xlink="http://www.w3.org/1999/xlink" x="0px" y="0px"
	 viewBox="0 0 1509 861.8" enable-background="new 0 0 1509 861.8" xml:space="preserve">
<g>
	<defs>
		<rect id="SVGID_1_" width="1509" height="861.8"/>
	</defs>
	<clipPath id="SVGID_2_">
		<use xlink:href="#SVGID_1_"  overflow="visible"/>
	</clipPath>
	<rect clip-path="url(#SVGID_2_)" fill="#E4EAF0" width="1509" height="861.8"/>
	<path clip-path="url(#SVGID_2_)" fill="#BAC4CE" d="M332.8,432.8L173.9,273.9c-4.2-4.2-7.5-12.3-7.5-18.2V-45.4h3.2v301.1
		c0,5.1,3,12.4,6.6,15.9l158.9,158.9L332.8,432.8z"/>
	<polygon clip-path="url(#SVGID_2_)" fill="#BAC4CE" points="693.7,901 689.7,901 689.7,615.8 875,430.5 877.9,433.3 693.7,617.5 	
		"/>
	<rect x="836.4" y="611.1" clip-path="url(#SVGID_2_)" fill="#231F20" width="1.8" height="1"/>
	<path clip-path="url(#SVGID_2_)" fill="#BAC4CE" d="M1380,502.5c-2.2,0-4.4-0.8-6-2.5c-3.3-3.3-3.3-8.7,0-12l172.7-172.7
		c3.3-3.3,8.7-3.3,12,0c3.3,3.3,3.3,8.7,0,12L1386,500C1384.4,501.7,1382.2,502.5,1380,502.5z"/>
	<path clip-path="url(#SVGID_2_)" fill="#BAC4CE" d="M1536,246.1H848.2c-6.1,0-14.2-3.4-18.5-7.7L719.2,127.9
		c-3.5-3.5-10.7-6.5-15.7-6.5H438c-6.1,0-14.2-3.4-18.5-7.7L280.4-25.4l2.8-2.8L422.3,111c3.5,3.5,10.7,6.5,15.7,6.5h265.6
		c6.1,0,14.2,3.4,18.5,7.7l110.5,110.5c3.5,3.5,10.7,6.5,15.7,6.5H1536V246.1z"/>
	<line clip-path="url(#SVGID_2_)" fill="#FFFFFF" x1="935" y1="-15.9" x2="935" y2="244.1"/>
	<rect x="933" y="-15.9" clip-path="url(#SVGID_2_)" fill="#BAC4CE" width="4" height="260"/>
	<circle clip-path="url(#SVGID_2_)" fill="#FFFFFF" cx="935" cy="90.3" r="10"/>
	<path clip-path="url(#SVGID_2_)" fill="#BAC4CE" d="M935,101.9c-6.4,0-11.6-5.2-11.6-11.6s5.2-11.6,11.6-11.6s11.6,5.2,11.6,11.6
		S941.4,101.9,935,101.9z M935,81.9c-4.6,0-8.4,3.8-8.4,8.4s3.8,8.4,8.4,8.4s8.4-3.8,8.4-8.4S939.6,81.9,935,81.9z"/>
	<circle clip-path="url(#SVGID_2_)" fill="#FFFFFF" cx="1189" cy="244.1" r="10"/>
	<path clip-path="url(#SVGID_2_)" fill="#BAC4CE" d="M1189,255.7c-6.4,0-11.6-5.2-11.6-11.6s5.2-11.6,11.6-11.6s11.6,5.2,11.6,11.6
		S1195.4,255.7,1189,255.7z M1189,235.7c-4.6,0-8.4,3.8-8.4,8.4s3.8,8.4,8.4,8.4s8.4-3.8,8.4-8.4S1193.6,235.7,1189,235.7z"/>
	<circle clip-path="url(#SVGID_2_)" fill="#FFFFFF" cx="1469.5" cy="244.1" r="10"/>
	<path clip-path="url(#SVGID_2_)" fill="#BAC4CE" d="M1469.5,255.7c-6.4,0-11.6-5.2-11.6-11.6s5.2-11.6,11.6-11.6
		s11.6,5.2,11.6,11.6S1475.9,255.7,1469.5,255.7z M1469.5,235.7c-4.6,0-8.4,3.8-8.4,8.4s3.8,8.4,8.4,8.4s8.4-3.8,8.4-8.4
		S1474.1,235.7,1469.5,235.7z"/>
	<line clip-path="url(#SVGID_2_)" fill="#FFFFFF" x1="1421" y1="244.1" x2="1421" y2="203.1"/>
	<rect x="1419" y="203.1" clip-path="url(#SVGID_2_)" fill="#BAC4CE" width="4" height="41"/>
	<path clip-path="url(#SVGID_2_)" fill="#82C8EC" d="M1801.2,673.5h-232.7l135.6-136c36.3-36.4,36.2-95.3-0.2-131.5
		c-36.4-36.3-95.3-36.2-131.5,0.2l-137.6,138c-13,13-30.6,20.3-49,20.3h-105.7c-25.8,0-51,10.4-69.2,28.7l-158.5,158.5
		c-18.2,18.2-28.7,43.4-28.7,69.2V888l-212.2,212.2H403V941.3c0-25.7-10.4-50.9-28.7-69.2L225.1,723c-14.9-14.9-23.3-35.2-23.3-56.3
		V457c0-25.8-10.4-51-28.7-69.2L33.7,248.4c-36.3-36.3-95.2-36.3-131.5,0c-36.3,36.3-36.3,95.2,0,131.5l52,52H-378V963h523.3v-56.9
		l71.7,71.7v213.3c0,52.5,42.5,95,95,95h536.2c25.9,0,50.8-10.3,69.2-28.7l263.8-263.8c14.7-14.7,24.3-33.9,27.5-54.3h592.6V673.5z"
		/>
	<path clip-path="url(#SVGID_2_)" fill="#82C8EC" d="M1618.5,140.6h-208.7c-25.8,0-51-10.5-69.2-28.7L1190.2-38.4h-116.6
		c-25.8,0-51-10.5-69.2-28.7l-86.2-86.2c-36.3-36.3-36.3-95.2,0-131.5c36.3-36.3,95.2-36.3,131.5,0l60.4,60.4h116.6
		c25.8,0,51,10.5,69.2,28.7l150.3,150.3h172.2c51.4,0,93,41.6,93,93S1669.8,140.6,1618.5,140.6z"/>
	<circle clip-path="url(#SVGID_2_)" fill="#FFFFFF" cx="1421" cy="244.1" r="10"/>
	<path clip-path="url(#SVGID_2_)" fill="#BAC4CE" d="M1421,255.7c-6.4,0-11.6-5.2-11.6-11.6s5.2-11.6,11.6-11.6s11.6,5.2,11.6,11.6
		S1427.4,255.7,1421,255.7z M1421,235.7c-4.6,0-8.4,3.8-8.4,8.4s3.8,8.4,8.4,8.4s8.4-3.8,8.4-8.4S1425.6,235.7,1421,235.7z"/>
	<path clip-path="url(#SVGID_2_)" fill="#BAC4CE" d="M899,721.7H540c-7.7,0-17.6-4.1-23.1-9.6L337.5,532.7
		c-5.5-5.5-9.6-15.4-9.6-23.1V309c0-8.1,4.8-17.9,11.2-22.9L618.2,68.4c2.3-1.8,4.6-6.6,4.6-9.4v-286.6c0-10.2,8.3-18.5,18.5-18.5
		h245.5c7.7,0,17.6,4.1,23.1,9.6l257.6,257.6l89-89c3.3-3.3,8.7-3.3,12,0c3.3,3.3,3.3,8.7,0,12l-89,89L1336.4,190
		c2.3,2.3,7.8,4.6,11.1,4.6h218.6c4.7,0,8.5,3.8,8.5,8.5s-3.8,8.5-8.5,8.5h-218.6c-7.7,0-17.6-4.1-23.1-9.6L1167.5,45.1l-85.4,85.4
		c-2.3,2.3-4.6,7.8-4.6,11.1v401.5c0,7.7-4.1,17.6-9.6,23.1L922.1,712.1C916.6,717.6,906.7,721.7,899,721.7z M641.3-229.1
		c-0.8,0-1.5,0.7-1.5,1.5V59c0,8.1-4.8,17.9-11.2,22.9L349.5,299.6c-2.3,1.8-4.6,6.6-4.6,9.4v200.6c0,3.3,2.3,8.7,4.6,11.1
		l179.4,179.4c2.3,2.3,7.8,4.6,11.1,4.6h359c3.3,0,8.7-2.3,11.1-4.6L1056,554.2c2.3-2.3,4.6-7.8,4.6-11.1V141.6
		c0-7.7,4.1-17.6,9.6-23.1l85.4-85.4L897.9-224.5c-2.3-2.3-7.8-4.6-11.1-4.6H641.3z"/>
	<circle clip-path="url(#SVGID_2_)" fill="#FFFFFF" cx="1335.7" cy="200.1" r="16"/>
	<path clip-path="url(#SVGID_2_)" fill="#BAC4CE" d="M1335.7,220.1c-11,0-20-9-20-20s9-20,20-20s20,9,20,20
		S1346.7,220.1,1335.7,220.1z M1335.7,188.1c-6.6,0-12,5.4-12,12s5.4,12,12,12s12-5.4,12-12S1342.3,188.1,1335.7,188.1z"/>
	<circle clip-path="url(#SVGID_2_)" fill="#FFFFFF" cx="1068" cy="549" r="16"/>
	<path clip-path="url(#SVGID_2_)" fill="#BAC4CE" d="M1068,569c-11,0-20-9-20-20s9-20,20-20s20,9,20,20S1079,569,1068,569z
		 M1068,537c-6.6,0-12,5.4-12,12s5.4,12,12,12s12-5.4,12-12S1074.6,537,1068,537z"/>
	<circle clip-path="url(#SVGID_2_)" fill="#FFFFFF" cx="1069" cy="244.1" r="16"/>
	<path clip-path="url(#SVGID_2_)" fill="#BAC4CE" d="M1069,264.1c-11,0-20-9-20-20s9-20,20-20s20,9,20,20S1080,264.1,1069,264.1z
		 M1069,232.1c-6.6,0-12,5.4-12,12s5.4,12,12,12s12-5.4,12-12S1075.6,232.1,1069,232.1z"/>
	<circle clip-path="url(#SVGID_2_)" fill="#FFFFFF" cx="1421" cy="203.1" r="16"/>
	<path clip-path="url(#SVGID_2_)" fill="#BAC4CE" d="M1421,223.1c-11,0-20-9-20-20s9-20,20-20s20,9,20,20S1432,223.1,1421,223.1z
		 M1421,191.1c-6.6,0-12,5.4-12,12s5.4,12,12,12s12-5.4,12-12S1427.6,191.1,1421,191.1z"/>
	<circle clip-path="url(#SVGID_2_)" fill="#FFFFFF" cx="1069" cy="364.1" r="16"/>
	<path clip-path="url(#SVGID_2_)" fill="#BAC4CE" d="M1069,384.1c-11,0-20-9-20-20s9-20,20-20s20,9,20,20S1080,384.1,1069,384.1z
		 M1069,352.1c-6.6,0-12,5.4-12,12s5.4,12,12,12s12-5.4,12-12S1075.6,352.1,1069,352.1z"/>
	<circle clip-path="url(#SVGID_2_)" fill="#FFFFFF" cx="947.9" cy="673.5" r="16"/>
	<path clip-path="url(#SVGID_2_)" fill="#BAC4CE" d="M947.9,693.5c-11,0-20-9-20-20s9-20,20-20s20,9,20,20S958.9,693.5,947.9,693.5z
		 M947.9,661.5c-6.6,0-12,5.4-12,12s5.4,12,12,12s12-5.4,12-12S954.5,661.5,947.9,661.5z"/>
	<circle clip-path="url(#SVGID_2_)" fill="#FFFFFF" cx="532.4" cy="713.2" r="16"/>
	<path clip-path="url(#SVGID_2_)" fill="#BAC4CE" d="M532.4,733.2c-11,0-20-9-20-20s9-20,20-20s20,9,20,20S543.4,733.2,532.4,733.2z
		 M532.4,701.2c-6.6,0-12,5.4-12,12s5.4,12,12,12s12-5.4,12-12S539,701.2,532.4,701.2z"/>
	<circle clip-path="url(#SVGID_2_)" fill="#FFFFFF" cx="336.4" cy="517" r="16"/>
	<path clip-path="url(#SVGID_2_)" fill="#BAC4CE" d="M336.4,537c-11,0-20-9-20-20s9-20,20-20s20,9,20,20S347.4,537,336.4,537z
		 M336.4,505c-6.6,0-12,5.4-12,12s5.4,12,12,12s12-5.4,12-12S343,505,336.4,505z"/>
	<circle clip-path="url(#SVGID_2_)" fill="#FFFFFF" cx="394" cy="254.1" r="16"/>
	<path clip-path="url(#SVGID_2_)" fill="#BAC4CE" d="M394,274.1c-11,0-20-9-20-20s9-20,20-20s20,9,20,20S405,274.1,394,274.1z
		 M394,242.1c-6.6,0-12,5.4-12,12s5.4,12,12,12s12-5.4,12-12S400.6,242.1,394,242.1z"/>
	<circle clip-path="url(#SVGID_2_)" fill="#FFFFFF" cx="564.4" cy="119.1" r="16"/>
	<path clip-path="url(#SVGID_2_)" fill="#BAC4CE" d="M564.4,139.1c-11,0-20-9-20-20s9-20,20-20s20,9,20,20S575.4,139.1,564.4,139.1z
		 M564.4,107.1c-6.6,0-12,5.4-12,12s5.4,12,12,12s12-5.4,12-12S571,107.1,564.4,107.1z"/>
	<path clip-path="url(#SVGID_2_)" fill="#BAC4CE" d="M866.5,433.9h-530v-4h530c5,0,12.1-3,15.7-6.5l44.4-44.4
		c3.5-3.5,6.5-10.7,6.5-15.7V244.1h4v119.3c0,6.1-3.4,14.2-7.7,18.5l-44.4,44.4C880.6,430.6,872.5,433.9,866.5,433.9z"/>
	<circle clip-path="url(#SVGID_2_)" fill="#FFFFFF" cx="935" cy="244.1" r="10"/>
	<path clip-path="url(#SVGID_2_)" fill="#BAC4CE" d="M935,255.7c-6.4,0-11.6-5.2-11.6-11.6s5.2-11.6,11.6-11.6s11.6,5.2,11.6,11.6
		S941.4,255.7,935,255.7z M935,235.7c-4.6,0-8.4,3.8-8.4,8.4s3.8,8.4,8.4,8.4s8.4-3.8,8.4-8.4S939.6,235.7,935,235.7z"/>
	<circle clip-path="url(#SVGID_2_)" fill="#FFFFFF" cx="696.8" cy="430.9" r="10"/>
	<path clip-path="url(#SVGID_2_)" fill="#BAC4CE" d="M696.8,442.5c-6.4,0-11.6-5.2-11.6-11.6s5.2-11.6,11.6-11.6s11.6,5.2,11.6,11.6
		S703.1,442.5,696.8,442.5z M696.8,422.5c-4.6,0-8.4,3.8-8.4,8.4s3.8,8.4,8.4,8.4s8.4-3.8,8.4-8.4S701.4,422.5,696.8,422.5z"/>
	<circle clip-path="url(#SVGID_2_)" fill="#FFFFFF" cx="168" cy="260.1" r="10"/>
	<path clip-path="url(#SVGID_2_)" fill="#BAC4CE" d="M168,271.7c-6.4,0-11.6-5.2-11.6-11.6s5.2-11.6,11.6-11.6s11.6,5.2,11.6,11.6
		S174.4,271.7,168,271.7z M168,251.7c-4.6,0-8.4,3.8-8.4,8.4s3.8,8.4,8.4,8.4s8.4-3.8,8.4-8.4S172.6,251.7,168,251.7z"/>
	<circle clip-path="url(#SVGID_2_)" fill="#FFFFFF" cx="774.1" cy="179.1" r="10"/>
	<path clip-path="url(#SVGID_2_)" fill="#BAC4CE" d="M774.1,190.7c-6.4,0-11.6-5.2-11.6-11.6s5.2-11.6,11.6-11.6s11.6,5.2,11.6,11.6
		S780.5,190.7,774.1,190.7z M774.1,170.7c-4.6,0-8.4,3.8-8.4,8.4s3.8,8.4,8.4,8.4s8.4-3.8,8.4-8.4S778.8,170.7,774.1,170.7z"/>
	<circle clip-path="url(#SVGID_2_)" fill="#FFFFFF" cx="662" cy="119.1" r="10"/>
	<path clip-path="url(#SVGID_2_)" fill="#BAC4CE" d="M662,130.7c-6.4,0-11.6-5.2-11.6-11.6s5.2-11.6,11.6-11.6s11.6,5.2,11.6,11.6
		S668.4,130.7,662,130.7z M662,110.7c-4.6,0-8.4,3.8-8.4,8.4s3.8,8.4,8.4,8.4s8.4-3.8,8.4-8.4S666.6,110.7,662,110.7z"/>
	<path clip-path="url(#SVGID_2_)" fill="#8750B9" d="M926,771.5H796c-7.7,0-17.6-4.1-23.1-9.6L541.4,530.5
		c-5.5-5.5-9.6-15.4-9.6-23.1V307c0-3.3-2.3-8.7-4.6-11.1l-166-166c-2.3-2.3-7.8-4.6-11.1-4.6H-80c-4.7,0-8.5-3.8-8.5-8.5
		s3.8-8.5,8.5-8.5h430.2c7.7,0,17.6,4.1,23.1,9.6l166,166c5.5,5.5,9.6,15.4,9.6,23.1v200.4c0,3.3,2.3,8.7,4.6,11.1l231.5,231.5
		c2.3,2.3,7.8,4.6,11.1,4.6h130c3.3,0,8.7-2.3,11.1-4.6l254.9-254.9c5.5-5.5,15.4-9.6,23.1-9.6h155c3.3,0,8.7-2.3,11-4.6l66.5-66.9
		c3.3-3.3,8.7-3.3,12,0c3.3,3.3,3.3,8.7,0,12l-66.5,66.9c-5.4,5.5-15.4,9.6-23.1,9.6h-155c-3.3,0-8.7,2.3-11.1,4.6L949.1,761.9
		C943.6,767.4,933.7,771.5,926,771.5z"/>
	<circle clip-path="url(#SVGID_2_)" fill="#FFFFFF" cx="1119.8" cy="577.8" r="16"/>
	<path clip-path="url(#SVGID_2_)" fill="#3E4E5A" d="M1119.8,597.8c-11,0-20-9-20-20s9-20,20-20s20,9,20,20
		S1130.8,597.8,1119.8,597.8z M1119.8,565.8c-6.6,0-12,5.4-12,12s5.4,12,12,12s12-5.4,12-12S1126.4,565.8,1119.8,565.8z"/>
	<circle clip-path="url(#SVGID_2_)" fill="#FFFFFF" cx="1205" cy="494" r="16"/>
	<path clip-path="url(#SVGID_2_)" fill="#3E4E5A" d="M1205,514c-11,0-20-9-20-20c0-11,9-20,20-20s20,9,20,20
		C1225,505,1216,514,1205,514z M1205,482c-6.6,0-12,5.4-12,12c0,6.6,5.4,12,12,12s12-5.4,12-12C1217,487.4,1211.6,482,1205,482z"/>
	<circle clip-path="url(#SVGID_2_)" fill="#FFFFFF" cx="935" cy="761" r="16"/>
	<path clip-path="url(#SVGID_2_)" fill="#3E4E5A" d="M935,781c-11,0-20-9-20-20s9-20,20-20s20,9,20,20S946,781,935,781z M935,749
		c-6.6,0-12,5.4-12,12s5.4,12,12,12s12-5.4,12-12S941.6,749,935,749z"/>
	<circle clip-path="url(#SVGID_2_)" fill="#FFFFFF" cx="787.1" cy="761" r="16"/>
	<path clip-path="url(#SVGID_2_)" fill="#3E4E5A" d="M787.1,781c-11,0-20-9-20-20s9-20,20-20s20,9,20,20S798.2,781,787.1,781z
		 M787.1,749c-6.6,0-12,5.4-12,12s5.4,12,12,12s12-5.4,12-12S793.7,749,787.1,749z"/>
	<circle clip-path="url(#SVGID_2_)" fill="#FFFFFF" cx="736.7" cy="713.2" r="16"/>
	<path clip-path="url(#SVGID_2_)" fill="#3E4E5A" d="M736.7,733.2c-11,0-20-9-20-20s9-20,20-20s20,9,20,20S747.7,733.2,736.7,733.2z
		 M736.7,701.2c-6.6,0-12,5.4-12,12s5.4,12,12,12s12-5.4,12-12S743.3,701.2,736.7,701.2z"/>
	<circle clip-path="url(#SVGID_2_)" fill="#FFFFFF" cx="600" cy="577.8" r="16"/>
	<path clip-path="url(#SVGID_2_)" fill="#3E4E5A" d="M600,597.8c-11,0-20-9-20-20s9-20,20-20s20,9,20,20S611,597.8,600,597.8z
		 M600,565.8c-6.6,0-12,5.4-12,12s5.4,12,12,12s12-5.4,12-12S606.6,565.8,600,565.8z"/>
	<circle clip-path="url(#SVGID_2_)" fill="#FFFFFF" cx="540.4" cy="430.9" r="16"/>
	<path clip-path="url(#SVGID_2_)" fill="#3E4E5A" d="M540.4,450.9c-11,0-20-9-20-20s9-20,20-20s20,9,20,20S551.4,450.9,540.4,450.9z
		 M540.4,418.9c-6.6,0-12,5.4-12,12s5.4,12,12,12s12-5.4,12-12S547,418.9,540.4,418.9z"/>
	<circle clip-path="url(#SVGID_2_)" fill="#FFFFFF" cx="450" cy="206.1" r="16"/>
	<path clip-path="url(#SVGID_2_)" fill="#3E4E5A" d="M450,226.1c-11,0-20-9-20-20s9-20,20-20s20,9,20,20S461,226.1,450,226.1z
		 M450,194.1c-6.6,0-12,5.4-12,12s5.4,12,12,12s12-5.4,12-12S456.6,194.1,450,194.1z"/>
	<circle clip-path="url(#SVGID_2_)" fill="#FFFFFF" cx="281.8" cy="116.8" r="16"/>
	<path clip-path="url(#SVGID_2_)" fill="#3E4E5A" d="M281.8,136.8c-11,0-20-9-20-20s9-20,20-20s20,9,20,20S292.8,136.8,281.8,136.8z
		 M281.8,104.8c-6.6,0-12,5.4-12,12s5.4,12,12,12s12-5.4,12-12S288.4,104.8,281.8,104.8z"/>
	<circle clip-path="url(#SVGID_2_)" fill="#FFFFFF" cx="1380" cy="494" r="16"/>
	<path clip-path="url(#SVGID_2_)" fill="#3E4E5A" d="M1380,514c-11,0-20-9-20-20c0-11,9-20,20-20s20,9,20,20
		C1400,505,1391,514,1380,514z M1380,482c-6.6,0-12,5.4-12,12c0,6.6,5.4,12,12,12s12-5.4,12-12C1392,487.4,1386.6,482,1380,482z"/>
	<circle clip-path="url(#SVGID_2_)" fill="#FFFFFF" cx="1453.5" cy="420" r="16"/>
	<path clip-path="url(#SVGID_2_)" fill="#3E4E5A" d="M1453.5,440c-11,0-20-9-20-20s9-20,20-20s20,9,20,20S1464.5,440,1453.5,440z
		 M1453.5,408c-6.6,0-12,5.4-12,12s5.4,12,12,12s12-5.4,12-12S1460.1,408,1453.5,408z"/>
	<circle clip-path="url(#SVGID_2_)" fill="#FFFFFF" cx="1168.1" cy="32.6" r="16"/>
	<path clip-path="url(#SVGID_2_)" fill="#BAC4CE" d="M1168.1,52.6c-11,0-20-9-20-20s9-20,20-20s20,9,20,20S1179.1,52.6,1168.1,52.6z
		 M1168.1,20.6c-6.6,0-12,5.4-12,12s5.4,12,12,12s12-5.4,12-12S1174.7,20.6,1168.1,20.6z"/>
	<circle clip-path="url(#SVGID_2_)" fill="#FFFFFF" cx="876.5" cy="430.9" r="10"/>
	<path clip-path="url(#SVGID_2_)" fill="#BAC4CE" d="M876.5,442.5c-6.4,0-11.6-5.2-11.6-11.6s5.2-11.6,11.6-11.6s11.6,5.2,11.6,11.6
		S882.8,442.5,876.5,442.5z M876.5,422.5c-4.6,0-8.4,3.8-8.4,8.4s3.8,8.4,8.4,8.4s8.4-3.8,8.4-8.4S881.1,422.5,876.5,422.5z"/>
	<circle clip-path="url(#SVGID_2_)" fill="#FFFFFF" cx="692.7" cy="614.6" r="10"/>
	<path clip-path="url(#SVGID_2_)" fill="#BAC4CE" d="M692.7,626.2c-6.4,0-11.6-5.2-11.6-11.6s5.2-11.6,11.6-11.6s11.6,5.2,11.6,11.6
		S699.1,626.2,692.7,626.2z M692.7,606.2c-4.6,0-8.4,3.8-8.4,8.4s3.8,8.4,8.4,8.4s8.4-3.8,8.4-8.4S697.4,606.2,692.7,606.2z"/>
	<line clip-path="url(#SVGID_2_)" fill="#FFFFFF" x1="168" y1="32.6" x2="-40" y2="32.6"/>
	<rect x="-40" y="31" clip-path="url(#SVGID_2_)" fill="#BAC4CE" width="208" height="3.2"/>
	<circle clip-path="url(#SVGID_2_)" fill="#FFFFFF" cx="168" cy="32.6" r="10"/>
	<path clip-path="url(#SVGID_2_)" fill="#BAC4CE" d="M168,44.2c-6.4,0-11.6-5.2-11.6-11.6S161.6,21,168,21s11.6,5.2,11.6,11.6
		S174.4,44.2,168,44.2z M168,24.2c-4.6,0-8.4,3.8-8.4,8.4s3.8,8.4,8.4,8.4s8.4-3.8,8.4-8.4S172.6,24.2,168,24.2z"/>
</g>
</svg>
