<?xml version="1.0" encoding="utf-8"?>
<!-- Generator: Adobe Illustrator 17.1.0, SVG Export Plug-In . SVG Version: 6.00 Build 0)  -->
<!DOCTYPE svg PUBLIC "-//W3C//DTD SVG 1.1//EN" "http://www.w3.org/Graphics/SVG/1.1/DTD/svg11.dtd">
<svg version="1.1" id="Layer_1" xmlns="http://www.w3.org/2000/svg" xmlns:xlink="http://www.w3.org/1999/xlink" x="0px" y="0px"
	 viewBox="79.6 305.2 454.3 465.5" enable-background="new 79.6 305.2 454.3 465.5" xml:space="preserve">
<g opacity="0.2">
	<path d="M126.2,479l-1.5-5.8c90.8-23.8,193-159.9,194-161.3l4.8,3.6c-0.3,0.3-26.3,35.1-63.3,72.4
		C210.4,438.2,165.3,468.8,126.2,479z"/>
</g>
<g opacity="0.2">
	<path d="M491.5,479c-26.9-7-69.9-28.6-121.9-91.3c-31-37.3-50.8-72.2-51-72.5l5.2-3c0.2,0.3,19.8,34.8,50.5,71.7
		c28.1,33.9,71.6,76.9,118.7,89.3L491.5,479z"/>
</g>
<g>
	<path fill="#FFFFFF" d="M126.1,475.4l-1.3-4.8c90.9-23.8,193.3-160.1,194.3-161.5l4,3c-0.3,0.3-26.2,35.1-63.3,72.3
		C225.6,418.9,174.6,462.7,126.1,475.4z"/>
</g>
<g>
	<path fill="#FFFFFF" d="M491.6,475.4c-26.8-7-69.7-28.5-121.6-91.1c-31-37.3-50.8-72.1-51-72.4l4.3-2.5
		c0.2,0.3,19.9,34.8,50.5,71.8c28.2,34,71.7,77,119,89.4L491.6,475.4z"/>
</g>
<g opacity="0.2">
	<g>
		<path fill="#212D37" d="M522.8,719.7l0.5-203.4c6.4-4.8,10.7-12.3,10.7-21c0-14.2-11.7-25.7-25.9-25.7c-9.2,0-17.2,4.9-21.7,12
			l-376.8-2.5l-0.6,247c-5,4.8-8,11.4-8,18.8c0,14.2,11.7,25.7,25.9,25.7c9.3,0,17.4-5,22-12.3h340.1c4.6,4.6,11.2,7.5,18.3,7.5
			c14.2,0,25.7-11.7,25.7-25.9C532.8,731.6,528.9,724.4,522.8,719.7z"/>
	</g>
</g>
<g>
	<g>
		<g>
			<g>
				<path fill="#212D37" d="M120,759.1c-12.2,0-22.3-9.5-23.1-21.8c-0.4-5.9,1.6-11.7,5.4-16.3l3.1-3.8l-4.9-0.6
					c-0.4,0-0.8-0.4-0.8-0.9c0-0.4,0.1-0.5,0.3-0.6s0.3-0.3,0.6-0.3h0.1l2.9,0.1l-0.3-5.9l-2.9,0.5h-0.1l0,0c-0.5,0-0.9-0.4-0.9-0.9
					c0-0.4,0.1-0.5,0.3-0.6s0.3-0.3,0.6-0.3h0.1l3,0.3l-0.3-6l-3,0.5h-0.1l0,0c-0.5,0-0.9-0.4-0.9-0.9c0-0.5,0.4-0.9,0.9-0.9l0,0
					h0.1l3,0.3l-0.4-6.1l-3,0.6h-0.1l0,0c-0.5,0-0.9-0.4-0.9-0.9s0.4-0.9,0.9-0.9l0,0h0.1l3,0.3l-0.3-6.1l-3,0.6h-0.1l0,0
					c-0.5,0-0.9-0.4-0.9-0.9c0-0.4,0.1-0.5,0.3-0.6c0.1-0.1,0.3-0.3,0.6-0.3l0,0h0.1l3,0.3l-0.4-6.3l-3,0.6c-0.1,0-0.1,0-0.1,0l0,0
					c-0.5,0-0.9-0.4-0.9-0.9c0-0.4,0.1-0.5,0.3-0.6c0.1-0.1,0.3-0.3,0.6-0.3l0,0h0.1l3,0.3l-0.4-6.3l-3,0.6c-0.1,0-0.1,0-0.1,0l0,0
					c-0.5,0-0.9-0.4-0.9-0.9c0-0.4,0.1-0.5,0.3-0.6s0.3-0.3,0.6-0.3l0,0h0.1l3.1,0.4l-0.4-6.3l-3,0.6c-0.1,0-0.1,0-0.1,0l0,0
					c-0.5,0-0.9-0.4-0.9-0.9c0-0.4,0.1-0.5,0.3-0.6s0.3-0.3,0.6-0.3l0,0h0.1l3.1,0.4l-0.4-6.4l-3.1,0.8c-0.1,0-0.1,0-0.1,0l0,0
					c-0.5,0-0.9-0.4-0.9-0.9c0-0.4,0.1-0.5,0.3-0.6c0.1-0.1,0.3-0.3,0.6-0.3l0,0c0.1,0,0.1,0,0.1,0l3.1,0.4l-0.4-6.4l-3.1,0.8h-0.1
					l0,0c-0.5,0-0.9-0.4-0.9-0.9c0-0.4,0.1-0.5,0.3-0.6s0.3-0.3,0.6-0.3l0,0c0.1,0,0.1,0,0.1,0l3.1,0.4l-0.4-6.5l-3.1,0.8
					c-0.1,0-0.1,0-0.1,0l0,0c-0.5,0-0.9-0.4-0.9-0.9c0-0.4,0.1-0.5,0.3-0.6c0.1-0.1,0.3-0.3,0.6-0.3l0,0c0.1,0,0.1,0,0.1,0l3.1,0.5
					l-0.4-6.5l-3.1,0.8H97l0,0c-0.5,0-0.9-0.4-0.9-0.9c0-0.4,0.1-0.5,0.3-0.6s0.3-0.3,0.6-0.3l0,0c0.1,0,0.1,0,0.1,0l3.3,0.5
					L100,631l-3.1,0.9h-0.1l0,0c-0.5,0-0.9-0.4-0.9-0.9s0.4-0.9,0.9-0.9l0,0c0.1,0,0.1,0,0.1,0l3.3,0.5l-0.4-6.7l-3.1,0.9
					c-0.1,0-0.1,0-0.1,0l0,0c-0.5,0-0.9-0.4-0.9-0.9s0.4-0.9,0.9-0.9l0,0c0.1,0,0.1,0,0.1,0l3.3,0.5l-0.4-6.8l-3.1,0.9
					c-0.1,0-0.1,0-0.3,0l0,0c-0.5,0-0.9-0.4-0.9-0.9s0.4-0.9,0.9-0.9l0,0c0.1,0,0.1,0,0.1,0l3.3,0.6l-0.4-6.9l-3.3,1
					c-0.1,0-0.1,0-0.3,0l0,0c-0.5,0-0.9-0.4-0.9-0.9s0.4-0.9,0.9-0.9l0,0c0.1,0,0.1,0,0.3,0l3.3,0.6l-0.4-6.9l-3.3,1
					c-0.1,0-0.1,0-0.3,0l0,0c-0.5,0-0.9-0.4-0.9-0.9c0-0.4,0.1-0.5,0.3-0.6c0.1-0.1,0.3-0.3,0.6-0.3l0,0c0.1,0,0.1,0,0.3,0l3.3,0.6
					l-0.4-7l-3.3,1c-0.1,0-0.1,0-0.3,0l0,0c-0.5,0-0.9-0.4-0.9-0.9s0.4-0.9,0.9-0.9l0,0c0.1,0,0.1,0,0.3,0l3.4,0.6l-0.4-7l0,0
					l-0.4-7l-1.1-21l-0.4-7l-0.4-7l-0.4-7l-0.4-7.7l-0.4-7l-0.4-7l-0.4-7l-0.4-7l-3.5,1.5c-0.1,0-0.3,0.1-0.3,0.1l0,0
					c-0.5,0-0.9-0.4-0.9-0.9c0-0.4,0.3-0.6,0.5-0.9l3.1-1.8l-2.5-2.5c-4.1-4-6.7-9.4-6.9-15.2c-1.6-12.2,8.2-23.2,20.8-24
					c0.5,0,0.9,0,1.4,0c7.4,0,14.4,3.6,18.7,9.7l0.6,1l1.1,0.1c0.3,0,0.5,0.3,0.6,0.4l0.8,1.4l4-0.1l0.6-1.5
					c0.1-0.3,0.4-0.5,0.8-0.5l0,0c0.4,0,0.6,0.3,0.8,0.5l0.8,1.4l4-0.1l0.6-1.5c0.1-0.3,0.4-0.5,0.8-0.5l0,0c0.4,0,0.6,0.3,0.8,0.5
					l0.8,1.4l4-0.1l0.6-1.5c0.1-0.3,0.4-0.5,0.8-0.5l0,0c0.4,0,0.8,0.3,0.9,0.5l0.8,1.5l4-0.1l0.6-1.5c0.1-0.3,0.4-0.5,0.8-0.5l0,0
					c0.4,0,0.8,0.3,0.9,0.5l0.8,1.5l4-0.1l0.6-1.6c0.1-0.3,0.4-0.5,0.8-0.5l0,0c0.4,0,0.8,0.3,0.9,0.5l0.8,1.5l4-0.3l0.6-1.6
					c0.1-0.3,0.4-0.5,0.8-0.5l0,0c0.4,0,0.6,0.3,0.9,0.5l0.8,1.5l4-0.3l0.6-1.6c0.1-0.3,0.4-0.5,0.8-0.6l0,0c0.4,0,0.6,0.3,0.9,0.5
					l0.8,1.5l4-0.1l0.6-1.6c0.1-0.3,0.4-0.5,0.8-0.6l0,0c0.4,0,0.8,0.3,0.9,0.5l0.8,1.6l4-0.3l0.6-1.6c0.1-0.3,0.4-0.5,0.8-0.6l0,0
					c0.4,0,0.8,0.3,0.9,0.5l0.8,1.6l4-0.3l0.6-1.6c0.1-0.3,0.4-0.6,0.8-0.6l0,0c0.4,0,0.8,0.3,0.9,0.5l0.8,1.6l4.1-0.3l0.6-1.8
					c0.1-0.3,0.4-0.6,0.8-0.6l0,0c0.4,0,0.8,0.3,0.9,0.5l0.8,1.6l4.1-0.3l1-1.9c0.1-0.3,0.4-0.6,0.8-0.6l0,0c0.4,0,0.8,0.3,0.9,0.5
					l0.8,1.6l4.1-0.3l0.5-1.8c0.1-0.3,0.4-0.6,0.8-0.6l0,0c0.4,0,0.8,0.3,0.9,0.5l0.8,1.6l4.1-0.3l0.5-1.8c0.1-0.3,0.4-0.6,0.8-0.6
					l0,0c0.4,0,0.8,0.3,0.9,0.5l0.8,1.8l4.1-0.3l0.5-1.8c0.1-0.3,0.4-0.6,0.8-0.6l0,0c0.5,0,0.8,0.3,0.9,0.5l0.8,1.8l4.1-0.3
					l0.5-1.9c0.1-0.3,0.4-0.6,0.8-0.6l0,0c0.5,0,0.8,0.3,0.9,0.5l0.8,1.8l4.1-0.3l0.5-1.9c0.1-0.3,0.4-0.6,0.8-0.6l0,0
					c0.5,0,0.8,0.3,0.9,0.6l0.6,1.8l4.1-0.3l0.5-1.9c0.1-0.3,0.4-0.6,0.8-0.6l0,0c0.5,0,0.8,0.3,0.9,0.6l0.6,1.8l4.1-0.3l0.5-1.9
					c0.1-0.3,0.4-0.6,0.8-0.6l0,0c0.4,0,0.8,0.3,0.9,0.6l0.6,1.9l4.3-0.3l0.5-1.9c0.1-0.3,0.4-0.6,0.8-0.6l0,0
					c0.4,0,0.8,0.3,0.9,0.6l0.6,1.9l4.3-0.3l0.5-1.9c0.1-0.3,0.4-0.6,0.8-0.6l0,0c0.4,0,0.8,0.3,0.9,0.6l0.6,1.9l4.3-0.3l0.5-2
					c0.1-0.3,0.4-0.6,0.8-0.6l0,0c0.4,0,0.8,0.3,0.9,0.6l0.6,1.9l4.3-0.3l0.4-2c0.1-0.4,0.4-0.6,0.8-0.6l0,0c0.4,0,0.8,0.3,0.9,0.6
					l0.6,1.9l4.3-0.3l0.4-2c0.1-0.4,0.4-0.6,0.8-0.8l0,0c0.4,0,0.8,0.3,0.9,0.6l0.6,2l4.3-0.3l0.4-2c0.1-0.4,0.4-0.6,0.8-0.8l0,0
					c0.4,0,0.8,0.3,0.9,0.6l0.6,2l4.4-0.3l0.4-2c0.1-0.4,0.4-0.6,0.9-0.8l0,0c0.4,0,0.8,0.3,0.9,0.6l0.6,2l4.4-0.3l0.4-2
					c0-0.4,0.4-0.8,0.9-0.8l0,0c0.4,0,0.8,0.3,0.9,0.6l0.6,2l4.4-0.3l0.4-2.1c0-0.4,0.4-0.8,0.9-0.8l0,0c0.5,0,0.8,0.3,0.9,0.6
					l0.5,2l4.4-0.3l0.4-2.1c0-0.4,0.4-0.8,0.9-0.8l0,0c0.5,0,0.8,0.3,0.9,0.6l0.5,2l4.4-0.3l1-1c0-0.4,0.4-0.8,0.9-0.8l0,0
					c0.5,0,0.8,0.3,0.9,0.6l0.5,2.1l4.5-0.3l0.4-2.1c0-0.4,0.4-0.8,0.9-0.8l0,0c0.5,0,0.8,0.3,0.9,0.6l0.5,2.1l4.5-0.3l0.3-2.1
					c0-0.4,0.4-0.8,0.9-0.8l0,0c0.5,0,0.8,0.3,0.9,0.6l0.4,2.1l4.5-0.3l0.3-2.1c0-0.4,0.4-0.8,0.9-0.8l0,0c0.5,0,0.8,0.3,0.9,0.6
					l0.5,2.1l4.5-0.3l0.3-2.3c0-0.4,0.4-0.8,0.9-0.8l0,0c0.5,0,0.8,0.3,0.9,0.6l0.5,2.1l4.5-0.3l0.3-2.3c0-0.4,0.4-0.8,0.9-0.8l0,0
					c0.5,0,0.8,0.3,0.9,0.8l0.5,2.3l4.6-0.3l0.3-2.3c0-0.4,0.4-0.8,0.9-0.8l0,0c0.5,0,0.9,0.3,0.9,0.8l0.5,2.3l4.6-0.3l0.3-2.3
					c0-0.4,0.4-0.8,0.9-0.8l0,0c0.5,0,0.9,0.3,0.9,0.8l0.4,2.3l4.6-0.3l0.3-2.3c0-0.4,0.4-0.8,0.9-0.8l0,0c0.5,0,0.9,0.3,0.9,0.8
					l0.4,2.3l4.6-0.3l0.1-2.4c0-0.4,0.4-0.8,0.9-0.8l0,0c0.5,0,0.9,0.3,0.9,0.8l0.4,2.3l4.8-0.3l0.1-2.4c0-0.5,0.4-0.8,0.9-0.8l0,0
					c0.5,0,0.9,0.4,0.9,0.8l0.4,2.4l4.8-0.3l0.3-2.4c0-0.5,0.4-0.8,0.9-0.9l0,0c0.5,0,0.9,0.4,0.9,0.8l0.4,2.4l4.8-0.3l0.1-2.4
					c0-0.5,0.4-0.8,0.9-0.9l0,0c0.5,0,0.9,0.4,0.9,0.8l0.4,2.4l4.8-0.3l0.1-2.4c0-0.5,0.4-0.8,0.9-0.9l0,0c0.5,0,0.9,0.4,0.9,0.8
					l0.4,2.4l4.9-0.3l0.1-2.4c0-0.5,0.4-0.9,0.9-0.9l0,0c0.5,0,0.9,0.4,0.9,0.8l0.4,2.4l4.9-0.3l0.1-2.5c0-0.5,0.4-0.9,0.9-0.9l0,0
					c0.5,0,0.9,0.4,0.9,0.8l0.3,2.4l4.9-0.3l0.1-2.5c0-0.5,0.4-0.9,0.9-0.9l0,0c0.5,0,0.9,0.4,0.9,0.8l0.3,2.5l5-0.3v-2.5
					c0-0.5,0.4-0.9,0.9-0.9l0,0c0.5,0,0.9,0.4,0.9,0.8l0.3,2.5l5.1-0.3v-2.6c0-0.5,0.4-0.9,0.9-0.9l0,0c0.4,0,0.5,0.1,0.6,0.3
					l2.3,2.1l1.8-2.5c4.1-5.8,10.5-9.4,17.6-9.8c0.5,0,0.9,0,1.4,0c12.2,0,22.3,9.5,23.1,21.8c0.4,5.8-1.5,11.5-5.3,16.1l-0.8,0.9
					l0.1,1.1c0,0,0,0,0,0.1c0,0.4-0.1,0.5-0.3,0.6s-0.3,0.3-0.6,0.3l0.1,2.6l-0.1-2.6l-2.9-0.1l0.3,5.8c0,0,2.9-0.4,3-0.4l0,0
					c0.5,0,0.9,0.4,0.9,0.9c0,0.4-0.1,0.5-0.3,0.6c-0.1,0.1-0.3,0.3-0.6,0.3l0.1,2.6l-0.1-2.6l-2.9-0.1v2.9l0.1,2.9l2.9-0.5
					c0,0,0,0,0.1,0l0,0c0.5,0,0.9,0.4,0.9,0.9c0,0.4-0.1,0.5-0.3,0.6c-0.1,0.1-0.3,0.3-0.6,0.3l0.1,2.6l-0.1-2.6l-2.9-0.1v3l0.1,2.9
					l2.9-0.5c0,0,0,0,0.1,0l0,0c0.5,0,0.9,0.4,0.9,0.9c0,0.5-0.4,0.9-0.9,0.9l0.1,2.6l-0.1-2.6H505l-3-0.1l0.4,5.9l2.9-0.5h0.1l0,0
					c0.5,0,0.9,0.4,0.9,0.9c0,0.5-0.4,0.9-0.9,0.9l0.1,2.6l-0.1-2.6h-0.1l-2.9-0.3l0.3,6l3-0.5h0.1l0,0c0.5,0,0.9,0.4,0.9,0.9
					c0,0.4-0.1,0.5-0.3,0.6c-0.1,0.1-0.3,0.3-0.6,0.3l0,0h-0.1l-3-0.3l0.4,6l3-0.5h0.1l0,0c0.5,0,0.9,0.4,0.9,0.9s-0.4,0.9-0.9,0.9
					l0,0H506l-3-0.3l0.3,6.1l3-0.6h0.1l-0.1-3.1l0.1,3.1l0,0c0.5,0,0.9,0.4,0.9,0.9c0,0.4-0.1,0.5-0.3,0.6c-0.1,0.1-0.3,0.3-0.6,0.3
					l0,0h-0.1l-3-0.3l0.3,6.1l3-0.6c0.1,0,0.1,0,0.1,0l0,0c0.5,0,0.9,0.4,0.9,0.9c0,0.4-0.1,0.5-0.3,0.6c-0.1,0.1-0.3,0.3-0.6,0.3
					l0.1,2.6l-0.1-2.6l0,0h-0.1l-3-0.3l0.4,6.3l3-0.6c0.1,0,0.1,0,0.1,0l0,0c0.5,0,0.9,0.4,0.9,0.9s-0.4,0.9-0.9,0.9l0.1,2.6
					l-0.1-2.6l0,0h-0.1l-3.1-0.4l0.4,6.3l3-0.6c0.1,0,0.1,0,0.1,0l0,0c0.5,0,0.9,0.4,0.9,0.9c0,0.4-0.1,0.5-0.3,0.6
					c-0.1,0.1-0.3,0.3-0.6,0.3l0.1,2.9l-0.1-2.9l0,0h-0.1l-3.1-0.4l0.4,6.4l3-0.8c0.1,0,0.1,0,0.1,0l0,0c0.5,0,0.9,0.4,0.9,0.9
					c0,0.4-0.1,0.5-0.3,0.6c-0.1,0.1-0.3,0.3-0.6,0.3l0.1,3l-0.1-3l0,0h-0.1l-3.1-0.4l0.4,6.4l3.1-0.8h0.1l0,0
					c0.5,0,0.9,0.4,0.9,0.9c0,0.4-0.1,0.5-0.3,0.6c-0.1,0.1-0.3,0.3-0.6,0.3l0.1,2.6l-0.1-2.6l0,0c-0.1,0-0.1,0-0.1,0l-3.1-0.4
					l0.4,6.5l3.1-0.8h0.1l0,0c0.5,0,0.9,0.4,0.9,0.9s-0.4,0.9-0.9,0.9l0.1,2.6l-0.1-2.6l0,0c-0.1,0-0.1,0-0.1,0l-3.1-0.5l0.4,6.5
					l3.1-0.8h0.1l0,0c0.5,0,0.9,0.4,0.9,0.9s-0.4,0.9-0.9,0.9l0,0c-0.1,0-0.1,0-0.1,0l-3.3-0.5l0.4,6.7l3.1-0.9h0.1l-0.1-2.6
					l0.1,2.6l0,0c0.5,0,0.9,0.4,0.9,0.9c0,0.4-0.1,0.5-0.3,0.6c-0.1,0.1-0.3,0.3-0.6,0.3l0,0c-0.1,0-0.1,0-0.1,0l-3.3-0.5l0.4,6.7
					l3.1-0.9c0.1,0,0.1,0,0.1,0l0,0c0.5,0,0.9,0.4,0.9,0.9s-0.4,0.9-0.9,0.9l0.1,2.6l-0.1-2.6l0,0c-0.1,0-0.1,0-0.1,0l-3.3-0.5
					l0.4,6.8l3.1-0.9c0.1,0,0.1,0,0.3,0l0,0c0.5,0,0.9,0.4,0.9,0.9s-0.4,0.9-0.9,0.9l0.1,2.6l-0.1-2.6l0,0c-0.1,0-0.1,0-0.1,0
					l-3.3-0.6l0.4,6.8l3.3-0.9c0.1,0,0.1,0,0.3,0l0,0c0.5,0,0.9,0.4,0.9,0.9c0,0.4-0.1,0.5-0.3,0.6c-0.1,0.1-0.3,0.3-0.6,0.3
					l0.1,2.6l-0.1-2.6l0,0c-0.1,0-0.1,0-0.3,0l-3.3-0.6l0.4,6.9l3.3-1c0.1,0,0.1,0,0.3,0l0,0c0.5,0,0.9,0.4,0.9,0.9
					c0,0.4-0.1,0.5-0.3,0.6s-0.3,0.3-0.6,0.3l0,0c-0.1,0-0.1,0-0.3,0l-3.3-0.6l0.4,7l3.3-1c0.1,0,0.1,0,0.3,0l0,0
					c0.5,0,0.9,0.4,0.9,0.9c0,0.4-0.1,0.5-0.3,0.6c-0.1,0.1-0.3,0.3-0.6,0.3l0.3,5.3l0,0c0.5,0,0.9,0.4,0.9,0.9
					c0,0.4-0.1,0.5-0.3,0.6c-0.1,0.1-0.3,0.3-0.6,0.3l0.1,2.9l-0.1-2.9l0,0c-0.1,0-0.1,0-0.3,0l-3.3-0.6l3.1-1c0.1,0,0.1,0,0.3,0
					l-0.3-5.3l0,0c-0.1,0-0.1,0-0.3,0l-3.4-0.6l0.4,7l0,0l0.4,7l0.4,7l0.8,13.8l0,0l0.4,7.2l0.4,7.4l0,0l0.4,6.5l0,0l0.4,7.7
					l3.4-1.4c0.1,0,0.1,0,0.3,0l-0.1-2.8l0.1,2.8l0,0c0.5,0,0.9,0.4,0.9,0.9s-0.4,0.8-0.6,0.9l-5,1.3l4,3.4
					c4.9,4.1,7.9,9.9,8.3,16.4c0.8,12.7-9,23.7-21.7,24.5c-0.5,0-0.9,0-1.4,0c-5.6,0-11.2-2.1-15.4-5.9l-0.8-0.8l-4.6,0.3L477,729
					c-0.1,0.3-0.4,0.5-0.8,0.5l0,0c-0.4,0-0.8-0.3-0.9-0.5l-0.8-1.5l-4,0.3l-0.6,1.5c-0.1,0.3-0.4,0.5-0.8,0.5l0,0
					c-0.4,0-0.8-0.3-0.9-0.5l-0.8-1.5l-4,0.3l-0.6,1.5c-0.1,0.3-0.4,0.5-0.8,0.5l0,0c-0.4,0-0.8-0.3-0.9-0.5l-0.8-1.5l-4,0.3
					l-0.6,1.5c-0.1,0.3-0.4,0.5-0.8,0.5l0,0c-0.4,0-0.8-0.3-0.9-0.5l-0.8-1.5l-4,0.3l-0.6,1.6c-0.1,0.3-0.4,0.5-0.8,0.5l0,0
					c-0.4,0-0.8-0.3-0.9-0.5l-0.8-1.5l-4,0.3l-0.6,1.6c-0.1,0.3-0.4,0.5-0.8,0.5l0,0c-0.4,0-0.8-0.3-0.9-0.5l-0.8-1.5l-4,0.3
					l-0.6,1.6c-0.1,0.3-0.4,0.5-0.8,0.6l0,0c-0.5,0-0.8-0.3-0.9-0.5l-0.8-1.5l-4,0.3l-0.6,1.6c-0.1,0.3-0.4,0.5-0.8,0.6l0,0
					c-0.5,0-0.8-0.3-0.9-0.5l-0.8-1.5l-4,0.3l-0.6,1.6c-0.1,0.3-0.4,0.5-0.8,0.6l0,0c-0.4,0-0.6-0.3-0.9-0.5l-0.8-1.5l-4,0.3
					l-0.6,1.6c-0.1,0.3-0.4,0.5-0.8,0.6l0,0c-0.4,0-0.6-0.3-0.9-0.5l-0.8-1.5l-4,0.3l-0.6,1.6c-0.1,0.3-0.4,0.5-0.8,0.6l0,0
					c-0.4,0-0.6-0.3-0.9-0.5l-0.8-1.5l-4,0.3l-0.6,1.6c-0.1,0.3-0.4,0.5-0.8,0.6l0,0c-0.4,0-0.8-0.3-0.9-0.5l-0.8-1.6l-4,0.3
					l-0.6,1.6c-0.1,0.3-0.4,0.5-0.8,0.6l0,0c-0.4,0-0.8-0.3-0.9-0.5l-0.8-1.6l-4,0.3l-0.6,1.6c-0.1,0.3-0.4,0.5-0.8,0.6l0,0
					c-0.4,0-0.8-0.3-0.9-0.5l-0.8-1.6l-4,0.3l-0.6,1.6c-0.1,0.3-0.4,0.6-0.8,0.6l0,0c-0.4,0-0.8-0.3-0.9-0.5l-0.8-1.6l-4,0.3
					l-0.6,1.6c-0.1,0.3-0.4,0.6-0.8,0.6l0,0c-0.4,0-0.8-0.3-0.9-0.5l-0.8-1.6l-4,0.3l-0.6,1.6c-0.1,0.3-0.4,0.6-0.8,0.6l0,0
					c-0.4,0-0.8-0.3-0.9-0.5l-0.8-1.6L358,734l-0.6,1.8c-0.1,0.3-0.4,0.6-0.8,0.6l0,0c-0.4,0-0.6-0.3-0.8-0.5l-0.8-1.6l-4.1,0.3
					l-0.6,1.8c-0.1,0.3-0.4,0.6-0.8,0.6l0,0c-0.4,0-0.8-0.3-0.9-0.5l-0.8-1.6l-4.1,0.3l-0.5,1.8c-0.1,0.3-0.4,0.6-0.8,0.6l0,0
					c-0.4,0-0.8-0.3-0.9-0.5l-0.8-1.6l-4.1,0.3l-0.5,1.8c-0.1,0.3-0.4,0.6-0.8,0.6l0,0c-0.4,0-0.8-0.3-0.9-0.5l-0.8-1.6l-4.1,0.3
					l-0.5,1.8c-0.1,0.3-0.4,0.6-0.8,0.6l0,0c-0.4,0-0.8-0.3-0.9-0.5l-0.8-1.6l-4.1,0.3l-0.5,1.8c-0.1,0.3-0.4,0.6-0.8,0.6l0,0
					c-0.4,0-0.8-0.3-0.9-0.5l-0.8-1.6l-4.1,0.3l-0.5,1.8c-0.1,0.3-0.4,0.6-0.8,0.6l0,0c-0.4,0-0.8-0.3-0.9-0.5l-0.8-1.6l-4.1,0.3
					l-0.5,1.8c-0.1,0.3-0.4,0.6-0.8,0.6l0,0c-0.4,0-0.8-0.3-0.9-0.5l-0.8-1.8l-4.1,0.3l-0.5,1.8c-0.1,0.3-0.4,0.6-0.8,0.6l0,0
					c-0.4,0-0.8-0.3-0.9-0.5l-0.8-1.8l-4.1,0.3l-0.5,1.8c-0.1,0.3-0.4,0.6-0.8,0.6l0,0c-0.4,0-0.8-0.3-0.9-0.5l-0.8-1.8l-4.1,0.3
					l-0.5,1.8c-0.1,0.3-0.4,0.6-0.8,0.6l0,0c-0.5,0-0.8-0.3-0.9-0.5l-0.8-1.8l-4.1,0.3l-0.5,1.8c-0.1,0.3-0.4,0.6-0.8,0.6l0,0
					c-0.5,0-0.8-0.3-0.9-0.5l-0.8-1.8l-4.1,0.3l-0.5,1.8c-0.1,0.3-0.4,0.6-0.8,0.6l0,0c-0.5,0-0.8-0.3-0.9-0.5l-0.8-1.8l-4.1,0.3
					l-0.5,1.9c-0.1,0.3-0.4,0.6-0.8,0.6l0,0c-0.5,0-0.8-0.3-0.9-0.5l-0.8-1.8l-4.1,0.3l-0.5,1.9c-0.1,0.3-0.4,0.6-0.8,0.6l0,0
					c-0.5,0-0.8-0.3-0.9-0.5l-0.8-1.8l-4.1,0.3l-0.5,1.9c-0.1,0.3-0.4,0.6-0.8,0.6l0,0c-0.5,0-0.8-0.3-0.9-0.5l-0.8-1.8l-4.1,0.3
					l-0.5,1.9c-0.1,0.3-0.4,0.6-0.8,0.6l0,0c-0.4,0-0.8-0.3-0.9-0.5l-0.8-1.8l-4.1,0.3l-0.5,1.9c-0.1,0.3-0.4,0.6-0.8,0.6l0,0
					c-0.4,0-0.8-0.3-0.9-0.6l-0.6-1.8l-4.1,0.3l-0.5,1.9c-0.1,0.3-0.4,0.6-0.8,0.6l0,0c-0.4,0-0.8-0.3-0.9-0.6l-0.6-1.8l-4.1,0.3
					l-0.5,1.9c-0.1,0.3-0.4,0.6-0.8,0.6l0,0c-0.4,0-0.8-0.3-0.9-0.6l-0.6-1.9l-4.3,0.3l-0.5,1.9c-0.1,0.3-0.4,0.6-0.8,0.6l0,0
					c-0.4,0-0.8-0.3-0.9-0.6l-0.6-1.9l-4.3,0.3l-0.5,1.9c-0.1,0.3-0.4,0.6-0.8,0.6l0,0c-0.4,0-0.8-0.3-0.9-0.6l-0.6-1.9l-4.3,0.3
					l-0.5,1.9c-0.1,0.3-0.4,0.6-0.8,0.6l0,0c-0.4,0-0.8-0.3-0.9-0.6l-0.6-1.9l-4.3,0.3l-0.5,1.9c-0.1,0.3-0.4,0.6-0.8,0.6l0,0
					c-0.4,0-0.8-0.3-0.9-0.6l-0.6-1.9l-4.3,0.3l-0.5,1.9c-0.1,0.3-0.4,0.6-0.8,0.6l0,0c-0.4,0-0.8-0.3-0.9-0.6l-0.6-1.9l-4.3,0.3
					l-0.5,1.9c-0.1,0.3-0.4,0.6-0.8,0.6l0,0c-0.4,0-0.8-0.3-0.9-0.6l-0.6-1.9l-4.3,0.3l-0.5,2c-0.1,0.3-0.4,0.6-0.8,0.6l0,0
					c-0.4,0-0.8-0.3-0.9-0.6l-0.6-1.9l-4.3,0.3l-0.4,2c-0.1,0.3-0.4,0.6-0.8,0.6l0,0c-0.4,0-0.8-0.3-0.9-0.6l-0.6-1.9l-4.3,0.3
					l-0.4,2c-0.1,0.4-0.4,0.6-0.8,0.8l0,0c-0.4,0-0.8-0.3-0.9-0.6l-0.6-1.9l-4.3,0.3l-0.4,2c-0.1,0.4-0.4,0.6-0.8,0.8l0,0
					c-0.4,0-0.8-0.3-0.9-0.6l-0.6-1.9l-4.3,0.3l-0.4,2c-0.1,0.4-0.4,0.6-0.8,0.8l0,0c-0.4,0-0.8-0.3-0.9-0.6l-0.6-1.9l-3.6,0.3
					l-0.8,1.3c-3.9,7.2-10.9,11.7-19.1,12.2C120.8,759.1,120.5,759.1,120,759.1z M514.9,681.6c-0.1,0-0.1,0-0.3,0l-2.6-0.8l2.5-1
					c0.1,0,0.1,0,0.3,0l0,0c0.5,0,0.9,0.4,0.9,0.9C515.8,681.1,515.4,681.6,514.9,681.6L514.9,681.6z M514.4,674.5
					c-0.1,0-0.1,0-0.3,0l-2.6-0.8l2.6-1c0.1,0,0.1,0,0.3,0l-0.1-2.9l0.1,2.9l0,0c0.5,0,0.9,0.4,0.9,0.9c0,0.4-0.1,0.5-0.3,0.6
					C515,674.3,514.8,674.5,514.4,674.5C514.5,674.5,514.4,674.5,514.4,674.5z M513.3,653.3c-0.1,0-0.1,0-0.3,0l-3-0.8l2.9-1
					c0.1,0,0.1,0,0.3,0l0,0c0.5,0,0.9,0.4,0.9,0.9C514.1,653,513.8,653.3,513.3,653.3L513.3,653.3z M512.5,639.3c-0.1,0-0.1,0-0.3,0
					l-3.1-0.6l3-1c0.1,0,0.1,0,0.3,0l0,0c0.5,0,0.9,0.4,0.9,0.9C513.4,638.9,513,639.3,512.5,639.3L512.5,639.3z M93.7,590
					c-0.5,0-0.9-0.4-0.9-0.9s0.4-0.9,0.9-0.9l0,0c0.1,0,0.1,0,0.3,0l3.3,0.6l-3.1,1C94,590,93.9,590,93.7,590L93.7,590z M93.4,582.9
					c-0.5,0-0.9-0.4-0.9-0.9s0.4-0.9,0.9-0.9l0,0c0.1,0,0.1,0,0.3,0l3.1,0.6l-3,1C93.6,582.9,93.5,582.9,93.4,582.9L93.4,582.9z
					 M93,575.9c-0.5,0-0.9-0.4-0.9-0.9c0-0.4,0.1-0.5,0.3-0.6s0.3-0.3,0.6-0.3l0,0c0.1,0,0.1,0,0.3,0l3,0.8l-2.9,1
					C93.1,575.9,93.1,575.9,93,575.9L93,575.9z M92.6,568.9c-0.5,0-0.9-0.4-0.9-0.9c0-0.4,0.1-0.5,0.3-0.6s0.3-0.3,0.6-0.3l0,0
					c0.1,0,0.1,0,0.3,0l2.9,0.8l-2.9,1C92.7,568.9,92.7,568.9,92.6,568.9L92.6,568.9z M92.2,561.9c-0.5,0-0.9-0.4-0.9-0.9
					s0.4-0.9,0.9-0.9l0,0c0.1,0,0.1,0,0.3,0l2.9,0.8l-2.8,1C92.4,561.9,92.4,561.9,92.2,561.9L92.2,561.9z M91.9,554.8
					c-0.5,0-0.9-0.4-0.9-0.9s0.4-0.9,0.9-0.9l0,0c0.1,0,0.1,0,0.3,0l2.8,0.8l-2.6,1C92,554.8,92,554.8,91.9,554.8L91.9,554.8z
					 M91.4,547.8c-0.5,0-0.9-0.4-0.9-0.9s0.4-0.9,0.9-0.9l0,0c0.1,0,0.1,0,0.3,0l2.6,0.8l-2.6,1C91.6,547.8,91.6,547.8,91.4,547.8
					L91.4,547.8z M91.1,540.8c-0.5,0-0.9-0.4-0.9-0.9s0.4-0.9,0.9-0.9l0,0c0.1,0,0.1,0,0.3,0l2.6,0.8l-2.5,1
					C91.2,540.6,91.1,540.8,91.1,540.8L91.1,540.8z M90.7,533.6c-0.5,0-0.9-0.4-0.9-0.9s0.4-0.9,0.9-0.9l0,0c0.1,0,0.3,0,0.3,0
					l2.5,0.8l-2.4,1C90.9,533.6,90.7,533.6,90.7,533.6L90.7,533.6z M90.4,526.6c-0.5,0-0.9-0.4-0.9-0.9s0.4-0.9,0.9-0.9l0,0
					c0.1,0,0.3,0,0.3,0l2.4,0.8l-2.4,1C90.5,526.6,90.4,526.6,90.4,526.6L90.4,526.6z M89.9,519.6c-0.5,0-0.9-0.4-0.9-0.9
					s0.4-0.9,0.9-0.9l0,0c0.1,0,0.3,0,0.3,0l2.4,0.8l-2.3,1C90.1,519.6,90,519.6,89.9,519.6L89.9,519.6z M89.5,512.5
					c-0.5,0-0.9-0.4-0.9-0.9s0.4-0.9,0.9-0.9l0,0c0.1,0,0.3,0,0.3,0l2.3,0.8l-2.3,0.9C89.7,512.5,89.6,512.5,89.5,512.5L89.5,512.5z
					"/>
			</g>
		</g>
		<g>
			<g>
				<path fill="#151D25" d="M487.5,446.1L487.5,446.1L487.5,446.1c10.8,0,19.8,8.5,20.5,19.3c0.3,5.1-1.4,10.2-4.6,14.2l-1.5,1.8
					v0.3l-3.6-0.1l0.3,5.8l0,0l0.1,1.3l0.3,5.8l0,0l0.3,5.9l0,0v1.1l0,0l0.3,5.9l0,0v1.1l0,0l0.3,5.9l0,0v1l0,0v1l0,0l0.3,4.1v0.8
					l0,0v1v0.1v0.9l0,0l0.3,6v0.1v0.9l0,0l0.4,6.1v0.1v0.8l0,0l0.4,6.1v0.1v0.8l0,0l0.4,6.1v0.1v0.8l0,0l0.4,6.3v0.1l0.3,5.4
					l0.1,1.5v0.1l0.4,6.4l0,0v0.6v0.1v0.5l0,0v0.9l0.3,5l0,0v0.5v0.1v0.5l0,0l0.4,6.4v0.1v0.4l0,0l0.4,6.5v0.1l0.3,6v0.8v0.1
					l0.4,6.7l0,0v0.3v0.1v0.1l0,0l0.1,3.3l0.1,3.3l0,0v0.1v0.3l0.3,4.4l0.1,2.4v0.3l0,0v0.1l0.4,6.7l0,0l0,0v0.1l0,0l0.4,6.3v0.6
					l0,0v0.3l0.1,2.8l0.3,4v0.1l0.1,2l0.3,5.1l0,0v0.1l0.3,5.6v1l0,0l0.3,4.6l0.1,2.8l0,0l0.4,6.5l0,0l0.4,7l0,0l0.4,7.3v0.4
					l0.1,2.8l-4.1,1l8,6.7c4.4,3.6,7,8.8,7.3,14.6c0.6,11.3-8,21-19.3,21.6c-0.4,0-0.8,0-1.3,0c-5,0-9.9-1.9-13.7-5.3l-1.6-1.5
					l-2.1,0.1l-1.9,0.1l-3.4,0.1l0,0l-3,0.1h-0.6l-3.4,0.1l0,0l-3,0.1h-0.6l-3.4,0.1l0,0l-3,0.1h-0.6l-3,0.1l0,0l-3.4,0.1h-0.6
					l-3,0.1l0,0l-3.4,0.1h-0.6l-3,0.1l-3.4,0.1h-0.6l-3,0.1l0,0l-3.4,0.1h-0.6l-3,0.1l0,0l-3.4,0.1H423l-3,0.1l0,0l-3.4,0.1H416
					l-3,0.1l0,0l-3.5,0.1h-0.6l-3.5,0.1l0,0l-3,0.1h-0.5l-3.5,0.1l0,0l-3,0.1h-0.5l-3.5,0.1l0,0l-3,0.1h-0.5l-3.5,0.1l0,0l-3,0.1
					h-0.5l-3,0.1l0,0l-3.5,0.3h-0.5l-3,0.1l0,0l-3.5,0.3h-0.5l-3.5,0.3l0,0l-3,0.1h-0.5l-3,0.1l-3.6,0.3h-0.5l-3,0.1l0,0l-3.6,0.3
					h-0.5l-3.6,0.3l0,0l-2.9,0.1h-0.5l-2.9,0.1h-0.3h-0.5l0,0l-2.9,0.1h-0.5l-2.9,0.1l-3.6,0.3h-0.5l-3.6,0.3l0,0l-2.9,0.1h-0.5
					l-3.6,0.3l0,0l-2.9,0.1h-0.4l-2.9,0.1l-3.6,0.3h-0.4l-2.9,0.1l0,0l-3.8,0.3h-0.4l-3.8,0.3l0,0l-2.9,0.1h-0.4l-3.8,0.3l0,0
					l-2.9,0.1h-0.4l-3.8,0.3l0,0l-2.9,0.1h-0.4l-3.8,0.3l0,0l-2.9,0.1h-0.4l-3.8,0.3l0,0l-2.9,0.1h-0.4l-3.8,0.3l0,0l-2.9,0.1h-0.4
					l-3.8,0.3l0,0l-2.9,0.1h-0.4l-3.9,0.3l0,0l-2.9,0.1h-0.4l-2.9,0.1h-0.4h-0.6l0,0l-2.9,0.1h-0.4l-2.9,0.1l0,0l-3.9,0.3h-0.4
					l-2.9,0.1l0,0l-3.9,0.3h-0.4l-2.9,0.1l0,0l-3.9,0.3h-0.3l-3.9,0.3l0,0l-2.9,0.1h-0.3l-3.9,0.3l0,0l-2.8,0.1h-0.3l-3.9,0.3l0,0
					l-2.8,0.1h-0.3l-4,0.3l0,0l-2.8,0.1h-0.3l-2.8,0.1l0,0l-4,0.3h-0.3l-2.8,0.1l0,0l-4,0.3h-0.3l-4,0.3l0,0l-2.8,0.1h-0.3l-4,0.3
					l0,0l-2.8,0.1h-0.3l-2.8,0.1l-4,0.3h-0.3l-4,0.3l0,0l-2.8,0.1h-0.1l-3,0.1l-1.4,2.6c-3.4,6.3-9.7,10.3-16.8,10.8
					c-0.4,0-0.8,0-1.3,0c-10.8,0-19.8-8.5-20.5-19.3c-0.3-5.3,1.4-10.4,4.8-14.4l6.3-7.4l-4.3-0.5l-0.1-2.8l0,0l-0.3-6l0,0v-1l0,0
					v-1l0,0l-0.3-6v-0.1v-0.9l0,0l-0.3-6v-0.1l-0.1-1.3l-0.3-5.8v-0.1v-0.8l0,0l-0.4-6.1v-0.1v-0.8l0,0l-0.4-6.1v-0.1l-0.1-1.6
					l-0.3-5.3v-0.1l-0.4-6.3l0,0v-0.6v-0.1v-0.5l0,0l-0.1-1.8l-0.3-4l0,0v-0.5v-0.1v-0.5l0,0l-0.4-6.4v-0.1v-0.4l0,0l-0.4-6.5v-0.1
					l-0.3-4.8l-0.1-2.1v-0.1l-0.4-6.5l0,0v-0.3v-0.1v-0.3v-0.5l-0.3-5.9l0,0v-0.3v-0.3l-0.3-6.1v-0.8V604v-0.1l0,0l-0.1-1.9
					l-0.3-4.8l0,0v-0.1v-0.3l0,0l0,0l-0.4-6.8V590l0,0l-0.4-6.9v-0.3l-0.1-3.4L99,576l0,0l0,0l-0.1-3.1l-0.3-4l0,0v-0.1l-0.1-2.6
					l-0.3-4l0,0l-0.3-4.5l-0.1-2.9l0,0l-0.1-2.4l-0.3-4.3v-0.4l-0.4-7.3l0,0l-0.1-2l-0.3-4.1l-0.3-6l-0.1-2l0,0l-0.3-5.9v-0.5v-0.4
					l-0.4-7.5l0,0l-0.4-7.2l0,0l-0.3-4l0.6-0.4l-0.8-0.6l-0.1-2.1l-1.4,0.6l-2.9-2.8c-3.6-3.5-5.9-8.4-6.1-13.4
					c-0.6-11.3,8-21,19.3-21.6c0.4,0,0.8,0,1.3,0c6.5,0,12.8,3.1,16.6,8.5l1.4,1.9l1.4,0.1l1.1,2l3.3-0.1h0.8l3.3-0.1l0,0l3-0.1h0.8
					l3.3-0.1l0,0l3-0.1h0.8l3.3-0.1l0,0l3-0.1h0.6l3-0.1l0,0l3.4-0.1h0.6l3-0.1l0,0l3.4-0.1h0.6l3.4-0.1l0,0l3-0.1h0.6l3.5-0.1l0,0
					l3-0.1h0.6l3-0.1l3.5-0.1h0.5l3-0.1l0,0l3.5-0.1h0.5l3.1-0.1l3.4-0.1h0.5l3.6-0.1l0,0l3-0.1h0.5l3.6-0.1l0,0l2.9-0.1h0.5
					l3.6-0.1l0,0l2.9-0.1h0.4l3.8-0.1l0,0l2.9-0.1h0.4l2.9-0.1l0,0l3.8-0.1h0.4l2.9-0.1l0,0l3.8-0.1h0.4l3.8-0.1l0,0l2.9-0.1h0.4
					l3.9-0.1l0,0l2.9-0.1h0.4l3.9-0.1l0,0l2.9-0.1h0.3l3.9-0.1l0,0l2.8-0.1h0.3l4-0.1l0,0l2.8-0.1h0.3l4-0.1l0,0l2.8-0.1h0.3l4-0.1
					l0,0l2.8-0.1h0.3l4-0.3l0,0l2.8-0.1h0.3l2.8-0.1l4.1-0.3h0.3l2.6-0.1l0,0l4.1-0.3h0.3l4.1-0.3l0,0l2.6-0.1h0.1l4.3-0.3l0,0
					l2.6-0.1h0.1l4.3-0.3l0,0l2.6-0.1h0.1l2.6-0.1l0,0l1.5-0.1h0.3l0,0l2.6-0.1h0.1l3.9-0.1l3-0.1h0.1l2.5-0.1l0,0h0.5h1.3l0,0
					l2.5-0.1h0.1l3.9-0.1l3-0.1h0.1l2.5-0.1l0,0h1.1h0.9l0,0l2.5-0.1h0.1l2.4-0.1l0,0l4.5-0.3h0.1l2.4-0.1l0,0l4.5-0.3h0.1l2.4-0.1
					l0,0l4.5-0.3h0.1l2.4-0.1l0,0l4.6-0.3h0.1l2.4-0.1l0,0l4.6-0.3l0,0l2.3-0.1l0,0l4.6-0.3l0,0l3.4-0.1l3.6-0.1l0,0l2.3-0.1l0,0
					l2.5-0.1l0,0l2.3-0.1l0,0l2.1-0.1l0,0l4.8-0.3l0,0l2.1-0.1l0,0l4.9-0.3l0,0l2.1-0.1l0,0l4.9-0.3l2.1-0.1l0,0l4.9-0.3l2-0.1l0,0
					l5-0.3l5.1-0.3v-0.8l1.4,1.3l3.6-5.1c3.6-5.1,9.3-8.3,15.6-8.7C486.7,446.1,487.2,446.1,487.5,446.1 M487.5,440.9
					c-0.5,0-1,0-1.5,0c-8.2,0.5-15.2,4.6-19.6,10.9c-0.6-0.6-1.5-1-2.5-1h-0.1c-1.9,0.1-3.4,1.8-3.4,3.6l0,0
					c-0.1-1.8-1.6-3.3-3.5-3.3h-0.1c-1.9,0.1-3.4,1.6-3.4,3.5l0,0c-0.3-1.8-1.8-3.1-3.5-3.1h-0.1c-1.9,0.1-3.3,1.6-3.4,3.4l0,0
					c-0.3-1.8-1.8-3.1-3.5-3.1h-0.1c-1.9,0.1-3.3,1.6-3.4,3.4l0,0c-0.3-1.8-1.8-3-3.5-3h-0.1c-1.9,0.1-3.3,1.6-3.4,3.4l0,0
					c-0.3-1.8-1.8-3-3.5-3h-0.1c-1.9,0.1-3.3,1.5-3.4,3.4l0,0c-0.3-1.8-1.8-3-3.5-3h-0.1c-1.8,0.1-3.3,1.5-3.4,3.4l0,0
					c-0.3-1.8-1.8-3-3.5-3h-0.1c-1.8,0.1-3.3,1.5-3.4,3.3l0,0c-0.3-1.6-1.8-2.9-3.5-2.9h-0.1c-1.8,0.1-3.3,1.5-3.4,3.3l0,0
					c-0.3-1.6-1.8-2.9-3.5-2.9h-0.1c-1.8,0.1-3.1,1.5-3.4,3.3h-0.1c-0.3-1.6-1.8-2.9-3.5-2.9h-0.1c-1.8,0.1-3.1,1.5-3.4,3.3h-0.1
					c-0.4-1.6-1.8-2.9-3.5-2.9h-0.1c-1.8,0.1-3.1,1.5-3.4,3.1h-0.1c-0.4-1.6-1.8-2.9-3.4-2.9h-0.1c-1.8,0.1-3.1,1.5-3.3,3.1h-0.1
					c-0.4-1.6-1.8-2.8-3.4-2.8h-0.1c-1.8,0.1-3.1,1.4-3.3,3.1h-0.1c-0.4-1.6-1.8-2.8-3.4-2.8h-0.1c-1.8,0.1-3.1,1.4-3.3,3.1H362
					c-0.4-1.6-1.8-2.8-3.4-2.8h-0.1c-1.8,0.1-3.1,1.4-3.3,3h-0.1c-0.4-1.5-1.8-2.8-3.4-2.8h-0.1c-1.8,0.1-3.1,1.4-3.3,3h-0.1
					c-0.4-1.5-1.8-2.6-3.4-2.6h-0.1c-1.8,0.1-3,1.4-3.3,3h-0.1c-0.4-1.5-1.8-2.6-3.4-2.6h-0.1c-1.8,0.1-3,1.4-3.3,3h-0.1
					c-0.4-1.5-1.8-2.6-3.4-2.6h-0.1c-1.6,0.1-3,1.4-3.3,2.9h-0.1c-0.4-1.5-1.8-2.6-3.4-2.6H324c-1.6,0.1-3,1.4-3.3,2.9h-0.1
					c-0.4-1.5-1.8-2.5-3.4-2.5h-0.1c-1.6,0.1-3,1.3-3.3,2.9h-0.3c-0.4-1.5-1.8-2.5-3.4-2.5h-0.1c-1.6,0.1-3,1.3-3.3,2.9h-0.3
					c-0.5-1.5-1.8-2.5-3.4-2.5h-0.1c-1.6,0.1-3,1.3-3.3,2.8h-0.3c-0.5-1.4-1.8-2.5-3.4-2.5H296c-1.6,0.1-2.9,1.3-3.3,2.8h-0.3
					c-0.5-1.4-1.8-2.4-3.4-2.4H289c-1.6,0.1-2.9,1.3-3.3,2.8h-0.3c-0.5-1.4-1.8-2.4-3.4-2.4H282c-1.6,0.1-2.9,1.3-3.3,2.8h-0.3
					c-0.5-1.4-1.8-2.4-3.4-2.4h-0.1c-1.6,0.1-2.9,1.3-3.3,2.6h-0.3c-0.5-1.4-1.8-2.4-3.3-2.4H268c-1.6,0.1-2.9,1.3-3.3,2.6h-0.3
					c-0.5-1.4-1.8-2.4-3.3-2.4h-0.1c-1.6,0.1-2.9,1.1-3.3,2.6h-0.4c-0.5-1.4-1.8-2.3-3.3-2.3h-0.1c-1.5,0.1-2.9,1.1-3.3,2.6h-0.4
					c-0.5-1.4-1.8-2.3-3.3-2.3h-0.1c-1.5,0.1-2.8,1.1-3.3,2.6h-0.4c-0.5-1.4-1.8-2.3-3.3-2.3h-0.1c-1.5,0.1-2.8,1.1-3.3,2.5h-0.4
					c-0.5-1.3-1.8-2.3-3.3-2.3H233c-1.5,0.1-2.8,1.1-3.1,2.5h-0.4c-0.5-1.3-1.8-2.1-3.3-2.1h-0.1c-1.5,0.1-2.8,1.1-3.1,2.5h-0.4
					c-0.5-1.3-1.8-2.1-3.3-2.1h-0.1c-1.5,0.1-2.8,1.1-3.1,2.5h-0.5c-0.5-1.3-1.8-2.1-3.3-2.1h-0.1c-1.5,0.1-2.8,1.1-3.1,2.4h-0.5
					c-0.5-1.3-1.8-2.1-3.3-2.1h-0.1c-1.5,0.1-2.8,1-3.1,2.4h-0.5c-0.5-1.3-1.8-2-3.3-2h-0.1c-1.5,0.1-2.6,1-3.1,2.4h-0.5
					c-0.6-1.3-1.8-2-3.1-2h-0.1c-1.5,0.1-2.6,1-3.1,2.4h-0.5c-0.6-1.3-1.8-2-3.1-2h-0.1c-1.5,0.1-2.6,1-3.1,2.3h-0.6
					c-0.6-1.1-1.8-2-3.1-2h-0.1c-1.4,0.1-2.6,1-3.1,2.3h-0.6c-0.6-1.1-1.8-2-3.1-2h-0.1c-1.4,0.1-2.6,1-3.1,2.3h-0.6
					c-0.6-1.1-1.8-1.9-3.1-1.9h-0.1c-1.4,0.1-2.6,1-3.1,2.3h-0.6c-0.6-1.1-1.8-1.9-3.1-1.9h-0.1c-1.4,0.1-2.6,1-3.1,2.1h-0.6
					c-0.6-1.1-1.8-1.9-3.1-1.9h-0.1c-1.4,0.1-2.5,1-3,2.1h-0.8c-0.6-1.1-1.8-1.9-3.1-1.9h-0.1c-1.4,0.1-2.5,0.9-3,2.1h-0.8
					c-0.6-1.1-1.8-1.8-3-1.8h-0.1c-1.4,0.1-2.5,0.9-3,2.1h-0.8c-0.5-1-1.5-1.6-2.6-1.8c-4.8-6.5-12.4-10.7-21-10.7c-0.5,0-1,0-1.5,0
					c-16.7,1.6-27.6,13.8-26.7,28c0.4,6.7,3.3,12.7,7.8,16.9c-1.1,0.6-1.9,1.9-1.9,3.3c0.1,1.9,1.6,3.4,3.5,3.4c0.1,0,0.1,0,0.3,0
					c0.4,0,0.9-0.1,1.3-0.3v0.5c-0.4-0.1-0.6-0.1-1-0.1c-0.1,0-0.1,0-0.3,0c-1.9,0.1-3.4,1.8-3.4,3.8c0.1,1.9,1.6,3.4,3.5,3.4
					c0.1,0,0.1,0,0.3,0c0.4,0,0.9-0.1,1.1-0.3v0.4c-0.4-0.1-0.6-0.1-1-0.1c0,0-0.1,0-0.3,0c-1.9,0.1-3.4,1.8-3.4,3.8
					c0.1,1.9,1.6,3.4,3.5,3.4c0.1,0,0.1,0,0.3,0c0.4,0,0.8-0.1,1.1-0.3v0.4c-0.4-0.1-0.6-0.1-1-0.1c-0.1,0-0.1,0-0.3,0
					c-1.9,0.1-3.4,1.8-3.4,3.8c0.1,1.9,1.6,3.4,3.5,3.4c0.1,0,0.1,0,0.3,0c0.4,0,0.8-0.1,1.1-0.3v0.4c-0.3-0.1-0.6-0.1-1-0.1
					c-0.1,0-0.1,0-0.3,0c-1.9,0.1-3.4,1.8-3.4,3.8c0.1,1.9,1.6,3.4,3.5,3.4c0.1,0,0.1,0,0.3,0c0.4,0,0.8-0.1,1.1-0.3v0.4
					c-0.3-0.1-0.6-0.1-0.9-0.1c-0.1,0-0.1,0-0.3,0c-1.9,0.1-3.4,1.8-3.4,3.8c0.1,1.9,1.6,3.4,3.5,3.4c0.1,0,0.1,0,0.3,0
					c0.4,0,0.8-0.1,1.1-0.3v0.4c-0.3-0.1-0.6-0.1-0.9-0.1c-0.1,0-0.1,0-0.3,0c-1.9,0.1-3.4,1.8-3.4,3.8c0.1,1.9,1.6,3.4,3.5,3.4
					c0.1,0,0.1,0,0.3,0c0.4,0,0.8-0.1,1-0.3v0.4c-0.3-0.1-0.6-0.1-0.9-0.1c-0.1,0-0.1,0-0.3,0c-1.9,0.1-3.4,1.8-3.4,3.8
					c0.1,1.9,1.6,3.4,3.5,3.4c0.1,0,0.1,0,0.3,0c0.4,0,0.8-0.1,1-0.3v0.3c-0.3-0.1-0.5-0.1-0.9-0.1c-0.1,0-0.1,0-0.3,0
					c-1.9,0.1-3.4,1.8-3.4,3.8c0.1,1.9,1.6,3.4,3.5,3.4c0.1,0,0.1,0,0.3,0c0.4,0,0.6-0.1,1-0.3v0.3c-0.3,0-0.5-0.1-0.8-0.1
					c-0.1,0-0.1,0-0.3,0c-1.9,0.1-3.4,1.8-3.4,3.8c0.1,1.9,1.6,3.4,3.5,3.4c0.1,0,0.1,0,0.3,0c0.4,0,0.6-0.1,1-0.3v0.3
					c-0.3,0-0.5-0.1-0.8-0.1h-0.1c-1.9,0.1-3.4,1.8-3.4,3.8c0.1,1.9,1.6,3.4,3.5,3.4c0.1,0,0.1,0,0.3,0c0.4,0,0.6-0.1,0.9-0.1v0.3
					c-0.3,0-0.5-0.1-0.8-0.1h-0.1c-1.9,0.1-3.4,1.8-3.4,3.8c0.1,1.9,1.6,3.4,3.5,3.4c0.1,0,0.1,0,0.3,0c0.4,0,0.6-0.1,0.9-0.1v0.3
					c-0.3,0-0.5-0.1-0.8-0.1H93c-1.9,0.1-3.4,1.8-3.4,3.8c0.1,1.9,1.6,3.4,3.5,3.4c0.1,0,0.1,0,0.3,0c0.3,0,0.6-0.1,0.9-0.1v0.3
					c-0.3,0-0.5-0.1-0.8-0.1h-0.1c-1.9,0.1-3.4,1.8-3.4,3.8c0.1,1.9,1.6,3.4,3.5,3.4c0.1,0,0.1,0,0.3,0c0.3,0,0.6-0.1,0.9-0.1v0.3
					c-0.3,0-0.5-0.1-0.6-0.1h-0.1c-1.9,0.1-3.4,1.8-3.4,3.8c0.1,1.9,1.6,3.4,3.5,3.4c0.1,0,0.1,0,0.3,0c0.3,0,0.5-0.1,0.9-0.1v0.3
					c-0.3,0-0.4,0-0.6,0h-0.1c-1.9,0.1-3.4,1.8-3.4,3.8c0.1,1.9,1.6,3.4,3.5,3.4c0.1,0,0.1,0,0.3,0c0.3,0,0.5-0.1,0.8-0.1v0.3
					c-0.3,0-0.4,0-0.6,0h-0.1c-1.9,0.1-3.4,1.8-3.4,3.8c0.1,1.9,1.6,3.4,3.5,3.4c0.1,0,0.1,0,0.3,0c0.3,0,0.5,0,0.8-0.1v0.1
					c-0.3,0-0.4,0-0.6,0h-0.1c-1.9,0.1-3.4,1.8-3.4,3.8c0.1,1.9,1.6,3.4,3.5,3.4c0.1,0,0.1,0,0.3,0c0.3,0,0.5,0,0.8-0.1v0.1
					c-0.1,0-0.4,0-0.5,0c0,0-0.1,0-0.3,0c-1.9,0.1-3.4,1.8-3.4,3.8c0.1,1.9,1.6,3.4,3.5,3.4c0.1,0,0.1,0,0.3,0c0.3,0,0.5,0,0.8-0.1
					v0.1c-0.1,0-0.4,0-0.5,0s-0.1,0-0.3,0c-1.9,0.1-3.4,1.8-3.4,3.8c0.1,1.9,1.6,3.4,3.5,3.4c0.1,0,0.1,0,0.3,0c0.3,0,0.5,0,0.6-0.1
					v0.1c-0.1,0-0.4,0-0.5,0s-0.1,0-0.3,0c-1.9,0.1-3.4,1.8-3.4,3.8c0.1,1.9,1.6,3.4,3.5,3.4c0.1,0,0.1,0,0.3,0c0.3,0,0.5,0,0.6-0.1
					v0.1c-0.1,0-0.4,0-0.5,0h-0.1c-1.9,0.1-3.4,1.8-3.4,3.8c0.1,1.9,1.6,3.4,3.5,3.4c0.1,0,0.1,0,0.3,0c0.3,0,0.4,0,0.6-0.1v0.1
					c-0.1,0-0.3,0-0.5,0h-0.1c-1.9,0.1-3.4,1.8-3.4,3.8c0.1,1.9,1.6,3.4,3.5,3.4c0.1,0,0.1,0,0.3,0c0.3,0,0.4,0,0.6-0.1v0.1
					c-0.1,0-0.3,0-0.4,0h-0.1c-1.9,0.1-3.4,1.8-3.4,3.8c0.1,1.9,1.6,3.4,3.5,3.4c0.1,0,0.1,0,0.3,0c0.3,0,0.4,0,0.6-0.1v0.1
					c-0.1,0-0.3,0-0.4,0h-0.1c-1.9,0.1-3.4,1.8-3.4,3.8c0.1,1.9,1.6,3.4,3.5,3.4c0.1,0,0.1,0,0.3,0s0.4,0,0.5-0.1v0.1
					c-0.1,0-0.3,0-0.4,0h-0.1c-1.9,0.1-3.4,1.8-3.4,3.8c0.1,1.9,1.6,3.4,3.5,3.4c0.1,0,0.1,0,0.3,0s0.4,0,0.5-0.1v0.1
					c-0.1,0-0.3,0-0.4,0h-0.1c-1.9,0.1-3.4,1.8-3.4,3.8c0.1,1.9,1.6,3.4,3.5,3.4c0.1,0,0.1,0,0.3,0s0.4,0,0.5-0.1v0.1
					c-0.1,0-0.3,0-0.4,0H99c-1.9,0.1-3.4,1.8-3.4,3.8c0.1,1.9,1.6,3.4,3.5,3.4c0.1,0,0.1,0,0.3,0s0.3,0,0.5,0v0.1
					c-0.1,0-0.3,0-0.3,0h-0.1c-1.9,0.1-3.4,1.8-3.4,3.8c0.1,1.9,1.6,3.4,3.5,3.4c0.1,0,0.1,0,0.3,0s0.3,0,0.4,0l0,0
					c-0.1,0-0.1,0-0.3,0h-0.1c-1.9,0.1-3.4,1.8-3.4,3.8c0.1,1.9,1.6,3.4,3.5,3.4c0.1,0,0.1,0,0.3,0s0.3,0,0.4,0l0,0
					c-0.1,0-0.1,0-0.3,0h-0.1c-1.9,0.1-3.4,1.8-3.4,3.8c0.1,1.8,1.4,3.1,3.1,3.3c-4.1,4.9-6.4,11.3-6,18.1
					c0.8,13.7,12.2,24.3,25.7,24.3c0.5,0,1,0,1.5,0c9.3-0.5,17.1-5.9,21.2-13.6h0.1c0.5,1.4,1.8,2.4,3.4,2.4c0.1,0,0.1,0,0.3,0
					c1.6-0.1,2.9-1.3,3.3-2.8h0.3c0.5,1.4,1.8,2.4,3.4,2.4c0.1,0,0.1,0,0.3,0c1.6-0.1,2.9-1.3,3.3-2.8h0.3c0.5,1.4,1.8,2.4,3.4,2.4
					c0.1,0,0.1,0,0.3,0c1.6-0.1,2.9-1.3,3.3-2.8h0.3c0.5,1.4,1.8,2.4,3.4,2.4c0.1,0,0.1,0,0.3,0c1.6-0.1,2.9-1.3,3.3-2.8h0.3
					c0.5,1.4,1.8,2.4,3.4,2.4c0.1,0,0.1,0,0.3,0c1.6-0.1,2.9-1.3,3.3-2.8h0.3c0.5,1.4,1.8,2.4,3.4,2.4c0.1,0,0.1,0,0.3,0
					c1.6-0.1,2.9-1.3,3.3-2.8h0.3c0.5,1.4,1.8,2.4,3.3,2.4c0.1,0,0.1,0,0.3,0c1.6-0.1,2.9-1.3,3.3-2.8h0.3c0.5,1.4,1.8,2.4,3.3,2.4
					c0.1,0,0.1,0,0.3,0c1.6-0.1,2.9-1.3,3.3-2.8h0.3c0.5,1.4,1.8,2.4,3.3,2.4c0.1,0,0.1,0,0.3,0c1.6-0.1,2.9-1.3,3.3-2.6h0.3
					c0.5,1.4,1.8,2.3,3.3,2.3c0.1,0,0.1,0,0.3,0c1.6-0.1,2.9-1.3,3.3-2.6h0.3c0.5,1.4,1.8,2.3,3.3,2.3c0.1,0,0.1,0,0.3,0
					c1.6-0.1,2.9-1.3,3.3-2.6h0.4c0.5,1.4,1.8,2.3,3.3,2.3c0.1,0,0.1,0,0.3,0c1.6-0.1,2.9-1.3,3.3-2.6h0.4c0.5,1.4,1.8,2.3,3.3,2.3
					c0.1,0,0.1,0,0.3,0c1.6-0.1,2.9-1.1,3.3-2.6h0.4c0.5,1.4,1.8,2.3,3.3,2.3c0.1,0,0.1,0,0.3,0c1.5-0.1,2.9-1.1,3.3-2.6h0.4
					c0.5,1.4,1.8,2.3,3.3,2.3c0.1,0,0.1,0,0.3,0c1.5-0.1,2.9-1.1,3.3-2.6h0.4c0.5,1.4,1.8,2.3,3.3,2.3c0.1,0,0.1,0,0.3,0
					c1.5-0.1,2.8-1.1,3.3-2.6h0.4c0.5,1.3,1.8,2.3,3.3,2.3c0.1,0,0.1,0,0.3,0c1.5-0.1,2.8-1.1,3.3-2.6h0.4c0.5,1.3,1.8,2.3,3.3,2.3
					c0.1,0,0.1,0,0.3,0c1.5-0.1,2.8-1.1,3.1-2.5h0.4c0.5,1.3,1.8,2.3,3.3,2.3c0.1,0,0.1,0,0.3,0c1.5-0.1,2.8-1.1,3.1-2.5h0.4
					c0.5,1.3,1.8,2.1,3.3,2.1c0.1,0,0.1,0,0.3,0c1.5-0.1,2.8-1.1,3.1-2.5h0.4c0.5,1.3,1.8,2.1,3.3,2.1c0.1,0,0.1,0,0.3,0
					c1.5-0.1,2.8-1.1,3.1-2.5h0.4c0.5,1.3,1.8,2.1,3.3,2.1c0.1,0,0.1,0,0.3,0c1.5-0.1,2.8-1.1,3.1-2.5h0.4c0.5,1.3,1.8,2.1,3.3,2.1
					c0.1,0,0.1,0,0.3,0c1.5-0.1,2.8-1.1,3.1-2.5h0.4c0.5,1.3,1.8,2.1,3.3,2.1c0.1,0,0.1,0,0.3,0c1.5-0.1,2.8-1.1,3.1-2.5h0.4
					c0.5,1.3,1.8,2.1,3.3,2.1c0.1,0,0.1,0,0.3,0c1.5-0.1,2.8-1.1,3.1-2.5h0.5c0.5,1.3,1.8,2.1,3.3,2.1c0.1,0,0.1,0,0.3,0
					c1.5-0.1,2.8-1.1,3.1-2.5h0.5c0.5,1.3,1.8,2.1,3.3,2.1c0.1,0,0.1,0,0.3,0c1.5-0.1,2.8-1.1,3.1-2.5h0.5c0.5,1.3,1.8,2.1,3.3,2.1
					c0.1,0,0.1,0,0.3,0c1.5-0.1,2.8-1.1,3.1-2.4h0.5c0.5,1.3,1.8,2.1,3.3,2.1c0.1,0,0.1,0,0.3,0c1.5-0.1,2.8-1.1,3.1-2.4h0.5
					c0.5,1.3,1.8,2,3.3,2c0.1,0,0.1,0,0.3,0c1.5-0.1,2.8-1.1,3.1-2.4h0.5c0.5,1.3,1.8,2,3.1,2c0.1,0,0.1,0,0.3,0
					c1.5-0.1,2.8-1.1,3.1-2.4h0.5c0.5,1.3,1.8,2,3.1,2c0.1,0,0.1,0,0.3,0c1.5-0.1,2.6-1,3.1-2.4h0.5c0.6,1.3,1.8,2,3.1,2
					c0.1,0,0.1,0,0.3,0c1.5-0.1,2.6-1,3.1-2.4h0.5c0.6,1.3,1.8,2,3.1,2c0.1,0,0.1,0,0.3,0c1.5-0.1,2.6-1,3.1-2.4h0.5
					c0.6,1.1,1.8,2,3.1,2c0.1,0,0.1,0,0.3,0c1.5-0.1,2.6-1,3.1-2.4h0.5c0.6,1.1,1.8,2,3.1,2c0.1,0,0.1,0,0.3,0
					c1.5-0.1,2.6-1,3.1-2.4h0.5c0.6,1.1,1.8,2,3.1,2c0.1,0,0.1,0,0.3,0c1.5-0.1,2.6-1,3.1-2.3h0.5c0.6,1.1,1.8,2,3.1,2
					c0.1,0,0.1,0,0.3,0c1.5-0.1,2.6-1,3.1-2.3h0.6c0.6,1.1,1.8,2,3.1,2c0.1,0,0.1,0,0.3,0c1.5-0.1,2.6-1,3.1-2.3h0.6
					c0.6,1.1,1.8,1.9,3.1,1.9c0.1,0,0.1,0,0.3,0c1.4-0.1,2.6-1,3.1-2.3h0.6c0.6,1.1,1.8,1.9,3.1,1.9c0.1,0,0.1,0,0.3,0
					c1.4-0.1,2.6-1,3.1-2.3h0.6c0.6,1.1,1.8,1.9,3.1,1.9c0.1,0,0.1,0,0.3,0c1.4-0.1,2.6-1,3.1-2.3h0.6c0.6,1.1,1.8,1.9,3.1,1.9
					c0.1,0,0.1,0,0.3,0c1.4-0.1,2.6-1,3.1-2.3h0.6c0.6,1.1,1.8,1.9,3.1,1.9c0.1,0,0.1,0,0.3,0c1.4-0.1,2.6-1,3.1-2.3h0.6
					c0.6,1.1,1.8,1.9,3.1,1.9c0.1,0,0.1,0,0.3,0c1.4-0.1,2.6-1,3.1-2.3h0.6c0.6,1.1,1.8,1.9,3.1,1.9c0.1,0,0.1,0,0.3,0
					c1.4-0.1,2.6-1,3-2.3h0.6c0.6,1.1,1.8,1.9,3.1,1.9c0.1,0,0.1,0,0.3,0c1.4-0.1,2.5-1,3-2.1h0.6c0.6,1.1,1.8,1.9,3.1,1.9
					c0.1,0,0.1,0,0.3,0c1.4-0.1,2.5-1,3-2.1l1.9-0.1c4.6,4.1,10.7,6.7,17.2,6.7c0.5,0,1,0,1.5,0c14.2-0.9,25.1-13.1,24.2-27.2
					c-0.4-7.4-3.9-13.9-9.2-18.3c1.6-0.4,2.8-1.9,2.6-3.6c-0.1-1.9-1.6-3.4-3.5-3.4c-0.1,0-0.1,0-0.3,0c-0.4,0-0.8,0.1-1.1,0.3v-0.4
					c0.3,0.1,0.6,0.1,0.9,0.1c0.1,0,0.1,0,0.3,0c1.9-0.1,3.4-1.8,3.4-3.8c-0.1-1.9-1.6-3.4-3.5-3.4c-0.1,0-0.1,0-0.3,0
					c-0.4,0-0.8,0.1-1.1,0.3v-0.4c0.3,0.1,0.6,0.1,0.9,0.1c0.1,0,0.1,0,0.3,0c1.9-0.1,3.4-1.8,3.4-3.8c-0.1-1.9-1.6-3.4-3.5-3.4
					c-0.1,0-0.1,0-0.3,0c-0.4,0-0.8,0.1-1,0.3v-0.4c0.3,0.1,0.6,0.1,0.9,0.1c0.1,0,0.1,0,0.3,0c1.9-0.1,3.4-1.8,3.4-3.8
					c-0.1-1.9-1.6-3.4-3.5-3.4c-0.1,0-0.1,0-0.3,0c-0.4,0-0.8,0.1-1,0.3v-0.3c0.3,0.1,0.5,0.1,0.9,0.1c0.1,0,0.1,0,0.3,0
					c1.9-0.1,3.4-1.8,3.4-3.8c-0.1-1.9-1.6-3.4-3.5-3.4c-0.1,0-0.1,0-0.3,0c-0.4,0-0.6,0.1-1,0.3v-0.3c0.3,0,0.5,0.1,0.8,0.1
					c0.1,0,0.1,0,0.3,0c1.9-0.1,3.4-1.8,3.4-3.8c-0.1-1.9-1.6-3.4-3.5-3.4c-0.1,0-0.1,0-0.3,0c-0.4,0-0.6,0.1-1,0.3v-0.3
					c0.3,0,0.5,0.1,0.8,0.1h0.1c1.9-0.1,3.4-1.8,3.4-3.8c-0.1-1.9-1.6-3.4-3.5-3.4c-0.1,0-0.1,0-0.3,0c-0.4,0-0.6,0.1-0.9,0.1v-0.3
					c0.3,0,0.5,0.1,0.8,0.1h0.1c1.9-0.1,3.4-1.8,3.4-3.8c-0.1-1.9-1.6-3.4-3.5-3.4c-0.1,0-0.1,0-0.3,0c-0.4,0-0.6,0.1-0.9,0.1v-0.3
					c0.3,0,0.5,0.1,0.8,0.1h0.1c1.9-0.1,3.4-1.8,3.4-3.8c-0.1-1.9-1.6-3.4-3.5-3.4c-0.1,0-0.1,0-0.3,0c-0.3,0-0.6,0.1-0.9,0.1v-0.3
					c0.3,0,0.5,0.1,0.8,0.1h0.1c1.9-0.1,3.4-1.8,3.4-3.8c-0.1-1.9-1.6-3.4-3.5-3.4c-0.1,0-0.1,0-0.3,0c-0.3,0-0.6,0.1-0.9,0.1v-0.3
					c0.3,0,0.5,0.1,0.6,0.1h0.1c1.9-0.1,3.4-1.8,3.4-3.8c-0.1-1.9-1.6-3.4-3.5-3.4c-0.1,0-0.1,0-0.3,0c-0.3,0-0.5,0.1-0.9,0.1v-0.3
					c0.3,0,0.4,0,0.6,0h0.1c1.9-0.1,3.4-1.8,3.4-3.8c-0.1-1.9-1.6-3.4-3.5-3.4c-0.1,0-0.1,0-0.3,0c-0.3,0-0.5,0.1-0.8,0.1v-0.1
					c0.3,0,0.4,0,0.6,0h0.1c1.9-0.1,3.4-1.8,3.4-3.8c-0.1-1.9-1.6-3.4-3.5-3.4c-0.1,0-0.1,0-0.3,0c-0.3,0-0.5,0-0.8,0.1v-0.1
					c0.3,0,0.4,0,0.6,0h0.1c1.9-0.1,3.4-1.8,3.4-3.8c-0.1-1.9-1.6-3.4-3.5-3.4c-0.1,0-0.1,0-0.3,0c-0.3,0-0.5,0-0.8,0.1V596
					c0.1,0,0.4,0,0.5,0s0.1,0,0.3,0c1.9-0.1,3.4-1.8,3.4-3.8c-0.1-1.9-1.6-3.4-3.5-3.4c-0.1,0-0.1,0-0.3,0c-0.3,0-0.5,0-0.8,0.1
					v-0.1c0.1,0,0.4,0,0.5,0c0.1,0,0.1,0,0.3,0c1.9-0.1,3.4-1.8,3.4-3.8c-0.1-1.9-1.6-3.4-3.5-3.4c-0.1,0-0.1,0-0.3,0
					c-0.3,0-0.5,0-0.6,0.1v-0.1c0.1,0,0.4,0,0.5,0s0.1,0,0.3,0c1.9-0.1,3.4-1.8,3.4-3.8c-0.1-1.9-1.6-3.4-3.5-3.4
					c-0.1,0-0.1,0-0.3,0c-0.3,0-0.5,0-0.6,0.1v-0.1c0.1,0,0.3,0,0.5,0h0.1c1.9-0.1,3.4-1.8,3.4-3.8c-0.1-1.9-1.6-3.4-3.5-3.4
					c-0.1,0-0.1,0-0.3,0c-0.3,0-0.4,0-0.6,0.1v-0.1c0.1,0,0.3,0,0.5,0h0.1c1.9-0.1,3.4-1.8,3.4-3.8c-0.1-1.9-1.6-3.4-3.5-3.4
					c-0.1,0-0.1,0-0.3,0c-0.3,0-0.4,0-0.6,0.1v-0.1c0.1,0,0.3,0,0.4,0h0.1c1.9-0.1,3.4-1.8,3.4-3.8c-0.1-1.9-1.6-3.4-3.5-3.4
					c-0.1,0-0.1,0-0.3,0c-0.3,0-0.4,0-0.6,0.1v-0.1c0.1,0,0.3,0,0.4,0h0.1c1.9-0.1,3.4-1.8,3.4-3.8c-0.1-1.9-1.6-3.4-3.5-3.4
					c-0.1,0-0.1,0-0.3,0c-0.1,0-0.4,0-0.5,0.1v-0.1c0.1,0,0.3,0,0.4,0h0.1c1.9-0.1,3.4-1.8,3.4-3.8c-0.1-1.9-1.6-3.4-3.5-3.4
					c-0.1,0-0.1,0-0.3,0s-0.4,0-0.5,0.1v-0.1c0.1,0,0.3,0,0.4,0h0.1c1.9-0.1,3.4-1.8,3.4-3.8c-0.1-1.9-1.6-3.4-3.5-3.4
					c-0.1,0-0.1,0-0.3,0c-0.1,0-0.4,0-0.5,0.1v-0.1c0.1,0,0.3,0,0.4,0h0.1c1.9-0.1,3.4-1.8,3.4-3.8c-0.1-1.9-1.6-3.4-3.5-3.4
					c-0.1,0-0.1,0-0.3,0c-0.1,0-0.3,0-0.5,0v-0.1c0.1,0,0.3,0,0.3,0h0.1c1.9-0.1,3.4-1.8,3.4-3.8c-0.1-1.9-1.6-3.4-3.5-3.4
					c-0.1,0-0.1,0-0.3,0s-0.3,0-0.4,0l0,0c0.1,0,0.1,0,0.3,0h0.1c1.9-0.1,3.4-1.8,3.4-3.8c-0.1-1.9-1.6-3.4-3.5-3.4
					c-0.1,0-0.1,0-0.3,0c-0.1,0-0.3,0-0.4,0l0,0c0.1,0,0.1,0,0.3,0h0.1c1.9-0.1,3.4-1.8,3.4-3.8c-0.1-1.9-1.6-3.4-3.5-3.4
					c-0.1,0-0.1,0-0.3,0s-0.3,0-0.4,0l0,0h0.1c0.1,0,0.1,0,0.3,0c1.9-0.1,3.4-1.8,3.4-3.8c-0.1-1.9-1.6-3.4-3.5-3.4
					c-0.1,0-0.1,0-0.3,0c-0.1,0-0.3,0-0.4,0l0,0h0.1h0.1c1.9-0.1,3.4-1.8,3.4-3.8c-0.1-1.9-1.6-3.4-3.5-3.4c-0.1,0-0.1,0-0.3,0
					s-0.3,0-0.3,0l0,0h0.1h0.1c1.9-0.1,3.4-1.8,3.4-3.8c0-0.1,0-0.3,0-0.4c4-4.9,6.3-11.2,5.9-17.8
					C512.4,451.4,501.1,440.9,487.5,440.9L487.5,440.9z"/>
			</g>
		</g>
	</g>
	<g>
		<g>
			<g>
				<path fill="#CDEAFF" d="M141.8,727.6c-6.4,0-11.5-5-11.9-11.3l-11-214.8c-0.1-3.3,0.9-6.3,3.1-8.7c2.1-2.4,5.1-3.8,8.3-3.9
					l332.4-13.2c0.1,0,0.4,0,0.5,0c6.4,0,11.5,5,11.9,11.3l10.7,209.8c0.4,6.5-4.8,12.2-11.3,12.5l-332,18.2
					C142.3,727.6,142.1,727.6,141.8,727.6z"/>
			</g>
		</g>
		<g>
			<g>
				<path fill="#151D25" d="M463.2,477.1c5.6,0,10.3,4.4,10.5,10L484.4,697c0.3,5.8-4.1,10.8-10,11.2l-332,18.2c-0.3,0-0.4,0-0.6,0
					c-5.6,0-10.3-4.4-10.5-10l-11-214.8c-0.3-5.9,4.3-10.9,10.2-11.2l332.3-13.2C462.8,477.1,463.1,477.1,463.2,477.1 M463.2,474.5
					L463.2,474.5c-0.1,0-0.4,0-0.5,0l-332.3,13.2c-3.5,0.1-6.9,1.6-9.3,4.3c-2.4,2.6-3.6,6-3.4,9.7l11,214.8
					c0.4,7,6.1,12.5,13.2,12.5c0.3,0,0.5,0,0.8,0l332-18.2c7.3-0.4,12.9-6.7,12.5-13.9l-10.9-209.8C476,480,470.2,474.5,463.2,474.5
					L463.2,474.5z"/>
			</g>
		</g>
	</g>
</g>
<g opacity="0.31">
	<g>
		<path fill="#ADC2D1" d="M128.8,666.9l-8.5-165.5c-0.3-5.9,4.3-10.9,10.2-11.2L462.7,477c5.8-0.3,10.7,4.3,11,10v0.1
			c0.1,3.6,1.9,41.9,1.9,41.9s-104,45.8-160.4,66.9C230.8,627.9,128.8,666.9,128.8,666.9z"/>
	</g>
</g>
<g>
	<defs>
		<path id="SVGID_1_" d="M474.5,708.2l-332,18.2c-5.9,0.4-10.9-4.1-11.2-10l-11-214.8c-0.3-5.9,4.3-10.9,10.2-11.2l332.3-13.2
			c5.8-0.3,10.7,4.3,11,10L484.4,697C484.8,702.9,480.3,707.8,474.5,708.2z"/>
	</defs>
	<defs>
		<path id="SVGID_2_" d="M474.5,708.2l-332,18.2c-5.9,0.4-10.9-4.1-11.2-10l-11-214.8c-0.3-5.9,4.3-10.9,10.2-11.2l332.3-13.2
			c5.8-0.3,10.7,4.3,11,10L484.4,697C484.8,702.9,480.3,707.8,474.5,708.2z"/>
	</defs>
	<clipPath id="SVGID_3_">
		<use xlink:href="#SVGID_1_"  overflow="visible"/>
	</clipPath>
	<clipPath id="SVGID_4_" clip-path="url(#SVGID_3_)">
		<use xlink:href="#SVGID_2_"  overflow="visible"/>
	</clipPath>
	<g clip-path="url(#SVGID_4_)">
		<g>
			<path fill="#1987C7" d="M125.2,657c23.5,20.2,78.8,22.2,105.3,9.3c15.8-7.7,23.7-19.1,33.3-31.9c17.9,17.2,48.1,31.9,73.7,30.2
				c25.7-1.6,51.6-19.1,67.6-40c16.8,8.9,31,17.3,50.6,20c11.4,2.6,21.6,1.7,32.6-0.1l4.3,65.4l-365.7,20L125.2,657z"/>
		</g>
	</g>
	<g clip-path="url(#SVGID_4_)">
		<g>
			<path fill="#2BA3DC" d="M124,662c23.5,20.2,78.8,22.2,105.3,9.3c15.8-7.7,21.7-22,34.4-31.9c17.9,17.2,47.1,31.9,72.7,30.2
				c25.7-1.6,50.9-24.1,68.8-41c16.8,8.9,30,18.3,49.6,21c11.2,1.5,21.5,1.1,32.6-0.1l4.3,65.4l-365.7,20L124,662z"/>
		</g>
	</g>
</g>
<g opacity="0.1">
	<g>
		<path d="M246.3,578.3c-1.9,0.1-3.8,0.4-5.6,0.9c0-0.6,0-1.3,0-2c-0.9-15.8-14.3-28-30.1-27.1c-13.3,0.8-24,10.4-26.5,22.8
			c-4-2.3-8.8-3.5-13.8-3.3c-13.3,0.8-23.6,11.4-24.1,24.5c-2.9-1.1-6-1.6-9.3-1.4c-12.7,0.6-22.5,11.5-21.8,24.2
			c0.6,11.8,9.9,21,21.5,21.7v0.1l111.8-6l0,0c0.4,0,0.8,0,1.1,0c15.1-0.8,26.6-13.7,25.9-28.7C274.3,589.1,261.4,577.5,246.3,578.3
			z"/>
	</g>
</g>
<g>
	<g>
		<path fill="#FFFFFF" d="M244.2,574c-1.9,0.1-3.8,0.4-5.6,0.9c0-0.6,0-1.3,0-2c-0.9-15.8-14.3-28-30.1-27.1
			c-13.3,0.8-24,10.4-26.5,22.8c-4-2.3-8.8-3.5-13.8-3.3c-13.3,0.8-23.6,11.4-24.1,24.5c-2.9-1.1-6-1.6-9.3-1.4
			c-12.7,0.6-22.5,11.5-21.8,24.2c0.6,11.8,9.9,21,21.5,21.7v0.1l111.8-6l0,0c0.4,0,0.8,0,1.1,0c15.1-0.8,26.6-13.7,25.9-28.7
			C272.2,584.8,259.3,573.3,244.2,574z"/>
	</g>
</g>
<g>
	<g>
		<path fill="#FFFFFF" d="M330,549.8L330,549.8C329.9,549.8,329.9,549.8,330,549.8c-0.4-4.3-3.9-7.5-8.2-7.3c-3.4,0.1-6.3,2.6-7,5.8
			c-0.9-0.5-2-0.8-3-0.8c-3,0.1-5.4,2.8-5.3,5.8c0,0.3,0,0.4,0.1,0.6c-0.9-0.4-1.9-0.6-2.9-0.5c-3.3,0.1-5.8,3-5.6,6.3
			c0.1,3.3,3,5.8,6.3,5.6l0,0l26.5-1.4c3.9-0.3,6.9-3.5,6.7-7.4C337.3,552.7,333.9,549.6,330,549.8z"/>
	</g>
</g>
<g>
	<g>
		<circle fill="#FFCD00" cx="395.4" cy="530.9" r="34.9"/>
	</g>
</g>
<g opacity="5.000000e-02">
	<g>
		<g>
			<path d="M397.3,565.6c17.9-1,32-15.4,32.9-33c-4.1-5.1-10.5-8.4-17.7-7.9c-11.7,0.6-20.6,10.5-20,22.2c0,0.5,0.1,1,0.1,1.5
				c-1.4-0.3-2.8-0.3-4.1-0.3c-6.7,0.4-12.4,4-15.8,9.2C379.4,563,388,566.1,397.3,565.6z"/>
		</g>
	</g>
</g>
<g opacity="0.1">
	<g>
		<path d="M374.8,578c0.6,11,10,19.6,21.2,18.9c0.3,0,0.6,0,0.9-0.1l0,0l82.2-4.4v-0.1c8.3-1.5,14.4-8.9,13.9-17.6
			c-0.5-9.4-8.5-16.6-17.8-16.1c-2.4,0.1-4.6,0.8-6.7,1.8c-1.4-9.4-9.8-16.4-19.6-15.9c-3.6,0.3-7,1.5-9.9,3.4
			c-2.9-8.9-11.4-15.2-21.2-14.6c-11.7,0.6-20.6,10.5-20,22.2c0,0.5,0.1,1,0.1,1.5c-1.4-0.3-2.8-0.3-4.1-0.3
			C382.7,557.5,374.2,566.9,374.8,578z"/>
	</g>
</g>
<g>
	<g>
		<path fill="#FFFFFF" d="M370.7,574.5c0.6,11,10,19.6,21.2,18.9c0.3,0,0.6,0,0.9-0.1l0,0L475,589v-0.1c8.3-1.5,14.4-8.9,13.9-17.6
			c-0.5-9.4-8.5-16.6-17.8-16.1c-2.4,0.1-4.6,0.8-6.7,1.8c-1.4-9.4-9.8-16.4-19.6-15.9c-3.6,0.3-7,1.5-9.9,3.4
			c-2.9-8.9-11.4-15.2-21.2-14.6c-11.7,0.6-20.6,10.5-20,22.2c0,0.5,0.1,1,0.1,1.5c-1.4-0.3-2.8-0.3-4.1-0.3
			C378.6,553.9,370.1,563.4,370.7,574.5z"/>
	</g>
</g>
<g>
	<g>
		<circle fill="#FC4E2A" cx="321.8" cy="313.7" r="8.5"/>
	</g>
</g>
<g opacity="0.2">
	<g>
		<circle cx="321.8" cy="316" r="8.5"/>
	</g>
</g>
<g>
	<g>
		<circle fill="#FC4E2A" cx="321.8" cy="313.7" r="8.5"/>
	</g>
</g>
<g>
	<g>
		<circle fill="#FC4E2A" cx="321.8" cy="313.7" r="7.9"/>
	</g>
</g>
<g opacity="0.6">
	<path fill="#FFFFFF" d="M321.8,308.2c2.9,0,5.4,1.5,6.8,3.7c-0.8-3-3.5-5.2-6.8-5.2c-3.3,0-6,2.2-6.8,5.2
		C316.3,309.7,318.8,308.2,321.8,308.2z"/>
</g>
</svg>
