<?xml version="1.0" encoding="utf-8"?>
<!-- Generator: Adobe Illustrator 17.1.0, SVG Export Plug-In . SVG Version: 6.00 Build 0)  -->
<!DOCTYPE svg PUBLIC "-//W3C//DTD SVG 1.1//EN" "http://www.w3.org/Graphics/SVG/1.1/DTD/svg11.dtd">
<svg version="1.1" id="Layer_1" xmlns="http://www.w3.org/2000/svg" xmlns:xlink="http://www.w3.org/1999/xlink" x="0px" y="0px"
	 viewBox="0 0 640 640" enable-background="new 0 0 640 640" xml:space="preserve">
<g>
	<g>
		<g>
			<path fill="#FFFFFF" d="M25.6,262c0-3.3-2.7-6-6-6H6c-3.3,0-6,2.7-6,6v13.6c0,3.3,2.7,6,6,6h13.6c3.3,0,6-2.7,6-6V262z"/>
		</g>
		<g>
			<path fill="#FFFFFF" d="M6,384c-3.3,0-6,2.7-6,6v13.6c0,3.3,2.7,6,6,6h13.6c3.3,0,6-2.7,6-6V390c0-3.3-2.7-6-6-6H6z"/>
		</g>
		<g>
			<path fill="#FFFFFF" d="M45.2,179.2c3.3,0,8.7,0,12,0h13.6c3.3,0,8.7,0,12,0h13.6c3.3,0,8.7,0,12,0H122c3.3,0,8.7,0,12,0h13.6
				c3.3,0,8.7,0,12,0h13.6c3.3,0,6-2.7,6-6V6c0-3.3-2.7-6-6-6h-13.6c-3.3,0-8.7,0-12,0H134c-3.3,0-8.7,0-12,0h-13.6
				c-3.3,0-8.7,0-12,0H82.8c-3.3,0-8.7,0-12,0H57.2c-3.3,0-8.7,0-12,0H31.6c-3.3,0-8.7,0-12,0H6C2.7,0,0,2.7,0,6v167.2
				c0,3.3,2.7,6,6,6h13.6c3.3,0,8.7,0,12,0H45.2z M25.6,31.6c0-3.3,2.7-6,6-6h13.6c3.3,0,8.7,0,12,0h13.6c3.3,0,8.7,0,12,0h13.6
				c3.3,0,8.7,0,12,0H122c3.3,0,8.7,0,12,0h13.6c3.3,0,6,2.7,6,6v116c0,3.3-2.7,6-6,6H134c-3.3,0-8.7,0-12,0h-13.6
				c-3.3,0-8.7,0-12,0H82.8c-3.3,0-8.7,0-12,0H57.2c-3.3,0-8.7,0-12,0H31.6c-3.3,0-6-2.7-6-6V31.6z"/>
		</g>
		<g>
			<path fill="#FFFFFF" d="M51.2,338.8c0-3.3-2.7-6-6-6H31.6c-3.3,0-8.7,0-12,0H6c-3.3,0-6,2.7-6,6v13.6c0,3.3,2.7,6,6,6h13.6
				c3.3,0,6,2.7,6,6V378c0,3.3,2.7,6,6,6h13.6c3.3,0,6-2.7,6-6V338.8z"/>
		</g>
		<g>
			<path fill="#FFFFFF" d="M25.6,429.2c0,3.3,2.7,6,6,6h13.6c3.3,0,6-2.7,6-6v-13.6c0-3.3-2.7-6-6-6H31.6c-3.3,0-6,2.7-6,6V429.2z"
				/>
		</g>
		<g>
			<path fill="#FFFFFF" d="M76.8,287.6c0-3.3-2.7-6-6-6H57.2c-3.3,0-6,2.7-6,6v39.2c0,3.3,2.7,6,6,6h13.6c3.3,0,6-2.7,6-6V287.6z"/>
		</g>
		<g>
			<path fill="#FFFFFF" d="M57.2,384c-3.3,0-6,2.7-6,6v13.6c0,3.3,2.7,6,6,6h13.6c3.3,0,6-2.7,6-6V390c0-3.3-2.7-6-6-6H57.2z"/>
		</g>
		<g>
			<path fill="#FFFFFF" d="M96.4,128c3.3,0,8.7,0,12,0H122c3.3,0,6-2.7,6-6V57.2c0-3.3-2.7-6-6-6h-13.6c-3.3,0-8.7,0-12,0H82.8
				c-3.3,0-8.7,0-12,0H57.2c-3.3,0-6,2.7-6,6V122c0,3.3,2.7,6,6,6h13.6c3.3,0,8.7,0,12,0H96.4z"/>
		</g>
		<g>
			<path fill="#FFFFFF" d="M102.4,236.4c0-3.3-2.7-6-6-6H82.8c-3.3,0-6-2.7-6-6v-13.6c0-3.3-2.7-6-6-6H57.2c-3.3,0-8.7,0-12,0H31.6
				c-3.3,0-8.7,0-12,0H6c-3.3,0-6,2.7-6,6v13.6c0,3.3,2.7,6,6,6h13.6c3.3,0,8.7,0,12,0h13.6c3.3,0,6,2.7,6,6V250c0,3.3,2.7,6,6,6
				h13.6c3.3,0,6,2.7,6,6v13.6c0,3.3,2.7,6,6,6h13.6c3.3,0,6-2.7,6-6V236.4z"/>
		</g>
		<g>
			<path fill="#FFFFFF" d="M76.8,429.2c0,3.3,2.7,6,6,6h13.6c3.3,0,6-2.7,6-6v-13.6c0-3.3-2.7-6-6-6H82.8c-3.3,0-6,2.7-6,6V429.2z"
				/>
		</g>
		<g>
			<path fill="#FFFFFF" d="M82.8,512c-3.3,0-8.7,0-12,0H57.2c-3.3,0-6,2.7-6,6v64.8c0,3.3,2.7,6,6,6h13.6c3.3,0,8.7,0,12,0h13.6
				c3.3,0,8.7,0,12,0H122c3.3,0,6-2.7,6-6V518c0-3.3-2.7-6-6-6h-13.6c-3.3,0-8.7,0-12,0H82.8z"/>
		</g>
		<g>
			<path fill="#FFFFFF" d="M147.6,230.4c3.3,0,8.7,0,12,0h13.6c3.3,0,8.7,0,12,0h13.6c3.3,0,6,2.7,6,6V250c0,3.3,2.7,6,6,6h13.6
				c3.3,0,8.7,0,12,0H250c3.3,0,6-2.7,6-6v-13.6c0-3.3-2.7-6-6-6h-13.6c-3.3,0-6-2.7-6-6v-64.8c0-3.3-2.7-6-6-6h-13.6
				c-3.3,0-6,2.7-6,6v39.2c0,3.3-2.7,6-6,6h-13.6c-3.3,0-8.7,0-12,0h-13.6c-3.3,0-8.7,0-12,0H134c-3.3,0-8.7,0-12,0h-13.6
				c-3.3,0-6,2.7-6,6v13.6c0,3.3,2.7,6,6,6H122c3.3,0,8.7,0,12,0H147.6z"/>
		</g>
		<g>
			<path fill="#FFFFFF" d="M153.6,338.8c0-3.3,2.7-6,6-6h13.6c3.3,0,6-2.7,6-6v-13.6c0-3.3-2.7-6-6-6h-13.6c-3.3,0-6-2.7-6-6v-13.6
				c0-3.3-2.7-6-6-6H134c-3.3,0-8.7,0-12,0h-13.6c-3.3,0-6,2.7-6,6v13.6c0,3.3,2.7,6,6,6H122c3.3,0,6,2.7,6,6v39.2c0,3.3,2.7,6,6,6
				h13.6c3.3,0,6-2.7,6-6V338.8z"/>
		</g>
		<g>
			<path fill="#FFFFFF" d="M134,460.8c-3.3,0-8.7,0-12,0h-13.6c-3.3,0-8.7,0-12,0H82.8c-3.3,0-8.7,0-12,0H57.2c-3.3,0-8.7,0-12,0
				H31.6c-3.3,0-8.7,0-12,0H6c-3.3,0-6,2.7-6,6V634c0,3.3,2.7,6,6,6h13.6c3.3,0,8.7,0,12,0h13.6c3.3,0,8.7,0,12,0h13.6
				c3.3,0,8.7,0,12,0h13.6c3.3,0,8.7,0,12,0H122c3.3,0,8.7,0,12,0h13.6c3.3,0,8.7,0,12,0h13.6c3.3,0,6-2.7,6-6V466.8
				c0-3.3-2.7-6-6-6h-13.6c-3.3,0-8.7,0-12,0H134z M153.6,608.4c0,3.3-2.7,6-6,6H134c-3.3,0-8.7,0-12,0h-13.6c-3.3,0-8.7,0-12,0
				H82.8c-3.3,0-8.7,0-12,0H57.2c-3.3,0-8.7,0-12,0H31.6c-3.3,0-6-2.7-6-6v-116c0-3.3,2.7-6,6-6h13.6c3.3,0,8.7,0,12,0h13.6
				c3.3,0,8.7,0,12,0h13.6c3.3,0,8.7,0,12,0H122c3.3,0,8.7,0,12,0h13.6c3.3,0,6,2.7,6,6V608.4z"/>
		</g>
		<g>
			<path fill="#FFFFFF" d="M179.2,262c0-3.3-2.7-6-6-6h-13.6c-3.3,0-6,2.7-6,6v13.6c0,3.3,2.7,6,6,6h13.6c3.3,0,6-2.7,6-6V262z"/>
		</g>
		<g>
			<path fill="#FFFFFF" d="M159.6,358.4c-3.3,0-6,2.7-6,6V378c0,3.3,2.7,6,6,6h13.6c3.3,0,6-2.7,6-6v-13.6c0-3.3-2.7-6-6-6H159.6z"
				/>
		</g>
		<g>
			<path fill="#FFFFFF" d="M185.2,281.6c-3.3,0-6,2.7-6,6v13.6c0,3.3,2.7,6,6,6h13.6c3.3,0,6-2.7,6-6v-13.6c0-3.3-2.7-6-6-6H185.2z"
				/>
		</g>
		<g>
			<path fill="#FFFFFF" d="M210.8,51.2c-3.3,0-6,2.7-6,6v13.6c0,3.3,2.7,6,6,6h13.6c3.3,0,6-2.7,6-6V57.2c0-3.3-2.7-6-6-6H210.8z"/>
		</g>
		<g>
			<path fill="#FFFFFF" d="M224.4,409.6c3.3,0,6-2.7,6-6v-90.4c0-3.3-2.7-6-6-6h-13.6c-3.3,0-6,2.7-6,6V378c0,3.3-2.7,6-6,6h-13.6
				c-3.3,0-6,2.7-6,6v13.6c0,3.3-2.7,6-6,6h-13.6c-3.3,0-6-2.7-6-6V390c0-3.3-2.7-6-6-6H134c-3.3,0-6-2.7-6-6v-13.6c0-3.3-2.7-6-6-6
				h-13.6c-3.3,0-8.7,0-12,0H82.8c-3.3,0-6,2.7-6,6V378c0,3.3,2.7,6,6,6h13.6c3.3,0,6,2.7,6,6v13.6c0,3.3,2.7,6,6,6H122
				c3.3,0,6,2.7,6,6v13.6c0,3.3,2.7,6,6,6h13.6c3.3,0,8.7,0,12,0h13.6c3.3,0,8.7,0,12,0h13.6c3.3,0,6-2.7,6-6v-13.6c0-3.3,2.7-6,6-6
				H224.4z"/>
		</g>
		<g>
			<path fill="#FFFFFF" d="M256,31.6c0-3.3-2.7-6-6-6h-13.6c-3.3,0-6,2.7-6,6v13.6c0,3.3,2.7,6,6,6H250c3.3,0,6-2.7,6-6V31.6z"/>
		</g>
		<g>
			<path fill="#FFFFFF" d="M236.4,76.8c-3.3,0-6,2.7-6,6V122c0,3.3,2.7,6,6,6H250c3.3,0,6-2.7,6-6V82.8c0-3.3-2.7-6-6-6H236.4z"/>
		</g>
		<g>
			<path fill="#FFFFFF" d="M236.4,281.6c-3.3,0-6,2.7-6,6v13.6c0,3.3,2.7,6,6,6H250c3.3,0,6,2.7,6,6v39.2c0,3.3,2.7,6,6,6h13.6
				c3.3,0,8.7,0,12,0h13.6c3.3,0,6-2.7,6-6v-39.2c0-3.3-2.7-6-6-6h-13.6c-3.3,0-6-2.7-6-6v-13.6c0-3.3,2.7-6,6-6h13.6
				c3.3,0,6,2.7,6,6v13.6c0,3.3,2.7,6,6,6h13.6c3.3,0,8.7,0,12,0h13.6c3.3,0,6-2.7,6-6v-13.6c0-3.3,2.7-6,6-6H378c3.3,0,6-2.7,6-6
				v-39.2c0-3.3-2.7-6-6-6h-13.6c-3.3,0-6-2.7-6-6v-39.2c0-3.3-2.7-6-6-6h-13.6c-3.3,0-6,2.7-6,6v13.6c0,3.3-2.7,6-6,6h-13.6
				c-3.3,0-6,2.7-6,6v13.6c0,3.3-2.7,6-6,6h-13.6c-3.3,0-6,2.7-6,6V250c0,3.3-2.7,6-6,6H262c-3.3,0-6,2.7-6,6v13.6c0,3.3-2.7,6-6,6
				H236.4z"/>
		</g>
		<g>
			<path fill="#FFFFFF" d="M281.6,6c0-3.3-2.7-6-6-6H262c-3.3,0-6,2.7-6,6v13.6c0,3.3,2.7,6,6,6h13.6c3.3,0,6-2.7,6-6V6z"/>
		</g>
		<g>
			<path fill="#FFFFFF" d="M262,409.6c-3.3,0-6,2.7-6,6v13.6c0,3.3,2.7,6,6,6h13.6c3.3,0,6-2.7,6-6v-13.6c0-3.3-2.7-6-6-6H262z"/>
		</g>
		<g>
			<path fill="#FFFFFF" d="M287.6,51.2c-3.3,0-6,2.7-6,6v13.6c0,3.3,2.7,6,6,6h13.6c3.3,0,6-2.7,6-6V57.2c0-3.3-2.7-6-6-6H287.6z"/>
		</g>
		<g>
			<path fill="#FFFFFF" d="M301.2,153.6c3.3,0,6,2.7,6,6v13.6c0,3.3,2.7,6,6,6h13.6c3.3,0,6-2.7,6-6v-13.6c0-3.3,2.7-6,6-6h13.6
				c3.3,0,6-2.7,6-6v-39.2c0-3.3-2.7-6-6-6h-13.6c-3.3,0-6-2.7-6-6V82.8c0-3.3-2.7-6-6-6h-13.6c-3.3,0-6,2.7-6,6V122
				c0,3.3-2.7,6-6,6h-13.6c-3.3,0-8.7,0-12,0H262c-3.3,0-6,2.7-6,6v39.2c0,3.3,2.7,6,6,6h13.6c3.3,0,6-2.7,6-6v-13.6
				c0-3.3,2.7-6,6-6H301.2z"/>
		</g>
		<g>
			<path fill="#FFFFFF" d="M287.6,179.2c-3.3,0-6,2.7-6,6v13.6c0,3.3,2.7,6,6,6h13.6c3.3,0,6-2.7,6-6v-13.6c0-3.3-2.7-6-6-6H287.6z"
				/>
		</g>
		<g>
			<path fill="#FFFFFF" d="M287.6,384c-3.3,0-6,2.7-6,6v13.6c0,3.3,2.7,6,6,6h13.6c3.3,0,6-2.7,6-6V390c0-3.3-2.7-6-6-6H287.6z"/>
		</g>
		<g>
			<path fill="#FFFFFF" d="M281.6,557.2c0,3.3,2.7,6,6,6h13.6c3.3,0,6-2.7,6-6V518c0-3.3-2.7-6-6-6h-13.6c-3.3,0-6,2.7-6,6V557.2z"
				/>
		</g>
		<g>
			<path fill="#FFFFFF" d="M326.8,640c3.3,0,6-2.7,6-6v-13.6c0-3.3-2.7-6-6-6h-13.6c-3.3,0-6,2.7-6,6V634c0,3.3,2.7,6,6,6H326.8z"/>
		</g>
		<g>
			<path fill="#FFFFFF" d="M358.4,364.4c0-3.3-2.7-6-6-6h-13.6c-3.3,0-6,2.7-6,6V378c0,3.3,2.7,6,6,6h13.6c3.3,0,6-2.7,6-6V364.4z"
				/>
		</g>
		<g>
			<path fill="#FFFFFF" d="M332.8,582.8c0,3.3,2.7,6,6,6h13.6c3.3,0,6-2.7,6-6v-13.6c0-3.3-2.7-6-6-6h-13.6c-3.3,0-6,2.7-6,6V582.8z
				"/>
		</g>
		<g>
			<path fill="#FFFFFF" d="M384,57.2c0-3.3,2.7-6,6-6h13.6c3.3,0,6-2.7,6-6V6c0-3.3-2.7-6-6-6H390c-3.3,0-8.7,0-12,0h-13.6
				c-3.3,0-8.7,0-12,0h-13.6c-3.3,0-6,2.7-6,6v39.2c0,3.3,2.7,6,6,6h13.6c3.3,0,6,2.7,6,6v39.2c0,3.3,2.7,6,6,6H378c3.3,0,6-2.7,6-6
				V57.2z"/>
		</g>
		<g>
			<path fill="#FFFFFF" d="M358.4,173.2c0,3.3,2.7,6,6,6H378c3.3,0,6-2.7,6-6v-13.6c0-3.3-2.7-6-6-6h-13.6c-3.3,0-6,2.7-6,6V173.2z"
				/>
		</g>
		<g>
			<path fill="#FFFFFF" d="M364.4,307.2c-3.3,0-6,2.7-6,6v13.6c0,3.3,2.7,6,6,6H378c3.3,0,8.7,0,12,0h13.6c3.3,0,6-2.7,6-6v-39.2
				c0-3.3-2.7-6-6-6H390c-3.3,0-6,2.7-6,6v13.6c0,3.3-2.7,6-6,6H364.4z"/>
		</g>
		<g>
			<path fill="#FFFFFF" d="M403.6,153.6c3.3,0,6,2.7,6,6v13.6c0,3.3,2.7,6,6,6h13.6c3.3,0,6-2.7,6-6V134c0-3.3-2.7-6-6-6h-13.6
				c-3.3,0-6-2.7-6-6v-13.6c0-3.3-2.7-6-6-6H390c-3.3,0-6,2.7-6,6v39.2c0,3.3,2.7,6,6,6H403.6z"/>
		</g>
		<g>
			<path fill="#FFFFFF" d="M429.2,76.8c3.3,0,6-2.7,6-6V57.2c0-3.3-2.7-6-6-6h-13.6c-3.3,0-6,2.7-6,6v13.6c0,3.3,2.7,6,6,6H429.2z"
				/>
		</g>
		<g>
			<path fill="#FFFFFF" d="M415.6,588.8c-3.3,0-6,2.7-6,6v13.6c0,3.3-2.7,6-6,6H390c-3.3,0-6,2.7-6,6V634c0,3.3,2.7,6,6,6h13.6
				c3.3,0,8.7,0,12,0h13.6c3.3,0,6-2.7,6-6v-13.6c0-3.3,2.7-6,6-6h13.6c3.3,0,6-2.7,6-6v-13.6c0-3.3-2.7-6-6-6h-13.6
				c-3.3,0-8.7,0-12,0H415.6z"/>
		</g>
		<g>
			<path fill="#FFFFFF" d="M480.4,281.6c3.3,0,6-2.7,6-6v-64.8c0-3.3-2.7-6-6-6h-13.6c-3.3,0-8.7,0-12,0h-13.6c-3.3,0-6,2.7-6,6
				v13.6c0,3.3-2.7,6-6,6h-13.6c-3.3,0-6,2.7-6,6V250c0,3.3,2.7,6,6,6h13.6c3.3,0,6,2.7,6,6v39.2c0,3.3,2.7,6,6,6h13.6
				c3.3,0,6-2.7,6-6v-13.6c0-3.3,2.7-6,6-6H480.4z"/>
		</g>
		<g>
			<path fill="#FFFFFF" d="M460.8,480.4c0,3.3,2.7,6,6,6h13.6c3.3,0,6-2.7,6-6v-13.6c0-3.3-2.7-6-6-6h-13.6c-3.3,0-6,2.7-6,6V480.4z
				"/>
		</g>
		<g>
			<path fill="#FFFFFF" d="M486.4,634c0,3.3,2.7,6,6,6H506c3.3,0,6-2.7,6-6v-13.6c0-3.3-2.7-6-6-6h-13.6c-3.3,0-6,2.7-6,6V634z"/>
		</g>
		<g>
			<path fill="#FFFFFF" d="M543.6,51.2c-3.3,0-8.7,0-12,0H518c-3.3,0-6,2.7-6,6V122c0,3.3,2.7,6,6,6h13.6c3.3,0,8.7,0,12,0h13.6
				c3.3,0,8.7,0,12,0h13.6c3.3,0,6-2.7,6-6V57.2c0-3.3-2.7-6-6-6h-13.6c-3.3,0-8.7,0-12,0H543.6z"/>
		</g>
		<g>
			<path fill="#FFFFFF" d="M563.2,313.2c0-3.3-2.7-6-6-6h-13.6c-3.3,0-6,2.7-6,6v39.2c0,3.3,2.7,6,6,6h13.6c3.3,0,6-2.7,6-6V313.2z"
				/>
		</g>
		<g>
			<path fill="#FFFFFF" d="M537.6,403.6c0,3.3-2.7,6-6,6H518c-3.3,0-6-2.7-6-6V390c0-3.3,2.7-6,6-6h13.6c3.3,0,6-2.7,6-6v-13.6
				c0-3.3-2.7-6-6-6H518c-3.3,0-8.7,0-12,0h-13.6c-3.3,0-6,2.7-6,6V378c0,3.3-2.7,6-6,6h-13.6c-3.3,0-6-2.7-6-6v-13.6
				c0-3.3,2.7-6,6-6h13.6c3.3,0,6-2.7,6-6v-13.6c0-3.3,2.7-6,6-6H506c3.3,0,6-2.7,6-6v-39.2c0-3.3-2.7-6-6-6h-13.6c-3.3,0-6,2.7-6,6
				v13.6c0,3.3-2.7,6-6,6h-13.6c-3.3,0-6,2.7-6,6v13.6c0,3.3-2.7,6-6,6h-13.6c-3.3,0-8.7,0-12,0h-13.6c-3.3,0-6,2.7-6,6v13.6
				c0,3.3,2.7,6,6,6h13.6c3.3,0,6,2.7,6,6V378c0,3.3-2.7,6-6,6h-13.6c-3.3,0-6,2.7-6,6v13.6c0,3.3-2.7,6-6,6H390c-3.3,0-6,2.7-6,6
				v39.2c0,3.3-2.7,6-6,6h-13.6c-3.3,0-6,2.7-6,6v13.6c0,3.3-2.7,6-6,6h-13.6c-3.3,0-6-2.7-6-6v-13.6c0-3.3,2.7-6,6-6h13.6
				c3.3,0,6-2.7,6-6v-13.6c0-3.3-2.7-6-6-6h-13.6c-3.3,0-6-2.7-6-6v-13.6c0-3.3-2.7-6-6-6h-13.6c-3.3,0-6,2.7-6,6v13.6
				c0,3.3-2.7,6-6,6h-13.6c-3.3,0-6,2.7-6,6v13.6c0,3.3-2.7,6-6,6H262c-3.3,0-6-2.7-6-6v-13.6c0-3.3-2.7-6-6-6h-13.6
				c-3.3,0-8.7,0-12,0h-13.6c-3.3,0-6,2.7-6,6v90.4c0,3.3,2.7,6,6,6h13.6c3.3,0,6,2.7,6,6v13.6c0,3.3-2.7,6-6,6h-13.6
				c-3.3,0-6,2.7-6,6V634c0,3.3,2.7,6,6,6h13.6c3.3,0,8.7,0,12,0H250c3.3,0,6-2.7,6-6v-13.6c0-3.3-2.7-6-6-6h-13.6c-3.3,0-6-2.7-6-6
				v-13.6c0-3.3,2.7-6,6-6H250c3.3,0,6,2.7,6,6v13.6c0,3.3,2.7,6,6,6h13.6c3.3,0,8.7,0,12,0h13.6c3.3,0,6-2.7,6-6v-13.6
				c0-3.3-2.7-6-6-6h-13.6c-3.3,0-6-2.7-6-6v-13.6c0-3.3-2.7-6-6-6H262c-3.3,0-6-2.7-6-6v-64.8c0-3.3,2.7-6,6-6h13.6
				c3.3,0,8.7,0,12,0h13.6c3.3,0,6,2.7,6,6V506c0,3.3,2.7,6,6,6h13.6c3.3,0,8.7,0,12,0h13.6c3.3,0,6,2.7,6,6v39.2c0,3.3,2.7,6,6,6
				H378c3.3,0,6-2.7,6-6V518c0-3.3,2.7-6,6-6h13.6c3.3,0,6,2.7,6,6v13.6c0,3.3,2.7,6,6,6h13.6c3.3,0,8.7,0,12,0h13.6
				c3.3,0,8.7,0,12,0h13.6c3.3,0,8.7,0,12,0H506c3.3,0,6,2.7,6,6v13.6c0,3.3-2.7,6-6,6h-13.6c-3.3,0-6,2.7-6,6v13.6c0,3.3,2.7,6,6,6
				H506c3.3,0,6,2.7,6,6v13.6c0,3.3,2.7,6,6,6h13.6c3.3,0,8.7,0,12,0h13.6c3.3,0,6-2.7,6-6v-39.2c0-3.3-2.7-6-6-6h-13.6
				c-3.3,0-6-2.7-6-6V518c0-3.3,2.7-6,6-6h13.6c3.3,0,6-2.7,6-6v-13.6c0-3.3-2.7-6-6-6h-13.6c-3.3,0-6-2.7-6-6v-13.6
				c0-3.3,2.7-6,6-6h13.6c3.3,0,8.7,0,12,0h13.6c3.3,0,6,2.7,6,6v64.8c0,3.3,2.7,6,6,6h13.6c3.3,0,8.7,0,12,0H634c3.3,0,6-2.7,6-6
				V518c0-3.3-2.7-6-6-6h-13.6c-3.3,0-6-2.7-6-6v-13.6c0-3.3,2.7-6,6-6H634c3.3,0,6-2.7,6-6v-39.2c0-3.3-2.7-6-6-6h-13.6
				c-3.3,0-8.7,0-12,0h-13.6c-3.3,0-8.7,0-12,0h-13.6c-3.3,0-6-2.7-6-6V390c0-3.3-2.7-6-6-6h-13.6c-3.3,0-6,2.7-6,6V403.6z M512,506
				c0,3.3-2.7,6-6,6h-13.6c-3.3,0-8.7,0-12,0h-13.6c-3.3,0-8.7,0-12,0h-13.6c-3.3,0-6-2.7-6-6v-64.8c0-3.3,2.7-6,6-6h13.6
				c3.3,0,8.7,0,12,0h13.6c3.3,0,8.7,0,12,0H506c3.3,0,6,2.7,6,6V506z"/>
		</g>
		<g>
			<path fill="#FFFFFF" d="M588.8,210.8c0-3.3-2.7-6-6-6h-13.6c-3.3,0-6,2.7-6,6v13.6c0,3.3,2.7,6,6,6h13.6c3.3,0,6-2.7,6-6V210.8z"
				/>
		</g>
		<g>
			<path fill="#FFFFFF" d="M563.2,557.2c0,3.3,2.7,6,6,6h13.6c3.3,0,6-2.7,6-6v-13.6c0-3.3-2.7-6-6-6h-13.6c-3.3,0-6,2.7-6,6V557.2z
				"/>
		</g>
		<g>
			<path fill="#FFFFFF" d="M588.8,634c0,3.3,2.7,6,6,6h13.6c3.3,0,8.7,0,12,0H634c3.3,0,6-2.7,6-6v-13.6c0-3.3-2.7-6-6-6h-13.6
				c-3.3,0-6-2.7-6-6v-13.6c0-3.3-2.7-6-6-6h-13.6c-3.3,0-6,2.7-6,6V634z"/>
		</g>
		<g>
			<path fill="#FFFFFF" d="M620.4,0c-3.3,0-8.7,0-12,0h-13.6c-3.3,0-8.7,0-12,0h-13.6c-3.3,0-8.7,0-12,0h-13.6c-3.3,0-8.7,0-12,0
				H518c-3.3,0-8.7,0-12,0h-13.6c-3.3,0-8.7,0-12,0h-13.6c-3.3,0-6,2.7-6,6v167.2c0,3.3,2.7,6,6,6h13.6c3.3,0,8.7,0,12,0H506
				c3.3,0,8.7,0,12,0h13.6c3.3,0,8.7,0,12,0h13.6c3.3,0,8.7,0,12,0h13.6c3.3,0,8.7,0,12,0h13.6c3.3,0,8.7,0,12,0H634
				c3.3,0,6-2.7,6-6V6c0-3.3-2.7-6-6-6H620.4z M614.4,147.6c0,3.3-2.7,6-6,6h-13.6c-3.3,0-8.7,0-12,0h-13.6c-3.3,0-8.7,0-12,0h-13.6
				c-3.3,0-8.7,0-12,0H518c-3.3,0-8.7,0-12,0h-13.6c-3.3,0-6-2.7-6-6v-116c0-3.3,2.7-6,6-6H506c3.3,0,8.7,0,12,0h13.6
				c3.3,0,8.7,0,12,0h13.6c3.3,0,8.7,0,12,0h13.6c3.3,0,8.7,0,12,0h13.6c3.3,0,6,2.7,6,6V147.6z"/>
		</g>
		<g>
			<path fill="#FFFFFF" d="M614.4,250c0,3.3-2.7,6-6,6h-13.6c-3.3,0-8.7,0-12,0h-13.6c-3.3,0-6,2.7-6,6v13.6c0,3.3,2.7,6,6,6h13.6
				c3.3,0,6,2.7,6,6v39.2c0,3.3,2.7,6,6,6h13.6c3.3,0,6,2.7,6,6v13.6c0,3.3-2.7,6-6,6h-13.6c-3.3,0-8.7,0-12,0h-13.6
				c-3.3,0-6,2.7-6,6V378c0,3.3,2.7,6,6,6h13.6c3.3,0,6,2.7,6,6v13.6c0,3.3,2.7,6,6,6h13.6c3.3,0,6-2.7,6-6V390c0-3.3,2.7-6,6-6H634
				c3.3,0,6-2.7,6-6v-64.8c0-3.3-2.7-6-6-6h-13.6c-3.3,0-6-2.7-6-6v-13.6c0-3.3,2.7-6,6-6H634c3.3,0,6-2.7,6-6v-39.2
				c0-3.3-2.7-6-6-6h-13.6c-3.3,0-6,2.7-6,6V250z"/>
		</g>
		<g>
			<path fill="#FFFFFF" d="M614.4,582.8c0,3.3,2.7,6,6,6H634c3.3,0,6-2.7,6-6v-13.6c0-3.3-2.7-6-6-6h-13.6c-3.3,0-6,2.7-6,6V582.8z"
				/>
		</g>
	</g>
</g>
</svg>
