<?xml version="1.0" encoding="utf-8"?>
<!-- Generator: Adobe Illustrator 17.1.0, SVG Export Plug-In . SVG Version: 6.00 Build 0)  -->
<!DOCTYPE svg PUBLIC "-//W3C//DTD SVG 1.1//EN" "http://www.w3.org/Graphics/SVG/1.1/DTD/svg11.dtd">
<svg version="1.1" id="Layer_1" xmlns="http://www.w3.org/2000/svg" xmlns:xlink="http://www.w3.org/1999/xlink" x="0px" y="0px"
	 viewBox="0 0 200 200" enable-background="new 0 0 200 200" xml:space="preserve">
<g>
	<g>
		<g>
			<path fill="#FFFFFF" d="M8,90c0-1.1-0.9-2-2-2H2c-1.1,0-2,0.9-2,2v12c0,1.1,0.9,2,2,2h4c1.1,0,2.9,0,4,0h4c1.1,0,2-0.9,2-2v-4
				c0-1.1-0.9-2-2-2h-4c-1.1,0-2-0.9-2-2V90z"/>
		</g>
		<g>
			<path fill="#FFFFFF" d="M14,56c1.1,0,2.9,0,4,0h4c1.1,0,2.9,0,4,0h4c1.1,0,2.9,0,4,0h4c1.1,0,2.9,0,4,0h4c1.1,0,2.9,0,4,0h4
				c1.1,0,2-0.9,2-2V2c0-1.1-0.9-2-2-2h-4c-1.1,0-2.9,0-4,0h-4c-1.1,0-2.9,0-4,0h-4c-1.1,0-2.9,0-4,0h-4c-1.1,0-2.9,0-4,0h-4
				c-1.1,0-2.9,0-4,0h-4C8.9,0,7.1,0,6,0H2C0.9,0,0,0.9,0,2v52c0,1.1,0.9,2,2,2h4c1.1,0,2.9,0,4,0H14z M8,10c0-1.1,0.9-2,2-2h4
				c1.1,0,2.9,0,4,0h4c1.1,0,2.9,0,4,0h4c1.1,0,2.9,0,4,0h4c1.1,0,2.9,0,4,0h4c1.1,0,2,0.9,2,2v36c0,1.1-0.9,2-2,2h-4
				c-1.1,0-2.9,0-4,0h-4c-1.1,0-2.9,0-4,0h-4c-1.1,0-2.9,0-4,0h-4c-1.1,0-2.9,0-4,0h-4c-1.1,0-2-0.9-2-2V10z"/>
		</g>
		<g>
			<path fill="#FFFFFF" d="M16,114c0-1.1-0.9-2-2-2h-4c-1.1,0-2,0.9-2,2v20c0,1.1,0.9,2,2,2h4c1.1,0,2-0.9,2-2v-4c0-1.1,0.9-2,2-2h4
				c1.1,0,2-0.9,2-2v-4c0-1.1-0.9-2-2-2h-4c-1.1,0-2-0.9-2-2V114z"/>
		</g>
		<g>
			<path fill="#FFFFFF" d="M18,88c-1.1,0-2,0.9-2,2v4c0,1.1,0.9,2,2,2h4c1.1,0,2-0.9,2-2v-4c0-1.1-0.9-2-2-2H18z"/>
		</g>
		<g>
			<path fill="#FFFFFF" d="M30,40c1.1,0,2.9,0,4,0h4c1.1,0,2-0.9,2-2V18c0-1.1-0.9-2-2-2h-4c-1.1,0-2.9,0-4,0h-4c-1.1,0-2.9,0-4,0
				h-4c-1.1,0-2,0.9-2,2v20c0,1.1,0.9,2,2,2h4c1.1,0,2.9,0,4,0H30z"/>
		</g>
		<g>
			<path fill="#FFFFFF" d="M26,96c-1.1,0-2,0.9-2,2v4c0,1.1,0.9,2,2,2h4c1.1,0,2-0.9,2-2v-4c0-1.1-0.9-2-2-2H26z"/>
		</g>
		<g>
			<path fill="#FFFFFF" d="M26,112c-1.1,0-2,0.9-2,2v4c0,1.1,0.9,2,2,2h4c1.1,0,2-0.9,2-2v-4c0-1.1-0.9-2-2-2H26z"/>
		</g>
		<g>
			<path fill="#FFFFFF" d="M26,160c-1.1,0-2.9,0-4,0h-4c-1.1,0-2,0.9-2,2v20c0,1.1,0.9,2,2,2h4c1.1,0,2.9,0,4,0h4c1.1,0,2.9,0,4,0h4
				c1.1,0,2-0.9,2-2v-20c0-1.1-0.9-2-2-2h-4c-1.1,0-2.9,0-4,0H26z"/>
		</g>
		<g>
			<path fill="#FFFFFF" d="M32,94c0,1.1,0.9,2,2,2h4c1.1,0,2.9,0,4,0h4c1.1,0,2-0.9,2-2v-4c0-1.1,0.9-2,2-2h4c1.1,0,2-0.9,2-2v-4
				c0-1.1-0.9-2-2-2h-4c-1.1,0-2-0.9-2-2v-4c0-1.1-0.9-2-2-2h-4c-1.1,0-2,0.9-2,2v4c0,1.1-0.9,2-2,2h-4c-1.1,0-2-0.9-2-2v-4
				c0-1.1,0.9-2,2-2h4c1.1,0,2-0.9,2-2v-4c0-1.1-0.9-2-2-2h-4c-1.1,0-2.9,0-4,0h-4c-1.1,0-2.9,0-4,0h-4c-1.1,0-2.9,0-4,0h-4
				c-1.1,0-2.9,0-4,0H2c-1.1,0-2,0.9-2,2v12c0,1.1,0.9,2,2,2h4c1.1,0,2-0.9,2-2v-4c0-1.1,0.9-2,2-2h4c1.1,0,2,0.9,2,2v4
				c0,1.1,0.9,2,2,2h4c1.1,0,2,0.9,2,2v4c0,1.1,0.9,2,2,2h4c1.1,0,2,0.9,2,2V94z"/>
		</g>
		<g>
			<path fill="#FFFFFF" d="M40,106c0-1.1-0.9-2-2-2h-4c-1.1,0-2,0.9-2,2v4c0,1.1,0.9,2,2,2h4c1.1,0,2-0.9,2-2V106z"/>
		</g>
		<g>
			<path fill="#FFFFFF" d="M34,120c-1.1,0-2,0.9-2,2v12c0,1.1,0.9,2,2,2h4c1.1,0,2-0.9,2-2v-4c0-1.1,0.9-2,2-2h4c1.1,0,2-0.9,2-2v-4
				c0-1.1-0.9-2-2-2h-4c-1.1,0-2.9,0-4,0H34z"/>
		</g>
		<g>
			<path fill="#FFFFFF" d="M42,144c-1.1,0-2.9,0-4,0h-4c-1.1,0-2.9,0-4,0h-4c-1.1,0-2.9,0-4,0h-4c-1.1,0-2.9,0-4,0h-4
				c-1.1,0-2.9,0-4,0H2c-1.1,0-2,0.9-2,2v52c0,1.1,0.9,2,2,2h4c1.1,0,2.9,0,4,0h4c1.1,0,2.9,0,4,0h4c1.1,0,2.9,0,4,0h4
				c1.1,0,2.9,0,4,0h4c1.1,0,2.9,0,4,0h4c1.1,0,2.9,0,4,0h4c1.1,0,2-0.9,2-2v-52c0-1.1-0.9-2-2-2h-4c-1.1,0-2.9,0-4,0H42z M48,190
				c0,1.1-0.9,2-2,2h-4c-1.1,0-2.9,0-4,0h-4c-1.1,0-2.9,0-4,0h-4c-1.1,0-2.9,0-4,0h-4c-1.1,0-2.9,0-4,0h-4c-1.1,0-2-0.9-2-2v-36
				c0-1.1,0.9-2,2-2h4c1.1,0,2.9,0,4,0h4c1.1,0,2.9,0,4,0h4c1.1,0,2.9,0,4,0h4c1.1,0,2.9,0,4,0h4c1.1,0,2,0.9,2,2V190z"/>
		</g>
		<g>
			<path fill="#FFFFFF" d="M54,104c1.1,0,2-0.9,2-2v-4c0-1.1-0.9-2-2-2h-4c-1.1,0-2,0.9-2,2v4c0,1.1,0.9,2,2,2H54z"/>
		</g>
		<g>
			<path fill="#FFFFFF" d="M54,136c1.1,0,2-0.9,2-2v-4c0-1.1-0.9-2-2-2h-4c-1.1,0-2,0.9-2,2v4c0,1.1,0.9,2,2,2H54z"/>
		</g>
		<g>
			<path fill="#FFFFFF" d="M58,112c-1.1,0-2.9,0-4,0h-4c-1.1,0-2,0.9-2,2v4c0,1.1,0.9,2,2,2h4c1.1,0,2.9,0,4,0h4c1.1,0,2-0.9,2-2v-4
				c0-1.1-0.9-2-2-2H58z"/>
		</g>
		<g>
			<path fill="#FFFFFF" d="M72,42c0-1.1-0.9-2-2-2h-4c-1.1,0-2,0.9-2,2v12c0,1.1,0.9,2,2,2h4c1.1,0,2-0.9,2-2V42z"/>
		</g>
		<g>
			<path fill="#FFFFFF" d="M64,126c0,1.1,0.9,2,2,2h4c1.1,0,2-0.9,2-2v-4c0-1.1-0.9-2-2-2h-4c-1.1,0-2,0.9-2,2V126z"/>
		</g>
		<g>
			<path fill="#FFFFFF" d="M66,136c-1.1,0-2,0.9-2,2v12c0,1.1,0.9,2,2,2h4c1.1,0,2-0.9,2-2v-12c0-1.1-0.9-2-2-2H66z"/>
		</g>
		<g>
			<path fill="#FFFFFF" d="M72,118c0,1.1,0.9,2,2,2h4c1.1,0,2-0.9,2-2v-4c0-1.1-0.9-2-2-2h-4c-1.1,0-2,0.9-2,2V118z"/>
		</g>
		<g>
			<path fill="#FFFFFF" d="M80,54c0,1.1,0.9,2,2,2h4c1.1,0,2-0.9,2-2V34c0-1.1-0.9-2-2-2h-4c-1.1,0-2,0.9-2,2V54z"/>
		</g>
		<g>
			<path fill="#FFFFFF" d="M80,110c0,1.1,0.9,2,2,2h4c1.1,0,2-0.9,2-2v-4c0-1.1-0.9-2-2-2h-4c-1.1,0-2,0.9-2,2V110z"/>
		</g>
		<g>
			<path fill="#FFFFFF" d="M86,200c1.1,0,2-0.9,2-2v-4c0-1.1-0.9-2-2-2h-4c-1.1,0-2,0.9-2,2v4c0,1.1,0.9,2,2,2H86z"/>
		</g>
		<g>
			<path fill="#FFFFFF" d="M102,16c1.1,0,2-0.9,2-2v-4c0-1.1-0.9-2-2-2h-4c-1.1,0-2.9,0-4,0h-4c-1.1,0-2,0.9-2,2v4c0,1.1-0.9,2-2,2
				h-4c-1.1,0-2-0.9-2-2V2c0-1.1-0.9-2-2-2h-4c-1.1,0-2,0.9-2,2v4c0,1.1-0.9,2-2,2h-4c-1.1,0-2,0.9-2,2v4c0,1.1,0.9,2,2,2h4
				c1.1,0,2,0.9,2,2v4c0,1.1-0.9,2-2,2h-4c-1.1,0-2,0.9-2,2v4c0,1.1,0.9,2,2,2h4c1.1,0,2.9,0,4,0h4c1.1,0,2-0.9,2-2v-4
				c0-1.1,0.9-2,2-2h4c1.1,0,2,0.9,2,2v4c0,1.1,0.9,2,2,2h4c1.1,0,2-0.9,2-2V18c0-1.1,0.9-2,2-2H102z"/>
		</g>
		<g>
			<path fill="#FFFFFF" d="M96,38c0,1.1,0.9,2,2,2h4c1.1,0,2-0.9,2-2v-4c0-1.1-0.9-2-2-2h-4c-1.1,0-2,0.9-2,2V38z"/>
		</g>
		<g>
			<path fill="#FFFFFF" d="M102,88c1.1,0,2.9,0,4,0h4c1.1,0,2,0.9,2,2v4c0,1.1,0.9,2,2,2h4c1.1,0,2-0.9,2-2v-4c0-1.1,0.9-2,2-2h4
				c1.1,0,2-0.9,2-2v-4c0-1.1-0.9-2-2-2h-4c-1.1,0-2.9,0-4,0h-4c-1.1,0-2-0.9-2-2v-4c0-1.1,0.9-2,2-2h4c1.1,0,2-0.9,2-2v-4
				c0-1.1-0.9-2-2-2h-4c-1.1,0-2.9,0-4,0h-4c-1.1,0-2-0.9-2-2V50c0-1.1-0.9-2-2-2h-4c-1.1,0-2,0.9-2,2v20c0,1.1,0.9,2,2,2h4
				c1.1,0,2,0.9,2,2v4c0,1.1-0.9,2-2,2h-4c-1.1,0-2.9,0-4,0h-4c-1.1,0-2,0.9-2,2v4c0,1.1-0.9,2-2,2h-4c-1.1,0-2-0.9-2-2V74
				c0-1.1,0.9-2,2-2h4c1.1,0,2-0.9,2-2v-4c0-1.1-0.9-2-2-2h-4c-1.1,0-2.9,0-4,0h-4c-1.1,0-2.9,0-4,0h-4c-1.1,0-2.9,0-4,0h-4
				c-1.1,0-2.9,0-4,0h-4c-1.1,0-2,0.9-2,2v4c0,1.1,0.9,2,2,2h4c1.1,0,2.9,0,4,0h4c1.1,0,2.9,0,4,0h4c1.1,0,2,0.9,2,2v4
				c0,1.1-0.9,2-2,2h-4c-1.1,0-2,0.9-2,2v4c0,1.1,0.9,2,2,2h4c1.1,0,2,0.9,2,2v4c0,1.1-0.9,2-2,2h-4c-1.1,0-2,0.9-2,2v12
				c0,1.1,0.9,2,2,2h4c1.1,0,2-0.9,2-2v-4c0-1.1,0.9-2,2-2h4c1.1,0,2-0.9,2-2v-4c0-1.1,0.9-2,2-2h4c1.1,0,2,0.9,2,2v4
				c0,1.1,0.9,2,2,2h4c1.1,0,2-0.9,2-2V90c0-1.1,0.9-2,2-2H102z"/>
		</g>
		<g>
			<path fill="#FFFFFF" d="M102,152c1.1,0,2-0.9,2-2v-4c0-1.1-0.9-2-2-2h-4c-1.1,0-2.9,0-4,0h-4c-1.1,0-2-0.9-2-2v-4
				c0-1.1-0.9-2-2-2h-4c-1.1,0-2,0.9-2,2v12c0,1.1-0.9,2-2,2h-4c-1.1,0-2,0.9-2,2v4c0,1.1-0.9,2-2,2h-4c-1.1,0-2,0.9-2,2v36
				c0,1.1,0.9,2,2,2h4c1.1,0,2-0.9,2-2v-4c0-1.1,0.9-2,2-2h4c1.1,0,2-0.9,2-2v-4c0-1.1,0.9-2,2-2h4c1.1,0,2-0.9,2-2v-4
				c0-1.1-0.9-2-2-2h-4c-1.1,0-2.9,0-4,0h-4c-1.1,0-2-0.9-2-2v-4c0-1.1,0.9-2,2-2h4c1.1,0,2.9,0,4,0h4c1.1,0,2.9,0,4,0h4
				c1.1,0,2-0.9,2-2v-12c0-1.1,0.9-2,2-2H102z"/>
		</g>
		<g>
			<path fill="#FFFFFF" d="M112,54c0,1.1,0.9,2,2,2h4c1.1,0,2-0.9,2-2v-4c0-1.1-0.9-2-2-2h-4c-1.1,0-2,0.9-2,2V54z"/>
		</g>
		<g>
			<path fill="#FFFFFF" d="M114,128c-1.1,0-2,0.9-2,2v4c0,1.1,0.9,2,2,2h4c1.1,0,2-0.9,2-2v-4c0-1.1-0.9-2-2-2H114z"/>
		</g>
		<g>
			<path fill="#FFFFFF" d="M118,200c1.1,0,2-0.9,2-2v-4c0-1.1-0.9-2-2-2h-4c-1.1,0-2,0.9-2,2v4c0,1.1,0.9,2,2,2H118z"/>
		</g>
		<g>
			<path fill="#FFFFFF" d="M126,16c1.1,0,2.9,0,4,0h4c1.1,0,2-0.9,2-2V2c0-1.1-0.9-2-2-2h-4c-1.1,0-2,0.9-2,2v4c0,1.1-0.9,2-2,2h-4
				c-1.1,0-2-0.9-2-2V2c0-1.1-0.9-2-2-2h-4c-1.1,0-2,0.9-2,2v20c0,1.1-0.9,2-2,2h-4c-1.1,0-2,0.9-2,2v4c0,1.1,0.9,2,2,2h4
				c1.1,0,2,0.9,2,2v4c0,1.1,0.9,2,2,2h4c1.1,0,2-0.9,2-2V18c0-1.1,0.9-2,2-2H126z"/>
		</g>
		<g>
			<path fill="#FFFFFF" d="M122,40c-1.1,0-2,0.9-2,2v4c0,1.1,0.9,2,2,2h4c1.1,0,2-0.9,2-2v-4c0-1.1-0.9-2-2-2H122z"/>
		</g>
		<g>
			<path fill="#FFFFFF" d="M122,96c-1.1,0-2,0.9-2,2v4c0,1.1,0.9,2,2,2h4c1.1,0,2-0.9,2-2v-4c0-1.1-0.9-2-2-2H122z"/>
		</g>
		<g>
			<path fill="#FFFFFF" d="M122,176c-1.1,0-2-0.9-2-2v-4c0-1.1-0.9-2-2-2h-4c-1.1,0-2.9,0-4,0h-4c-1.1,0-2.9,0-4,0h-4
				c-1.1,0-2,0.9-2,2v4c0,1.1,0.9,2,2,2h4c1.1,0,2,0.9,2,2v4c0,1.1-0.9,2-2,2h-4c-1.1,0-2,0.9-2,2v12c0,1.1,0.9,2,2,2h4
				c1.1,0,2-0.9,2-2v-4c0-1.1,0.9-2,2-2h4c1.1,0,2-0.9,2-2v-4c0-1.1,0.9-2,2-2h4c1.1,0,2.9,0,4,0h4c1.1,0,2,0.9,2,2v4
				c0,1.1,0.9,2,2,2h4c1.1,0,2-0.9,2-2v-12c0-1.1-0.9-2-2-2h-4c-1.1,0-2.9,0-4,0H122z"/>
		</g>
		<g>
			<path fill="#FFFFFF" d="M136,34c0-1.1-0.9-2-2-2h-4c-1.1,0-2,0.9-2,2v4c0,1.1,0.9,2,2,2h4c1.1,0,2-0.9,2-2V34z"/>
		</g>
		<g>
			<path fill="#FFFFFF" d="M130,48c-1.1,0-2,0.9-2,2v12c0,1.1,0.9,2,2,2h4c1.1,0,2-0.9,2-2V50c0-1.1-0.9-2-2-2H130z"/>
		</g>
		<g>
			<path fill="#FFFFFF" d="M136,74c0-1.1-0.9-2-2-2h-4c-1.1,0-2,0.9-2,2v4c0,1.1,0.9,2,2,2h4c1.1,0,2-0.9,2-2V74z"/>
		</g>
		<g>
			<path fill="#FFFFFF" d="M144,66c0-1.1-0.9-2-2-2h-4c-1.1,0-2,0.9-2,2v4c0,1.1,0.9,2,2,2h4c1.1,0,2-0.9,2-2V66z"/>
		</g>
		<g>
			<path fill="#FFFFFF" d="M142,88c1.1,0,2,0.9,2,2v12c0,1.1,0.9,2,2,2h4c1.1,0,2,0.9,2,2v12c0,1.1,0.9,2,2,2h4c1.1,0,2-0.9,2-2v-12
				c0-1.1,0.9-2,2-2h4c1.1,0,2-0.9,2-2v-4c0-1.1-0.9-2-2-2h-4c-1.1,0-2.9,0-4,0h-4c-1.1,0-2-0.9-2-2V82c0-1.1-0.9-2-2-2h-4
				c-1.1,0-2.9,0-4,0h-4c-1.1,0-2,0.9-2,2v4c0,1.1,0.9,2,2,2H142z"/>
		</g>
		<g>
			<path fill="#FFFFFF" d="M144,150c0,1.1,0.9,2,2,2h4c1.1,0,2-0.9,2-2v-4c0-1.1-0.9-2-2-2h-4c-1.1,0-2,0.9-2,2V150z"/>
		</g>
		<g>
			<path fill="#FFFFFF" d="M160,66c0-1.1-0.9-2-2-2h-4c-1.1,0-2,0.9-2,2v12c0,1.1,0.9,2,2,2h4c1.1,0,2-0.9,2-2V66z"/>
		</g>
		<g>
			<path fill="#FFFFFF" d="M166,88c1.1,0,2.9,0,4,0h4c1.1,0,2-0.9,2-2v-4c0-1.1-0.9-2-2-2h-4c-1.1,0-2.9,0-4,0h-4c-1.1,0-2,0.9-2,2
				v4c0,1.1,0.9,2,2,2H166z"/>
		</g>
		<g>
			<path fill="#FFFFFF" d="M170,16c-1.1,0-2.9,0-4,0h-4c-1.1,0-2,0.9-2,2v20c0,1.1,0.9,2,2,2h4c1.1,0,2.9,0,4,0h4c1.1,0,2.9,0,4,0h4
				c1.1,0,2-0.9,2-2V18c0-1.1-0.9-2-2-2h-4c-1.1,0-2.9,0-4,0H170z"/>
		</g>
		<g>
			<path fill="#FFFFFF" d="M176,66c0-1.1-0.9-2-2-2h-4c-1.1,0-2,0.9-2,2v4c0,1.1,0.9,2,2,2h4c1.1,0,2-0.9,2-2V66z"/>
		</g>
		<g>
			<path fill="#FFFFFF" d="M168,126c0,1.1,0.9,2,2,2h4c1.1,0,2-0.9,2-2v-20c0-1.1-0.9-2-2-2h-4c-1.1,0-2,0.9-2,2V126z"/>
		</g>
		<g>
			<path fill="#FFFFFF" d="M170,136c-1.1,0-2-0.9-2-2v-4c0-1.1-0.9-2-2-2h-4c-1.1,0-2.9,0-4,0h-4c-1.1,0-2.9,0-4,0h-4
				c-1.1,0-2.9,0-4,0h-4c-1.1,0-2-0.9-2-2v-4c0-1.1,0.9-2,2-2h4c1.1,0,2-0.9,2-2v-4c0-1.1-0.9-2-2-2h-4c-1.1,0-2-0.9-2-2v-4
				c0-1.1-0.9-2-2-2h-4c-1.1,0-2,0.9-2,2v4c0,1.1-0.9,2-2,2h-4c-1.1,0-2.9,0-4,0h-4c-1.1,0-2-0.9-2-2v-4c0-1.1-0.9-2-2-2h-4
				c-1.1,0-2.9,0-4,0h-4c-1.1,0-2,0.9-2,2v4c0,1.1,0.9,2,2,2h4c1.1,0,2,0.9,2,2v4c0,1.1-0.9,2-2,2h-4c-1.1,0-2,0.9-2,2v12
				c0,1.1,0.9,2,2,2h4c1.1,0,2-0.9,2-2v-4c0-1.1,0.9-2,2-2h4c1.1,0,2-0.9,2-2v-4c0-1.1,0.9-2,2-2h4c1.1,0,2.9,0,4,0h4
				c1.1,0,2,0.9,2,2v12c0,1.1-0.9,2-2,2h-4c-1.1,0-2,0.9-2,2v4c0,1.1,0.9,2,2,2h4c1.1,0,2,0.9,2,2v4c0,1.1-0.9,2-2,2h-4
				c-1.1,0-2.9,0-4,0h-4c-1.1,0-2,0.9-2,2v4c0,1.1,0.9,2,2,2h4c1.1,0,2,0.9,2,2v4c0,1.1,0.9,2,2,2h4c1.1,0,2.9,0,4,0h4
				c1.1,0,2,0.9,2,2v4c0,1.1,0.9,2,2,2h4c1.1,0,2.9,0,4,0h4c1.1,0,2,0.9,2,2v4c0,1.1-0.9,2-2,2h-4c-1.1,0-2,0.9-2,2v4
				c0,1.1,0.9,2,2,2h4c1.1,0,2,0.9,2,2v4c0,1.1,0.9,2,2,2h4c1.1,0,2.9,0,4,0h4c1.1,0,2.9,0,4,0h4c1.1,0,2.9,0,4,0h4c1.1,0,2.9,0,4,0
				h4c1.1,0,2.9,0,4,0h4c1.1,0,2-0.9,2-2v-52c0-1.1-0.9-2-2-2h-4c-1.1,0-2.9,0-4,0h-4c-1.1,0-2-0.9-2-2v-12c0-1.1-0.9-2-2-2h-4
				c-1.1,0-2,0.9-2,2v4c0,1.1-0.9,2-2,2H170z M154,160c-1.1,0-2.9,0-4,0h-4c-1.1,0-2.9,0-4,0h-4c-1.1,0-2-0.9-2-2v-20
				c0-1.1,0.9-2,2-2h4c1.1,0,2.9,0,4,0h4c1.1,0,2.9,0,4,0h4c1.1,0,2,0.9,2,2v20c0,1.1-0.9,2-2,2H154z M192,190c0,1.1-0.9,2-2,2h-4
				c-1.1,0-2.9,0-4,0h-4c-1.1,0-2-0.9-2-2v-4c0-1.1-0.9-2-2-2h-4c-1.1,0-2.9,0-4,0h-4c-1.1,0-2-0.9-2-2v-4c0-1.1,0.9-2,2-2h4
				c1.1,0,2-0.9,2-2v-4c0-1.1,0.9-2,2-2h4c1.1,0,2,0.9,2,2v12c0,1.1,0.9,2,2,2h4c1.1,0,2-0.9,2-2v-4c0-1.1,0.9-2,2-2h4
				c1.1,0,2,0.9,2,2V190z M182,152c1.1,0,2.9,0,4,0h4c1.1,0,2,0.9,2,2v4c0,1.1-0.9,2-2,2h-4c-1.1,0-2.9,0-4,0h-4c-1.1,0-2-0.9-2-2
				v-4c0-1.1,0.9-2,2-2H182z"/>
		</g>
		<g>
			<path fill="#FFFFFF" d="M192,66c0-1.1-0.9-2-2-2h-4c-1.1,0-2,0.9-2,2v20c0,1.1,0.9,2,2,2h4c1.1,0,2,0.9,2,2v4c0,1.1-0.9,2-2,2h-4
				c-1.1,0-2.9,0-4,0h-4c-1.1,0-2,0.9-2,2v4c0,1.1,0.9,2,2,2h4c1.1,0,2,0.9,2,2v12c0,1.1,0.9,2,2,2h4c1.1,0,2,0.9,2,2v4
				c0,1.1,0.9,2,2,2h4c1.1,0,2-0.9,2-2v-12c0-1.1-0.9-2-2-2h-4c-1.1,0-2-0.9-2-2v-4c0-1.1,0.9-2,2-2h4c1.1,0,2-0.9,2-2V82
				c0-1.1-0.9-2-2-2h-4c-1.1,0-2-0.9-2-2V66z"/>
		</g>
		<g>
			<path fill="#FFFFFF" d="M194,0c-1.1,0-2.9,0-4,0h-4c-1.1,0-2.9,0-4,0h-4c-1.1,0-2.9,0-4,0h-4c-1.1,0-2.9,0-4,0h-4
				c-1.1,0-2.9,0-4,0h-4c-1.1,0-2.9,0-4,0h-4c-1.1,0-2,0.9-2,2v52c0,1.1,0.9,2,2,2h4c1.1,0,2.9,0,4,0h4c1.1,0,2.9,0,4,0h4
				c1.1,0,2.9,0,4,0h4c1.1,0,2.9,0,4,0h4c1.1,0,2.9,0,4,0h4c1.1,0,2.9,0,4,0h4c1.1,0,2-0.9,2-2V2c0-1.1-0.9-2-2-2H194z M192,46
				c0,1.1-0.9,2-2,2h-4c-1.1,0-2.9,0-4,0h-4c-1.1,0-2.9,0-4,0h-4c-1.1,0-2.9,0-4,0h-4c-1.1,0-2.9,0-4,0h-4c-1.1,0-2-0.9-2-2V10
				c0-1.1,0.9-2,2-2h4c1.1,0,2.9,0,4,0h4c1.1,0,2.9,0,4,0h4c1.1,0,2.9,0,4,0h4c1.1,0,2.9,0,4,0h4c1.1,0,2,0.9,2,2V46z"/>
		</g>
	</g>
</g>
</svg>
