<?xml version="1.0" encoding="utf-8"?>
<!-- Generator: Adobe Illustrator 17.1.0, SVG Export Plug-In . SVG Version: 6.00 Build 0)  -->
<!DOCTYPE svg PUBLIC "-//W3C//DTD SVG 1.1//EN" "http://www.w3.org/Graphics/SVG/1.1/DTD/svg11.dtd">
<svg version="1.1" id="Layer_1" xmlns="http://www.w3.org/2000/svg" xmlns:xlink="http://www.w3.org/1999/xlink" x="0px" y="0px"
	 viewBox="66.1 57.9 640.5 1017.4" enable-background="new 66.1 57.9 640.5 1017.4" xml:space="preserve">
<g>
	<path opacity="0.3" enable-background="new    " d="M156.1,880.6c-46.9,44.8-46.9,117.3-2.1,162.1s117.3,42.7,162.1-2.1
		l358.4-358.4l0,0l0,0c23.5-21.3,32-51.2,32-78.9c0-2.1,0-2.1,0-2.1c0-2.1,0-2.1,0-2.1c0-27.7-10.7-57.6-32-78.9l0,0l0,0
		L318.3,161.6c-44.8-46.9-117.3-46.9-162.1-2.1s-44.8,117.3,0,162.1l281.6,281.6L156.1,880.6z"/>
	<path fill="#FFFFFF" d="M101.5,814.4c-46.9,44.8-46.9,117.3-2.1,162.1c44.8,44.8,117.3,42.7,162.1-2.1L619.9,616l0,0l0,0
		c23.5-21.3,32-51.2,32-78.9c0-2.1,0-2.1,0-2.1c0-2.1,0-2.1,0-2.1c0-27.7-10.7-57.6-32-78.9l0,0l0,0L261.5,93.4
		c-44.8-46.9-117.3-46.9-162.1-2.1c-44.8,44.8-42.7,117.3,2.1,162.1L383.1,535L101.5,814.4z"/>
</g>
</svg>
