<?xml version="1.0" encoding="utf-8"?>
<!-- Generator: Adobe Illustrator 17.1.0, SVG Export Plug-In . SVG Version: 6.00 Build 0)  -->
<!DOCTYPE svg PUBLIC "-//W3C//DTD SVG 1.1//EN" "http://www.w3.org/Graphics/SVG/1.1/DTD/svg11.dtd">
<svg version="1.1" id="Layer_1" xmlns="http://www.w3.org/2000/svg" xmlns:xlink="http://www.w3.org/1999/xlink" x="0px" y="0px"
	 viewBox="0 0 353.4 419.1" enable-background="new 0 0 353.4 419.1" xml:space="preserve">
<g opacity="0.1">
	<path d="M180.2,419.1c-25.5,0-49.3-10-67.1-28.1c-17.6-18-27.3-42-27.3-67.6c0-25.6,9.7-49.6,27.3-67.6
		c17.7-18.1,41.6-28.1,67.1-28.1c52.8,0,95.7,42.9,95.7,95.7S233,419.1,180.2,419.1z M180.2,239.7c-22.3,0-43,8.7-58.5,24.5
		c-15.4,15.7-23.9,36.8-23.9,59.2s8.5,43.5,23.9,59.2c15.5,15.8,36.2,24.5,58.5,24.5c46.1,0,83.7-37.5,83.7-83.7
		S226.4,239.7,180.2,239.7z"/>
</g>
<g opacity="0.1">
	<path d="M87.3,229.4c-22.4,0-43.3-8.8-58.9-24.6c-15.5-15.8-24-36.9-24-59.4s8.5-43.6,24-59.4C44.1,70.1,65,61.4,87.3,61.4
		c46.3,0,84,37.7,84,84S133.7,229.4,87.3,229.4z M87.3,73.4c-19.1,0-37,7.5-50.3,21c-13.3,13.5-20.6,31.6-20.6,51s7.3,37.4,20.6,51
		c13.3,13.6,31.2,21,50.3,21c39.7,0,72-32.3,72-72C159.3,105.7,127,73.4,87.3,73.4z"/>
</g>
<g>
	<rect x="143.2" y="56.8" fill="#FFFFFF" width="149.7" height="12"/>
</g>
<g>
	<path fill="#FFFFFF" d="M175.7,413.2c-25.5,0-49.3-10-67.1-28.1c-17.6-18-27.3-42-27.3-67.6c0-25.6,9.7-49.6,27.3-67.6
		c17.7-18.1,41.6-28.1,67.1-28.1c52.8,0,95.7,42.9,95.7,95.7C271.4,370.3,228.5,413.2,175.7,413.2z M175.7,233.9
		c-22.3,0-43,8.7-58.5,24.5c-15.4,15.7-23.9,36.8-23.9,59.2s8.5,43.5,23.9,59.2c15.5,15.8,36.2,24.5,58.5,24.5
		c46.1,0,83.7-37.5,83.7-83.7C259.4,271.4,221.9,233.9,175.7,233.9z"/>
</g>
<g>
	<path fill="#FFFFFF" d="M82.9,223.6c-22.4,0-43.3-8.8-58.9-24.6C8.5,183.1,0,162,0,139.6S8.5,96,24,80.2
		c15.6-15.9,36.5-24.6,58.9-24.6c46.3,0,84,37.7,84,84S129.2,223.6,82.9,223.6z M82.9,67.6c-19.1,0-37,7.5-50.3,21
		c-13.3,13.5-20.6,31.6-20.6,51s7.3,37.4,20.6,51c13.3,13.6,31.2,21,50.3,21c39.7,0,72-32.3,72-72C154.9,99.9,122.6,67.6,82.9,67.6z
		"/>
</g>
<g opacity="0.1">
	<g>
		<path d="M302.3,128h-13c0-16.3-4.9-29-14.6-37.9c-19.8-18.1-53.3-15.3-53.6-15.3l-1.2-12.9c1.6-0.1,39.5-3.3,63.5,18.6
			C296,91.9,302.3,107.9,302.3,128z"/>
	</g>
</g>
<g>
	<g>
		<path fill="#FFFFFF" d="M299.4,122.3h-13c0-16.3-4.9-29-14.6-37.9c-19.8-18.1-53.3-15.3-53.6-15.3l-1.2-12.9
			c1.6-0.1,39.5-3.3,63.5,18.6C293,86.2,299.4,102.2,299.4,122.3z"/>
	</g>
</g>
<g opacity="0.1">
	<g>
		<path d="M298.9,121.3h-20c0-16.6,1-27.6-3.7-33.4l10.1-8.2C294.4,91,298.9,103.2,298.9,121.3z"/>
	</g>
</g>
<g>
	<g>
		<path fill="#FFFFFF" d="M299.9,122.3h-20c0-15.7-1.6-24.3-5.8-30.1c-0.4-0.6-0.3-1.4,0.3-1.8l13.5-10.9c0.6-0.5,1.5-0.4,1.9,0.2
			C298.1,90.8,299.9,104.8,299.9,122.3z"/>
	</g>
</g>
<g opacity="0.1">
	<g>
		<path d="M85.7,346.6c-5.3-17.5,1-29.7,1.1-30.3l16.4,4.9l-9.7-2.4l6.7,2.4c-5.1,0.6-6.6,10.6-1.9,25.4H85.7z"/>
	</g>
</g>
<g>
	<g>
		<path fill="#FFFFFF" d="M80.9,343.1c-0.2-16.4,0.8-28.2,0.9-28.8l21.4,4.9l-9.7-2.4l7.7,2.4c0,0.1-0.5,9.9-0.3,23.5
			c0,0.8-0.6,1.5-1.5,1.5l-17,0.3C81.6,344.6,80.9,343.9,80.9,343.1z"/>
	</g>
</g>
<g opacity="0.1">
	<g>
		<rect x="283" y="56.8" width="29.4" height="12"/>
	</g>
</g>
<g>
	<g>
		<path fill="#FFFFFF" d="M313.5,72.8h-28c-0.7,0-1.3-0.6-1.3-1.3V54c0-0.7,0.6-1.3,1.3-1.3h28V72.8z"/>
	</g>
</g>
<g>
	<g>
		<g opacity="0.2">
			<g>
				<g>
					<path d="M217.4,8.3H76.7c-11.1,0-20.1,9.1-20.1,20.1V310c0,11.1,9.1,20.1,20.1,20.1h140.8c11.1,0,20.1-9.1,20.1-20.1V28.4
						C237.5,17.4,228.5,8.3,217.4,8.3L217.4,8.3z"/>
				</g>
			</g>
		</g>
		<g>
			<g>
				<g>
					<path fill="#3E4E5A" d="M217.4,0H76.7C65.6,0,56.5,9.1,56.5,20.1v281.5c0,11.1,9.1,20.1,20.1,20.1h140.8
						c11.1,0,20.1-9.1,20.1-20.1V20.1C237.5,9.1,228.5,0,217.4,0L217.4,0z"/>
				</g>
			</g>
			<g>
				<g>
					<path fill="#25B8DC" d="M79.2,36.1h135.7c2.4,0,4.3,1.9,4.3,4.3v223c0,2.4-1.9,4.3-4.3,4.3H79.2c-2.4,0-4.3-1.9-4.3-4.3v-223
						C74.9,38,76.8,36.1,79.2,36.1z"/>
				</g>
			</g>
		</g>
		<g>
			<g>
				<path fill="#34414B" d="M162.2,18c0,2.1-1.7,3.8-3.8,3.8h-22.8c-2.1,0-3.8-1.7-3.8-3.8l0,0c0-2.1,1.7-3.8,3.8-3.8h22.8
					C160.5,14.2,162.2,15.9,162.2,18L162.2,18z"/>
			</g>
		</g>
	</g>
	<g>
		<g>
			<path fill="#34414B" d="M162.1,294.7c0,8.3-6.7,15.1-15.1,15.1c-8.3,0-15.1-6.7-15.1-15.1c0-8.3,6.7-15.1,15.1-15.1
				C155.4,279.7,162.1,286.4,162.1,294.7z"/>
		</g>
	</g>
</g>
<g opacity="0.1" enable-background="new    ">
	<g>
		<path fill="#FFFFFF" d="M217.4,0H76.7C65.6,0,56.5,9.1,56.5,20.1v17.6l181,179.8V20.1C237.5,9.1,228.5,0,217.4,0L217.4,0z"/>
	</g>
</g>
<g opacity="0.1">
	<g>
		<circle cx="326.5" cy="65.1" r="26.9"/>
	</g>
</g>
<g>
	<g>
		<circle fill="#FFFFFF" cx="326.5" cy="62.8" r="25.6"/>
	</g>
</g>
<g>
	<g>
		<circle fill="#E4EAF0" cx="326.5" cy="62.8" r="13"/>
	</g>
</g>
<g opacity="0.1">
	<g>
		<circle cx="292.9" cy="126.3" r="26.9"/>
	</g>
</g>
<g>
	<g>
		<circle fill="#FFFFFF" cx="292.9" cy="125" r="25.6"/>
	</g>
</g>
<g>
	<g>
		<circle fill="#E4EAF0" cx="292.9" cy="125" r="13"/>
	</g>
</g>
<g opacity="0.8">
	<circle fill="#FFFFFF" cx="102.5" cy="63.2" r="8.8"/>
</g>
<g>
	<circle fill="#FFFFFF" cx="90" cy="49.6" r="2.9"/>
</g>
</svg>
